M48
;Layer_Color=9474304
;FILE_FORMAT=4:4
METRIC,LZ
;TYPE=PLATED
T01F00S00C0.3302
T02F00S00C0.7000
T03F00S00C1.0201
T04F00S00C1.1000
%
T01
X0076073Y001905
X0064008Y0039497
X0061214Y003683
X0061849Y0046101
X0051054Y0046228
X0050165Y0053086
X0039878Y0039497
X0040259Y0034798
X0023876Y0053086
T02
X0035533Y0048641
X0040413
T03
X0023114Y0011049
Y0013589
X0080518Y0019431
Y0021971
X0032004Y0027432
X0029464
X0026924
X0024384
X0014478Y0034163
Y0036703
Y0039243
Y0041783
T04
X0016383Y0011049
Y0013589
X0037084Y0013462
Y0010922
X0079756Y002921
Y003175
Y003429
Y003683
Y003937
Y004191
X0037084Y0016002
X0016383Y0016129
M30
