G04*
G04 #@! TF.GenerationSoftware,Altium Limited,Altium Designer,25.3.3 (18)*
G04*
G04 Layer_Color=2752767*
%FSLAX44Y44*%
%MOMM*%
G71*
G04*
G04 #@! TF.SameCoordinates,3D7421BB-9855-40A4-9605-FE8D39355D9D*
G04*
G04*
G04 #@! TF.FilePolarity,Positive*
G04*
G01*
G75*
%ADD10C,0.1270*%
%ADD38C,0.1693*%
D10*
X314960Y269240D02*
Y279400D01*
X325120D01*
Y269240D01*
X314960D01*
X289560D02*
Y279400D01*
X299720D01*
Y269240D01*
X289560D01*
X264160D02*
Y279400D01*
X274320D01*
Y269240D01*
X264160D01*
X238760D02*
Y279400D01*
X248920D01*
Y269240D01*
X238760D01*
X139700Y412750D02*
Y422910D01*
X149860D01*
Y412750D01*
X139700D01*
Y387350D02*
Y397510D01*
X149860D01*
Y387350D01*
X139700D01*
Y361950D02*
Y372110D01*
X149860D01*
Y361950D01*
X139700D01*
Y336550D02*
Y346710D01*
X149860D01*
Y336550D01*
X139700D01*
X226060Y130810D02*
Y140970D01*
X236220D01*
Y130810D01*
X226060D01*
Y105410D02*
Y115570D01*
X236220D01*
Y105410D01*
X226060D01*
X800100Y214630D02*
Y224790D01*
X810260D01*
Y214630D01*
X800100D01*
Y189230D02*
Y199390D01*
X810260D01*
Y189230D01*
X800100D01*
X404130Y481330D02*
X399050Y491490D01*
X409210D01*
X404130Y481330D01*
X355330D02*
X350250Y491490D01*
X360410D01*
X355330Y481330D01*
X640080Y389890D02*
X642620Y392430D01*
X645160D01*
X642620Y394970D01*
X645160Y397510D01*
X642620D01*
X640080Y400050D01*
X637540Y397510D01*
X635000D01*
X637540Y394970D01*
X635000Y392430D01*
X637540D01*
X640080Y389890D01*
X612140Y363220D02*
X614680Y365760D01*
X617220D01*
X614680Y368300D01*
X617220Y370840D01*
X614680D01*
X612140Y373380D01*
X609600Y370840D01*
X607060D01*
X609600Y368300D01*
X607060Y365760D01*
X609600D01*
X612140Y363220D01*
X760730Y185420D02*
X763270Y187960D01*
X765810D01*
X763270Y190500D01*
X765810Y193040D01*
X763270D01*
X760730Y195580D01*
X758190Y193040D01*
X755650D01*
X758190Y190500D01*
X755650Y187960D01*
X758190D01*
X760730Y185420D01*
X398780Y389890D02*
X401320Y392430D01*
X403860D01*
X401320Y394970D01*
X403860Y397510D01*
X401320D01*
X398780Y400050D01*
X396240Y397510D01*
X393700D01*
X396240Y394970D01*
X393700Y392430D01*
X396240D01*
X398780Y389890D01*
X402590Y342900D02*
X405130Y345440D01*
X407670D01*
X405130Y347980D01*
X407670Y350520D01*
X405130D01*
X402590Y353060D01*
X400050Y350520D01*
X397510D01*
X400050Y347980D01*
X397510Y345440D01*
X400050D01*
X402590Y342900D01*
X618490Y455930D02*
X621030Y458470D01*
X623570D01*
X621030Y461010D01*
X623570Y463550D01*
X621030D01*
X618490Y466090D01*
X615950Y463550D01*
X613410D01*
X615950Y461010D01*
X613410Y458470D01*
X615950D01*
X618490Y455930D01*
X510540Y457200D02*
X513080Y459740D01*
X515620D01*
X513080Y462280D01*
X515620Y464820D01*
X513080D01*
X510540Y467360D01*
X508000Y464820D01*
X505460D01*
X508000Y462280D01*
X505460Y459740D01*
X508000D01*
X510540Y457200D01*
X501650Y525780D02*
X504190Y528320D01*
X506730D01*
X504190Y530860D01*
X506730Y533400D01*
X504190D01*
X501650Y535940D01*
X499110Y533400D01*
X496570D01*
X499110Y530860D01*
X496570Y528320D01*
X499110D01*
X501650Y525780D01*
X238760D02*
X241300Y528320D01*
X243840D01*
X241300Y530860D01*
X243840Y533400D01*
X241300D01*
X238760Y535940D01*
X236220Y533400D01*
X233680D01*
X236220Y530860D01*
X233680Y528320D01*
X236220D01*
X238760Y525780D01*
D38*
X375920Y109220D02*
G03*
X375920Y109220I-5080J0D01*
G01*
Y134620D02*
G03*
X375920Y134620I-5080J0D01*
G01*
Y160020D02*
G03*
X375920Y160020I-5080J0D01*
G01*
X168910Y161290D02*
G03*
X168910Y161290I-5080J0D01*
G01*
Y135890D02*
G03*
X168910Y135890I-5080J0D01*
G01*
Y110490D02*
G03*
X168910Y110490I-5080J0D01*
G01*
X802640Y292100D02*
G03*
X802640Y292100I-5080J0D01*
G01*
Y317500D02*
G03*
X802640Y317500I-5080J0D01*
G01*
Y342900D02*
G03*
X802640Y342900I-5080J0D01*
G01*
Y368300D02*
G03*
X802640Y368300I-5080J0D01*
G01*
Y393700D02*
G03*
X802640Y393700I-5080J0D01*
G01*
Y419100D02*
G03*
X802640Y419100I-5080J0D01*
G01*
M02*
