G04*
G04 #@! TF.GenerationSoftware,Altium Limited,Altium Designer,25.3.3 (18)*
G04*
G04 Layer_Color=255*
%FSLAX44Y44*%
%MOMM*%
G71*
G04*
G04 #@! TF.SameCoordinates,3D7421BB-9855-40A4-9605-FE8D39355D9D*
G04*
G04*
G04 #@! TF.FilePolarity,Positive*
G04*
G01*
G75*
%ADD16R,1.8034X1.1176*%
%ADD17R,1.1176X1.8034*%
%ADD18R,0.5080X1.6500*%
%ADD19R,1.6500X0.5080*%
%ADD32C,1.6200*%
%ADD33C,1.6500*%
%ADD34C,1.5240*%
%ADD35R,1.2000X1.2000*%
%ADD36C,1.2000*%
D16*
X654050Y216916D02*
D03*
Y186944D02*
D03*
X431800Y134620D02*
D03*
Y104648D02*
D03*
X728980Y190754D02*
D03*
Y220726D02*
D03*
X591820Y430784D02*
D03*
Y460756D02*
D03*
X480060Y500634D02*
D03*
Y530606D02*
D03*
X535940Y430784D02*
D03*
Y460756D02*
D03*
X271780Y530606D02*
D03*
Y500634D02*
D03*
X294640Y105410D02*
D03*
Y135382D02*
D03*
X581660Y218186D02*
D03*
Y188214D02*
D03*
D17*
X525526Y353060D02*
D03*
X495554D02*
D03*
X399796Y557530D02*
D03*
X369824D02*
D03*
D18*
X430530Y327150D02*
D03*
X422656D02*
D03*
X414528D02*
D03*
X406654D02*
D03*
X398526D02*
D03*
X390652D02*
D03*
X382524D02*
D03*
X374650D02*
D03*
Y412750D02*
D03*
X382524D02*
D03*
X390652D02*
D03*
X398526D02*
D03*
X406654D02*
D03*
X414528D02*
D03*
X422656D02*
D03*
X430530D02*
D03*
D19*
X445390Y398380D02*
D03*
Y390506D02*
D03*
Y382378D02*
D03*
Y374504D02*
D03*
Y366376D02*
D03*
Y358502D02*
D03*
Y350374D02*
D03*
Y342500D02*
D03*
X359790D02*
D03*
Y350374D02*
D03*
Y358502D02*
D03*
Y366376D02*
D03*
Y374504D02*
D03*
Y382378D02*
D03*
Y390506D02*
D03*
Y398380D02*
D03*
D32*
X320040Y274320D02*
D03*
X294640D02*
D03*
X269240D02*
D03*
X243840D02*
D03*
X144780Y417830D02*
D03*
Y392430D02*
D03*
Y367030D02*
D03*
Y341630D02*
D03*
X231140Y135890D02*
D03*
Y110490D02*
D03*
X805180Y219710D02*
D03*
Y194310D02*
D03*
D33*
X370840Y109220D02*
D03*
Y134620D02*
D03*
Y160020D02*
D03*
X163830Y161290D02*
D03*
Y135890D02*
D03*
Y110490D02*
D03*
D34*
X797560Y292100D02*
D03*
Y317500D02*
D03*
Y342900D02*
D03*
Y368300D02*
D03*
Y393700D02*
D03*
Y419100D02*
D03*
D35*
X404130Y486410D02*
D03*
D36*
X355330D02*
D03*
M02*
