G04*
G04 #@! TF.GenerationSoftware,Altium Limited,Altium Designer,25.3.3 (18)*
G04*
G04 Layer_Physical_Order=1*
G04 Layer_Color=255*
%FSLAX44Y44*%
%MOMM*%
G71*
G04*
G04 #@! TF.SameCoordinates,3D7421BB-9855-40A4-9605-FE8D39355D9D*
G04*
G04*
G04 #@! TF.FilePolarity,Positive*
G04*
G01*
G75*
%ADD15C,0.1524*%
%ADD16R,1.8034X1.1176*%
%ADD17R,1.1176X1.8034*%
%ADD18R,0.5080X1.6500*%
%ADD19R,1.6500X0.5080*%
%ADD31C,0.5080*%
%ADD32C,1.6200*%
%ADD33C,1.6500*%
%ADD34C,1.5240*%
%ADD35R,1.2000X1.2000*%
%ADD36C,1.2000*%
%ADD37C,0.6350*%
D15*
X115669Y292389D02*
G03*
X116222Y291228I1524J12D01*
G01*
X192819Y214630D02*
X513457D01*
X514350Y107950D02*
Y213737D01*
X116222Y291228D02*
X192819Y214630D01*
X513457D02*
X514350Y213737D01*
X366787Y109220D02*
X370840D01*
X362977Y105410D02*
X366787Y109220D01*
X294640Y105410D02*
X362977D01*
X294132Y135890D02*
X294640Y135382D01*
X231140Y135890D02*
X294132D01*
X163830D02*
X230505D01*
X243840Y228223D02*
Y274320D01*
X244733Y227330D02*
X356870D01*
X243840Y228223D02*
X244733Y227330D01*
X321913Y283813D02*
X361950Y323850D01*
X374650Y325628D02*
Y327150D01*
X372872Y323850D02*
X374650Y325628D01*
X361950Y323850D02*
X372872D01*
X320040Y274320D02*
X321913Y276193D01*
Y283813D01*
X294640Y274320D02*
Y300990D01*
X336150Y342500D02*
X359790D01*
X294640Y300990D02*
X336150Y342500D01*
X269240Y274320D02*
Y298450D01*
X319386Y348596D01*
X358012D01*
X356870Y227330D02*
X482600Y353060D01*
X358012Y348596D02*
X359790Y350374D01*
X370840Y134620D02*
X431800D01*
Y104648D02*
X511048D01*
X514350Y107950D01*
X115669Y292389D02*
Y389990D01*
X811530Y356870D02*
X817880Y363220D01*
X639600Y356870D02*
X811530D01*
X615870Y380600D02*
X639600Y356870D01*
X797560Y393700D02*
X811530D01*
X817880Y363220D02*
Y387350D01*
X811530Y393700D02*
X817880Y387350D01*
X115669Y389990D02*
X129512Y403832D01*
X240406D01*
X251954Y392284D01*
X358012D01*
X359790Y390506D01*
X773430Y394970D02*
X797560Y419100D01*
X640080Y394970D02*
X773430D01*
X612140Y368300D02*
X612144Y368296D01*
Y367034D02*
Y368296D01*
X598170Y353060D02*
X612144Y367034D01*
X525526Y353060D02*
X598170D01*
X447168Y380600D02*
X615870D01*
X453386Y388220D02*
X623970D01*
X641350Y370840D01*
X795020D01*
X451100Y390506D02*
X453386Y388220D01*
X445390Y390506D02*
X451100D01*
X795020Y370840D02*
X797560Y368300D01*
X445390Y382378D02*
X447168Y380600D01*
X461156Y374504D02*
X482600Y353060D01*
X445390Y374504D02*
X461156D01*
X482600Y353060D02*
X495554D01*
X578231Y218186D02*
X581660D01*
X495554Y300863D02*
X578231Y218186D01*
X495554Y300863D02*
Y353060D01*
X255680Y358502D02*
X359790D01*
X247152Y367030D02*
X255680Y358502D01*
X233680Y392430D02*
X259734Y366376D01*
X359790D01*
X144780Y392430D02*
X233680D01*
X144780Y367030D02*
X247152D01*
X412750Y410972D02*
X414528Y412750D01*
X412750Y403386D02*
Y410972D01*
X404334Y394970D02*
X412750Y403386D01*
X398780Y394970D02*
X404334D01*
X398780D02*
Y412496D01*
X398526Y412750D02*
X398780Y412496D01*
X398526Y343916D02*
X402590Y347980D01*
X398526Y327150D02*
Y343916D01*
Y327150D02*
X406654D01*
X654050Y216916D02*
X657860Y220726D01*
X728980D01*
X729996Y219710D02*
X805180D01*
X728980Y220726D02*
X729996Y219710D01*
X729234Y190500D02*
X760730D01*
X728980Y190754D02*
X729234Y190500D01*
X592074Y461010D02*
X618490D01*
X591820Y460756D02*
X592074Y461010D01*
X534416Y462280D02*
X535940Y460756D01*
X510540Y462280D02*
X534416D01*
X480314Y530860D02*
X501650D01*
X480060Y530606D02*
X480314Y530860D01*
X355330Y486410D02*
X374650Y467090D01*
Y412750D02*
Y467090D01*
X382524Y464804D02*
X404130Y486410D01*
X382524Y412750D02*
Y464804D01*
X418354Y500634D02*
X480060D01*
X404130Y486410D02*
X418354Y500634D01*
X355330Y486410D02*
Y553450D01*
X359410Y557530D02*
X369824D01*
X355330Y553450D02*
X359410Y557530D01*
X399796D02*
X404130Y553196D01*
Y486410D02*
Y553196D01*
X271780Y500634D02*
X341106D01*
X238760Y530860D02*
X271526D01*
X271780Y530606D01*
X341106Y500634D02*
X355330Y486410D01*
D16*
X654050Y216916D02*
D03*
Y186944D02*
D03*
X431800Y134620D02*
D03*
Y104648D02*
D03*
X728980Y190754D02*
D03*
Y220726D02*
D03*
X591820Y430784D02*
D03*
Y460756D02*
D03*
X480060Y500634D02*
D03*
Y530606D02*
D03*
X535940Y430784D02*
D03*
Y460756D02*
D03*
X271780Y530606D02*
D03*
Y500634D02*
D03*
X294640Y105410D02*
D03*
Y135382D02*
D03*
X581660Y218186D02*
D03*
Y188214D02*
D03*
D17*
X525526Y353060D02*
D03*
X495554D02*
D03*
X399796Y557530D02*
D03*
X369824D02*
D03*
D18*
X430530Y327150D02*
D03*
X422656D02*
D03*
X414528D02*
D03*
X406654D02*
D03*
X398526D02*
D03*
X390652D02*
D03*
X382524D02*
D03*
X374650D02*
D03*
Y412750D02*
D03*
X382524D02*
D03*
X390652D02*
D03*
X398526D02*
D03*
X406654D02*
D03*
X414528D02*
D03*
X422656D02*
D03*
X430530D02*
D03*
D19*
X445390Y398380D02*
D03*
Y390506D02*
D03*
Y382378D02*
D03*
Y374504D02*
D03*
Y366376D02*
D03*
Y358502D02*
D03*
Y350374D02*
D03*
Y342500D02*
D03*
X359790D02*
D03*
Y350374D02*
D03*
Y358502D02*
D03*
Y366376D02*
D03*
Y374504D02*
D03*
Y382378D02*
D03*
Y390506D02*
D03*
Y398380D02*
D03*
D31*
X580390Y147320D02*
X581660Y148590D01*
Y188214D01*
X500380Y67310D02*
X580390Y147320D01*
X655320D01*
X97790Y70286D02*
X100766Y67310D01*
X97790Y70286D02*
Y161726D01*
X100766Y67310D02*
X500380D01*
X100766Y158750D02*
X163830D01*
X655320Y147320D02*
X849194D01*
X97790Y161726D02*
X100766Y158750D01*
X97790Y161726D02*
Y414854D01*
X100766Y417830D01*
X144780D01*
X852170Y344606D02*
Y468194D01*
X709485Y430784D02*
X749872Y471170D01*
X849194D02*
X852170Y468194D01*
X749872Y471170D02*
X849194D01*
X654050Y148590D02*
X655320Y147320D01*
X579120Y185674D02*
X581660Y188214D01*
X654050Y148590D02*
Y186944D01*
X852170Y150296D02*
Y344606D01*
X849194Y147320D02*
X852170Y150296D01*
X797560Y342900D02*
X798830Y341630D01*
X849194D01*
X852170Y344606D01*
X591820Y430784D02*
X709485D01*
X535940D02*
X591820D01*
X406400D02*
X406654Y430530D01*
Y412750D02*
Y430530D01*
X406400Y430784D02*
X535940D01*
X398586D02*
X406400D01*
X390652Y422850D02*
X398586Y430784D01*
X390652Y412750D02*
Y422850D01*
D32*
X320040Y274320D02*
D03*
X294640D02*
D03*
X269240D02*
D03*
X243840D02*
D03*
X144780Y417830D02*
D03*
Y392430D02*
D03*
Y367030D02*
D03*
Y341630D02*
D03*
X231140Y135890D02*
D03*
Y110490D02*
D03*
X805180Y219710D02*
D03*
Y194310D02*
D03*
D33*
X370840Y109220D02*
D03*
Y134620D02*
D03*
Y160020D02*
D03*
X163830Y161290D02*
D03*
Y135890D02*
D03*
Y110490D02*
D03*
D34*
X797560Y292100D02*
D03*
Y317500D02*
D03*
Y342900D02*
D03*
Y368300D02*
D03*
Y393700D02*
D03*
Y419100D02*
D03*
D35*
X404130Y486410D02*
D03*
D36*
X355330D02*
D03*
D37*
X640080Y394970D02*
D03*
X612140Y368300D02*
D03*
X760730Y190500D02*
D03*
X398780Y394970D02*
D03*
X402590Y347980D02*
D03*
X618490Y461010D02*
D03*
X510540Y462280D02*
D03*
X501650Y530860D02*
D03*
X238760D02*
D03*
M02*
