G04*
G04 #@! TF.GenerationSoftware,Altium Limited,Altium Designer,25.3.3 (18)*
G04*
G04 Layer_Color=128*
%FSLAX44Y44*%
%MOMM*%
G71*
G04*
G04 #@! TF.SameCoordinates,3D7421BB-9855-40A4-9605-FE8D39355D9D*
G04*
G04*
G04 #@! TF.FilePolarity,Positive*
G04*
G01*
G75*
%ADD10C,0.1270*%
D10*
X314940Y274320D02*
X325140D01*
X320040Y269220D02*
Y279420D01*
X289540Y274320D02*
X299740D01*
X294640Y269220D02*
Y279420D01*
X264140Y274320D02*
X274340D01*
X269240Y269220D02*
Y279420D01*
X238740Y274320D02*
X248940D01*
X243840Y269220D02*
Y279420D01*
X139680Y417830D02*
X149880D01*
X144780Y412730D02*
Y422930D01*
X139680Y392430D02*
X149880D01*
X144780Y387330D02*
Y397530D01*
X139680Y367030D02*
X149880D01*
X144780Y361930D02*
Y372130D01*
X139680Y341630D02*
X149880D01*
X144780Y336530D02*
Y346730D01*
X365340Y109220D02*
X376340D01*
X370840Y103720D02*
Y114720D01*
X365340Y134620D02*
X376340D01*
X370840Y129120D02*
Y140120D01*
X365340Y160020D02*
X376340D01*
X370840Y154520D02*
Y165520D01*
X226040Y135890D02*
X236240D01*
X231140Y130790D02*
Y140990D01*
X226040Y110490D02*
X236240D01*
X231140Y105390D02*
Y115590D01*
X158330Y161290D02*
X169330D01*
X163830Y155790D02*
Y166790D01*
X158330Y135890D02*
X169330D01*
X163830Y130390D02*
Y141390D01*
X158330Y110490D02*
X169330D01*
X163830Y104990D02*
Y115990D01*
X800080Y219710D02*
X810280D01*
X805180Y214610D02*
Y224810D01*
X800080Y194310D02*
X810280D01*
X805180Y189210D02*
Y199410D01*
X792060Y292100D02*
X803060D01*
X797560Y286600D02*
Y297600D01*
X792060Y317500D02*
X803060D01*
X797560Y312000D02*
Y323000D01*
X792060Y342900D02*
X803060D01*
X797560Y337400D02*
Y348400D01*
X792060Y368300D02*
X803060D01*
X797560Y362800D02*
Y373800D01*
X792060Y393700D02*
X803060D01*
X797560Y388200D02*
Y399200D01*
X792060Y419100D02*
X803060D01*
X797560Y413600D02*
Y424600D01*
X400630Y486410D02*
X407630D01*
X404130Y482910D02*
Y489910D01*
X351830Y486410D02*
X358830D01*
X355330Y482910D02*
Y489910D01*
X638429Y394970D02*
X641731D01*
X640080Y393319D02*
Y396621D01*
X610489Y368300D02*
X613791D01*
X612140Y366649D02*
Y369951D01*
X759079Y190500D02*
X762381D01*
X760730Y188849D02*
Y192151D01*
X397129Y394970D02*
X400431D01*
X398780Y393319D02*
Y396621D01*
X400939Y347980D02*
X404241D01*
X402590Y346329D02*
Y349631D01*
X616839Y461010D02*
X620141D01*
X618490Y459359D02*
Y462661D01*
X508889Y462280D02*
X512191D01*
X510540Y460629D02*
Y463931D01*
X499999Y530860D02*
X503301D01*
X501650Y529209D02*
Y532511D01*
X237109Y530860D02*
X240411D01*
X238760Y529209D02*
Y532511D01*
M02*
