G04*
G04 #@! TF.GenerationSoftware,Altium Limited,Altium Designer,25.3.3 (18)*
G04*
G04 Layer_Color=16711935*
%FSLAX44Y44*%
%MOMM*%
G71*
G04*
G04 #@! TF.SameCoordinates,3D7421BB-9855-40A4-9605-FE8D39355D9D*
G04*
G04*
G04 #@! TF.FilePolarity,Negative*
G04*
G01*
G75*
%ADD20C,0.0000*%
%ADD25C,1.8232*%
%ADD26C,1.8532*%
%ADD27C,1.7272*%
%ADD28R,1.4032X1.4032*%
%ADD29C,1.4032*%
%ADD30C,0.8382*%
D20*
X328651Y274320D02*
G03*
X328651Y274320I-8611J0D01*
G01*
X303251D02*
G03*
X303251Y274320I-8611J0D01*
G01*
X277851D02*
G03*
X277851Y274320I-8611J0D01*
G01*
X252451D02*
G03*
X252451Y274320I-8611J0D01*
G01*
X153391Y417830D02*
G03*
X153391Y417830I-8611J0D01*
G01*
Y392430D02*
G03*
X153391Y392430I-8611J0D01*
G01*
Y367030D02*
G03*
X153391Y367030I-8611J0D01*
G01*
Y341630D02*
G03*
X153391Y341630I-8611J0D01*
G01*
X239751Y135890D02*
G03*
X239751Y135890I-8611J0D01*
G01*
Y110490D02*
G03*
X239751Y110490I-8611J0D01*
G01*
X813791Y219710D02*
G03*
X813791Y219710I-8611J0D01*
G01*
Y194310D02*
G03*
X813791Y194310I-8611J0D01*
G01*
D25*
X320040Y274320D02*
D03*
X294640D02*
D03*
X269240D02*
D03*
X243840D02*
D03*
X144780Y417830D02*
D03*
Y392430D02*
D03*
Y367030D02*
D03*
Y341630D02*
D03*
X231140Y135890D02*
D03*
Y110490D02*
D03*
X805180Y219710D02*
D03*
Y194310D02*
D03*
D26*
X370840Y109220D02*
D03*
Y134620D02*
D03*
Y160020D02*
D03*
X163830Y161290D02*
D03*
Y135890D02*
D03*
Y110490D02*
D03*
D27*
X797560Y292100D02*
D03*
Y317500D02*
D03*
Y342900D02*
D03*
Y368300D02*
D03*
Y393700D02*
D03*
Y419100D02*
D03*
D28*
X404130Y486410D02*
D03*
D29*
X355330D02*
D03*
D30*
X640080Y394970D02*
D03*
X612140Y368300D02*
D03*
X760730Y190500D02*
D03*
X398780Y394970D02*
D03*
X402590Y347980D02*
D03*
X618490Y461010D02*
D03*
X510540Y462280D02*
D03*
X501650Y530860D02*
D03*
X238760D02*
D03*
M02*
