G04*
G04 #@! TF.GenerationSoftware,Altium Limited,Altium Designer,25.3.3 (18)*
G04*
G04 Layer_Color=8421504*
%FSLAX44Y44*%
%MOMM*%
G71*
G04*
G04 #@! TF.SameCoordinates,3D7421BB-9855-40A4-9605-FE8D39355D9D*
G04*
G04*
G04 #@! TF.FilePolarity,Positive*
G04*
G01*
G75*
%ADD16R,1.8034X1.1176*%
%ADD17R,1.1176X1.8034*%
%ADD18R,0.5080X1.6500*%
%ADD19R,1.6500X0.5080*%
D16*
X654050Y216916D02*
D03*
Y186944D02*
D03*
X431800Y134620D02*
D03*
Y104648D02*
D03*
X728980Y190754D02*
D03*
Y220726D02*
D03*
X591820Y430784D02*
D03*
Y460756D02*
D03*
X480060Y500634D02*
D03*
Y530606D02*
D03*
X535940Y430784D02*
D03*
Y460756D02*
D03*
X271780Y530606D02*
D03*
Y500634D02*
D03*
X294640Y105410D02*
D03*
Y135382D02*
D03*
X581660Y218186D02*
D03*
Y188214D02*
D03*
D17*
X525526Y353060D02*
D03*
X495554D02*
D03*
X399796Y557530D02*
D03*
X369824D02*
D03*
D18*
X430530Y327150D02*
D03*
X422656D02*
D03*
X414528D02*
D03*
X406654D02*
D03*
X398526D02*
D03*
X390652D02*
D03*
X382524D02*
D03*
X374650D02*
D03*
Y412750D02*
D03*
X382524D02*
D03*
X390652D02*
D03*
X398526D02*
D03*
X406654D02*
D03*
X414528D02*
D03*
X422656D02*
D03*
X430530D02*
D03*
D19*
X445390Y398380D02*
D03*
Y390506D02*
D03*
Y382378D02*
D03*
Y374504D02*
D03*
Y366376D02*
D03*
Y358502D02*
D03*
Y350374D02*
D03*
Y342500D02*
D03*
X359790D02*
D03*
Y350374D02*
D03*
Y358502D02*
D03*
Y366376D02*
D03*
Y374504D02*
D03*
Y382378D02*
D03*
Y390506D02*
D03*
Y398380D02*
D03*
M02*
