G04*
G04 #@! TF.GenerationSoftware,Altium Limited,Altium Designer,25.3.3 (18)*
G04*
G04 Layer_Color=65535*
%FSLAX44Y44*%
%MOMM*%
G71*
G04*
G04 #@! TF.SameCoordinates,06983E53-0AFF-4CF9-B53D-5828CB1A506A*
G04*
G04*
G04 #@! TF.FilePolarity,Positive*
G04*
G01*
G75*
%ADD10C,0.2000*%
%ADD11C,0.2540*%
%ADD12C,0.1524*%
%ADD13C,0.5080*%
%ADD14C,0.6000*%
%ADD15C,0.2500*%
%ADD16C,0.4000*%
%ADD17C,0.1270*%
%ADD18C,0.1999*%
D10*
X441560Y408330D02*
G03*
X441560Y408330I-1000J0D01*
G01*
X226200Y413260D02*
G03*
X226200Y413260I-810J0D01*
G01*
X206590Y419260D02*
G03*
X206590Y419260I-1200J0D01*
G01*
X255508Y558546D02*
G03*
X255508Y558546I-1000J0D01*
G01*
X210890Y414260D02*
Y444260D01*
X187890D02*
X210890D01*
X187890Y414260D02*
Y444260D01*
Y414260D02*
X210890D01*
X168650Y584570D02*
X199650D01*
X168650Y535570D02*
X199650D01*
X168650D02*
Y584570D01*
X199650Y535570D02*
Y584570D01*
D11*
X346723Y78740D02*
G03*
X346723Y78740I-55373J0D01*
G01*
X43180Y217170D02*
X68580D01*
X43180D02*
Y420370D01*
X68580D01*
Y217170D02*
Y420370D01*
X43180Y394970D02*
X68580D01*
X551180Y267970D02*
Y496570D01*
X525780Y293370D02*
Y521970D01*
X551180D01*
Y293370D02*
Y521970D01*
X525780Y496570D02*
X551180D01*
X525780Y267970D02*
Y496570D01*
Y267970D02*
X551180D01*
X525780Y227330D02*
X551180D01*
Y49530D02*
Y252730D01*
X525780D02*
X551180D01*
X525780Y49530D02*
Y252730D01*
Y49530D02*
X551180D01*
X43180Y201930D02*
X55880D01*
X43180Y176530D02*
Y201930D01*
Y176530D02*
X68580D01*
Y49530D02*
Y176530D01*
X43180Y49530D02*
X68580D01*
X43180D02*
Y176530D01*
X68580D02*
Y201930D01*
X55880D02*
X68580D01*
X558546Y566674D02*
X572770D01*
X501569Y811550D02*
X503041D01*
X505984D02*
X507456D01*
X438200Y908775D02*
X516446D01*
X438200Y888492D02*
Y908775D01*
X438404Y842518D02*
Y856234D01*
X516446Y889000D02*
Y908775D01*
X474656Y878775D02*
Y886142D01*
Y886904D01*
X476688Y888935D01*
X480244D01*
X481260Y889951D01*
Y898334D01*
X480244Y899350D02*
X481260Y898334D01*
X475672Y899350D02*
X480244D01*
X474148Y900873D02*
X475672Y899350D01*
X474148Y900873D02*
Y907224D01*
X438200Y894016D02*
X460686D01*
X462972Y891730D01*
Y882331D02*
Y891730D01*
Y882331D02*
X466528Y878775D01*
X485324D01*
X487610Y881061D01*
Y892237D01*
X490150Y894778D01*
X516058D01*
X516382Y841502D02*
Y856234D01*
X447584Y811550D02*
X453072D01*
X503041D02*
X505984D01*
X332740Y815030D02*
Y815110D01*
X196596Y712724D02*
X210820D01*
X63500Y813760D02*
Y813840D01*
X566090Y772871D02*
Y777371D01*
X558090D02*
X566090D01*
X558090Y772871D02*
Y777371D01*
X619090Y698370D02*
Y702870D01*
Y698370D02*
X627090D01*
Y702870D01*
X558090D02*
X627090D01*
X558090D02*
Y772871D01*
X574403Y702870D02*
Y772871D01*
X612354Y764733D02*
X627091D01*
X607891Y760270D02*
X612354Y764733D01*
X607891Y750370D02*
Y760270D01*
Y750370D02*
X612197Y746064D01*
X627091D01*
X612354Y729734D02*
X627092D01*
X607891Y725272D02*
X612354Y729734D01*
X607891Y715372D02*
Y725272D01*
Y715372D02*
X612197Y711066D01*
X627092D01*
X627091Y702870D02*
Y772871D01*
X558090Y772873D02*
X627091D01*
X157905Y644526D02*
Y653414D01*
X162349D01*
X163830Y651932D01*
Y648970D01*
X162349Y647489D01*
X157905D01*
X160868D02*
X163830Y644526D01*
X166792D02*
X169755D01*
X168274D01*
Y653414D01*
X166792Y651932D01*
X57151Y473708D02*
X52073D01*
X54612D01*
Y461012D01*
X52073Y458473D01*
X49533D01*
X46994Y461012D01*
X72386Y473708D02*
X62229D01*
Y466090D01*
X67308Y468629D01*
X69847D01*
X72386Y466090D01*
Y461012D01*
X69847Y458473D01*
X64768D01*
X62229Y461012D01*
X577639Y493394D02*
X574676D01*
X576158D01*
Y485988D01*
X574676Y484506D01*
X573195D01*
X571714Y485988D01*
X585045Y484506D02*
Y493394D01*
X580601Y488950D01*
X586526D01*
X444714Y448944D02*
Y441538D01*
X446195Y440056D01*
X449158D01*
X450639Y441538D01*
Y448944D01*
X453601Y447462D02*
X455082Y448944D01*
X458045D01*
X459526Y447462D01*
Y445981D01*
X458045Y444500D01*
X456564D01*
X458045D01*
X459526Y443019D01*
Y441538D01*
X458045Y440056D01*
X455082D01*
X453601Y441538D01*
X195580Y627377D02*
Y617220D01*
X200658D01*
X202351Y618913D01*
Y625684D01*
X200658Y627377D01*
X195580D01*
X205737Y617220D02*
Y623991D01*
X209122Y627377D01*
X212508Y623991D01*
Y617220D01*
Y622298D01*
X205737D01*
X222665Y625684D02*
X220972Y627377D01*
X217586D01*
X215893Y625684D01*
Y618913D01*
X217586Y617220D01*
X220972D01*
X222665Y618913D01*
X548640Y856822D02*
X555411D01*
X552026D01*
Y846666D01*
X558797Y853437D02*
X562182Y846666D01*
X565568Y853437D01*
X568953Y846666D02*
Y853437D01*
X574032D01*
X575725Y851744D01*
Y846666D01*
X579110Y844973D02*
X585881D01*
X589267Y843280D02*
Y853437D01*
X594345D01*
X596038Y851744D01*
Y848358D01*
X594345Y846666D01*
X589267D01*
X599424Y853437D02*
Y848358D01*
X601116Y846666D01*
X602809Y848358D01*
X604502Y846666D01*
X606195Y848358D01*
Y853437D01*
X609580D02*
Y846666D01*
Y850051D01*
X611273Y851744D01*
X612966Y853437D01*
X614659D01*
X400896Y376343D02*
X402589D01*
X403436Y377189D01*
Y378882D01*
X402589Y379728D01*
X400896D01*
X400050Y378882D01*
Y377189D01*
X400896Y376343D01*
X405128Y374650D02*
Y379728D01*
X407668D01*
X408514Y378882D01*
Y377189D01*
X407668Y376343D01*
X405128D01*
X410207Y375496D02*
X413592D01*
X416132Y379728D02*
X417824D01*
X418671Y378882D01*
Y376343D01*
X416132D01*
X415285Y377189D01*
X416132Y378036D01*
X418671D01*
X420363Y376343D02*
Y379728D01*
X421210D01*
X422056Y378882D01*
Y376343D01*
Y378882D01*
X422903Y379728D01*
X423749Y378882D01*
Y376343D01*
X425442Y374650D02*
Y379728D01*
X427981D01*
X428827Y378882D01*
Y377189D01*
X427981Y376343D01*
X425442D01*
X139700Y459740D02*
Y466511D01*
X143086Y469897D01*
X146471Y466511D01*
Y459740D01*
Y464818D01*
X139700D01*
X149857Y469897D02*
Y459740D01*
X154935D01*
X156628Y461433D01*
Y468204D01*
X154935Y469897D01*
X149857D01*
X166785Y468204D02*
X165092Y469897D01*
X161706D01*
X160013Y468204D01*
Y461433D01*
X161706Y459740D01*
X165092D01*
X166785Y461433D01*
X365760Y109217D02*
Y99060D01*
X370838D01*
X372531Y100753D01*
Y102446D01*
X370838Y104138D01*
X365760D01*
X370838D01*
X372531Y105831D01*
Y107524D01*
X370838Y109217D01*
X365760D01*
X375917Y105831D02*
Y100753D01*
X377609Y99060D01*
X382688D01*
Y105831D01*
X386073D02*
X392845D01*
X386073Y99060D01*
X392845D01*
X396230Y105831D02*
X403001D01*
X396230Y99060D01*
X403001D01*
X411465D02*
X408080D01*
X406387Y100753D01*
Y104138D01*
X408080Y105831D01*
X411465D01*
X413158Y104138D01*
Y102446D01*
X406387D01*
X416544Y105831D02*
Y99060D01*
Y102446D01*
X418236Y104138D01*
X419929Y105831D01*
X421622D01*
X144780Y852589D02*
Y842433D01*
X149858D01*
X151551Y844126D01*
Y845818D01*
X149858Y847511D01*
X144780D01*
X149858D01*
X151551Y849204D01*
Y850897D01*
X149858Y852589D01*
X144780D01*
X154937Y849204D02*
Y842433D01*
Y845818D01*
X156629Y847511D01*
X158322Y849204D01*
X160015D01*
X171865Y852589D02*
Y842433D01*
X166786D01*
X165093Y844126D01*
Y847511D01*
X166786Y849204D01*
X171865D01*
X175250Y840740D02*
X182021D01*
X190485Y842433D02*
Y852589D01*
X185407Y847511D01*
X192178D01*
X136311Y874602D02*
X132926D01*
X134618D01*
Y866138D01*
X132926Y864446D01*
X131233D01*
X129540Y866138D01*
X144775Y864446D02*
X141390D01*
X139697Y866138D01*
Y869524D01*
X141390Y871217D01*
X144775D01*
X146468Y869524D01*
Y867831D01*
X139697D01*
X149853Y871217D02*
Y864446D01*
Y867831D01*
X151546Y869524D01*
X153239Y871217D01*
X154932D01*
X165089Y864446D02*
X161703D01*
X160010Y866138D01*
Y869524D01*
X161703Y871217D01*
X165089D01*
X166781Y869524D01*
Y867831D01*
X160010D01*
X170167Y864446D02*
Y871217D01*
X171860D01*
X173552Y869524D01*
Y864446D01*
Y869524D01*
X175245Y871217D01*
X176938Y869524D01*
Y864446D01*
X180324Y871217D02*
Y866138D01*
X182016Y864446D01*
X187095D01*
Y862753D01*
X185402Y861060D01*
X183709D01*
X187095Y864446D02*
Y871217D01*
X200637Y874602D02*
Y864446D01*
Y867831D01*
X207408Y874602D01*
X202330Y869524D01*
X207408Y864446D01*
X210794D02*
X214179D01*
X212487D01*
Y871217D01*
X210794D01*
X220951D02*
X224336D01*
X226029Y869524D01*
Y864446D01*
X220951D01*
X219258Y866138D01*
X220951Y867831D01*
X226029D01*
X229415Y871217D02*
Y864446D01*
Y867831D01*
X231107Y869524D01*
X232800Y871217D01*
X234493D01*
X239571Y864446D02*
X242957D01*
X241264D01*
Y871217D01*
X239571D01*
X253113Y864446D02*
X249728D01*
X248035Y866138D01*
Y869524D01*
X249728Y871217D01*
X253113D01*
X254806Y869524D01*
Y867831D01*
X248035D01*
X577851Y247647D02*
X572772D01*
X575312D01*
Y234952D01*
X572772Y232412D01*
X570233D01*
X567694Y234952D01*
X582929Y245108D02*
X585468Y247647D01*
X590547D01*
X593086Y245108D01*
Y242569D01*
X590547Y240030D01*
X588008D01*
X590547D01*
X593086Y237491D01*
Y234952D01*
X590547Y232412D01*
X585468D01*
X582929Y234952D01*
X11431Y194307D02*
X6352D01*
X8892D01*
Y181612D01*
X6352Y179072D01*
X3813D01*
X1274Y181612D01*
X26666Y194307D02*
X21588Y191768D01*
X16509Y186690D01*
Y181612D01*
X19048Y179072D01*
X24127D01*
X26666Y181612D01*
Y184151D01*
X24127Y186690D01*
X16509D01*
X180346Y74928D02*
Y59693D01*
X187963D01*
X190502Y62232D01*
Y64771D01*
X187963Y67310D01*
X180346D01*
X187963D01*
X190502Y69849D01*
Y72388D01*
X187963Y74928D01*
X180346D01*
X195581D02*
X205738D01*
Y72388D01*
X195581Y62232D01*
Y59693D01*
X205738D01*
X210816D02*
X215894D01*
X213355D01*
Y74928D01*
X210816Y72388D01*
X457414Y362584D02*
Y353696D01*
X461858D01*
X463339Y355178D01*
Y361102D01*
X461858Y362584D01*
X457414D01*
X470745Y353696D02*
Y362584D01*
X466301Y358140D01*
X472226D01*
X359624Y335914D02*
Y327026D01*
X364068D01*
X365549Y328508D01*
Y334432D01*
X364068Y335914D01*
X359624D01*
X368511Y334432D02*
X369992Y335914D01*
X372955D01*
X374436Y334432D01*
Y332951D01*
X372955Y331470D01*
X371474D01*
X372955D01*
X374436Y329989D01*
Y328508D01*
X372955Y327026D01*
X369992D01*
X368511Y328508D01*
X159175Y342264D02*
Y333376D01*
X163619D01*
X165100Y334858D01*
Y340782D01*
X163619Y342264D01*
X159175D01*
X168062Y333376D02*
X171025D01*
X169544D01*
Y342264D01*
X168062Y340782D01*
X266914Y338454D02*
Y329566D01*
X271358D01*
X272839Y331048D01*
Y336972D01*
X271358Y338454D01*
X266914D01*
X281726Y329566D02*
X275801D01*
X281726Y335491D01*
Y336972D01*
X280245Y338454D01*
X277282D01*
X275801Y336972D01*
X354330Y262888D02*
X351791Y265427D01*
X346712D01*
X344173Y262888D01*
Y252732D01*
X346712Y250193D01*
X351791D01*
X354330Y252732D01*
X359408Y250193D02*
X364487D01*
X361948D01*
Y265427D01*
X359408Y262888D01*
X458259Y218862D02*
X456778Y220344D01*
X453815D01*
X452334Y218862D01*
Y212938D01*
X453815Y211456D01*
X456778D01*
X458259Y212938D01*
X461221Y220344D02*
X467146D01*
Y218862D01*
X461221Y212938D01*
Y211456D01*
X422699Y251882D02*
X421218Y253364D01*
X418255D01*
X416774Y251882D01*
Y245958D01*
X418255Y244476D01*
X421218D01*
X422699Y245958D01*
X431586Y253364D02*
X428624Y251882D01*
X425661Y248920D01*
Y245958D01*
X427142Y244476D01*
X430105D01*
X431586Y245958D01*
Y247439D01*
X430105Y248920D01*
X425661D01*
X287021Y152398D02*
X284482Y154937D01*
X279403D01*
X276864Y152398D01*
Y142242D01*
X279403Y139703D01*
X284482D01*
X287021Y142242D01*
X302256Y154937D02*
X292099D01*
Y147320D01*
X297178Y149859D01*
X299717D01*
X302256Y147320D01*
Y142242D01*
X299717Y139703D01*
X294638D01*
X292099Y142242D01*
X171239Y170602D02*
X169758Y172084D01*
X166795D01*
X165314Y170602D01*
Y164678D01*
X166795Y163196D01*
X169758D01*
X171239Y164678D01*
X178645Y163196D02*
Y172084D01*
X174201Y167640D01*
X180126D01*
X219924Y362586D02*
Y371474D01*
X224368D01*
X225849Y369992D01*
Y367030D01*
X224368Y365549D01*
X219924D01*
X222886D02*
X225849Y362586D01*
X228811Y371474D02*
X234736D01*
Y369992D01*
X228811Y364068D01*
Y362586D01*
X187964Y482598D02*
Y469902D01*
X190503Y467363D01*
X195582D01*
X198121Y469902D01*
Y482598D01*
X213356Y467363D02*
X203199D01*
X213356Y477519D01*
Y480058D01*
X210817Y482598D01*
X205738D01*
X203199Y480058D01*
X150074Y511176D02*
Y520064D01*
X154518D01*
X155999Y518582D01*
Y515620D01*
X154518Y514139D01*
X150074D01*
X153036D02*
X155999Y511176D01*
X164886D02*
X158961D01*
X164886Y517101D01*
Y518582D01*
X163405Y520064D01*
X160442D01*
X158961Y518582D01*
X374864Y612776D02*
Y621664D01*
X379308D01*
X380789Y620182D01*
Y617220D01*
X379308Y615739D01*
X374864D01*
X377826D02*
X380789Y612776D01*
X389676Y621664D02*
X383751D01*
Y617220D01*
X386714Y618701D01*
X388195D01*
X389676Y617220D01*
Y614258D01*
X388195Y612776D01*
X385232D01*
X383751Y614258D01*
X494538Y619760D02*
Y628647D01*
X498982D01*
X500463Y627166D01*
Y624204D01*
X498982Y622722D01*
X494538D01*
X497500D02*
X500463Y619760D01*
X503425Y627166D02*
X504906Y628647D01*
X507869D01*
X509350Y627166D01*
Y625685D01*
X507869Y624204D01*
X506387D01*
X507869D01*
X509350Y622722D01*
Y621241D01*
X507869Y619760D01*
X504906D01*
X503425Y621241D01*
X589497Y611504D02*
Y602616D01*
X595422D01*
X604309Y611504D02*
X598384D01*
Y602616D01*
X604309D01*
X598384Y607060D02*
X601346D01*
X607271Y611504D02*
Y602616D01*
X611715D01*
X613196Y604098D01*
Y610022D01*
X611715Y611504D01*
X607271D01*
X622083Y602616D02*
X616158D01*
X622083Y608541D01*
Y610022D01*
X620602Y611504D01*
X617640D01*
X616158Y610022D01*
X295065Y724322D02*
X293584Y725804D01*
X290622D01*
X289140Y724322D01*
Y722841D01*
X290622Y721360D01*
X293584D01*
X295065Y719879D01*
Y718398D01*
X293584Y716916D01*
X290622D01*
X289140Y718398D01*
X298028Y725804D02*
Y716916D01*
X300990Y719879D01*
X303952Y716916D01*
Y725804D01*
X312840Y716916D02*
X306915D01*
X312840Y722841D01*
Y724322D01*
X311358Y725804D01*
X308396D01*
X306915Y724322D01*
X375923Y471169D02*
X381002D01*
X378462D01*
Y463551D01*
X383541D02*
Y471169D01*
X387350D01*
X388619Y469899D01*
Y467360D01*
X387350Y466090D01*
X383541D01*
X394967Y463551D02*
Y471169D01*
X391158Y467360D01*
X396237D01*
X601769Y679872D02*
X600288Y681354D01*
X597325D01*
X595844Y679872D01*
Y673948D01*
X597325Y672466D01*
X600288D01*
X601769Y673948D01*
X604731Y679872D02*
X606212Y681354D01*
X609175D01*
X610656Y679872D01*
Y678391D01*
X609175Y676910D01*
X607694D01*
X609175D01*
X610656Y675429D01*
Y673948D01*
X609175Y672466D01*
X606212D01*
X604731Y673948D01*
X388200Y645794D02*
X394125D01*
X391163D01*
Y636906D01*
X397088D02*
Y645794D01*
X401531D01*
X403012Y644312D01*
Y641350D01*
X401531Y639869D01*
X397088D01*
X411899Y636906D02*
X405975D01*
X411899Y642831D01*
Y644312D01*
X410418Y645794D01*
X407456D01*
X405975Y644312D01*
X432225Y780202D02*
X430744Y781684D01*
X427782D01*
X426301Y780202D01*
Y778721D01*
X427782Y777240D01*
X430744D01*
X432225Y775759D01*
Y774278D01*
X430744Y772796D01*
X427782D01*
X426301Y774278D01*
X435188Y781684D02*
Y772796D01*
X438150Y775759D01*
X441112Y772796D01*
Y781684D01*
X444075Y780202D02*
X445556Y781684D01*
X448518D01*
X450000Y780202D01*
Y778721D01*
X448518Y777240D01*
X447037D01*
X448518D01*
X450000Y775759D01*
Y774278D01*
X448518Y772796D01*
X445556D01*
X444075Y774278D01*
X503345Y692572D02*
X501864Y694054D01*
X498902D01*
X497421Y692572D01*
Y691091D01*
X498902Y689610D01*
X501864D01*
X503345Y688129D01*
Y686648D01*
X501864Y685166D01*
X498902D01*
X497421Y686648D01*
X506308Y694054D02*
Y685166D01*
X509270Y688129D01*
X512232Y685166D01*
Y694054D01*
X519638Y685166D02*
Y694054D01*
X515195Y689610D01*
X521119D01*
X367664Y546060D02*
X358776D01*
Y550504D01*
X360258Y551985D01*
X363220D01*
X364701Y550504D01*
Y546060D01*
Y549022D02*
X367664Y551985D01*
Y559391D02*
X358776D01*
X363220Y554947D01*
Y560872D01*
X155785Y774232D02*
X154304Y775713D01*
X151341D01*
X149860Y774232D01*
Y768307D01*
X151341Y766826D01*
X154304D01*
X155785Y768307D01*
X164672Y766826D02*
X158747D01*
X164672Y772751D01*
Y774232D01*
X163191Y775713D01*
X160228D01*
X158747Y774232D01*
X446021Y935731D02*
X440942D01*
X443481D01*
Y923035D01*
X440942Y920496D01*
X438403D01*
X435864Y923035D01*
X461256Y920496D02*
X451099D01*
X461256Y930653D01*
Y933192D01*
X458717Y935731D01*
X453638D01*
X451099Y933192D01*
X149606Y603755D02*
Y596349D01*
X151087Y594868D01*
X154050D01*
X155531Y596349D01*
Y603755D01*
X158493Y594868D02*
X161455D01*
X159974D01*
Y603755D01*
X158493Y602274D01*
X278638Y900430D02*
Y915665D01*
X286255D01*
X288795Y913126D01*
Y908047D01*
X286255Y905508D01*
X278638D01*
X293873Y900430D02*
X298951D01*
X296412D01*
Y915665D01*
X293873Y913126D01*
X192024Y775967D02*
Y767080D01*
X197949D01*
X206836Y775967D02*
X200911D01*
Y767080D01*
X206836D01*
X200911Y771524D02*
X203874D01*
X209798Y775967D02*
Y767080D01*
X214242D01*
X215723Y768561D01*
Y774486D01*
X214242Y775967D01*
X209798D01*
X218685Y767080D02*
X221648D01*
X220167D01*
Y775967D01*
X218685Y774486D01*
X9398Y899160D02*
Y914395D01*
X17016D01*
X19555Y911856D01*
Y906777D01*
X17016Y904238D01*
X9398D01*
X34790Y899160D02*
X24633D01*
X34790Y909317D01*
Y911856D01*
X32251Y914395D01*
X27172D01*
X24633Y911856D01*
X394208Y544830D02*
Y553717D01*
X398652D01*
X400133Y552236D01*
Y549274D01*
X398652Y547792D01*
X394208D01*
X397170D02*
X400133Y544830D01*
X409020Y553717D02*
X406058Y552236D01*
X403095Y549274D01*
Y546311D01*
X404576Y544830D01*
X407539D01*
X409020Y546311D01*
Y547792D01*
X407539Y549274D01*
X403095D01*
X246634Y735835D02*
X252559D01*
X249596D01*
Y726948D01*
X255521D02*
Y735835D01*
X259965D01*
X261446Y734354D01*
Y731392D01*
X259965Y729910D01*
X255521D01*
X264408Y726948D02*
X267371D01*
X265889D01*
Y735835D01*
X264408Y734354D01*
X260941Y610573D02*
Y616498D01*
X259460Y617979D01*
X256497D01*
X255016Y616498D01*
Y610573D01*
X256497Y609092D01*
X259460D01*
X257978Y612054D02*
X260941Y609092D01*
X259460D02*
X260941Y610573D01*
X263903Y609092D02*
X266866D01*
X265384D01*
Y617979D01*
X263903Y616498D01*
X426974Y615185D02*
X432899D01*
X429936D01*
Y606298D01*
X435861D02*
Y615185D01*
X440305D01*
X441786Y613704D01*
Y610742D01*
X440305Y609260D01*
X435861D01*
X444748Y613704D02*
X446229Y615185D01*
X449192D01*
X450673Y613704D01*
Y612223D01*
X449192Y610742D01*
X447711D01*
X449192D01*
X450673Y609260D01*
Y607779D01*
X449192Y606298D01*
X446229D01*
X444748Y607779D01*
X559308Y786384D02*
Y795271D01*
X563752D01*
X565233Y793790D01*
Y790828D01*
X563752Y789346D01*
X559308D01*
X568195Y793790D02*
X569676Y795271D01*
X572639D01*
X574120Y793790D01*
Y792309D01*
X572639Y790828D01*
X571157D01*
X572639D01*
X574120Y789346D01*
Y787865D01*
X572639Y786384D01*
X569676D01*
X568195Y787865D01*
X219285Y260136D02*
X217804Y261617D01*
X214841D01*
X213360Y260136D01*
Y254211D01*
X214841Y252730D01*
X217804D01*
X219285Y254211D01*
X222247Y260136D02*
X223728Y261617D01*
X226691D01*
X228172Y260136D01*
Y258655D01*
X226691Y257174D01*
X228172Y255692D01*
Y254211D01*
X226691Y252730D01*
X223728D01*
X222247Y254211D01*
Y255692D01*
X223728Y257174D01*
X222247Y258655D01*
Y260136D01*
X223728Y257174D02*
X226691D01*
X124289Y261406D02*
X122808Y262887D01*
X119845D01*
X118364Y261406D01*
Y255481D01*
X119845Y254000D01*
X122808D01*
X124289Y255481D01*
X127251D02*
X128732Y254000D01*
X131695D01*
X133176Y255481D01*
Y261406D01*
X131695Y262887D01*
X128732D01*
X127251Y261406D01*
Y259925D01*
X128732Y258444D01*
X133176D01*
D12*
X494930Y270510D02*
G03*
X494930Y270510I-2170J0D01*
G01*
X395870Y269240D02*
G03*
X395870Y269240I-2170J0D01*
G01*
X132980Y331470D02*
G03*
X132980Y331470I-2170J0D01*
G01*
X299350Y270510D02*
G03*
X299350Y270510I-2170J0D01*
G01*
X183134Y685770D02*
X192786D01*
X183134Y662970D02*
X192786D01*
X439420Y297561D02*
X463042Y321183D01*
X487685Y294220D02*
Y305220D01*
X451350Y323720D02*
X475750D01*
X439361Y294220D02*
Y305220D01*
X451350Y275720D02*
X475750D01*
X340360Y296291D02*
X363982Y319913D01*
X388625Y292950D02*
Y303950D01*
X352290Y322450D02*
X376690D01*
X340301Y292950D02*
Y303950D01*
X352290Y274450D02*
X376690D01*
X160528Y280797D02*
X184150Y304419D01*
X135885Y296760D02*
Y307760D01*
X147820Y278260D02*
X172220D01*
X184209Y296760D02*
Y307760D01*
X147820Y326260D02*
X172220D01*
X243840Y297561D02*
X267462Y321183D01*
X292105Y294220D02*
Y305220D01*
X255770Y323720D02*
X280170D01*
X243781Y294220D02*
Y305220D01*
X255770Y275720D02*
X280170D01*
X350520Y217424D02*
Y227076D01*
X332740Y217424D02*
Y227076D01*
X488950Y223774D02*
Y233426D01*
X471170Y223774D02*
Y233426D01*
X401320Y223774D02*
Y233426D01*
X383540Y223774D02*
Y233426D01*
X298450Y217424D02*
Y227076D01*
X280670Y217424D02*
Y227076D01*
X181610Y219964D02*
Y229616D01*
X163830Y219964D02*
Y229616D01*
X299974Y378430D02*
X309626D01*
X299974Y355630D02*
X309626D01*
X264668Y527020D02*
X274320D01*
X264668Y504220D02*
X274320D01*
X359664Y601950D02*
X369316D01*
X359664Y579150D02*
X369316D01*
X515590Y585724D02*
Y595376D01*
X492790Y585724D02*
Y595376D01*
X578150Y577596D02*
Y605536D01*
X552150Y577342D02*
Y605282D01*
X562864Y664210D02*
X572516D01*
X562864Y646430D02*
X572516D01*
X317530Y524764D02*
Y534416D01*
X340330Y524764D02*
Y534416D01*
X166370Y732790D02*
Y742442D01*
X148590Y732790D02*
Y742442D01*
X216200Y723646D02*
Y751586D01*
X190200Y723392D02*
Y751332D01*
X415260Y510794D02*
Y520446D01*
X392460Y510794D02*
Y520446D01*
X212090Y218694D02*
Y228346D01*
X229870Y218694D02*
Y228346D01*
X116840Y219964D02*
Y229616D01*
X134620Y219964D02*
Y229616D01*
D13*
X332345Y644117D02*
G03*
X332345Y644117I-1270J0D01*
G01*
X525553Y746365D02*
G03*
X525553Y746365I-1270J0D01*
G01*
X466965Y642847D02*
G03*
X466965Y642847I-1270J0D01*
G01*
D14*
X192650Y545570D02*
G03*
X192650Y545570I-3000J0D01*
G01*
D15*
X212400Y532520D02*
G03*
X212400Y532520I-1250J0D01*
G01*
D16*
X334486Y729432D02*
G03*
X334486Y729432I-2000J0D01*
G01*
X65246Y728162D02*
G03*
X65246Y728162I-2000J0D01*
G01*
D17*
X407560Y402240D02*
X425560D01*
X407560Y433420D02*
X425560D01*
X287740Y802610D02*
Y892110D01*
X356870Y748110D02*
X377740D01*
Y892110D01*
X287740D02*
X377740D01*
X287740Y748110D02*
X310642D01*
X287740D02*
Y760166D01*
X18500Y801340D02*
Y890840D01*
X87630Y746840D02*
X108500D01*
Y890840D01*
X18500D02*
X108500D01*
X18500Y746840D02*
X41402D01*
X18500D02*
Y758896D01*
X287274Y571280D02*
Y589280D01*
X253746Y571280D02*
Y589280D01*
X77996Y356870D02*
X83383Y362256D01*
X86076Y359563D01*
X86076Y357768D01*
X84280Y355972D01*
X82485Y355972D01*
X79791Y358666D01*
X81587Y356870D02*
X81587Y353279D01*
X92360D02*
X88769Y356870D01*
X83383Y351484D01*
X86973Y347893D01*
X86076Y354177D02*
X87871Y352381D01*
X96848Y346995D02*
Y348790D01*
X95053Y350586D01*
X93258D01*
X92360Y349688D01*
X92360Y347893D01*
X94155Y346097D01*
X94155Y344302D01*
X93258Y343404D01*
X91462Y343404D01*
X89667Y345199D01*
Y346995D01*
X103133Y342506D02*
X99542Y346097D01*
X94155Y340711D01*
X97746Y337120D01*
X96848Y343404D02*
X98644Y341609D01*
X104928Y340711D02*
X108519Y337120D01*
X106724Y338915D01*
X101337Y333529D01*
X83383Y235256D02*
X79791Y231665D01*
Y228074D01*
X83383Y228075D01*
X86973Y231665D01*
X83383Y224484D02*
X85178Y222688D01*
X84280Y223586D01*
X87871Y227177D01*
X86973Y228074D01*
X87871Y219995D02*
X91462Y223586D01*
X94155Y220893D01*
Y219097D01*
X91462Y216404D01*
X86076Y256168D02*
X86076Y257963D01*
X84280Y259759D01*
X82485D01*
X78894Y256168D01*
Y254372D01*
X80689Y252577D01*
X82485Y252577D01*
X84280Y254372D01*
X82485Y256168D01*
X83383Y249884D02*
X88769Y255270D01*
X86973Y246293D01*
X92360Y251679D01*
X94155Y249884D02*
X88769Y244497D01*
X91462Y241804D01*
X93258Y241804D01*
X96848Y245395D01*
Y247190D01*
X94155Y249884D01*
X86076Y281568D02*
X86076Y283363D01*
X84280Y285159D01*
X82485D01*
X78894Y281568D01*
Y279772D01*
X80689Y277977D01*
X82485Y277977D01*
X84280Y279772D01*
X82485Y281568D01*
X83383Y275284D02*
X88769Y280670D01*
X86973Y271693D01*
X92360Y277079D01*
X94155Y275284D02*
X88769Y269897D01*
X91462Y267204D01*
X93258Y267204D01*
X96848Y270795D01*
Y272590D01*
X94155Y275284D01*
X86973Y307866D02*
X83383Y311456D01*
X80689Y308763D01*
X83383Y307865D01*
X84280Y306968D01*
Y305172D01*
X82485Y303377D01*
X80689Y303377D01*
X78894Y305172D01*
Y306968D01*
X86973Y304275D02*
X85178Y298888D01*
X90564Y300684D01*
X82485Y335959D02*
X84280D01*
X86076Y334163D01*
X86076Y332368D01*
X85178Y331470D01*
X83383D01*
X82485Y332368D01*
X83383Y331470D01*
X83383Y329675D01*
X82485Y328777D01*
X80689Y328777D01*
X78894Y330572D01*
Y332368D01*
X86973Y329674D02*
X85178Y324288D01*
X90564Y326084D01*
X93258Y325186D02*
X95053D01*
X96848Y323390D01*
Y321595D01*
X95951Y320697D01*
X94155D01*
X93258Y321595D01*
X94155Y320697D01*
X94155Y318902D01*
X93258Y318004D01*
X91462Y318004D01*
X89667Y319799D01*
Y321595D01*
X81176Y390196D02*
X82972Y388401D01*
X82074Y389299D01*
X76688Y383912D01*
X75790Y384810D01*
X77586Y383014D01*
X88358D02*
X86563Y384810D01*
X84767D01*
X81176Y381219D01*
Y379424D01*
X82972Y377628D01*
X84767D01*
X88358Y381219D01*
X88358Y383014D01*
X85665Y374935D02*
X91052Y380321D01*
X93745Y377628D01*
Y375833D01*
X91949Y374037D01*
X90154Y374037D01*
X87461Y376730D01*
X89256Y374935D02*
X89256Y371344D01*
X100029D02*
X96438Y374935D01*
X91052Y369548D01*
X94642Y365958D01*
X93745Y372242D02*
X95540Y370446D01*
X105415Y365958D02*
X101824Y369548D01*
X99131Y366855D01*
X100927Y365060D01*
X99131Y366855D01*
X96438Y364162D01*
X77996Y407670D02*
X83382Y413056D01*
X81587Y404079D01*
X86973Y409465D01*
X91462Y403181D02*
X91462Y404977D01*
X89667Y406772D01*
X87871D01*
X84280Y403181D01*
Y401386D01*
X86076Y399590D01*
X87871Y399590D01*
X509427Y288850D02*
X504041Y283464D01*
X506734Y280771D01*
X508530Y280771D01*
X512120Y284362D01*
X512121Y286157D01*
X509427Y288850D01*
X513916Y282566D02*
X515711D01*
X517507Y280771D01*
X517507Y278975D01*
X516609Y278078D01*
X514814D01*
X514814Y276282D01*
X513916Y275384D01*
X512121Y275384D01*
X510325Y277180D01*
Y278975D01*
X511223Y279873D01*
X513018D01*
X513018Y281668D01*
X513916Y282566D01*
X513018Y279873D02*
X514814Y278078D01*
X503143Y320092D02*
X497757Y314706D01*
X500450Y312013D01*
X502245Y312013D01*
X505836Y315604D01*
X505836Y317399D01*
X503143Y320092D01*
X504041Y310217D02*
Y308422D01*
X505836Y306626D01*
X507632Y306626D01*
X511223Y310217D01*
X511223Y312013D01*
X509427Y313808D01*
X507632D01*
X506734Y312910D01*
X506734Y311115D01*
X509427Y308422D01*
X513018D02*
X514814D01*
X516609Y306626D01*
X518405Y306626D01*
X498654Y347778D02*
X493268Y342392D01*
X495961Y339699D01*
X497757Y339699D01*
X501348Y343290D01*
X501348Y345085D01*
X498654Y347778D01*
Y337006D02*
X500450Y335210D01*
X499552Y336108D01*
X504939Y341494D01*
X503143D01*
X507632Y337006D02*
X509427D01*
X511223Y335210D01*
Y333415D01*
X507632Y329824D01*
X505836Y329824D01*
X504041Y331619D01*
Y333415D01*
X507632Y337006D01*
X513018Y331619D02*
X514814D01*
X516609Y329824D01*
X518405Y329824D01*
X499552Y373432D02*
X494166Y368046D01*
X496859Y365353D01*
X498654Y365353D01*
X502245Y368944D01*
X502245Y370739D01*
X499552Y373432D01*
Y362660D02*
X501348Y360864D01*
X500450Y361762D01*
X505836Y367148D01*
X504041D01*
Y358171D02*
X505836Y356375D01*
X504939Y357273D01*
X510325Y362660D01*
X508530D01*
X513018Y358171D02*
X514814D01*
X516609Y356375D01*
X518405Y356376D01*
X504939Y397054D02*
X499552Y391668D01*
X502245Y388975D01*
X504041Y388975D01*
X507632Y392566D01*
X507632Y394361D01*
X504939Y397054D01*
Y386282D02*
X506734Y384486D01*
X505836Y385384D01*
X511223Y390770D01*
X509427D01*
X513018Y378202D02*
X509427Y381793D01*
X516609D01*
X517507Y382691D01*
Y384486D01*
X515711Y386282D01*
X513916D01*
X504939Y420168D02*
X499552Y414782D01*
X502245Y412089D01*
X504041Y412089D01*
X507632Y415680D01*
X507632Y417475D01*
X504939Y420168D01*
Y409396D02*
X506734Y407600D01*
X505836Y408498D01*
X511223Y413884D01*
X509427D01*
X513916Y409396D02*
X515711D01*
X517507Y407600D01*
Y405805D01*
X516609Y404907D01*
X514814D01*
X513916Y405805D01*
X514814Y404907D01*
X514814Y403111D01*
X513916Y402214D01*
X512121Y402214D01*
X510325Y404009D01*
Y405805D01*
X506734Y442604D02*
X506734Y444399D01*
X504939Y446195D01*
X503143D01*
X499552Y442604D01*
Y440808D01*
X501348Y439013D01*
X503143Y439013D01*
X504939Y440808D01*
X503143Y442604D01*
X504041Y436320D02*
X509427Y441706D01*
X507632Y432729D01*
X513018Y438115D01*
X514814Y436320D02*
X509427Y430933D01*
X512121Y428240D01*
X513916Y428240D01*
X517507Y431831D01*
Y433626D01*
X514814Y436320D01*
X493268Y473964D02*
X496859Y477555D01*
X500450D01*
Y473964D01*
X496859Y470373D01*
X499552Y473066D01*
X495961Y476657D01*
X498654Y468578D02*
X504041Y473964D01*
X506734Y471271D01*
X506734Y469475D01*
X504939Y467680D01*
X503143D01*
X500450Y470373D01*
X502245Y468578D02*
X502245Y464987D01*
X513018D02*
X509427Y468578D01*
X504041Y463191D01*
X507632Y459600D01*
X506734Y465884D02*
X508530Y464089D01*
X518405Y459600D02*
X514814Y463191D01*
X512120Y460498D01*
X513916Y458703D01*
X512120Y460498D01*
X509427Y457805D01*
X506734Y494166D02*
X506734Y495961D01*
X504939Y497757D01*
X503143D01*
X502245Y496859D01*
X502245Y495064D01*
X504041Y493268D01*
X504041Y491473D01*
X503143Y490575D01*
X501348Y490575D01*
X499552Y492370D01*
Y494166D01*
X509427Y493268D02*
X504041Y487882D01*
X506734Y485188D01*
X508530Y485188D01*
X512120Y488779D01*
X512121Y490575D01*
X509427Y493268D01*
Y482495D02*
X513018Y486086D01*
X516609D01*
Y482495D01*
X513018Y478904D01*
X515711Y481598D01*
X512121Y485188D01*
X506734Y517534D02*
X506734Y519329D01*
X504939Y521125D01*
X503143D01*
X502245Y520227D01*
X502245Y518432D01*
X504041Y516636D01*
X504041Y514841D01*
X503143Y513943D01*
X501348Y513943D01*
X499552Y515738D01*
Y517534D01*
X512120Y512147D02*
X512121Y513943D01*
X510325Y515738D01*
X508530D01*
X504939Y512147D01*
Y510352D01*
X506734Y508556D01*
X508530Y508556D01*
X514814Y511250D02*
X509427Y505863D01*
X513018Y502272D01*
X510037Y250242D02*
X504650Y244856D01*
X507343Y242163D01*
X509139Y242163D01*
X512730Y245754D01*
X512730Y247549D01*
X510037Y250242D01*
X515423Y244856D02*
X519014Y241265D01*
X518116Y240367D01*
X510934D01*
X510037Y239469D01*
X518158Y228600D02*
X510540D01*
Y224791D01*
X511810Y223522D01*
X516888D01*
X518158Y224791D01*
Y228600D01*
Y215904D02*
X516888Y218443D01*
X514349Y220982D01*
X511810D01*
X510540Y219713D01*
Y217174D01*
X511810Y215904D01*
X513079D01*
X514349Y217174D01*
Y220982D01*
X516888Y213365D02*
X518158Y212095D01*
Y209556D01*
X519427Y208287D01*
X509576Y172518D02*
X504190Y167132D01*
X506883Y164439D01*
X508679Y164439D01*
X512270Y168030D01*
X512270Y169825D01*
X509576Y172518D01*
X512270Y159052D02*
X517656Y164439D01*
X512270Y164439D01*
X515861Y160848D01*
X504496Y151182D02*
X499110Y145796D01*
X501803Y143103D01*
X503599Y143103D01*
X507190Y146694D01*
X507190Y148489D01*
X504496Y151182D01*
X508985Y144898D02*
X510781D01*
X512576Y143103D01*
X512576Y141307D01*
X511678Y140410D01*
X509883D01*
X508985Y141307D01*
X509883Y140410D01*
X509883Y138614D01*
X508985Y137716D01*
X507190Y137716D01*
X505394Y139512D01*
Y141307D01*
X514371Y139512D02*
X516167D01*
X517962Y137716D01*
X519758Y137716D01*
X510084Y122480D02*
X504698Y117094D01*
X507391Y114401D01*
X509187Y114401D01*
X512778Y117992D01*
X512778Y119787D01*
X510084Y122480D01*
X513675Y108117D02*
X510084Y111708D01*
X517266D01*
X518164Y112605D01*
X518164Y114401D01*
X516369Y116196D01*
X514573D01*
X512116Y95302D02*
X506730Y89916D01*
X509423Y87223D01*
X511219Y87223D01*
X514810Y90814D01*
X514810Y92609D01*
X512116Y95302D01*
Y84530D02*
X513912Y82734D01*
X513014Y83632D01*
X518401Y89018D01*
X516605D01*
X510037Y72442D02*
X504650Y67056D01*
X507343Y64363D01*
X509139Y64363D01*
X512730Y67954D01*
X512730Y69749D01*
X510037Y72442D01*
X514525Y66158D02*
X516321D01*
X518116Y64363D01*
X518116Y62567D01*
X514525Y58976D01*
X512730Y58976D01*
X510934Y60772D01*
Y62567D01*
X514525Y66158D01*
X503753Y199442D02*
X498366Y194056D01*
X501059Y191363D01*
X502855Y191363D01*
X506446Y194954D01*
X506446Y196749D01*
X503753Y199442D01*
X512730Y190465D02*
X509139Y194056D01*
X506446Y191363D01*
X509139Y190465D01*
X510037Y189567D01*
Y187772D01*
X508241Y185976D01*
X506446Y185976D01*
X504650Y187772D01*
Y189567D01*
X513628Y187772D02*
X515423D01*
X517219Y185976D01*
X519014Y185976D01*
X73424Y62738D02*
X77015Y66329D01*
X80606D01*
Y62738D01*
X77015Y59147D01*
X79708Y61840D01*
X76117Y65431D01*
X87788Y59147D02*
X84197Y62738D01*
X81504Y60045D01*
X84197Y59147D01*
X85095Y58249D01*
Y56454D01*
X83299Y54658D01*
X81504Y54658D01*
X79708Y56454D01*
Y58249D01*
X73424Y88138D02*
X77015Y91729D01*
X80606D01*
Y88138D01*
X77015Y84547D01*
X79708Y87240D01*
X76117Y90831D01*
X81504Y80058D02*
X86890Y85445D01*
X81504Y85445D01*
X85095Y81854D01*
X73424Y113538D02*
X77015Y117129D01*
X80606D01*
Y113538D01*
X77015Y109947D01*
X79708Y112640D01*
X76117Y116231D01*
X83299Y112640D02*
X85095D01*
X86890Y110845D01*
X86890Y109049D01*
X85992Y108152D01*
X84197D01*
X83299Y109049D01*
X84197Y108152D01*
X84197Y106356D01*
X83299Y105458D01*
X81504Y105458D01*
X79708Y107254D01*
Y109049D01*
X73424Y138938D02*
X77015Y142529D01*
X80606D01*
Y138938D01*
X77015Y135347D01*
X79708Y138040D01*
X76117Y141631D01*
X82401Y129961D02*
X78811Y133552D01*
X85992D01*
X86890Y134449D01*
X86890Y136245D01*
X85095Y138040D01*
X83299D01*
X74168Y189738D02*
X77759Y193329D01*
X81350D01*
Y189738D01*
X77759Y186147D01*
X80452Y188840D01*
X76861Y192431D01*
X84043Y188840D02*
X85839D01*
X87634Y187045D01*
X87634Y185249D01*
X84043Y181658D01*
X82248Y181658D01*
X80452Y183454D01*
Y185249D01*
X84043Y188840D01*
X74168Y164338D02*
X77759Y167929D01*
X81350D01*
Y164338D01*
X77759Y160747D01*
X80452Y163440D01*
X76861Y167031D01*
X79554Y158952D02*
X81350Y157156D01*
X80452Y158054D01*
X85839Y163440D01*
X84043D01*
D18*
X318859Y715701D02*
X344170D01*
X318859Y655899D02*
Y715701D01*
Y655899D02*
X344170D01*
Y715701D01*
X290139Y440779D02*
Y466090D01*
X349941Y440779D02*
Y466090D01*
X297180D02*
X349941D01*
X290139D02*
X297180D01*
X290139Y440779D02*
X349941D01*
X392519Y715701D02*
X417830D01*
X392519Y655899D02*
X417830D01*
Y708660D01*
Y715701D01*
X392519Y655899D02*
Y715701D01*
X452699Y734149D02*
Y759460D01*
Y734149D02*
X512501D01*
Y759460D01*
X452699D02*
X512501D01*
X453479Y714431D02*
X478790D01*
X453479Y654629D02*
Y714431D01*
Y654629D02*
X478790D01*
Y714431D01*
X245199Y718241D02*
X270510D01*
X245199Y658439D02*
X270510D01*
Y711200D01*
Y718241D01*
X245199Y658439D02*
Y718241D01*
X425539Y597591D02*
X450850D01*
X425539Y537789D02*
X450850D01*
Y590550D01*
Y597591D01*
X425539Y537789D02*
Y597591D01*
M02*
