M48
;Layer_Color=9474304
;FILE_FORMAT=4:4
METRIC,LZ
;TYPE=PLATED
T01F00S00C0.3302
T02F00S00C0.8000
T04F00S00C0.9000
T05F00S00C1.0000
T07F00S00C1.0201
T08F00S00C1.1000
%
T01
X0021209Y0009144
X0022098Y0018161
X0017272Y0018415
X0019558Y0026289
X002413Y0034036
Y0040894
X0024638Y0042926
X0015367Y0044323
X003683Y0043688
Y004064
X0033782Y0033909
X0043688
X0049022
X004572Y0041656
X0048006Y0018923
X0039243Y0018542
X003429Y0018034
X0028956
X0012446Y0018288
Y0072263
X0015113Y0067564
X0021209Y0059563
X0023241Y0051562
X0027305Y0049276
X0029591
X0033782Y0049403
X0035814
X0040386Y0048006
X0047244Y0060579
X0045339Y0079883
X0059309Y0078486
X0060706Y0065532
T02
X00461321Y00816292
X00477321
X0049332
X00485322Y00828328
X00469322
T04
X0025885Y0007874
X0032385
T05
X0059309Y0072037
Y0075537
T07
X0030734Y0045339
X0033274
X0043815Y0055499
Y0058039
X0046609Y0067183
Y0069723
X004699Y0074676
X004953
X0040513Y006985
Y006731
X0033147
Y006985
X0025781Y0070104
Y0067564
T08
X0053848Y0006223
Y0008763
Y0011303
Y0013843
Y0016383
Y0018923
Y0021463
Y0024003
Y0028067
Y0030607
Y0033147
Y0035687
Y0038227
Y0040767
Y0043307
X0005588Y0040767
Y0038227
Y0035687
Y0033147
Y0030607
Y0028067
Y0025527
Y0022987
Y0018923
Y0016383
Y0013843
Y0011303
Y0008763
Y0006223
X0053848Y0045847
Y0048387
Y0050927
M30
