G04*
G04 #@! TF.GenerationSoftware,Altium Limited,Altium Designer,25.3.3 (18)*
G04*
G04 Layer_Color=8421504*
%FSLAX44Y44*%
%MOMM*%
G71*
G04*
G04 #@! TF.SameCoordinates,06983E53-0AFF-4CF9-B53D-5828CB1A506A*
G04*
G04*
G04 #@! TF.FilePolarity,Positive*
G04*
G01*
G75*
%ADD19R,1.1176X1.8034*%
G04:AMPARAMS|DCode=20|XSize=1.61mm|YSize=0.59mm|CornerRadius=0.0738mm|HoleSize=0mm|Usage=FLASHONLY|Rotation=180.000|XOffset=0mm|YOffset=0mm|HoleType=Round|Shape=RoundedRectangle|*
%AMROUNDEDRECTD20*
21,1,1.6100,0.4425,0,0,180.0*
21,1,1.4625,0.5900,0,0,180.0*
1,1,0.1475,-0.7313,0.2213*
1,1,0.1475,0.7313,0.2213*
1,1,0.1475,0.7313,-0.2213*
1,1,0.1475,-0.7313,-0.2213*
%
%ADD20ROUNDEDRECTD20*%
%ADD21R,1.9000X1.2065*%
%ADD22R,1.8034X1.1176*%
%ADD23R,1.4700X0.3000*%
%ADD24R,1.4500X0.3000*%
%ADD25R,1.5500X0.6000*%
G04:AMPARAMS|DCode=26|XSize=1.35mm|YSize=0.59mm|CornerRadius=0.1475mm|HoleSize=0mm|Usage=FLASHONLY|Rotation=90.000|XOffset=0mm|YOffset=0mm|HoleType=Round|Shape=RoundedRectangle|*
%AMROUNDEDRECTD26*
21,1,1.3500,0.2950,0,0,90.0*
21,1,1.0550,0.5900,0,0,90.0*
1,1,0.2950,0.1475,0.5275*
1,1,0.2950,0.1475,-0.5275*
1,1,0.2950,-0.1475,-0.5275*
1,1,0.2950,-0.1475,0.5275*
%
%ADD26ROUNDEDRECTD26*%
D19*
X202946Y674370D02*
D03*
X172974D02*
D03*
X319786Y367030D02*
D03*
X289814D02*
D03*
X284480Y515620D02*
D03*
X254508D02*
D03*
X379476Y590550D02*
D03*
X349504D02*
D03*
X582676Y655320D02*
D03*
X552704D02*
D03*
D20*
X428010Y408330D02*
D03*
Y417830D02*
D03*
Y427330D02*
D03*
X405110D02*
D03*
Y417830D02*
D03*
Y408330D02*
D03*
D21*
X490550Y315849D02*
D03*
X436550D02*
D03*
X490550Y283591D02*
D03*
X436550D02*
D03*
X391490Y314579D02*
D03*
X337490D02*
D03*
X391490Y282321D02*
D03*
X337490D02*
D03*
X133020Y286131D02*
D03*
X187020D02*
D03*
X133020Y318389D02*
D03*
X187020D02*
D03*
X294970Y315849D02*
D03*
X240970D02*
D03*
X294970Y283591D02*
D03*
X240970D02*
D03*
D22*
X341630Y207264D02*
D03*
Y237236D02*
D03*
X480060Y213614D02*
D03*
Y243586D02*
D03*
X392430Y213614D02*
D03*
Y243586D02*
D03*
X289560Y207264D02*
D03*
Y237236D02*
D03*
X172720Y209804D02*
D03*
Y239776D02*
D03*
X504190Y575564D02*
D03*
Y605536D02*
D03*
X565150Y576834D02*
D03*
Y606806D02*
D03*
X328930Y544576D02*
D03*
Y514604D02*
D03*
X157480Y722630D02*
D03*
Y752602D02*
D03*
X203200Y722884D02*
D03*
Y752856D02*
D03*
X403860Y500634D02*
D03*
Y530606D02*
D03*
X220980Y238506D02*
D03*
Y208534D02*
D03*
X125730Y239776D02*
D03*
Y209804D02*
D03*
D23*
X177390Y419260D02*
D03*
Y424260D02*
D03*
Y429260D02*
D03*
Y434260D02*
D03*
Y439260D02*
D03*
X221390D02*
D03*
Y434260D02*
D03*
Y429260D02*
D03*
Y424260D02*
D03*
D24*
Y419260D02*
D03*
D25*
X157150Y579120D02*
D03*
Y566420D02*
D03*
Y553720D02*
D03*
Y541020D02*
D03*
X211150Y579120D02*
D03*
Y566420D02*
D03*
Y553720D02*
D03*
Y541020D02*
D03*
D26*
X261010Y567090D02*
D03*
X270510Y593690D02*
D03*
X280010Y567090D02*
D03*
M02*
