G04*
G04 #@! TF.GenerationSoftware,Altium Limited,Altium Designer,25.3.3 (18)*
G04*
G04 Layer_Physical_Order=3*
G04 Layer_Color=128*
%FSLAX44Y44*%
%MOMM*%
G71*
G04*
G04 #@! TF.SameCoordinates,06983E53-0AFF-4CF9-B53D-5828CB1A506A*
G04*
G04*
G04 #@! TF.FilePolarity,Negative*
G04*
G01*
G75*
%ADD44C,0.8382*%
%ADD54C,1.0160*%
%ADD55C,1.6080*%
%ADD56C,1.4080*%
%ADD57C,1.5281*%
%ADD58C,1.3080*%
%ADD59O,3.5080X1.7080*%
%ADD60C,1.5080*%
D44*
X368300Y406400D02*
D03*
Y436880D02*
D03*
X273050Y492760D02*
D03*
X295910D02*
D03*
X337820Y494030D02*
D03*
X358140D02*
D03*
D54*
X0Y0D02*
Y899160D01*
X636270D01*
Y0D02*
Y899160D01*
X0Y0D02*
X636270D01*
D55*
X55880Y229870D02*
D03*
Y306070D02*
D03*
Y331470D02*
D03*
Y356870D02*
D03*
Y382270D02*
D03*
Y407670D02*
D03*
X538480Y509270D02*
D03*
Y483870D02*
D03*
Y458470D02*
D03*
Y407670D02*
D03*
Y382270D02*
D03*
Y356870D02*
D03*
Y331470D02*
D03*
Y306070D02*
D03*
Y280670D02*
D03*
Y240030D02*
D03*
Y214630D02*
D03*
Y189230D02*
D03*
Y163830D02*
D03*
Y138430D02*
D03*
Y113030D02*
D03*
Y87630D02*
D03*
Y62230D02*
D03*
X55880D02*
D03*
Y87630D02*
D03*
Y113030D02*
D03*
Y138430D02*
D03*
Y163830D02*
D03*
Y189230D02*
D03*
D56*
X323850Y78740D02*
D03*
D57*
X331470Y673100D02*
D03*
Y698500D02*
D03*
X332740Y453390D02*
D03*
X307340D02*
D03*
X405130Y673100D02*
D03*
X495300Y746760D02*
D03*
X469900D02*
D03*
X466090Y671830D02*
D03*
Y697230D02*
D03*
X257810Y675640D02*
D03*
X438150Y554990D02*
D03*
D58*
X493320Y816292D02*
D03*
X485322Y828328D02*
D03*
X469322D02*
D03*
X477321Y816292D02*
D03*
D59*
X332740Y755340D02*
D03*
X63500Y754070D02*
D03*
D60*
X593090Y720370D02*
D03*
M02*
