M48
;Layer_Color=9474304
;FILE_FORMAT=4:4
METRIC,LZ
;TYPE=PLATED
T03F00S00C0.8000
T06F00S00C1.0000
T09F00S00C1.2000
%
G90
G05
T03
G00X0044032Y00819808
M15
G01Y00830809
M16
G00X0051472Y00819808
M15
G01Y00830809
M16
G00X0051472Y00867308
M15
G01Y00878309
M16
G00X0044032Y00867308
M15
G01Y00878309
M16
T06
G00X00017Y0078657
M15
G01Y0077157
M16
G00X0028624Y0078784
M15
G01Y0077284
M16
T09
G00X000725Y0075407
M15
G01X000545
M16
G00X000725Y0081407
M15
G01X000545
M16
G00X0034174Y0081534
M15
G01X0032374
M16
G00X0034174Y0075534
M15
G01X0032374
M16
M17
M30
