G04*
G04 #@! TF.GenerationSoftware,Altium Limited,Altium Designer,25.3.3 (18)*
G04*
G04 Layer_Physical_Order=4*
G04 Layer_Color=16711680*
%FSLAX44Y44*%
%MOMM*%
G71*
G04*
G04 #@! TF.SameCoordinates,06983E53-0AFF-4CF9-B53D-5828CB1A506A*
G04*
G04*
G04 #@! TF.FilePolarity,Positive*
G04*
G01*
G75*
%ADD11C,0.2540*%
%ADD12C,0.1524*%
%ADD45C,1.5240*%
%ADD46C,1.6000*%
%ADD47C,1.6200*%
%ADD48O,1.2000X2.4000*%
%ADD49C,1.2000*%
%ADD50O,3.8000X2.0000*%
%ADD51O,1.8000X3.3000*%
%ADD52C,2.0000*%
%ADD53C,0.6350*%
G36*
X631091Y2639D02*
X5179D01*
Y896520D01*
X631091D01*
Y2639D01*
D02*
G37*
%LPC*%
G36*
X486446Y836869D02*
X484197D01*
X482025Y836286D01*
X480078Y835162D01*
X478488Y833572D01*
X478202Y833077D01*
X476442D01*
X476156Y833572D01*
X474566Y835162D01*
X472618Y836286D01*
X470447Y836869D01*
X468198D01*
X466026Y836286D01*
X464078Y835162D01*
X462489Y833572D01*
X461364Y831625D01*
X460782Y829453D01*
Y827204D01*
X461364Y825032D01*
X462489Y823085D01*
X464078Y821495D01*
X466026Y820370D01*
X468198Y819789D01*
X469008Y818264D01*
X468781Y817416D01*
Y815167D01*
X469363Y812995D01*
X470487Y811048D01*
X472077Y809458D01*
X474024Y808334D01*
X476196Y807751D01*
X478445D01*
X480617Y808334D01*
X482564Y809458D01*
X484154Y811048D01*
X484440Y811543D01*
X486200D01*
X486486Y811048D01*
X488076Y809458D01*
X490024Y808334D01*
X492196Y807751D01*
X494444D01*
X496616Y808334D01*
X498564Y809458D01*
X500154Y811048D01*
X501278Y812995D01*
X501860Y815167D01*
Y817416D01*
X501278Y819588D01*
X500154Y821535D01*
X498564Y823125D01*
X496616Y824249D01*
X494444Y824831D01*
X493634Y826356D01*
X493862Y827204D01*
Y829453D01*
X493280Y831625D01*
X492155Y833572D01*
X490565Y835162D01*
X488618Y836286D01*
X486446Y836869D01*
D02*
G37*
G36*
X341740Y767988D02*
X323740D01*
X320466Y767557D01*
X317416Y766294D01*
X314796Y764284D01*
X312786Y761664D01*
X311523Y758614D01*
X311092Y755340D01*
X311523Y752066D01*
X312786Y749016D01*
X314796Y746396D01*
X317416Y744386D01*
X320466Y743123D01*
X323740Y742692D01*
X341740D01*
X345014Y743123D01*
X348064Y744386D01*
X350684Y746396D01*
X352694Y749016D01*
X353957Y752066D01*
X354388Y755340D01*
X353957Y758614D01*
X352694Y761664D01*
X350684Y764284D01*
X348064Y766294D01*
X345014Y767557D01*
X341740Y767988D01*
D02*
G37*
G36*
X72500Y766718D02*
X54500D01*
X51226Y766287D01*
X48176Y765024D01*
X45556Y763014D01*
X43546Y760394D01*
X42283Y757344D01*
X41852Y754070D01*
X42283Y750796D01*
X43546Y747746D01*
X45556Y745126D01*
X48176Y743116D01*
X51226Y741853D01*
X54500Y741422D01*
X72500D01*
X75774Y741853D01*
X78824Y743116D01*
X81444Y745126D01*
X83454Y747746D01*
X84717Y750796D01*
X85148Y754070D01*
X84717Y757344D01*
X83454Y760394D01*
X81444Y763014D01*
X78824Y765024D01*
X75774Y766287D01*
X72500Y766718D01*
D02*
G37*
G36*
X496701Y757400D02*
X493899D01*
X491193Y756675D01*
X488767Y755274D01*
X486786Y753293D01*
X485385Y750867D01*
X484660Y748161D01*
Y745359D01*
X485385Y742653D01*
X486786Y740227D01*
X488767Y738246D01*
X491193Y736845D01*
X493899Y736120D01*
X496701D01*
X499407Y736845D01*
X501833Y738246D01*
X503814Y740227D01*
X505215Y742653D01*
X505940Y745359D01*
Y748161D01*
X505215Y750867D01*
X503814Y753293D01*
X501833Y755274D01*
X499407Y756675D01*
X496701Y757400D01*
D02*
G37*
G36*
X471301D02*
X468499D01*
X465793Y756675D01*
X463367Y755274D01*
X461386Y753293D01*
X459985Y750867D01*
X459260Y748161D01*
Y745359D01*
X459985Y742653D01*
X461386Y740227D01*
X463367Y738246D01*
X465793Y736845D01*
X468499Y736120D01*
X471301D01*
X474007Y736845D01*
X476433Y738246D01*
X478414Y740227D01*
X479815Y742653D01*
X480540Y745359D01*
Y748161D01*
X479815Y750867D01*
X478414Y753293D01*
X476433Y755274D01*
X474007Y756675D01*
X471301Y757400D01*
D02*
G37*
G36*
X594741Y732910D02*
X591439D01*
X588250Y732055D01*
X585390Y730405D01*
X583055Y728070D01*
X581405Y725210D01*
X580550Y722021D01*
Y718719D01*
X581405Y715530D01*
X583055Y712670D01*
X585390Y710336D01*
X588250Y708685D01*
X591439Y707830D01*
X594741D01*
X597930Y708685D01*
X600790Y710336D01*
X603125Y712670D01*
X604775Y715530D01*
X605630Y718719D01*
Y722021D01*
X604775Y725210D01*
X603125Y728070D01*
X600790Y730405D01*
X597930Y732055D01*
X594741Y732910D01*
D02*
G37*
G36*
X332871Y709140D02*
X330069D01*
X327363Y708415D01*
X324937Y707014D01*
X322956Y705033D01*
X321555Y702607D01*
X320830Y699901D01*
Y697099D01*
X321555Y694393D01*
X322956Y691967D01*
X324937Y689986D01*
X327363Y688585D01*
X330069Y687860D01*
X332871D01*
X335577Y688585D01*
X338003Y689986D01*
X339984Y691967D01*
X341385Y694393D01*
X342110Y697099D01*
Y699901D01*
X341385Y702607D01*
X339984Y705033D01*
X338003Y707014D01*
X335577Y708415D01*
X332871Y709140D01*
D02*
G37*
G36*
X467491Y707870D02*
X464689D01*
X461983Y707145D01*
X459557Y705744D01*
X457576Y703763D01*
X456175Y701337D01*
X455450Y698631D01*
Y695829D01*
X456175Y693123D01*
X457576Y690697D01*
X459557Y688716D01*
X461983Y687315D01*
X464689Y686590D01*
X467491D01*
X470197Y687315D01*
X472623Y688716D01*
X474604Y690697D01*
X476005Y693123D01*
X476730Y695829D01*
Y698631D01*
X476005Y701337D01*
X474604Y703763D01*
X472623Y705744D01*
X470197Y707145D01*
X467491Y707870D01*
D02*
G37*
G36*
X259211Y686280D02*
X256409D01*
X253703Y685555D01*
X251277Y684154D01*
X249296Y682173D01*
X247895Y679747D01*
X247170Y677041D01*
Y674239D01*
X247895Y671533D01*
X249296Y669107D01*
X251277Y667126D01*
X253703Y665725D01*
X256409Y665000D01*
X259211D01*
X261917Y665725D01*
X264343Y667126D01*
X266324Y669107D01*
X267725Y671533D01*
X268450Y674239D01*
Y677041D01*
X267725Y679747D01*
X266324Y682173D01*
X264343Y684154D01*
X261917Y685555D01*
X259211Y686280D01*
D02*
G37*
G36*
X406531Y683740D02*
X403729D01*
X401023Y683015D01*
X398597Y681614D01*
X396616Y679633D01*
X395215Y677207D01*
X394490Y674501D01*
Y671699D01*
X395215Y668993D01*
X396616Y666567D01*
X398597Y664586D01*
X401023Y663185D01*
X403729Y662460D01*
X406531D01*
X409237Y663185D01*
X411663Y664586D01*
X413644Y666567D01*
X415045Y668993D01*
X415770Y671699D01*
Y674501D01*
X415045Y677207D01*
X413644Y679633D01*
X411663Y681614D01*
X409237Y683015D01*
X406531Y683740D01*
D02*
G37*
G36*
X332871D02*
X330069D01*
X327363Y683015D01*
X324937Y681614D01*
X322956Y679633D01*
X321555Y677207D01*
X320830Y674501D01*
Y671699D01*
X321555Y668993D01*
X322956Y666567D01*
X324937Y664586D01*
X327363Y663185D01*
X330069Y662460D01*
X332871D01*
X335577Y663185D01*
X338003Y664586D01*
X339984Y666567D01*
X341385Y668993D01*
X342110Y671699D01*
Y674501D01*
X341385Y677207D01*
X339984Y679633D01*
X338003Y681614D01*
X335577Y683015D01*
X332871Y683740D01*
D02*
G37*
G36*
X467491Y682470D02*
X464689D01*
X461983Y681745D01*
X459557Y680344D01*
X457576Y678363D01*
X456175Y675937D01*
X455450Y673231D01*
Y670429D01*
X456175Y667723D01*
X457576Y665297D01*
X459557Y663316D01*
X461983Y661915D01*
X464689Y661190D01*
X467491D01*
X470197Y661915D01*
X472623Y663316D01*
X474604Y665297D01*
X476005Y667723D01*
X476730Y670429D01*
Y673231D01*
X476005Y675937D01*
X474604Y678363D01*
X472623Y680344D01*
X470197Y681745D01*
X467491Y682470D01*
D02*
G37*
G36*
X439551Y565630D02*
X436749D01*
X434043Y564905D01*
X431617Y563504D01*
X429636Y561523D01*
X428235Y559097D01*
X427510Y556391D01*
Y553589D01*
X428235Y550883D01*
X429636Y548457D01*
X431617Y546476D01*
X434043Y545075D01*
X436749Y544350D01*
X439551D01*
X442257Y545075D01*
X444683Y546476D01*
X446664Y548457D01*
X448065Y550883D01*
X448790Y553589D01*
Y556391D01*
X448065Y559097D01*
X446664Y561523D01*
X444683Y563504D01*
X442257Y564905D01*
X439551Y565630D01*
D02*
G37*
G36*
X539818Y519430D02*
X537142D01*
X534558Y518738D01*
X532242Y517400D01*
X530350Y515508D01*
X529012Y513192D01*
X528320Y510608D01*
Y507932D01*
X529012Y505348D01*
X530350Y503032D01*
X532242Y501140D01*
X534558Y499802D01*
X537142Y499110D01*
X539818D01*
X542402Y499802D01*
X544718Y501140D01*
X546610Y503032D01*
X547948Y505348D01*
X548640Y507932D01*
Y510608D01*
X547948Y513192D01*
X546610Y515508D01*
X544718Y517400D01*
X542402Y518738D01*
X539818Y519430D01*
D02*
G37*
G36*
X359277Y499745D02*
X357003D01*
X354903Y498875D01*
X353424Y497397D01*
X342852D01*
X342280Y497779D01*
X342122Y497811D01*
X341057Y498875D01*
X338957Y499745D01*
X336683D01*
X334583Y498875D01*
X332975Y497267D01*
X332105Y495167D01*
Y492893D01*
X332975Y490793D01*
X334583Y489185D01*
X336683Y488315D01*
X338957D01*
X341057Y489185D01*
X342536Y490663D01*
X353424D01*
X354903Y489185D01*
X357003Y488315D01*
X359277D01*
X361377Y489185D01*
X362985Y490793D01*
X363855Y492893D01*
Y495167D01*
X362985Y497267D01*
X361377Y498875D01*
X359277Y499745D01*
D02*
G37*
G36*
X297047Y498475D02*
X294773D01*
X292673Y497605D01*
X291194Y496127D01*
X277766D01*
X276287Y497605D01*
X274187Y498475D01*
X271913D01*
X269813Y497605D01*
X268205Y495997D01*
X267335Y493897D01*
Y491623D01*
X268205Y489523D01*
X269813Y487915D01*
X271913Y487045D01*
X274187D01*
X276287Y487915D01*
X277766Y489393D01*
X291194D01*
X292673Y487915D01*
X294773Y487045D01*
X297047D01*
X299147Y487915D01*
X300755Y489523D01*
X301625Y491623D01*
Y493897D01*
X300755Y495997D01*
X299147Y497605D01*
X297047Y498475D01*
D02*
G37*
G36*
X539818Y494030D02*
X537142D01*
X534558Y493338D01*
X532242Y492000D01*
X530350Y490108D01*
X529012Y487792D01*
X528320Y485208D01*
Y482532D01*
X529012Y479948D01*
X530350Y477632D01*
X532242Y475740D01*
X534558Y474402D01*
X537142Y473710D01*
X539818D01*
X542402Y474402D01*
X544718Y475740D01*
X546610Y477632D01*
X547948Y479948D01*
X548640Y482532D01*
Y485208D01*
X547948Y487792D01*
X546610Y490108D01*
X544718Y492000D01*
X542402Y493338D01*
X539818Y494030D01*
D02*
G37*
G36*
Y468630D02*
X537142D01*
X534558Y467938D01*
X532242Y466600D01*
X530350Y464708D01*
X529012Y462392D01*
X528320Y459808D01*
Y457132D01*
X529012Y454548D01*
X530350Y452232D01*
X532242Y450340D01*
X534558Y449002D01*
X537142Y448310D01*
X539818D01*
X542402Y449002D01*
X544718Y450340D01*
X546610Y452232D01*
X547948Y454548D01*
X548640Y457132D01*
Y459808D01*
X547948Y462392D01*
X546610Y464708D01*
X544718Y466600D01*
X542402Y467938D01*
X539818Y468630D01*
D02*
G37*
G36*
X334141Y464030D02*
X331339D01*
X328633Y463305D01*
X326207Y461904D01*
X324226Y459923D01*
X322825Y457497D01*
X322100Y454791D01*
Y451989D01*
X322825Y449283D01*
X324226Y446857D01*
X326207Y444876D01*
X328633Y443475D01*
X331339Y442750D01*
X334141D01*
X336847Y443475D01*
X339273Y444876D01*
X341254Y446857D01*
X342655Y449283D01*
X343380Y451989D01*
Y454791D01*
X342655Y457497D01*
X341254Y459923D01*
X339273Y461904D01*
X336847Y463305D01*
X334141Y464030D01*
D02*
G37*
G36*
X308741D02*
X305939D01*
X303233Y463305D01*
X300807Y461904D01*
X298826Y459923D01*
X297425Y457497D01*
X296700Y454791D01*
Y451989D01*
X297425Y449283D01*
X298826Y446857D01*
X300807Y444876D01*
X303233Y443475D01*
X305939Y442750D01*
X308741D01*
X311447Y443475D01*
X313873Y444876D01*
X315854Y446857D01*
X317255Y449283D01*
X317980Y451989D01*
Y454791D01*
X317255Y457497D01*
X315854Y459923D01*
X313873Y461904D01*
X311447Y463305D01*
X308741Y464030D01*
D02*
G37*
G36*
X369437Y442595D02*
X367163D01*
X365063Y441725D01*
X363455Y440117D01*
X362585Y438017D01*
Y435743D01*
X363455Y433643D01*
X364415Y432682D01*
Y410598D01*
X363455Y409637D01*
X362585Y407537D01*
Y405263D01*
X363455Y403163D01*
X365063Y401555D01*
X367163Y400685D01*
X369437D01*
X371537Y401555D01*
X373145Y403163D01*
X374015Y405263D01*
Y407537D01*
X373145Y409637D01*
X372185Y410598D01*
Y432682D01*
X373145Y433643D01*
X374015Y435743D01*
Y438017D01*
X373145Y440117D01*
X371537Y441725D01*
X369437Y442595D01*
D02*
G37*
G36*
X539818Y417830D02*
X537142D01*
X534558Y417138D01*
X532242Y415800D01*
X530350Y413908D01*
X529012Y411592D01*
X528320Y409008D01*
Y406332D01*
X529012Y403748D01*
X530350Y401432D01*
X532242Y399540D01*
X534558Y398202D01*
X537142Y397510D01*
X539818D01*
X542402Y398202D01*
X544718Y399540D01*
X546610Y401432D01*
X547948Y403748D01*
X548640Y406332D01*
Y409008D01*
X547948Y411592D01*
X546610Y413908D01*
X544718Y415800D01*
X542402Y417138D01*
X539818Y417830D01*
D02*
G37*
G36*
X57218D02*
X54542D01*
X51958Y417138D01*
X49642Y415800D01*
X47750Y413908D01*
X46412Y411592D01*
X45720Y409008D01*
Y406332D01*
X46412Y403748D01*
X47750Y401432D01*
X49642Y399540D01*
X51958Y398202D01*
X54542Y397510D01*
X57218D01*
X59802Y398202D01*
X62118Y399540D01*
X64010Y401432D01*
X65348Y403748D01*
X66040Y406332D01*
Y409008D01*
X65348Y411592D01*
X64010Y413908D01*
X62118Y415800D01*
X59802Y417138D01*
X57218Y417830D01*
D02*
G37*
G36*
X539818Y392430D02*
X537142D01*
X534558Y391738D01*
X532242Y390400D01*
X530350Y388508D01*
X529012Y386192D01*
X528320Y383608D01*
Y380932D01*
X529012Y378348D01*
X530350Y376032D01*
X532242Y374140D01*
X534558Y372802D01*
X537142Y372110D01*
X539818D01*
X542402Y372802D01*
X544718Y374140D01*
X546610Y376032D01*
X547948Y378348D01*
X548640Y380932D01*
Y383608D01*
X547948Y386192D01*
X546610Y388508D01*
X544718Y390400D01*
X542402Y391738D01*
X539818Y392430D01*
D02*
G37*
G36*
X57218D02*
X54542D01*
X51958Y391738D01*
X49642Y390400D01*
X47750Y388508D01*
X46412Y386192D01*
X45720Y383608D01*
Y380932D01*
X46412Y378348D01*
X47750Y376032D01*
X49642Y374140D01*
X51958Y372802D01*
X54542Y372110D01*
X57218D01*
X59802Y372802D01*
X62118Y374140D01*
X64010Y376032D01*
X65348Y378348D01*
X66040Y380932D01*
Y383608D01*
X65348Y386192D01*
X64010Y388508D01*
X62118Y390400D01*
X59802Y391738D01*
X57218Y392430D01*
D02*
G37*
G36*
X539818Y367030D02*
X537142D01*
X534558Y366338D01*
X532242Y365000D01*
X530350Y363108D01*
X529012Y360792D01*
X528320Y358208D01*
Y355532D01*
X529012Y352948D01*
X530350Y350632D01*
X532242Y348740D01*
X534558Y347402D01*
X537142Y346710D01*
X539818D01*
X542402Y347402D01*
X544718Y348740D01*
X546610Y350632D01*
X547948Y352948D01*
X548640Y355532D01*
Y358208D01*
X547948Y360792D01*
X546610Y363108D01*
X544718Y365000D01*
X542402Y366338D01*
X539818Y367030D01*
D02*
G37*
G36*
X57218D02*
X54542D01*
X51958Y366338D01*
X49642Y365000D01*
X47750Y363108D01*
X46412Y360792D01*
X45720Y358208D01*
Y355532D01*
X46412Y352948D01*
X47750Y350632D01*
X49642Y348740D01*
X51958Y347402D01*
X54542Y346710D01*
X57218D01*
X59802Y347402D01*
X62118Y348740D01*
X64010Y350632D01*
X65348Y352948D01*
X66040Y355532D01*
Y358208D01*
X65348Y360792D01*
X64010Y363108D01*
X62118Y365000D01*
X59802Y366338D01*
X57218Y367030D01*
D02*
G37*
G36*
X539818Y341630D02*
X537142D01*
X534558Y340938D01*
X532242Y339600D01*
X530350Y337708D01*
X529012Y335392D01*
X528320Y332808D01*
Y330132D01*
X529012Y327548D01*
X530350Y325232D01*
X532242Y323340D01*
X534558Y322002D01*
X537142Y321310D01*
X539818D01*
X542402Y322002D01*
X544718Y323340D01*
X546610Y325232D01*
X547948Y327548D01*
X548640Y330132D01*
Y332808D01*
X547948Y335392D01*
X546610Y337708D01*
X544718Y339600D01*
X542402Y340938D01*
X539818Y341630D01*
D02*
G37*
G36*
X57218D02*
X54542D01*
X51958Y340938D01*
X49642Y339600D01*
X47750Y337708D01*
X46412Y335392D01*
X45720Y332808D01*
Y330132D01*
X46412Y327548D01*
X47750Y325232D01*
X49642Y323340D01*
X51958Y322002D01*
X54542Y321310D01*
X57218D01*
X59802Y322002D01*
X62118Y323340D01*
X64010Y325232D01*
X65348Y327548D01*
X66040Y330132D01*
Y332808D01*
X65348Y335392D01*
X64010Y337708D01*
X62118Y339600D01*
X59802Y340938D01*
X57218Y341630D01*
D02*
G37*
G36*
X539818Y316230D02*
X537142D01*
X534558Y315538D01*
X532242Y314200D01*
X530350Y312308D01*
X529012Y309992D01*
X528320Y307408D01*
Y304732D01*
X529012Y302148D01*
X530350Y299832D01*
X532242Y297940D01*
X534558Y296602D01*
X537142Y295910D01*
X539818D01*
X542402Y296602D01*
X544718Y297940D01*
X546610Y299832D01*
X547948Y302148D01*
X548640Y304732D01*
Y307408D01*
X547948Y309992D01*
X546610Y312308D01*
X544718Y314200D01*
X542402Y315538D01*
X539818Y316230D01*
D02*
G37*
G36*
X57218D02*
X54542D01*
X51958Y315538D01*
X49642Y314200D01*
X47750Y312308D01*
X46412Y309992D01*
X45720Y307408D01*
Y304732D01*
X46412Y302148D01*
X47750Y299832D01*
X49642Y297940D01*
X51958Y296602D01*
X54542Y295910D01*
X57218D01*
X59802Y296602D01*
X62118Y297940D01*
X64010Y299832D01*
X65348Y302148D01*
X66040Y304732D01*
Y307408D01*
X65348Y309992D01*
X64010Y312308D01*
X62118Y314200D01*
X59802Y315538D01*
X57218Y316230D01*
D02*
G37*
G36*
X539818Y290830D02*
X537142D01*
X534558Y290138D01*
X532242Y288800D01*
X530350Y286908D01*
X529012Y284592D01*
X528320Y282008D01*
Y279332D01*
X529012Y276748D01*
X530350Y274432D01*
X532242Y272540D01*
X534558Y271202D01*
X537142Y270510D01*
X539818D01*
X542402Y271202D01*
X544718Y272540D01*
X546610Y274432D01*
X547948Y276748D01*
X548640Y279332D01*
Y282008D01*
X547948Y284592D01*
X546610Y286908D01*
X544718Y288800D01*
X542402Y290138D01*
X539818Y290830D01*
D02*
G37*
G36*
Y250190D02*
X537142D01*
X534558Y249498D01*
X532242Y248160D01*
X530350Y246268D01*
X529012Y243952D01*
X528320Y241368D01*
Y238692D01*
X529012Y236108D01*
X530350Y233792D01*
X532242Y231900D01*
X534558Y230562D01*
X537142Y229870D01*
X539818D01*
X542402Y230562D01*
X544718Y231900D01*
X546610Y233792D01*
X547948Y236108D01*
X548640Y238692D01*
Y241368D01*
X547948Y243952D01*
X546610Y246268D01*
X544718Y248160D01*
X542402Y249498D01*
X539818Y250190D01*
D02*
G37*
G36*
X57218Y240030D02*
X54542D01*
X51958Y239338D01*
X49642Y238000D01*
X47750Y236108D01*
X46412Y233792D01*
X45720Y231208D01*
Y228532D01*
X46412Y225948D01*
X47750Y223632D01*
X49642Y221740D01*
X51958Y220402D01*
X54542Y219710D01*
X57218D01*
X59802Y220402D01*
X62118Y221740D01*
X64010Y223632D01*
X65348Y225948D01*
X66040Y228532D01*
Y231208D01*
X65348Y233792D01*
X64010Y236108D01*
X62118Y238000D01*
X59802Y239338D01*
X57218Y240030D01*
D02*
G37*
G36*
X539818Y224790D02*
X537142D01*
X534558Y224098D01*
X532242Y222760D01*
X530350Y220868D01*
X529012Y218552D01*
X528320Y215968D01*
Y213292D01*
X529012Y210708D01*
X530350Y208392D01*
X532242Y206500D01*
X534558Y205162D01*
X537142Y204470D01*
X539818D01*
X542402Y205162D01*
X544718Y206500D01*
X546610Y208392D01*
X547948Y210708D01*
X548640Y213292D01*
Y215968D01*
X547948Y218552D01*
X546610Y220868D01*
X544718Y222760D01*
X542402Y224098D01*
X539818Y224790D01*
D02*
G37*
G36*
Y199390D02*
X537142D01*
X534558Y198698D01*
X532242Y197360D01*
X530350Y195468D01*
X529012Y193152D01*
X528320Y190568D01*
Y187892D01*
X529012Y185308D01*
X530350Y182992D01*
X532242Y181100D01*
X534558Y179762D01*
X537142Y179070D01*
X539818D01*
X542402Y179762D01*
X544718Y181100D01*
X546610Y182992D01*
X547948Y185308D01*
X548640Y187892D01*
Y190568D01*
X547948Y193152D01*
X546610Y195468D01*
X544718Y197360D01*
X542402Y198698D01*
X539818Y199390D01*
D02*
G37*
G36*
X57218D02*
X54542D01*
X51958Y198698D01*
X49642Y197360D01*
X47750Y195468D01*
X46412Y193152D01*
X45720Y190568D01*
Y187892D01*
X46412Y185308D01*
X47750Y182992D01*
X49642Y181100D01*
X51958Y179762D01*
X54542Y179070D01*
X57218D01*
X59802Y179762D01*
X62118Y181100D01*
X64010Y182992D01*
X65348Y185308D01*
X66040Y187892D01*
Y190568D01*
X65348Y193152D01*
X64010Y195468D01*
X62118Y197360D01*
X59802Y198698D01*
X57218Y199390D01*
D02*
G37*
G36*
X539818Y173990D02*
X537142D01*
X534558Y173298D01*
X532242Y171960D01*
X530350Y170068D01*
X529012Y167752D01*
X528320Y165168D01*
Y162492D01*
X529012Y159908D01*
X530350Y157592D01*
X532242Y155700D01*
X534558Y154362D01*
X537142Y153670D01*
X539818D01*
X542402Y154362D01*
X544718Y155700D01*
X546610Y157592D01*
X547948Y159908D01*
X548640Y162492D01*
Y165168D01*
X547948Y167752D01*
X546610Y170068D01*
X544718Y171960D01*
X542402Y173298D01*
X539818Y173990D01*
D02*
G37*
G36*
X57218D02*
X54542D01*
X51958Y173298D01*
X49642Y171960D01*
X47750Y170068D01*
X46412Y167752D01*
X45720Y165168D01*
Y162492D01*
X46412Y159908D01*
X47750Y157592D01*
X49642Y155700D01*
X51958Y154362D01*
X54542Y153670D01*
X57218D01*
X59802Y154362D01*
X62118Y155700D01*
X64010Y157592D01*
X65348Y159908D01*
X66040Y162492D01*
Y165168D01*
X65348Y167752D01*
X64010Y170068D01*
X62118Y171960D01*
X59802Y173298D01*
X57218Y173990D01*
D02*
G37*
G36*
X539818Y148590D02*
X537142D01*
X534558Y147898D01*
X532242Y146560D01*
X530350Y144668D01*
X529012Y142352D01*
X528320Y139768D01*
Y137092D01*
X529012Y134508D01*
X530350Y132192D01*
X532242Y130300D01*
X534558Y128962D01*
X537142Y128270D01*
X539818D01*
X542402Y128962D01*
X544718Y130300D01*
X546610Y132192D01*
X547948Y134508D01*
X548640Y137092D01*
Y139768D01*
X547948Y142352D01*
X546610Y144668D01*
X544718Y146560D01*
X542402Y147898D01*
X539818Y148590D01*
D02*
G37*
G36*
X57218D02*
X54542D01*
X51958Y147898D01*
X49642Y146560D01*
X47750Y144668D01*
X46412Y142352D01*
X45720Y139768D01*
Y137092D01*
X46412Y134508D01*
X47750Y132192D01*
X49642Y130300D01*
X51958Y128962D01*
X54542Y128270D01*
X57218D01*
X59802Y128962D01*
X62118Y130300D01*
X64010Y132192D01*
X65348Y134508D01*
X66040Y137092D01*
Y139768D01*
X65348Y142352D01*
X64010Y144668D01*
X62118Y146560D01*
X59802Y147898D01*
X57218Y148590D01*
D02*
G37*
G36*
X539818Y123190D02*
X537142D01*
X534558Y122498D01*
X532242Y121160D01*
X530350Y119268D01*
X529012Y116952D01*
X528320Y114368D01*
Y111692D01*
X529012Y109108D01*
X530350Y106792D01*
X532242Y104900D01*
X534558Y103562D01*
X537142Y102870D01*
X539818D01*
X542402Y103562D01*
X544718Y104900D01*
X546610Y106792D01*
X547948Y109108D01*
X548640Y111692D01*
Y114368D01*
X547948Y116952D01*
X546610Y119268D01*
X544718Y121160D01*
X542402Y122498D01*
X539818Y123190D01*
D02*
G37*
G36*
X57218D02*
X54542D01*
X51958Y122498D01*
X49642Y121160D01*
X47750Y119268D01*
X46412Y116952D01*
X45720Y114368D01*
Y111692D01*
X46412Y109108D01*
X47750Y106792D01*
X49642Y104900D01*
X51958Y103562D01*
X54542Y102870D01*
X57218D01*
X59802Y103562D01*
X62118Y104900D01*
X64010Y106792D01*
X65348Y109108D01*
X66040Y111692D01*
Y114368D01*
X65348Y116952D01*
X64010Y119268D01*
X62118Y121160D01*
X59802Y122498D01*
X57218Y123190D01*
D02*
G37*
G36*
X539818Y97790D02*
X537142D01*
X534558Y97098D01*
X532242Y95760D01*
X530350Y93868D01*
X529012Y91552D01*
X528320Y88968D01*
Y86292D01*
X529012Y83708D01*
X530350Y81392D01*
X532242Y79500D01*
X534558Y78162D01*
X537142Y77470D01*
X539818D01*
X542402Y78162D01*
X544718Y79500D01*
X546610Y81392D01*
X547948Y83708D01*
X548640Y86292D01*
Y88968D01*
X547948Y91552D01*
X546610Y93868D01*
X544718Y95760D01*
X542402Y97098D01*
X539818Y97790D01*
D02*
G37*
G36*
X57218D02*
X54542D01*
X51958Y97098D01*
X49642Y95760D01*
X47750Y93868D01*
X46412Y91552D01*
X45720Y88968D01*
Y86292D01*
X46412Y83708D01*
X47750Y81392D01*
X49642Y79500D01*
X51958Y78162D01*
X54542Y77470D01*
X57218D01*
X59802Y78162D01*
X62118Y79500D01*
X64010Y81392D01*
X65348Y83708D01*
X66040Y86292D01*
Y88968D01*
X65348Y91552D01*
X64010Y93868D01*
X62118Y95760D01*
X59802Y97098D01*
X57218Y97790D01*
D02*
G37*
G36*
X325238Y89280D02*
X322462D01*
X319782Y88562D01*
X317378Y87174D01*
X315416Y85212D01*
X314028Y82808D01*
X313310Y80128D01*
Y77352D01*
X314028Y74672D01*
X315416Y72268D01*
X317378Y70306D01*
X319782Y68918D01*
X322462Y68200D01*
X325238D01*
X327918Y68918D01*
X330322Y70306D01*
X332284Y72268D01*
X333672Y74672D01*
X334390Y77352D01*
Y80128D01*
X333672Y82808D01*
X332284Y85212D01*
X330322Y87174D01*
X327918Y88562D01*
X325238Y89280D01*
D02*
G37*
G36*
X539818Y72390D02*
X537142D01*
X534558Y71698D01*
X532242Y70360D01*
X530350Y68468D01*
X529012Y66152D01*
X528320Y63568D01*
Y60892D01*
X529012Y58308D01*
X530350Y55992D01*
X532242Y54100D01*
X534558Y52762D01*
X537142Y52070D01*
X539818D01*
X542402Y52762D01*
X544718Y54100D01*
X546610Y55992D01*
X547948Y58308D01*
X548640Y60892D01*
Y63568D01*
X547948Y66152D01*
X546610Y68468D01*
X544718Y70360D01*
X542402Y71698D01*
X539818Y72390D01*
D02*
G37*
G36*
X57218D02*
X54542D01*
X51958Y71698D01*
X49642Y70360D01*
X47750Y68468D01*
X46412Y66152D01*
X45720Y63568D01*
Y60892D01*
X46412Y58308D01*
X47750Y55992D01*
X49642Y54100D01*
X51958Y52762D01*
X54542Y52070D01*
X57218D01*
X59802Y52762D01*
X62118Y54100D01*
X64010Y55992D01*
X65348Y58308D01*
X66040Y60892D01*
Y63568D01*
X65348Y66152D01*
X64010Y68468D01*
X62118Y70360D01*
X59802Y71698D01*
X57218Y72390D01*
D02*
G37*
%LPD*%
D11*
X368300Y406400D02*
Y436880D01*
D12*
X273050Y492760D02*
X295910D01*
X337820Y494030D02*
X338459Y494669D01*
X340991D01*
X341630Y494030D01*
X358140D01*
D45*
X55880Y229870D02*
D03*
Y255270D02*
D03*
Y280670D02*
D03*
Y306070D02*
D03*
Y331470D02*
D03*
Y356870D02*
D03*
Y382270D02*
D03*
Y407670D02*
D03*
X538480Y509270D02*
D03*
Y483870D02*
D03*
Y458470D02*
D03*
Y433070D02*
D03*
Y407670D02*
D03*
Y382270D02*
D03*
Y356870D02*
D03*
Y331470D02*
D03*
Y306070D02*
D03*
Y280670D02*
D03*
Y240030D02*
D03*
Y214630D02*
D03*
Y189230D02*
D03*
Y163830D02*
D03*
Y138430D02*
D03*
Y113030D02*
D03*
Y87630D02*
D03*
Y62230D02*
D03*
X55880D02*
D03*
Y87630D02*
D03*
Y113030D02*
D03*
Y138430D02*
D03*
Y163830D02*
D03*
Y189230D02*
D03*
D46*
X258850Y78740D02*
D03*
X323850D02*
D03*
D47*
X331470Y673100D02*
D03*
Y698500D02*
D03*
X332740Y453390D02*
D03*
X307340D02*
D03*
X405130Y673100D02*
D03*
Y698500D02*
D03*
X495300Y746760D02*
D03*
X469900D02*
D03*
X466090Y671830D02*
D03*
Y697230D02*
D03*
X257810Y675640D02*
D03*
Y701040D02*
D03*
X438150Y554990D02*
D03*
Y580390D02*
D03*
D48*
X440320Y872809D02*
D03*
Y825309D02*
D03*
X514720D02*
D03*
Y872809D02*
D03*
D49*
X493320Y816292D02*
D03*
X485322Y828328D02*
D03*
X469322D02*
D03*
X477321Y816292D02*
D03*
X461321D02*
D03*
D50*
X332740Y755340D02*
D03*
Y815340D02*
D03*
X63500Y754070D02*
D03*
Y814070D02*
D03*
D51*
X286240Y780340D02*
D03*
X17000Y779070D02*
D03*
D52*
X593090Y755370D02*
D03*
Y720370D02*
D03*
D53*
X212090Y91440D02*
D03*
X368300Y406400D02*
D03*
Y436880D02*
D03*
X241300Y408940D02*
D03*
X153670Y443230D02*
D03*
X195580Y262890D02*
D03*
X480060Y189230D02*
D03*
X392430Y185420D02*
D03*
X342900Y180340D02*
D03*
X289560D02*
D03*
X220980Y181610D02*
D03*
X172720Y184150D02*
D03*
X124460Y182880D02*
D03*
X490220Y339090D02*
D03*
X436880D02*
D03*
X337820D02*
D03*
X241300Y340360D02*
D03*
X273050Y492760D02*
D03*
X295910D02*
D03*
X337820Y494030D02*
D03*
X358140D02*
D03*
X457200Y416560D02*
D03*
X246380Y429260D02*
D03*
X232410Y515620D02*
D03*
X212090Y595630D02*
D03*
X403860Y480060D02*
D03*
X472440Y605790D02*
D03*
X607060Y655320D02*
D03*
X593090Y784860D02*
D03*
X453390Y798830D02*
D03*
X151130Y675640D02*
D03*
X124460Y722630D02*
D03*
M02*
