G04*
G04 #@! TF.GenerationSoftware,Altium Limited,Altium Designer,25.3.3 (18)*
G04*
G04 Layer_Physical_Order=1*
G04 Layer_Color=255*
%FSLAX44Y44*%
%MOMM*%
G71*
G04*
G04 #@! TF.SameCoordinates,06983E53-0AFF-4CF9-B53D-5828CB1A506A*
G04*
G04*
G04 #@! TF.FilePolarity,Positive*
G04*
G01*
G75*
%ADD11C,0.2540*%
%ADD12C,0.1524*%
%ADD13C,0.5080*%
%ADD19R,1.1176X1.8034*%
G04:AMPARAMS|DCode=20|XSize=1.61mm|YSize=0.59mm|CornerRadius=0.0738mm|HoleSize=0mm|Usage=FLASHONLY|Rotation=180.000|XOffset=0mm|YOffset=0mm|HoleType=Round|Shape=RoundedRectangle|*
%AMROUNDEDRECTD20*
21,1,1.6100,0.4425,0,0,180.0*
21,1,1.4625,0.5900,0,0,180.0*
1,1,0.1475,-0.7313,0.2213*
1,1,0.1475,0.7313,0.2213*
1,1,0.1475,0.7313,-0.2213*
1,1,0.1475,-0.7313,-0.2213*
%
%ADD20ROUNDEDRECTD20*%
%ADD21R,1.9000X1.2065*%
%ADD22R,1.8034X1.1176*%
%ADD23R,1.4700X0.3000*%
%ADD24R,1.4500X0.3000*%
%ADD25R,1.5500X0.6000*%
G04:AMPARAMS|DCode=26|XSize=1.35mm|YSize=0.59mm|CornerRadius=0.1475mm|HoleSize=0mm|Usage=FLASHONLY|Rotation=90.000|XOffset=0mm|YOffset=0mm|HoleType=Round|Shape=RoundedRectangle|*
%AMROUNDEDRECTD26*
21,1,1.3500,0.2950,0,0,90.0*
21,1,1.0550,0.5900,0,0,90.0*
1,1,0.2950,0.1475,0.5275*
1,1,0.2950,0.1475,-0.5275*
1,1,0.2950,-0.1475,-0.5275*
1,1,0.2950,-0.1475,0.5275*
%
%ADD26ROUNDEDRECTD26*%
%ADD45C,1.5240*%
%ADD46C,1.6000*%
%ADD47C,1.6200*%
%ADD48O,1.2000X2.4000*%
%ADD49C,1.2000*%
%ADD50O,3.8000X2.0000*%
%ADD51O,1.8000X3.3000*%
%ADD52C,2.0000*%
%ADD53C,0.6350*%
D11*
X428010Y408330D02*
X433110D01*
X434790Y406650D01*
Y401570D02*
Y406650D01*
Y401570D02*
X435610Y400750D01*
Y396458D02*
Y400750D01*
X434122Y394970D02*
X435610Y396458D01*
X379730Y394970D02*
X434122D01*
X368300Y406400D02*
X379730Y394970D01*
X368300Y436880D02*
Y473992D01*
X351155Y491137D02*
X368300Y473992D01*
X351155Y491137D02*
Y496923D01*
X360680Y506448D01*
Y532819D01*
X315849Y577650D02*
X360680Y532819D01*
X227130Y577650D02*
X315849D01*
X215900Y566420D02*
X227130Y577650D01*
X211150Y566420D02*
X215900D01*
X428010Y427330D02*
X428670Y427990D01*
X473492D01*
X474980Y426502D01*
Y390108D02*
Y426502D01*
X473492Y388620D02*
X474980Y390108D01*
X179070Y388620D02*
X473492D01*
X143510Y424180D02*
X179070Y388620D01*
X143510Y424180D02*
X162560D01*
X177390Y429260D02*
X179070D01*
X167640D02*
X177390D01*
X162560Y424180D02*
X167640Y429260D01*
X98643Y424180D02*
X143510D01*
X88047Y434776D02*
X98643Y424180D01*
X30480Y434776D02*
X88047D01*
D12*
X124460Y182880D02*
Y208534D01*
X125730Y209804D01*
X480060Y273101D02*
X490550Y283591D01*
X480060Y243456D02*
Y273101D01*
X441960Y45720D02*
X616327D01*
X438150Y49530D02*
X441960Y45720D01*
X617220Y46613D02*
Y377567D01*
X616327Y45720D02*
X617220Y46613D01*
X353060Y49530D02*
X438150D01*
X212090Y91440D02*
X224790Y78740D01*
X258850D02*
X261789Y75802D01*
X224790Y78740D02*
X258850D01*
X323850D02*
X353060Y49530D01*
X323728Y427330D02*
X382270D01*
X298861Y402463D02*
X323728Y427330D01*
X332740Y417830D02*
X405110D01*
X313309Y398399D02*
X332740Y417830D01*
X405110D02*
X410210D01*
X346583Y489243D02*
X347980Y487846D01*
X346583Y489243D02*
Y498817D01*
X347980Y500214D01*
Y468630D02*
Y487846D01*
X280010Y553385D02*
Y567090D01*
Y553385D02*
X328037D01*
X211486D02*
X280010D01*
X347980Y500214D02*
Y528955D01*
X358140Y494030D02*
X389890Y525780D01*
X399034D02*
X403860Y530606D01*
X389890Y525780D02*
X399034D01*
X332740Y453390D02*
X347980Y468630D01*
X464210Y509270D02*
X500380D01*
X382270Y427330D02*
X464210Y509270D01*
X220268Y560118D02*
X227240Y567090D01*
X261010D01*
X183240Y419260D02*
X204101Y398399D01*
X230980Y419260D02*
X241300Y408940D01*
X202970Y424260D02*
X224767Y402463D01*
X298861D01*
X204101Y398399D02*
X313309D01*
X221390Y419260D02*
X230980D01*
X252730Y367030D02*
X289814D01*
X204089Y318389D02*
X252730Y367030D01*
X538480Y214630D02*
X539750Y213360D01*
X562610D01*
X566420Y217170D01*
Y259080D01*
X562610Y262890D02*
X566420Y259080D01*
X517783Y262890D02*
X562610D01*
X516890Y263783D02*
X517783Y262890D01*
X516890Y263783D02*
Y321580D01*
X471440Y367030D02*
X516890Y321580D01*
X319786Y367030D02*
X471440D01*
X187020Y318389D02*
X204089D01*
X538480Y483870D02*
X563880Y509270D01*
Y524510D01*
X554990Y533400D02*
X563880Y524510D01*
X524510Y533400D02*
X554990D01*
X500380Y509270D02*
X524510Y533400D01*
X511810Y482600D02*
X538480Y509270D01*
X468042Y482600D02*
X511810D01*
X538480Y382270D02*
X612517D01*
X153670Y443230D02*
X154102Y442798D01*
X157913D02*
X166252Y434458D01*
X177192D01*
X154102Y442798D02*
X157913D01*
X177192Y434458D02*
X177390Y434260D01*
X612517Y382270D02*
X617220Y377567D01*
X187020Y271450D02*
X195580Y262890D01*
X187020Y271450D02*
Y286131D01*
X480060Y189230D02*
Y213614D01*
X392430Y185420D02*
Y213614D01*
X342900Y180340D02*
Y205994D01*
X341630Y207264D02*
X342900Y205994D01*
X289560Y180340D02*
Y207264D01*
X220980Y181610D02*
Y208534D01*
X172720Y184150D02*
Y209804D01*
X490220Y316179D02*
Y339090D01*
Y316179D02*
X490550Y315849D01*
X436550D02*
X436880Y316179D01*
Y339090D01*
X337820Y314909D02*
Y339090D01*
X337490Y314579D02*
X337820Y314909D01*
X241300Y316179D02*
Y340360D01*
X240970Y315849D02*
X241300Y316179D01*
X391490Y244526D02*
X392430Y243586D01*
X391490Y244526D02*
Y282321D01*
X424764Y283591D02*
X436550D01*
X412496Y295859D02*
X424764Y283591D01*
X412496Y295859D02*
Y297041D01*
X394958Y314579D02*
X412496Y297041D01*
X391490Y314579D02*
X394958D01*
X332220Y287591D02*
X337490Y282321D01*
X326695Y287591D02*
X332220D01*
X298438Y315849D02*
X326695Y287591D01*
X294970Y315849D02*
X298438D01*
X237502Y283591D02*
X240970D01*
X225628Y295466D02*
X237502Y283591D01*
X176152Y295466D02*
X225628D01*
X166818Y286131D02*
X176152Y295466D01*
X133020Y286131D02*
X166818D01*
X177390Y439260D02*
X201111D01*
X254611Y492760D01*
X273050D01*
X295910D02*
X296545Y493395D01*
X337185D01*
X337820Y494030D01*
X284480Y476250D02*
X307340Y453390D01*
X284480Y476250D02*
Y515620D01*
X332359Y544576D02*
X347980Y528955D01*
X226785Y439260D02*
X227523Y439998D01*
Y442153D01*
X229870Y444500D02*
X237490D01*
X221390Y439260D02*
X226785D01*
X227523Y442153D02*
X229870Y444500D01*
X246380Y453390D02*
X307340D01*
X237490Y444500D02*
X246380Y453390D01*
X328930Y544576D02*
X332359D01*
X321338Y441988D02*
X332740Y453390D01*
X416560Y431118D02*
X468042Y482600D01*
X416560Y423542D02*
Y431118D01*
X414096Y421078D02*
X416560Y423542D01*
X413458Y421078D02*
X414096D01*
X410210Y417830D02*
X413458Y421078D01*
X382270Y427330D02*
X405110D01*
X451959Y417483D02*
X456277D01*
X428645Y418465D02*
X450977D01*
X456277Y417483D02*
X457200Y416560D01*
X450977Y418465D02*
X451959Y417483D01*
X428010Y417830D02*
X428645Y418465D01*
X177390Y419260D02*
X183240D01*
X177390Y424260D02*
X202970D01*
X249948Y441988D02*
X321338D01*
X242220Y434260D02*
X249948Y441988D01*
X221390Y434260D02*
X242220D01*
X211150Y553720D02*
X211486Y553385D01*
X221390Y429260D02*
X246380D01*
X327914Y515620D02*
X328930Y514604D01*
X284480Y515620D02*
X327914D01*
X232410D02*
X254508D01*
X328930Y544576D02*
Y552492D01*
X328037Y553385D02*
X328930Y552492D01*
X212090Y580060D02*
Y595630D01*
X211150Y579120D02*
X212090Y580060D01*
X403860Y480060D02*
Y500634D01*
X503936Y605790D02*
X504190Y605536D01*
X472440Y605790D02*
X503936D01*
X582676Y655320D02*
X607060D01*
X593090Y755370D02*
Y784860D01*
X453390Y808360D02*
X461321Y816292D01*
X453390Y798830D02*
Y808360D01*
X171704Y675640D02*
X172974Y674370D01*
X151130Y675640D02*
X171704D01*
X124460Y722630D02*
X157480D01*
X206400Y541020D02*
X211150D01*
X200098Y547322D02*
X206400Y541020D01*
X200098Y547322D02*
Y558088D01*
X202128Y560118D01*
X220268D01*
D13*
X33456Y231140D02*
X55880D01*
X30480Y304800D02*
X55880D01*
X30480Y434776D02*
Y510976D01*
X55880Y306070D02*
X57824Y308014D01*
X63340D01*
X63936Y308610D02*
X123084D01*
X126060Y311586D01*
Y314897D01*
X129552Y318389D01*
X63340Y308014D02*
X63936Y308610D01*
X129552Y318389D02*
X133020D01*
X125730Y239776D02*
X172720D01*
X65786D02*
X125730D01*
X55880Y229870D02*
X65786Y239776D01*
X30480Y234116D02*
X33456Y231140D01*
X30480Y234116D02*
Y304800D01*
Y358576D01*
X291922Y237236D02*
X341630D01*
X289560D02*
X291922D01*
X436022Y552862D02*
X438150Y554990D01*
X429545Y552862D02*
X436022D01*
X407289Y530606D02*
X429545Y552862D01*
X403860Y530606D02*
X407289D01*
X390199Y531821D02*
X402645D01*
X379476Y542544D02*
Y590550D01*
X402645Y531821D02*
X403860Y530606D01*
X379476Y542544D02*
X390199Y531821D01*
X349504Y590550D02*
X350774Y591820D01*
X270920Y590550D02*
X349504D01*
X331470Y643890D02*
X350774Y624586D01*
Y591820D02*
Y624586D01*
X270510Y590960D02*
Y593690D01*
Y590960D02*
X270920Y590550D01*
X291922Y237236D02*
X294970Y240284D01*
Y283591D01*
X288925Y237871D02*
X289560Y237236D01*
X221615Y237871D02*
X288925D01*
X220980Y238506D02*
X221615Y237871D01*
X220345Y239141D02*
X220980Y238506D01*
X173355Y239141D02*
X220345D01*
X172720Y239776D02*
X173355Y239141D01*
X30480Y358576D02*
X33456Y355600D01*
X30480Y358576D02*
Y434776D01*
Y510976D02*
X63500Y543996D01*
X505460Y576834D02*
X565150D01*
X505460Y571873D02*
Y576834D01*
X505460Y576834D01*
X331470Y643890D02*
Y673100D01*
X429240Y736619D02*
Y835898D01*
X466090Y697230D02*
Y699770D01*
X429240Y736619D02*
X466090Y699770D01*
X539750Y655320D02*
X552704D01*
X523240Y671830D02*
X539750Y655320D01*
X552704Y619252D02*
Y655320D01*
Y619252D02*
X558673Y613283D01*
Y609854D02*
Y613283D01*
Y609854D02*
X561721Y606806D01*
X565150D01*
X546100Y746760D02*
Y815598D01*
X576779Y720289D02*
X576860Y720370D01*
X546100Y746760D02*
X572571Y720289D01*
X576779D01*
X576860Y720370D02*
X593090D01*
X519309Y842389D02*
X546100Y815598D01*
X435731Y842389D02*
X519309D01*
X429240Y835898D02*
X435731Y842389D01*
X469900Y746760D02*
Y792871D01*
X493320Y816292D01*
X495300Y676910D02*
Y746760D01*
Y676910D02*
X500380Y671830D01*
X523240D01*
X466090D02*
X500380D01*
X465455Y672465D02*
X466090Y671830D01*
X405765Y672465D02*
X465455D01*
X405130Y673100D02*
X405765Y672465D01*
X331470Y673100D02*
X405130D01*
X66476Y541020D02*
X157150D01*
X63500Y543996D02*
X66476Y541020D01*
X63500Y543996D02*
Y754070D01*
X331470Y698500D02*
Y754070D01*
X332740Y755340D01*
X204216Y675640D02*
X257810D01*
X202946Y674370D02*
X204216Y675640D01*
X202946Y674370D02*
Y722630D01*
X203200Y722884D01*
X203073Y752729D02*
X203200Y752856D01*
X157607Y752729D02*
X203073D01*
X157480Y752602D02*
X157607Y752729D01*
X156746Y753336D02*
X157480Y752602D01*
X64234Y753336D02*
X156746D01*
X63500Y754070D02*
X64234Y753336D01*
D19*
X202946Y674370D02*
D03*
X172974D02*
D03*
X319786Y367030D02*
D03*
X289814D02*
D03*
X284480Y515620D02*
D03*
X254508D02*
D03*
X379476Y590550D02*
D03*
X349504D02*
D03*
X582676Y655320D02*
D03*
X552704D02*
D03*
D20*
X428010Y408330D02*
D03*
Y417830D02*
D03*
Y427330D02*
D03*
X405110D02*
D03*
Y417830D02*
D03*
Y408330D02*
D03*
D21*
X490550Y315849D02*
D03*
X436550D02*
D03*
X490550Y283591D02*
D03*
X436550D02*
D03*
X391490Y314579D02*
D03*
X337490D02*
D03*
X391490Y282321D02*
D03*
X337490D02*
D03*
X133020Y286131D02*
D03*
X187020D02*
D03*
X133020Y318389D02*
D03*
X187020D02*
D03*
X294970Y315849D02*
D03*
X240970D02*
D03*
X294970Y283591D02*
D03*
X240970D02*
D03*
D22*
X341630Y207264D02*
D03*
Y237236D02*
D03*
X480060Y213614D02*
D03*
Y243586D02*
D03*
X392430Y213614D02*
D03*
Y243586D02*
D03*
X289560Y207264D02*
D03*
Y237236D02*
D03*
X172720Y209804D02*
D03*
Y239776D02*
D03*
X504190Y575564D02*
D03*
Y605536D02*
D03*
X565150Y576834D02*
D03*
Y606806D02*
D03*
X328930Y544576D02*
D03*
Y514604D02*
D03*
X157480Y722630D02*
D03*
Y752602D02*
D03*
X203200Y722884D02*
D03*
Y752856D02*
D03*
X403860Y500634D02*
D03*
Y530606D02*
D03*
X220980Y238506D02*
D03*
Y208534D02*
D03*
X125730Y239776D02*
D03*
Y209804D02*
D03*
D23*
X177390Y419260D02*
D03*
Y424260D02*
D03*
Y429260D02*
D03*
Y434260D02*
D03*
Y439260D02*
D03*
X221390D02*
D03*
Y434260D02*
D03*
Y429260D02*
D03*
Y424260D02*
D03*
D24*
Y419260D02*
D03*
D25*
X157150Y579120D02*
D03*
Y566420D02*
D03*
Y553720D02*
D03*
Y541020D02*
D03*
X211150Y579120D02*
D03*
Y566420D02*
D03*
Y553720D02*
D03*
Y541020D02*
D03*
D26*
X261010Y567090D02*
D03*
X270510Y593690D02*
D03*
X280010Y567090D02*
D03*
D45*
X55880Y229870D02*
D03*
Y255270D02*
D03*
Y280670D02*
D03*
Y306070D02*
D03*
Y331470D02*
D03*
Y356870D02*
D03*
Y382270D02*
D03*
Y407670D02*
D03*
X538480Y509270D02*
D03*
Y483870D02*
D03*
Y458470D02*
D03*
Y433070D02*
D03*
Y407670D02*
D03*
Y382270D02*
D03*
Y356870D02*
D03*
Y331470D02*
D03*
Y306070D02*
D03*
Y280670D02*
D03*
Y240030D02*
D03*
Y214630D02*
D03*
Y189230D02*
D03*
Y163830D02*
D03*
Y138430D02*
D03*
Y113030D02*
D03*
Y87630D02*
D03*
Y62230D02*
D03*
X55880D02*
D03*
Y87630D02*
D03*
Y113030D02*
D03*
Y138430D02*
D03*
Y163830D02*
D03*
Y189230D02*
D03*
D46*
X258850Y78740D02*
D03*
X323850D02*
D03*
D47*
X331470Y673100D02*
D03*
Y698500D02*
D03*
X332740Y453390D02*
D03*
X307340D02*
D03*
X405130Y673100D02*
D03*
Y698500D02*
D03*
X495300Y746760D02*
D03*
X469900D02*
D03*
X466090Y671830D02*
D03*
Y697230D02*
D03*
X257810Y675640D02*
D03*
Y701040D02*
D03*
X438150Y554990D02*
D03*
Y580390D02*
D03*
D48*
X440320Y872809D02*
D03*
Y825309D02*
D03*
X514720D02*
D03*
Y872809D02*
D03*
D49*
X493320Y816292D02*
D03*
X485322Y828328D02*
D03*
X469322D02*
D03*
X477321Y816292D02*
D03*
X461321D02*
D03*
D50*
X332740Y755340D02*
D03*
Y815340D02*
D03*
X63500Y754070D02*
D03*
Y814070D02*
D03*
D51*
X286240Y780340D02*
D03*
X17000Y779070D02*
D03*
D52*
X593090Y755370D02*
D03*
Y720370D02*
D03*
D53*
X212090Y91440D02*
D03*
X368300Y406400D02*
D03*
Y436880D02*
D03*
X241300Y408940D02*
D03*
X153670Y443230D02*
D03*
X195580Y262890D02*
D03*
X480060Y189230D02*
D03*
X392430Y185420D02*
D03*
X342900Y180340D02*
D03*
X289560D02*
D03*
X220980Y181610D02*
D03*
X172720Y184150D02*
D03*
X124460Y182880D02*
D03*
X490220Y339090D02*
D03*
X436880D02*
D03*
X337820D02*
D03*
X241300Y340360D02*
D03*
X273050Y492760D02*
D03*
X295910D02*
D03*
X337820Y494030D02*
D03*
X358140D02*
D03*
X457200Y416560D02*
D03*
X246380Y429260D02*
D03*
X232410Y515620D02*
D03*
X212090Y595630D02*
D03*
X403860Y480060D02*
D03*
X472440Y605790D02*
D03*
X607060Y655320D02*
D03*
X593090Y784860D02*
D03*
X453390Y798830D02*
D03*
X151130Y675640D02*
D03*
X124460Y722630D02*
D03*
M02*
