G04*
G04 #@! TF.GenerationSoftware,Altium Limited,Altium Designer,25.3.3 (18)*
G04*
G04 Layer_Color=255*
%FSLAX44Y44*%
%MOMM*%
G71*
G04*
G04 #@! TF.SameCoordinates,06983E53-0AFF-4CF9-B53D-5828CB1A506A*
G04*
G04*
G04 #@! TF.FilePolarity,Positive*
G04*
G01*
G75*
%ADD19R,1.1176X1.8034*%
G04:AMPARAMS|DCode=20|XSize=1.61mm|YSize=0.59mm|CornerRadius=0.0738mm|HoleSize=0mm|Usage=FLASHONLY|Rotation=180.000|XOffset=0mm|YOffset=0mm|HoleType=Round|Shape=RoundedRectangle|*
%AMROUNDEDRECTD20*
21,1,1.6100,0.4425,0,0,180.0*
21,1,1.4625,0.5900,0,0,180.0*
1,1,0.1475,-0.7313,0.2213*
1,1,0.1475,0.7313,0.2213*
1,1,0.1475,0.7313,-0.2213*
1,1,0.1475,-0.7313,-0.2213*
%
%ADD20ROUNDEDRECTD20*%
%ADD21R,1.9000X1.2065*%
%ADD22R,1.8034X1.1176*%
%ADD23R,1.4700X0.3000*%
%ADD24R,1.4500X0.3000*%
%ADD25R,1.5500X0.6000*%
G04:AMPARAMS|DCode=26|XSize=1.35mm|YSize=0.59mm|CornerRadius=0.1475mm|HoleSize=0mm|Usage=FLASHONLY|Rotation=90.000|XOffset=0mm|YOffset=0mm|HoleType=Round|Shape=RoundedRectangle|*
%AMROUNDEDRECTD26*
21,1,1.3500,0.2950,0,0,90.0*
21,1,1.0550,0.5900,0,0,90.0*
1,1,0.2950,0.1475,0.5275*
1,1,0.2950,0.1475,-0.5275*
1,1,0.2950,-0.1475,-0.5275*
1,1,0.2950,-0.1475,0.5275*
%
%ADD26ROUNDEDRECTD26*%
%ADD45C,1.5240*%
%ADD46C,1.6000*%
%ADD47C,1.6200*%
%ADD48O,1.2000X2.4000*%
%ADD49C,1.2000*%
%ADD50O,3.8000X2.0000*%
%ADD51O,1.8000X3.3000*%
%ADD52C,2.0000*%
D19*
X202946Y674370D02*
D03*
X172974D02*
D03*
X319786Y367030D02*
D03*
X289814D02*
D03*
X284480Y515620D02*
D03*
X254508D02*
D03*
X379476Y590550D02*
D03*
X349504D02*
D03*
X582676Y655320D02*
D03*
X552704D02*
D03*
D20*
X428010Y408330D02*
D03*
Y417830D02*
D03*
Y427330D02*
D03*
X405110D02*
D03*
Y417830D02*
D03*
Y408330D02*
D03*
D21*
X490550Y315849D02*
D03*
X436550D02*
D03*
X490550Y283591D02*
D03*
X436550D02*
D03*
X391490Y314579D02*
D03*
X337490D02*
D03*
X391490Y282321D02*
D03*
X337490D02*
D03*
X133020Y286131D02*
D03*
X187020D02*
D03*
X133020Y318389D02*
D03*
X187020D02*
D03*
X294970Y315849D02*
D03*
X240970D02*
D03*
X294970Y283591D02*
D03*
X240970D02*
D03*
D22*
X341630Y207264D02*
D03*
Y237236D02*
D03*
X480060Y213614D02*
D03*
Y243586D02*
D03*
X392430Y213614D02*
D03*
Y243586D02*
D03*
X289560Y207264D02*
D03*
Y237236D02*
D03*
X172720Y209804D02*
D03*
Y239776D02*
D03*
X504190Y575564D02*
D03*
Y605536D02*
D03*
X565150Y576834D02*
D03*
Y606806D02*
D03*
X328930Y544576D02*
D03*
Y514604D02*
D03*
X157480Y722630D02*
D03*
Y752602D02*
D03*
X203200Y722884D02*
D03*
Y752856D02*
D03*
X403860Y500634D02*
D03*
Y530606D02*
D03*
X220980Y238506D02*
D03*
Y208534D02*
D03*
X125730Y239776D02*
D03*
Y209804D02*
D03*
D23*
X177390Y419260D02*
D03*
Y424260D02*
D03*
Y429260D02*
D03*
Y434260D02*
D03*
Y439260D02*
D03*
X221390D02*
D03*
Y434260D02*
D03*
Y429260D02*
D03*
Y424260D02*
D03*
D24*
Y419260D02*
D03*
D25*
X157150Y579120D02*
D03*
Y566420D02*
D03*
Y553720D02*
D03*
Y541020D02*
D03*
X211150Y579120D02*
D03*
Y566420D02*
D03*
Y553720D02*
D03*
Y541020D02*
D03*
D26*
X261010Y567090D02*
D03*
X270510Y593690D02*
D03*
X280010Y567090D02*
D03*
D45*
X55880Y229870D02*
D03*
Y255270D02*
D03*
Y280670D02*
D03*
Y306070D02*
D03*
Y331470D02*
D03*
Y356870D02*
D03*
Y382270D02*
D03*
Y407670D02*
D03*
X538480Y509270D02*
D03*
Y483870D02*
D03*
Y458470D02*
D03*
Y433070D02*
D03*
Y407670D02*
D03*
Y382270D02*
D03*
Y356870D02*
D03*
Y331470D02*
D03*
Y306070D02*
D03*
Y280670D02*
D03*
Y240030D02*
D03*
Y214630D02*
D03*
Y189230D02*
D03*
Y163830D02*
D03*
Y138430D02*
D03*
Y113030D02*
D03*
Y87630D02*
D03*
Y62230D02*
D03*
X55880D02*
D03*
Y87630D02*
D03*
Y113030D02*
D03*
Y138430D02*
D03*
Y163830D02*
D03*
Y189230D02*
D03*
D46*
X258850Y78740D02*
D03*
X323850D02*
D03*
D47*
X331470Y673100D02*
D03*
Y698500D02*
D03*
X332740Y453390D02*
D03*
X307340D02*
D03*
X405130Y673100D02*
D03*
Y698500D02*
D03*
X495300Y746760D02*
D03*
X469900D02*
D03*
X466090Y671830D02*
D03*
Y697230D02*
D03*
X257810Y675640D02*
D03*
Y701040D02*
D03*
X438150Y554990D02*
D03*
Y580390D02*
D03*
D48*
X440320Y872809D02*
D03*
Y825309D02*
D03*
X514720D02*
D03*
Y872809D02*
D03*
D49*
X493320Y816292D02*
D03*
X485322Y828328D02*
D03*
X469322D02*
D03*
X477321Y816292D02*
D03*
X461321D02*
D03*
D50*
X332740Y755340D02*
D03*
Y815340D02*
D03*
X63500Y754070D02*
D03*
Y814070D02*
D03*
D51*
X286240Y780340D02*
D03*
X17000Y779070D02*
D03*
D52*
X593090Y755370D02*
D03*
Y720370D02*
D03*
M02*
