G04*
G04 #@! TF.GenerationSoftware,Altium Limited,Altium Designer,25.3.3 (18)*
G04*
G04 Layer_Color=8388736*
%FSLAX44Y44*%
%MOMM*%
G71*
G04*
G04 #@! TF.SameCoordinates,06983E53-0AFF-4CF9-B53D-5828CB1A506A*
G04*
G04*
G04 #@! TF.FilePolarity,Negative*
G04*
G01*
G75*
%ADD27C,0.0000*%
%ADD28R,1.3208X2.0066*%
G04:AMPARAMS|DCode=29|XSize=1.8132mm|YSize=0.7932mm|CornerRadius=0.1754mm|HoleSize=0mm|Usage=FLASHONLY|Rotation=180.000|XOffset=0mm|YOffset=0mm|HoleType=Round|Shape=RoundedRectangle|*
%AMROUNDEDRECTD29*
21,1,1.8132,0.4425,0,0,180.0*
21,1,1.4625,0.7932,0,0,180.0*
1,1,0.3507,-0.7313,0.2213*
1,1,0.3507,0.7313,0.2213*
1,1,0.3507,0.7313,-0.2213*
1,1,0.3507,-0.7313,-0.2213*
%
%ADD29ROUNDEDRECTD29*%
%ADD30R,2.1032X1.4097*%
%ADD31R,2.0066X1.3208*%
%ADD32R,1.5208X0.3508*%
%ADD33R,1.5008X0.3508*%
%ADD34R,1.7532X0.8032*%
G04:AMPARAMS|DCode=35|XSize=1.5532mm|YSize=0.7932mm|CornerRadius=0.2491mm|HoleSize=0mm|Usage=FLASHONLY|Rotation=90.000|XOffset=0mm|YOffset=0mm|HoleType=Round|Shape=RoundedRectangle|*
%AMROUNDEDRECTD35*
21,1,1.5532,0.2950,0,0,90.0*
21,1,1.0550,0.7932,0,0,90.0*
1,1,0.4982,0.1475,0.5275*
1,1,0.4982,0.1475,-0.5275*
1,1,0.4982,-0.1475,-0.5275*
1,1,0.4982,-0.1475,0.5275*
%
%ADD35ROUNDEDRECTD35*%
%ADD36C,1.7272*%
%ADD37C,1.8032*%
%ADD38C,1.8232*%
%ADD39O,1.4032X2.6032*%
%ADD40C,1.4032*%
%ADD41O,4.0032X2.2032*%
%ADD42O,2.0032X3.5032*%
%ADD43C,2.2032*%
%ADD44C,0.8382*%
D27*
X340081Y673100D02*
G03*
X340081Y673100I-8611J0D01*
G01*
Y698500D02*
G03*
X340081Y698500I-8611J0D01*
G01*
X341351Y453390D02*
G03*
X341351Y453390I-8611J0D01*
G01*
X315951D02*
G03*
X315951Y453390I-8611J0D01*
G01*
X413741Y673100D02*
G03*
X413741Y673100I-8611J0D01*
G01*
Y698500D02*
G03*
X413741Y698500I-8611J0D01*
G01*
X503911Y746760D02*
G03*
X503911Y746760I-8611J0D01*
G01*
X478511D02*
G03*
X478511Y746760I-8611J0D01*
G01*
X474701Y671830D02*
G03*
X474701Y671830I-8611J0D01*
G01*
Y697230D02*
G03*
X474701Y697230I-8611J0D01*
G01*
X266421Y675640D02*
G03*
X266421Y675640I-8611J0D01*
G01*
Y701040D02*
G03*
X266421Y701040I-8611J0D01*
G01*
X446761Y554990D02*
G03*
X446761Y554990I-8611J0D01*
G01*
Y580390D02*
G03*
X446761Y580390I-8611J0D01*
G01*
D28*
X202946Y674370D02*
D03*
X172974D02*
D03*
X319786Y367030D02*
D03*
X289814D02*
D03*
X284480Y515620D02*
D03*
X254508D02*
D03*
X379476Y590550D02*
D03*
X349504D02*
D03*
X582676Y655320D02*
D03*
X552704D02*
D03*
D29*
X428010Y408330D02*
D03*
Y417830D02*
D03*
Y427330D02*
D03*
X405110D02*
D03*
Y417830D02*
D03*
Y408330D02*
D03*
D30*
X490550Y315849D02*
D03*
X436550D02*
D03*
X490550Y283591D02*
D03*
X436550D02*
D03*
X391490Y314579D02*
D03*
X337490D02*
D03*
X391490Y282321D02*
D03*
X337490D02*
D03*
X133020Y286131D02*
D03*
X187020D02*
D03*
X133020Y318389D02*
D03*
X187020D02*
D03*
X294970Y315849D02*
D03*
X240970D02*
D03*
X294970Y283591D02*
D03*
X240970D02*
D03*
D31*
X341630Y207264D02*
D03*
Y237236D02*
D03*
X480060Y213614D02*
D03*
Y243586D02*
D03*
X392430Y213614D02*
D03*
Y243586D02*
D03*
X289560Y207264D02*
D03*
Y237236D02*
D03*
X172720Y209804D02*
D03*
Y239776D02*
D03*
X504190Y575564D02*
D03*
Y605536D02*
D03*
X565150Y576834D02*
D03*
Y606806D02*
D03*
X328930Y544576D02*
D03*
Y514604D02*
D03*
X157480Y722630D02*
D03*
Y752602D02*
D03*
X203200Y722884D02*
D03*
Y752856D02*
D03*
X403860Y500634D02*
D03*
Y530606D02*
D03*
X220980Y238506D02*
D03*
Y208534D02*
D03*
X125730Y239776D02*
D03*
Y209804D02*
D03*
D32*
X177390Y419260D02*
D03*
Y424260D02*
D03*
Y429260D02*
D03*
Y434260D02*
D03*
Y439260D02*
D03*
X221390D02*
D03*
Y434260D02*
D03*
Y429260D02*
D03*
Y424260D02*
D03*
D33*
Y419260D02*
D03*
D34*
X157150Y579120D02*
D03*
Y566420D02*
D03*
Y553720D02*
D03*
Y541020D02*
D03*
X211150Y579120D02*
D03*
Y566420D02*
D03*
Y553720D02*
D03*
Y541020D02*
D03*
D35*
X261010Y567090D02*
D03*
X270510Y593690D02*
D03*
X280010Y567090D02*
D03*
D36*
X55880Y229870D02*
D03*
Y255270D02*
D03*
Y280670D02*
D03*
Y306070D02*
D03*
Y331470D02*
D03*
Y356870D02*
D03*
Y382270D02*
D03*
Y407670D02*
D03*
X538480Y509270D02*
D03*
Y483870D02*
D03*
Y458470D02*
D03*
Y433070D02*
D03*
Y407670D02*
D03*
Y382270D02*
D03*
Y356870D02*
D03*
Y331470D02*
D03*
Y306070D02*
D03*
Y280670D02*
D03*
Y240030D02*
D03*
Y214630D02*
D03*
Y189230D02*
D03*
Y163830D02*
D03*
Y138430D02*
D03*
Y113030D02*
D03*
Y87630D02*
D03*
Y62230D02*
D03*
X55880D02*
D03*
Y87630D02*
D03*
Y113030D02*
D03*
Y138430D02*
D03*
Y163830D02*
D03*
Y189230D02*
D03*
D37*
X258850Y78740D02*
D03*
X323850D02*
D03*
D38*
X331470Y673100D02*
D03*
Y698500D02*
D03*
X332740Y453390D02*
D03*
X307340D02*
D03*
X405130Y673100D02*
D03*
Y698500D02*
D03*
X495300Y746760D02*
D03*
X469900D02*
D03*
X466090Y671830D02*
D03*
Y697230D02*
D03*
X257810Y675640D02*
D03*
Y701040D02*
D03*
X438150Y554990D02*
D03*
Y580390D02*
D03*
D39*
X440320Y872809D02*
D03*
Y825309D02*
D03*
X514720D02*
D03*
Y872809D02*
D03*
D40*
X493320Y816292D02*
D03*
X485322Y828328D02*
D03*
X469322D02*
D03*
X477321Y816292D02*
D03*
X461321D02*
D03*
D41*
X332740Y755340D02*
D03*
Y815340D02*
D03*
X63500Y754070D02*
D03*
Y814070D02*
D03*
D42*
X286240Y780340D02*
D03*
X17000Y779070D02*
D03*
D43*
X593090Y755370D02*
D03*
Y720370D02*
D03*
D44*
X212090Y91440D02*
D03*
X368300Y406400D02*
D03*
Y436880D02*
D03*
X241300Y408940D02*
D03*
X153670Y443230D02*
D03*
X195580Y262890D02*
D03*
X480060Y189230D02*
D03*
X392430Y185420D02*
D03*
X342900Y180340D02*
D03*
X289560D02*
D03*
X220980Y181610D02*
D03*
X172720Y184150D02*
D03*
X124460Y182880D02*
D03*
X490220Y339090D02*
D03*
X436880D02*
D03*
X337820D02*
D03*
X241300Y340360D02*
D03*
X273050Y492760D02*
D03*
X295910D02*
D03*
X337820Y494030D02*
D03*
X358140D02*
D03*
X457200Y416560D02*
D03*
X246380Y429260D02*
D03*
X232410Y515620D02*
D03*
X212090Y595630D02*
D03*
X403860Y480060D02*
D03*
X472440Y605790D02*
D03*
X607060Y655320D02*
D03*
X593090Y784860D02*
D03*
X453390Y798830D02*
D03*
X151130Y675640D02*
D03*
X124460Y722630D02*
D03*
M02*
