G04*
G04 #@! TF.GenerationSoftware,Altium Limited,Altium Designer,26.3.0 (6)*
G04*
G04 Layer_Physical_Order=2*
G04 Layer_Color=16711680*
%FSLAX44Y44*%
%MOMM*%
G71*
G04*
G04 #@! TF.SameCoordinates,375ED2E8-60CE-44AA-AAA6-3A1E11BEB0C5*
G04*
G04*
G04 #@! TF.FilePolarity,Positive*
G04*
G01*
G75*
%ADD25C,1.6200*%
%ADD26C,0.6350*%
G36*
X807620Y5179D02*
X5179D01*
Y375821D01*
X807620D01*
Y5179D01*
D02*
G37*
%LPC*%
G36*
X481461Y185900D02*
X478659D01*
X475953Y185175D01*
X473527Y183774D01*
X471546Y181793D01*
X470145Y179367D01*
X469420Y176661D01*
Y173859D01*
X470145Y171153D01*
X471546Y168727D01*
X473527Y166746D01*
X475953Y165345D01*
X478659Y164620D01*
X481461D01*
X484167Y165345D01*
X486593Y166746D01*
X488574Y168727D01*
X489975Y171153D01*
X490700Y173859D01*
Y176661D01*
X489975Y179367D01*
X488574Y181793D01*
X486593Y183774D01*
X484167Y185175D01*
X481461Y185900D01*
D02*
G37*
%LPD*%
D25*
X480060Y175260D02*
D03*
Y149860D02*
D03*
D26*
X127000Y226060D02*
D03*
X660400Y170180D02*
D03*
X127000Y121920D02*
D03*
X355600Y71120D02*
D03*
M02*
