G04*
G04 #@! TF.GenerationSoftware,Altium Limited,Altium Designer,26.3.0 (6)*
G04*
G04 Layer_Physical_Order=1*
G04 Layer_Color=255*
%FSLAX44Y44*%
%MOMM*%
G71*
G04*
G04 #@! TF.SameCoordinates,7B9AB984-ECB7-4C16-AED9-D4E4A7742322*
G04*
G04*
G04 #@! TF.FilePolarity,Positive*
G04*
G01*
G75*
%ADD10C,0.5080*%
%ADD13C,0.2540*%
%ADD15C,0.1524*%
%ADD18R,1.1176X1.8034*%
G04:AMPARAMS|DCode=19|XSize=10.5mm|YSize=8.8mm|CornerRadius=0.044mm|HoleSize=0mm|Usage=FLASHONLY|Rotation=180.000|XOffset=0mm|YOffset=0mm|HoleType=Round|Shape=RoundedRectangle|*
%AMROUNDEDRECTD19*
21,1,10.5000,8.7120,0,0,180.0*
21,1,10.4120,8.8000,0,0,180.0*
1,1,0.0880,-5.2060,4.3560*
1,1,0.0880,5.2060,4.3560*
1,1,0.0880,5.2060,-4.3560*
1,1,0.0880,-5.2060,-4.3560*
%
%ADD19ROUNDEDRECTD19*%
G04:AMPARAMS|DCode=20|XSize=0.95mm|YSize=3.5mm|CornerRadius=0.0522mm|HoleSize=0mm|Usage=FLASHONLY|Rotation=180.000|XOffset=0mm|YOffset=0mm|HoleType=Round|Shape=RoundedRectangle|*
%AMROUNDEDRECTD20*
21,1,0.9500,3.3955,0,0,180.0*
21,1,0.8455,3.5000,0,0,180.0*
1,1,0.1045,-0.4228,1.6978*
1,1,0.1045,0.4228,1.6978*
1,1,0.1045,0.4228,-1.6978*
1,1,0.1045,-0.4228,-1.6978*
%
%ADD20ROUNDEDRECTD20*%
%ADD21R,1.4400X1.8200*%
%ADD22R,1.8034X1.1176*%
%ADD23R,3.1200X2.1800*%
%ADD24R,2.1800X3.1200*%
%ADD25R,3.8608X5.5118*%
%ADD39C,2.0000*%
%ADD40C,2.7432*%
%ADD41C,1.6200*%
%ADD42R,2.7432X2.7432*%
%ADD43C,0.6350*%
D10*
X1168400Y942340D02*
X1178560Y932180D01*
X1008380Y942340D02*
X1168400D01*
X979971D02*
X982980D01*
X972605Y949706D02*
X979971Y942340D01*
X906780Y949706D02*
X972605D01*
X905637Y948563D02*
X906780Y949706D01*
X829183Y948563D02*
X905637D01*
X828040Y947420D02*
X829183Y948563D01*
X886460Y731520D02*
X941070D01*
X830580Y787400D02*
X886460Y731520D01*
X830580Y812800D02*
Y868680D01*
X1115060D01*
X363220D02*
X477520D01*
X147842D02*
X337820D01*
X122530Y781050D02*
X123165Y780415D01*
X121590Y781990D02*
X122530Y781050D01*
X477520Y741296D02*
X483036Y735780D01*
X477520Y741296D02*
Y782320D01*
Y807720D02*
Y868680D01*
X1115060D02*
X1178560Y932180D01*
X477520Y868680D02*
X830580D01*
X941070Y731520D02*
X945210Y727380D01*
Y706620D02*
Y727380D01*
X759340Y962500D02*
X774420Y947420D01*
X690488Y962500D02*
X759340D01*
X675408Y947420D02*
X690488Y962500D01*
X617220Y947420D02*
X675408D01*
X615950Y948690D02*
X617220Y947420D01*
X562610Y948690D02*
X615950D01*
X561340Y949960D02*
X562610Y948690D01*
X774420Y947420D02*
X828040D01*
X483036Y735780D02*
X565970D01*
X120650Y825060D02*
X122860Y827270D01*
Y843698D01*
X147842Y868680D01*
X123165Y749935D02*
Y780415D01*
Y749935D02*
X123800Y749300D01*
X120650Y825060D02*
X121590Y824120D01*
Y781990D02*
Y824120D01*
X565970Y735780D02*
X592990Y708760D01*
Y685460D02*
Y708760D01*
X593155Y685295D02*
X594970Y683480D01*
Y640080D02*
Y683480D01*
X595605Y605155D02*
X596240Y604520D01*
X595605Y605155D02*
Y639445D01*
X594970Y640080D02*
X595605Y639445D01*
X947420Y704410D02*
X948903Y702927D01*
X945210Y706620D02*
X947420Y704410D01*
X948903Y663337D02*
X949300Y662940D01*
X948903Y663337D02*
Y702927D01*
X949300Y629920D02*
Y662940D01*
D13*
X344424Y393446D02*
X345440Y392430D01*
X294386Y721360D02*
X295656Y720090D01*
X150876Y712470D02*
Y715899D01*
X135890Y135890D02*
X137160Y137160D01*
X998220Y704410D02*
X1000650Y706840D01*
X960120Y704410D02*
X961332Y703198D01*
D15*
X824230Y134366D02*
X825246Y133350D01*
X824230Y134366D02*
Y189230D01*
Y245364D01*
X825246Y246380D01*
X620040Y45720D02*
X730504Y156184D01*
X1139444Y466725D02*
X1157986Y448183D01*
X1157097D02*
X1160780Y444500D01*
X1117346Y756920D02*
X1132840D01*
X1087374Y656590D02*
X1088644Y657860D01*
X1068070Y656590D02*
X1087374D01*
X982458Y654602D02*
X987508D01*
X976020Y661040D02*
X982458Y654602D01*
X990048Y638258D02*
X996950Y645160D01*
X987508Y654602D02*
X996950Y645160D01*
X906943Y919571D02*
X937097D01*
Y919317D02*
X937260Y919480D01*
X906780Y919734D02*
X906943Y919571D01*
X972820Y749300D02*
Y803910D01*
X976020Y661040D02*
Y662940D01*
X972820Y704410D02*
Y749300D01*
X718566Y684530D02*
X741680D01*
X982458Y638258D02*
X990048D01*
X976020Y631820D02*
X982458Y638258D01*
X976020Y629920D02*
Y631820D01*
X946150Y382270D02*
Y405840D01*
X985266Y182880D02*
X1008380D01*
X636270Y622300D02*
Y623600D01*
X635347Y618807D02*
Y621377D01*
X668020Y592836D02*
X668274Y593090D01*
X635347Y621377D02*
X636270Y622300D01*
X622960Y606420D02*
X635347Y618807D01*
X622960Y604520D02*
Y606420D01*
X778510Y133350D02*
X795274D01*
X668020Y567690D02*
Y592836D01*
X147320Y925830D02*
X212090D01*
X295656Y808990D02*
X318770D01*
X294386Y810260D02*
X295656Y808990D01*
X618490Y723900D02*
Y784860D01*
X264414Y718820D02*
X265684Y720090D01*
X246380Y718820D02*
X264414D01*
X149250Y779150D02*
Y781050D01*
X146050Y784250D02*
X149250Y781050D01*
X155688Y772712D02*
X160738D01*
X149250Y779150D02*
X155688Y772712D01*
X146050Y924560D02*
X147320Y925830D01*
X146050Y784250D02*
Y825060D01*
X160738Y772712D02*
X168910Y764540D01*
X162008Y757638D02*
X168910Y764540D01*
X156958Y757638D02*
X162008D01*
X150520Y751200D02*
X156958Y757638D01*
X150520Y749300D02*
Y751200D01*
X621690Y638180D02*
Y640080D01*
X618490Y685360D02*
Y723900D01*
X621690Y638180D02*
X636270Y623600D01*
X511810Y355040D02*
X513080Y356310D01*
X511810Y325120D02*
Y355040D01*
X85800Y601980D02*
Y606680D01*
X60960Y631520D02*
Y641350D01*
Y631520D02*
X85800Y606680D01*
X234696Y421640D02*
X234950Y421386D01*
X208280Y421640D02*
X234696D01*
X320294Y541020D02*
X336804Y557530D01*
X320294Y494186D02*
Y541020D01*
X296008Y469900D02*
X320294Y494186D01*
X119380Y469900D02*
X296008D01*
X336804Y557530D02*
X345440Y548894D01*
Y422402D02*
Y548894D01*
X336804Y557530D02*
Y627507D01*
X1178560Y89460D02*
X1191862Y102762D01*
Y166034D01*
X1178560Y179336D02*
X1191862Y166034D01*
X1178560Y179336D02*
Y231420D01*
X1066800Y233680D02*
X1176300D01*
X1160780Y249200D02*
X1176300Y233680D01*
X1160780Y249200D02*
Y444500D01*
X293262Y33688D02*
X417508D01*
X279960Y46990D02*
X293262Y33688D01*
X218706Y46990D02*
X279960D01*
X792480Y250952D02*
X796163Y247269D01*
X417508Y33688D02*
X429540Y45720D01*
X429260Y121920D02*
X429400Y121780D01*
Y45860D02*
Y121780D01*
Y45860D02*
X429540Y45720D01*
X442842Y59022D01*
X530384D01*
X543686Y45720D01*
X620040D01*
X619900Y45860D02*
X620040Y45720D01*
X619900Y45860D02*
Y121780D01*
X619760Y121920D02*
X619900Y121780D01*
X730504Y156184D02*
Y420370D01*
X792480Y250952D02*
Y358394D01*
X730504Y420370D02*
X792480Y358394D01*
X730504Y420370D02*
Y499872D01*
X1052830Y90170D02*
X1178560D01*
X174981Y828592D02*
Y843657D01*
X177186Y845862D01*
X241258D01*
X171450Y825060D02*
X174981Y828592D01*
X107950Y749239D02*
Y825060D01*
X105678Y746967D02*
X107950Y749239D01*
X105678Y741492D02*
Y746967D01*
X107950Y728853D02*
Y739220D01*
X105678Y741492D02*
X107950Y739220D01*
Y728853D02*
X120904Y715899D01*
X954660Y474980D02*
X1039876D01*
X947674Y482526D02*
X954660Y475540D01*
X135395Y135395D02*
X135890Y135890D01*
X135395Y47485D02*
Y135395D01*
X134900Y46990D02*
X135395Y47485D01*
X134900Y46990D02*
X148202Y33688D01*
X205404D01*
X218706Y46990D01*
X280315Y138075D02*
X280670Y138430D01*
X280315Y47345D02*
Y138075D01*
X279960Y46990D02*
X280315Y47345D01*
X795274Y246380D02*
X796163Y247269D01*
X698246Y532130D02*
X730504Y499872D01*
X698246Y532130D02*
Y593090D01*
X697230Y594106D02*
X698246Y593090D01*
X697230Y594106D02*
Y640080D01*
X109500Y479780D02*
X119380Y469900D01*
X45720Y479780D02*
X109500D01*
X234950Y391414D02*
X235204Y391160D01*
X287020D01*
X344170D02*
X345440Y392430D01*
X287020Y391160D02*
X344170D01*
X206972Y557530D02*
X237236D01*
X177360Y587142D02*
X206972Y557530D01*
X165638Y587142D02*
X177360D01*
X155500Y597280D02*
X165638Y587142D01*
X155500Y597280D02*
Y601980D01*
Y606680D01*
X120904Y641276D02*
X155500Y606680D01*
X120904Y641276D02*
Y712470D01*
X295656Y668655D02*
X336804Y627507D01*
X295656Y668655D02*
Y720090D01*
X294386Y721360D02*
Y770890D01*
X175438Y783412D02*
X187960Y770890D01*
X264414D01*
X241258Y845862D02*
X264414Y822706D01*
Y810260D02*
Y822706D01*
X171450Y825060D02*
X175438Y821072D01*
Y783412D02*
Y821072D01*
X1084580Y402590D02*
X1138551D01*
X1139444Y403483D01*
Y466725D01*
X990092Y308102D02*
X1084580Y402590D01*
X985266Y299720D02*
X990092Y304546D01*
Y308102D01*
X1139444Y466725D02*
Y474980D01*
Y565277D01*
X138240Y728535D02*
X150876Y715899D01*
X138240Y728535D02*
Y787028D01*
X133350Y791918D02*
X138240Y787028D01*
X133350Y791918D02*
Y825060D01*
X630936Y420370D02*
Y422570D01*
X583184Y473079D02*
X584077Y472186D01*
X583184Y473079D02*
Y532130D01*
X630936Y422570D02*
Y453644D01*
X612394Y472186D02*
X630936Y453644D01*
X584077Y472186D02*
X612394D01*
X516520Y422570D02*
X630936D01*
X513080Y426010D02*
X516520Y422570D01*
X613156Y532130D02*
Y593354D01*
X612458Y594052D02*
X613156Y593354D01*
X612458Y594052D02*
Y609272D01*
X605790Y615940D02*
X612458Y609272D01*
X605790Y615940D02*
Y685360D01*
X580390Y534924D02*
X583184Y532130D01*
X580390Y534924D02*
Y685360D01*
X954100Y475540D02*
X954660D01*
X946150D02*
X954100D01*
X954660Y474980D01*
X1157097Y448183D02*
X1157986D01*
X645353Y640080D02*
X667258D01*
X643865Y641568D02*
X645353Y640080D01*
X643865Y641568D02*
Y685335D01*
X643890Y685360D02*
Y709033D01*
X645378Y710521D02*
X686479D01*
X688594Y684530D02*
Y708406D01*
X686479Y710521D02*
X688594Y708406D01*
X643890Y709033D02*
X645378Y710521D01*
X955040Y183134D02*
X955294Y182880D01*
X955040Y183134D02*
Y240030D01*
Y299466D01*
X955294Y299720D01*
X1023620Y609600D02*
Y657860D01*
X998220Y584200D02*
X1023620Y609600D01*
X1001522Y679958D02*
X1023620Y657860D01*
X1118616Y586105D02*
X1139444Y565277D01*
X1118616Y586105D02*
Y657860D01*
X947674Y482526D02*
Y584200D01*
X1087374Y704850D02*
Y756920D01*
X1002523Y725212D02*
X1032468D01*
X1052830Y704850D02*
X1087374D01*
X1032468Y725212D02*
X1052830Y704850D01*
X1000650Y706840D02*
Y723339D01*
X1002523Y725212D01*
X1117346Y659130D02*
X1118616Y657860D01*
X1117346Y659130D02*
Y704850D01*
X977646Y584200D02*
X998220D01*
X965962Y679958D02*
X1001522D01*
X961332Y684588D02*
Y703198D01*
Y684588D02*
X965962Y679958D01*
X934720Y600583D02*
X947674Y587629D01*
X934720Y600583D02*
Y704410D01*
D18*
X1117346Y756920D02*
D03*
X1088644Y657860D02*
D03*
X718566Y684530D02*
D03*
X985266Y182880D02*
D03*
X668274Y593090D02*
D03*
X795274Y133350D02*
D03*
X294386Y810260D02*
D03*
X265684Y720090D02*
D03*
X795274Y246380D02*
D03*
X825246D02*
D03*
Y133350D02*
D03*
X120904Y712470D02*
D03*
X150876D02*
D03*
X264414Y810260D02*
D03*
X583184Y532130D02*
D03*
X613156D02*
D03*
X698246Y593090D02*
D03*
X955294Y182880D02*
D03*
X295656Y720090D02*
D03*
X294386Y770890D02*
D03*
X264414D02*
D03*
X955294Y299720D02*
D03*
X985266D02*
D03*
X697230Y640080D02*
D03*
X667258D02*
D03*
X688594Y684530D02*
D03*
X1118616Y657860D02*
D03*
X1087374Y756920D02*
D03*
X1117346Y704850D02*
D03*
X1087374D02*
D03*
X947674Y584200D02*
D03*
X977646D02*
D03*
D19*
X972820Y803910D02*
D03*
X618490Y784860D02*
D03*
X146050Y924560D02*
D03*
D20*
X972820Y704410D02*
D03*
X146050Y825060D02*
D03*
X618490Y685360D02*
D03*
X184150Y825060D02*
D03*
X171450D02*
D03*
X158750D02*
D03*
X133350D02*
D03*
X120650D02*
D03*
X107950D02*
D03*
X656590Y685360D02*
D03*
X643890D02*
D03*
X631190D02*
D03*
X605790D02*
D03*
X593090D02*
D03*
X580390D02*
D03*
X1010920Y704410D02*
D03*
X998220D02*
D03*
X985520D02*
D03*
X960120D02*
D03*
X947420D02*
D03*
X934720D02*
D03*
D21*
X976020Y662940D02*
D03*
Y629920D02*
D03*
X149250Y781050D02*
D03*
X150520Y749300D02*
D03*
X622960Y604520D02*
D03*
X621690Y640080D02*
D03*
X122530Y781050D02*
D03*
X123800Y749300D02*
D03*
X596240Y604520D02*
D03*
X594970Y640080D02*
D03*
X949300Y629920D02*
D03*
Y662940D02*
D03*
D22*
X906780Y919734D02*
D03*
X234950Y421386D02*
D03*
X906780Y949706D02*
D03*
X345440Y392430D02*
D03*
Y422402D02*
D03*
X234950Y391414D02*
D03*
D23*
X946150Y405840D02*
D03*
X513080Y356310D02*
D03*
X946150Y475540D02*
D03*
X513080Y426010D02*
D03*
D24*
X85800Y601980D02*
D03*
X155500D02*
D03*
D25*
X630936Y420370D02*
D03*
X730504D02*
D03*
X237236Y557530D02*
D03*
X336804D02*
D03*
X1039876Y474980D02*
D03*
X1139444D02*
D03*
D39*
X1178560Y231420D02*
D03*
Y266420D02*
D03*
X739420Y947420D02*
D03*
X1178560Y124460D02*
D03*
X655040Y45720D02*
D03*
X526340Y949960D02*
D03*
X314960Y46990D02*
D03*
X464540Y45720D02*
D03*
X45720Y444780D02*
D03*
X169900Y46990D02*
D03*
X774420Y947420D02*
D03*
X279960Y46990D02*
D03*
X429540Y45720D02*
D03*
X620040D02*
D03*
X134900Y46990D02*
D03*
X561340Y949960D02*
D03*
X45720Y479780D02*
D03*
X1178560Y89460D02*
D03*
D40*
Y849630D02*
D03*
D41*
X828040Y922020D02*
D03*
X1066800Y259080D02*
D03*
X1027430Y90170D02*
D03*
X980440Y240030D02*
D03*
X798830Y189230D02*
D03*
X617220Y922020D02*
D03*
X287020Y416560D02*
D03*
X619760Y147320D02*
D03*
X429260D02*
D03*
X119380Y444500D02*
D03*
X280670Y163830D02*
D03*
X135890Y161290D02*
D03*
X477520Y782320D02*
D03*
Y807720D02*
D03*
X1008380Y942340D02*
D03*
X982980D02*
D03*
X828040Y947420D02*
D03*
X824230Y189230D02*
D03*
X619760Y121920D02*
D03*
X617220Y947420D02*
D03*
X955040Y240030D02*
D03*
X830580Y812800D02*
D03*
Y787400D02*
D03*
X287020Y391160D02*
D03*
X1066800Y233680D02*
D03*
X363220Y866140D02*
D03*
X337820D02*
D03*
X119380Y469900D02*
D03*
X1052830Y90170D02*
D03*
X429260Y121920D02*
D03*
X280670Y138430D02*
D03*
X135890Y135890D02*
D03*
D42*
X1178560Y932180D02*
D03*
D43*
X1132840Y756920D02*
D03*
X1068070Y656590D02*
D03*
X996950Y645160D02*
D03*
X937260Y919480D02*
D03*
X972820Y749300D02*
D03*
X741680Y684530D02*
D03*
X946150Y382270D02*
D03*
X1008380Y182880D02*
D03*
X636270Y622300D02*
D03*
X778510Y133350D02*
D03*
X668020Y567690D02*
D03*
X318770Y808990D02*
D03*
X212090Y925830D02*
D03*
X618490Y723900D02*
D03*
X246380Y718820D02*
D03*
X168910Y764540D02*
D03*
X511810Y325120D02*
D03*
X60960Y641350D02*
D03*
X208280Y421640D02*
D03*
M02*
