G04*
G04 #@! TF.GenerationSoftware,Altium Limited,Altium Designer,26.3.0 (6)*
G04*
G04 Layer_Physical_Order=2*
G04 Layer_Color=16711680*
%FSLAX44Y44*%
%MOMM*%
G71*
G04*
G04 #@! TF.SameCoordinates,7B9AB984-ECB7-4C16-AED9-D4E4A7742322*
G04*
G04*
G04 #@! TF.FilePolarity,Positive*
G04*
G01*
G75*
%ADD39C,2.0000*%
%ADD40C,2.7432*%
%ADD41C,1.6200*%
%ADD42R,2.7432X2.7432*%
%ADD43C,0.6350*%
G36*
X1214021Y5179D02*
X5179D01*
Y985421D01*
X1214020D01*
X1214021Y5179D01*
D02*
G37*
%LPC*%
G36*
X562991Y962500D02*
X559689D01*
X556500Y961645D01*
X553640Y959995D01*
X551306Y957660D01*
X549655Y954800D01*
X548800Y951611D01*
Y948309D01*
X549655Y945120D01*
X551306Y942260D01*
X553640Y939926D01*
X556500Y938275D01*
X559689Y937420D01*
X562991D01*
X566180Y938275D01*
X569040Y939926D01*
X571375Y942260D01*
X573025Y945120D01*
X573880Y948309D01*
Y951611D01*
X573025Y954800D01*
X571375Y957660D01*
X569040Y959995D01*
X566180Y961645D01*
X562991Y962500D01*
D02*
G37*
G36*
X829441Y958060D02*
X826639D01*
X823933Y957335D01*
X821507Y955934D01*
X819526Y953953D01*
X818125Y951527D01*
X817400Y948821D01*
Y946019D01*
X818125Y943313D01*
X819526Y940887D01*
X821507Y938906D01*
X823933Y937505D01*
X826639Y936780D01*
X829441D01*
X832147Y937505D01*
X834573Y938906D01*
X836554Y940887D01*
X837955Y943313D01*
X838680Y946019D01*
Y948821D01*
X837955Y951527D01*
X836554Y953953D01*
X834573Y955934D01*
X832147Y957335D01*
X829441Y958060D01*
D02*
G37*
G36*
X618621D02*
X615819D01*
X613113Y957335D01*
X610687Y955934D01*
X608706Y953953D01*
X607305Y951527D01*
X606580Y948821D01*
Y946019D01*
X607305Y943313D01*
X608706Y940887D01*
X610687Y938906D01*
X613113Y937505D01*
X615819Y936780D01*
X618621D01*
X621327Y937505D01*
X623753Y938906D01*
X625734Y940887D01*
X627135Y943313D01*
X627860Y946019D01*
Y948821D01*
X627135Y951527D01*
X625734Y953953D01*
X623753Y955934D01*
X621327Y957335D01*
X618621Y958060D01*
D02*
G37*
G36*
X776071Y959960D02*
X772769D01*
X769580Y959105D01*
X766720Y957455D01*
X764386Y955120D01*
X762735Y952260D01*
X761880Y949071D01*
Y945769D01*
X762735Y942580D01*
X764386Y939720D01*
X766720Y937385D01*
X769580Y935735D01*
X772769Y934880D01*
X776071D01*
X779260Y935735D01*
X782120Y937385D01*
X784454Y939720D01*
X786105Y942580D01*
X786960Y945769D01*
Y949071D01*
X786105Y952260D01*
X784454Y955120D01*
X782120Y957455D01*
X779260Y959105D01*
X776071Y959960D01*
D02*
G37*
G36*
X1009781Y952980D02*
X1006979D01*
X1004273Y952255D01*
X1001847Y950854D01*
X999866Y948873D01*
X998465Y946447D01*
X997740Y943741D01*
Y940939D01*
X998465Y938233D01*
X999866Y935807D01*
X1001847Y933826D01*
X1004273Y932425D01*
X1006979Y931700D01*
X1009781D01*
X1012487Y932425D01*
X1014913Y933826D01*
X1016894Y935807D01*
X1018295Y938233D01*
X1019020Y940939D01*
Y943741D01*
X1018295Y946447D01*
X1016894Y948873D01*
X1014913Y950854D01*
X1012487Y952255D01*
X1009781Y952980D01*
D02*
G37*
G36*
X984381D02*
X981579D01*
X978873Y952255D01*
X976447Y950854D01*
X974466Y948873D01*
X973065Y946447D01*
X972340Y943741D01*
Y940939D01*
X973065Y938233D01*
X974466Y935807D01*
X976447Y933826D01*
X978873Y932425D01*
X981579Y931700D01*
X984381D01*
X987087Y932425D01*
X989513Y933826D01*
X991494Y935807D01*
X992895Y938233D01*
X993620Y940939D01*
Y943741D01*
X992895Y946447D01*
X991494Y948873D01*
X989513Y950854D01*
X987087Y952255D01*
X984381Y952980D01*
D02*
G37*
G36*
X1194816Y948436D02*
X1162304D01*
Y915924D01*
X1194816D01*
Y948436D01*
D02*
G37*
G36*
X364621Y876780D02*
X361819D01*
X359113Y876055D01*
X356687Y874654D01*
X354706Y872673D01*
X353305Y870247D01*
X352580Y867541D01*
Y864739D01*
X353305Y862033D01*
X354706Y859607D01*
X356687Y857626D01*
X359113Y856225D01*
X361819Y855500D01*
X364621D01*
X367327Y856225D01*
X369753Y857626D01*
X371734Y859607D01*
X373135Y862033D01*
X373860Y864739D01*
Y867541D01*
X373135Y870247D01*
X371734Y872673D01*
X369753Y874654D01*
X367327Y876055D01*
X364621Y876780D01*
D02*
G37*
G36*
X339221D02*
X336419D01*
X333713Y876055D01*
X331287Y874654D01*
X329306Y872673D01*
X327905Y870247D01*
X327180Y867541D01*
Y864739D01*
X327905Y862033D01*
X329306Y859607D01*
X331287Y857626D01*
X333713Y856225D01*
X336419Y855500D01*
X339221D01*
X341927Y856225D01*
X344353Y857626D01*
X346334Y859607D01*
X347735Y862033D01*
X348460Y864739D01*
Y867541D01*
X347735Y870247D01*
X346334Y872673D01*
X344353Y874654D01*
X341927Y876055D01*
X339221Y876780D01*
D02*
G37*
G36*
X831981Y823440D02*
X829179D01*
X826473Y822715D01*
X824047Y821314D01*
X822066Y819333D01*
X820665Y816907D01*
X819940Y814201D01*
Y811399D01*
X820665Y808693D01*
X822066Y806267D01*
X824047Y804286D01*
X826473Y802885D01*
X829179Y802160D01*
X831981D01*
X834687Y802885D01*
X837113Y804286D01*
X839094Y806267D01*
X840495Y808693D01*
X841220Y811399D01*
Y814201D01*
X840495Y816907D01*
X839094Y819333D01*
X837113Y821314D01*
X834687Y822715D01*
X831981Y823440D01*
D02*
G37*
G36*
X478921Y818360D02*
X476119D01*
X473413Y817635D01*
X470987Y816234D01*
X469006Y814253D01*
X467605Y811827D01*
X466880Y809121D01*
Y806319D01*
X467605Y803613D01*
X469006Y801187D01*
X470987Y799206D01*
X473413Y797805D01*
X476119Y797080D01*
X478921D01*
X481627Y797805D01*
X484053Y799206D01*
X486034Y801187D01*
X487435Y803613D01*
X488160Y806319D01*
Y809121D01*
X487435Y811827D01*
X486034Y814253D01*
X484053Y816234D01*
X481627Y817635D01*
X478921Y818360D01*
D02*
G37*
G36*
X831981Y798040D02*
X829179D01*
X826473Y797315D01*
X824047Y795914D01*
X822066Y793933D01*
X820665Y791507D01*
X819940Y788801D01*
Y785999D01*
X820665Y783293D01*
X822066Y780867D01*
X824047Y778886D01*
X826473Y777485D01*
X829179Y776760D01*
X831981D01*
X834687Y777485D01*
X837113Y778886D01*
X839094Y780867D01*
X840495Y783293D01*
X841220Y785999D01*
Y788801D01*
X840495Y791507D01*
X839094Y793933D01*
X837113Y795914D01*
X834687Y797315D01*
X831981Y798040D01*
D02*
G37*
G36*
X478921Y792960D02*
X476119D01*
X473413Y792235D01*
X470987Y790834D01*
X469006Y788853D01*
X467605Y786427D01*
X466880Y783721D01*
Y780919D01*
X467605Y778213D01*
X469006Y775787D01*
X470987Y773806D01*
X473413Y772405D01*
X476119Y771680D01*
X478921D01*
X481627Y772405D01*
X484053Y773806D01*
X486034Y775787D01*
X487435Y778213D01*
X488160Y780919D01*
Y783721D01*
X487435Y786427D01*
X486034Y788853D01*
X484053Y790834D01*
X481627Y792235D01*
X478921Y792960D01*
D02*
G37*
G36*
X47371Y492320D02*
X44069D01*
X40880Y491465D01*
X38020Y489814D01*
X35686Y487480D01*
X34035Y484620D01*
X33180Y481431D01*
Y478129D01*
X34035Y474940D01*
X35686Y472080D01*
X38020Y469745D01*
X40880Y468095D01*
X44069Y467240D01*
X47371D01*
X50560Y468095D01*
X53420Y469745D01*
X55754Y472080D01*
X57405Y474940D01*
X58260Y478129D01*
Y481431D01*
X57405Y484620D01*
X55754Y487480D01*
X53420Y489814D01*
X50560Y491465D01*
X47371Y492320D01*
D02*
G37*
G36*
X120781Y480540D02*
X117979D01*
X115273Y479815D01*
X112847Y478414D01*
X110866Y476433D01*
X109465Y474007D01*
X108740Y471301D01*
Y468499D01*
X109465Y465793D01*
X110866Y463367D01*
X112847Y461386D01*
X115273Y459985D01*
X117979Y459260D01*
X120781D01*
X123487Y459985D01*
X125913Y461386D01*
X127894Y463367D01*
X129295Y465793D01*
X130020Y468499D01*
Y471301D01*
X129295Y474007D01*
X127894Y476433D01*
X125913Y478414D01*
X123487Y479815D01*
X120781Y480540D01*
D02*
G37*
G36*
X288421Y401800D02*
X285619D01*
X282913Y401075D01*
X280487Y399674D01*
X278506Y397693D01*
X277105Y395267D01*
X276380Y392561D01*
Y389759D01*
X277105Y387053D01*
X278506Y384627D01*
X280487Y382646D01*
X282913Y381245D01*
X285619Y380520D01*
X288421D01*
X291127Y381245D01*
X293553Y382646D01*
X295534Y384627D01*
X296935Y387053D01*
X297660Y389759D01*
Y392561D01*
X296935Y395267D01*
X295534Y397693D01*
X293553Y399674D01*
X291127Y401075D01*
X288421Y401800D01*
D02*
G37*
G36*
X956441Y250670D02*
X953639D01*
X950933Y249945D01*
X948507Y248544D01*
X946526Y246563D01*
X945125Y244137D01*
X944400Y241431D01*
Y238629D01*
X945125Y235923D01*
X946526Y233497D01*
X948507Y231516D01*
X950933Y230115D01*
X953639Y229390D01*
X956441D01*
X959147Y230115D01*
X961573Y231516D01*
X963554Y233497D01*
X964955Y235923D01*
X965680Y238629D01*
Y241431D01*
X964955Y244137D01*
X963554Y246563D01*
X961573Y248544D01*
X959147Y249945D01*
X956441Y250670D01*
D02*
G37*
G36*
X1068201Y244320D02*
X1065399D01*
X1062693Y243595D01*
X1060267Y242194D01*
X1058286Y240213D01*
X1056885Y237787D01*
X1056160Y235081D01*
Y232279D01*
X1056885Y229573D01*
X1058286Y227147D01*
X1060267Y225166D01*
X1062693Y223765D01*
X1065399Y223040D01*
X1068201D01*
X1070907Y223765D01*
X1073333Y225166D01*
X1075314Y227147D01*
X1076715Y229573D01*
X1077440Y232279D01*
Y235081D01*
X1076715Y237787D01*
X1075314Y240213D01*
X1073333Y242194D01*
X1070907Y243595D01*
X1068201Y244320D01*
D02*
G37*
G36*
X1180211Y243960D02*
X1176909D01*
X1173720Y243105D01*
X1170860Y241455D01*
X1168525Y239120D01*
X1166875Y236260D01*
X1166020Y233071D01*
Y229769D01*
X1166875Y226580D01*
X1168525Y223720D01*
X1170860Y221386D01*
X1173720Y219735D01*
X1176909Y218880D01*
X1180211D01*
X1183400Y219735D01*
X1186260Y221386D01*
X1188595Y223720D01*
X1190245Y226580D01*
X1191100Y229769D01*
Y233071D01*
X1190245Y236260D01*
X1188595Y239120D01*
X1186260Y241455D01*
X1183400Y243105D01*
X1180211Y243960D01*
D02*
G37*
G36*
X825631Y199870D02*
X822829D01*
X820123Y199145D01*
X817697Y197744D01*
X815716Y195763D01*
X814315Y193337D01*
X813590Y190631D01*
Y187829D01*
X814315Y185123D01*
X815716Y182697D01*
X817697Y180716D01*
X820123Y179315D01*
X822829Y178590D01*
X825631D01*
X828337Y179315D01*
X830763Y180716D01*
X832744Y182697D01*
X834145Y185123D01*
X834870Y187829D01*
Y190631D01*
X834145Y193337D01*
X832744Y195763D01*
X830763Y197744D01*
X828337Y199145D01*
X825631Y199870D01*
D02*
G37*
G36*
X282071Y149070D02*
X279269D01*
X276563Y148345D01*
X274137Y146944D01*
X272156Y144963D01*
X270755Y142537D01*
X270030Y139831D01*
Y137029D01*
X270755Y134323D01*
X272156Y131897D01*
X274137Y129916D01*
X276563Y128515D01*
X279269Y127790D01*
X282071D01*
X284777Y128515D01*
X287203Y129916D01*
X289184Y131897D01*
X290585Y134323D01*
X291310Y137029D01*
Y139831D01*
X290585Y142537D01*
X289184Y144963D01*
X287203Y146944D01*
X284777Y148345D01*
X282071Y149070D01*
D02*
G37*
G36*
X137291Y146530D02*
X134489D01*
X131783Y145805D01*
X129357Y144404D01*
X127376Y142423D01*
X125975Y139997D01*
X125250Y137291D01*
Y134489D01*
X125975Y131783D01*
X127376Y129357D01*
X129357Y127376D01*
X131783Y125975D01*
X134489Y125250D01*
X137291D01*
X139997Y125975D01*
X142423Y127376D01*
X144404Y129357D01*
X145805Y131783D01*
X146530Y134489D01*
Y137291D01*
X145805Y139997D01*
X144404Y142423D01*
X142423Y144404D01*
X139997Y145805D01*
X137291Y146530D01*
D02*
G37*
G36*
X621161Y132560D02*
X618359D01*
X615653Y131835D01*
X613227Y130434D01*
X611246Y128453D01*
X609845Y126027D01*
X609120Y123321D01*
Y120519D01*
X609845Y117813D01*
X611246Y115387D01*
X613227Y113406D01*
X615653Y112005D01*
X618359Y111280D01*
X621161D01*
X623867Y112005D01*
X626293Y113406D01*
X628274Y115387D01*
X629675Y117813D01*
X630400Y120519D01*
Y123321D01*
X629675Y126027D01*
X628274Y128453D01*
X626293Y130434D01*
X623867Y131835D01*
X621161Y132560D01*
D02*
G37*
G36*
X430661D02*
X427859D01*
X425153Y131835D01*
X422727Y130434D01*
X420746Y128453D01*
X419345Y126027D01*
X418620Y123321D01*
Y120519D01*
X419345Y117813D01*
X420746Y115387D01*
X422727Y113406D01*
X425153Y112005D01*
X427859Y111280D01*
X430661D01*
X433367Y112005D01*
X435793Y113406D01*
X437774Y115387D01*
X439175Y117813D01*
X439900Y120519D01*
Y123321D01*
X439175Y126027D01*
X437774Y128453D01*
X435793Y130434D01*
X433367Y131835D01*
X430661Y132560D01*
D02*
G37*
G36*
X1054231Y100810D02*
X1051429D01*
X1048723Y100085D01*
X1046297Y98684D01*
X1044316Y96703D01*
X1042915Y94277D01*
X1042190Y91571D01*
Y88769D01*
X1042915Y86063D01*
X1044316Y83637D01*
X1046297Y81656D01*
X1048723Y80255D01*
X1051429Y79530D01*
X1054231D01*
X1056937Y80255D01*
X1059363Y81656D01*
X1061344Y83637D01*
X1062745Y86063D01*
X1063470Y88769D01*
Y91571D01*
X1062745Y94277D01*
X1061344Y96703D01*
X1059363Y98684D01*
X1056937Y100085D01*
X1054231Y100810D01*
D02*
G37*
G36*
X1180211Y102000D02*
X1176909D01*
X1173720Y101145D01*
X1170860Y99494D01*
X1168525Y97160D01*
X1166875Y94300D01*
X1166020Y91111D01*
Y87809D01*
X1166875Y84620D01*
X1168525Y81760D01*
X1170860Y79426D01*
X1173720Y77775D01*
X1176909Y76920D01*
X1180211D01*
X1183400Y77775D01*
X1186260Y79426D01*
X1188595Y81760D01*
X1190245Y84620D01*
X1191100Y87809D01*
Y91111D01*
X1190245Y94300D01*
X1188595Y97160D01*
X1186260Y99494D01*
X1183400Y101145D01*
X1180211Y102000D01*
D02*
G37*
G36*
X281611Y59530D02*
X278309D01*
X275120Y58675D01*
X272260Y57024D01*
X269926Y54690D01*
X268275Y51830D01*
X267420Y48641D01*
Y45339D01*
X268275Y42150D01*
X269926Y39290D01*
X272260Y36955D01*
X275120Y35305D01*
X278309Y34450D01*
X281611D01*
X284800Y35305D01*
X287660Y36955D01*
X289995Y39290D01*
X291646Y42150D01*
X292500Y45339D01*
Y48641D01*
X291646Y51830D01*
X289995Y54690D01*
X287660Y57024D01*
X284800Y58675D01*
X281611Y59530D01*
D02*
G37*
G36*
X136551D02*
X133249D01*
X130060Y58675D01*
X127200Y57024D01*
X124866Y54690D01*
X123215Y51830D01*
X122360Y48641D01*
Y45339D01*
X123215Y42150D01*
X124866Y39290D01*
X127200Y36955D01*
X130060Y35305D01*
X133249Y34450D01*
X136551D01*
X139740Y35305D01*
X142600Y36955D01*
X144935Y39290D01*
X146585Y42150D01*
X147440Y45339D01*
Y48641D01*
X146585Y51830D01*
X144935Y54690D01*
X142600Y57024D01*
X139740Y58675D01*
X136551Y59530D01*
D02*
G37*
G36*
X621691Y58260D02*
X618389D01*
X615200Y57405D01*
X612340Y55754D01*
X610006Y53420D01*
X608355Y50560D01*
X607500Y47371D01*
Y44069D01*
X608355Y40880D01*
X610006Y38020D01*
X612340Y35686D01*
X615200Y34035D01*
X618389Y33180D01*
X621691D01*
X624880Y34035D01*
X627740Y35686D01*
X630075Y38020D01*
X631725Y40880D01*
X632580Y44069D01*
Y47371D01*
X631725Y50560D01*
X630075Y53420D01*
X627740Y55754D01*
X624880Y57405D01*
X621691Y58260D01*
D02*
G37*
G36*
X431191D02*
X427889D01*
X424700Y57405D01*
X421840Y55754D01*
X419506Y53420D01*
X417855Y50560D01*
X417000Y47371D01*
Y44069D01*
X417855Y40880D01*
X419506Y38020D01*
X421840Y35686D01*
X424700Y34035D01*
X427889Y33180D01*
X431191D01*
X434380Y34035D01*
X437240Y35686D01*
X439575Y38020D01*
X441225Y40880D01*
X442080Y44069D01*
Y47371D01*
X441225Y50560D01*
X439575Y53420D01*
X437240Y55754D01*
X434380Y57405D01*
X431191Y58260D01*
D02*
G37*
%LPD*%
D39*
X1178560Y231420D02*
D03*
Y266420D02*
D03*
X739420Y947420D02*
D03*
X1178560Y124460D02*
D03*
X655040Y45720D02*
D03*
X526340Y949960D02*
D03*
X314960Y46990D02*
D03*
X464540Y45720D02*
D03*
X45720Y444780D02*
D03*
X169900Y46990D02*
D03*
X774420Y947420D02*
D03*
X279960Y46990D02*
D03*
X429540Y45720D02*
D03*
X620040D02*
D03*
X134900Y46990D02*
D03*
X561340Y949960D02*
D03*
X45720Y479780D02*
D03*
X1178560Y89460D02*
D03*
D40*
Y849630D02*
D03*
D41*
X828040Y922020D02*
D03*
X1066800Y259080D02*
D03*
X1027430Y90170D02*
D03*
X980440Y240030D02*
D03*
X798830Y189230D02*
D03*
X617220Y922020D02*
D03*
X287020Y416560D02*
D03*
X619760Y147320D02*
D03*
X429260D02*
D03*
X119380Y444500D02*
D03*
X280670Y163830D02*
D03*
X135890Y161290D02*
D03*
X477520Y782320D02*
D03*
Y807720D02*
D03*
X1008380Y942340D02*
D03*
X982980D02*
D03*
X828040Y947420D02*
D03*
X824230Y189230D02*
D03*
X619760Y121920D02*
D03*
X617220Y947420D02*
D03*
X955040Y240030D02*
D03*
X830580Y812800D02*
D03*
Y787400D02*
D03*
X287020Y391160D02*
D03*
X1066800Y233680D02*
D03*
X363220Y866140D02*
D03*
X337820D02*
D03*
X119380Y469900D02*
D03*
X1052830Y90170D02*
D03*
X429260Y121920D02*
D03*
X280670Y138430D02*
D03*
X135890Y135890D02*
D03*
D42*
X1178560Y932180D02*
D03*
D43*
X1132840Y756920D02*
D03*
X1068070Y656590D02*
D03*
X996950Y645160D02*
D03*
X937260Y919480D02*
D03*
X972820Y749300D02*
D03*
X741680Y684530D02*
D03*
X946150Y382270D02*
D03*
X1008380Y182880D02*
D03*
X636270Y622300D02*
D03*
X778510Y133350D02*
D03*
X668020Y567690D02*
D03*
X318770Y808990D02*
D03*
X212090Y925830D02*
D03*
X618490Y723900D02*
D03*
X246380Y718820D02*
D03*
X168910Y764540D02*
D03*
X511810Y325120D02*
D03*
X60960Y641350D02*
D03*
X208280Y421640D02*
D03*
M02*
