M48
;Layer_Color=9474304
;FILE_FORMAT=4:4
METRIC,LZ
;TYPE=PLATED
T01F00S00C0.3302
T02F00S00C1.0000
T03F00S00C1.0201
T04F00S00C1.8288
%
T01
X0077851Y0013335
X0100838Y0018288
X0094615Y0038227
X0051181Y0032512
X0020828Y0042164
X0006096Y0064135
X0016891Y0076454
X0024638Y0071882
X0031877Y0080899
X0021209Y0092583
X0061849Y007239
X0063627Y006223
X0066802Y0056769
X0074168Y0068453
X0099695Y0064516
X0106807Y0065659
X0113284Y0075692
X0097282Y007493
X0093726Y0091948
T02
X001349Y0004699
X001699
X0027996
X0031496
X0042954Y0004572
X0046454
X0062004
X0065504
X0117856Y0008946
Y0012446
Y0023142
Y0026642
X0004572Y0044478
Y0047978
X0056134Y0094996
X0073942Y0094742
X0077442
X0052634Y0094996
T03
X0013589Y0013589
X0028067Y0013843
X0042926Y0012192
X0061976
X0102743Y0009017
X0105283
X010668Y0023368
Y0025908
X0098044Y0024003
X0095504
X0082423Y0018923
X0079883
X0061976Y0014732
X0042926
X0028067Y0016383
X0028702Y0039116
Y0041656
X0011938Y004445
Y004699
X0013589Y0016129
X0033782Y0086614
X0036322
X0047752Y0080772
Y0078232
X0061722Y0092202
X0082804
X0083058Y008128
Y007874
X0098298Y0094234
X0100838
X0082804Y0094742
X0061722
T04
X0117856Y0084963
Y0093218
M30
