G04*
G04 #@! TF.GenerationSoftware,Altium Limited,Altium Designer,25.2.1 (25)*
G04*
G04 Layer_Color=255*
%FSLAX44Y44*%
%MOMM*%
G71*
G04*
G04 #@! TF.SameCoordinates,E3E45374-9F76-4001-9276-F41C8DC03B42*
G04*
G04*
G04 #@! TF.FilePolarity,Positive*
G04*
G01*
G75*
%ADD37O,3.3000X1.8000*%
%ADD38O,2.0000X3.8000*%
%ADD39C,1.7780*%
%ADD40C,1.6200*%
D37*
X121360Y888220D02*
D03*
D38*
X86360Y934720D02*
D03*
X146360D02*
D03*
D39*
X93980Y464820D02*
D03*
X119380D02*
D03*
X43180D02*
D03*
X68580D02*
D03*
X102870Y151130D02*
D03*
X128270D02*
D03*
X52070D02*
D03*
X77470D02*
D03*
X916940Y345440D02*
D03*
X891540D02*
D03*
X967740D02*
D03*
X942340D02*
D03*
X916940Y419100D02*
D03*
X891540D02*
D03*
X967740D02*
D03*
X942340D02*
D03*
X624840Y469900D02*
D03*
X650240D02*
D03*
X574040D02*
D03*
X599440D02*
D03*
X647700Y822960D02*
D03*
Y797560D02*
D03*
Y873760D02*
D03*
Y848360D02*
D03*
X767080Y711200D02*
D03*
Y685800D02*
D03*
Y762000D02*
D03*
Y736600D02*
D03*
X652780Y99060D02*
D03*
Y73660D02*
D03*
Y149860D02*
D03*
Y124460D02*
D03*
X538480Y238760D02*
D03*
X513080D02*
D03*
X589280D02*
D03*
X563880D02*
D03*
X146050Y798830D02*
D03*
X171450D02*
D03*
X95250D02*
D03*
X120650D02*
D03*
X325120Y505460D02*
D03*
X299720D02*
D03*
X375920D02*
D03*
X350520D02*
D03*
X408940Y215900D02*
D03*
Y241300D02*
D03*
Y165100D02*
D03*
Y190500D02*
D03*
X307340Y403860D02*
D03*
Y429260D02*
D03*
Y353060D02*
D03*
Y378460D02*
D03*
D40*
X424180Y655320D02*
D03*
Y629920D02*
D03*
X312420Y777240D02*
D03*
Y802640D02*
D03*
X690880Y706120D02*
D03*
X665480D02*
D03*
X523240Y932180D02*
D03*
X548640D02*
D03*
X266700Y716280D02*
D03*
X241300D02*
D03*
X337820Y655320D02*
D03*
Y629920D02*
D03*
M02*
