M48
;Layer_Color=9474304
;FILE_FORMAT=4:4
METRIC,LZ
;TYPE=PLATED
T01F00S00C0.3302
T03F00S00C1.0160
T04F00S00C1.0201
%
T01
X0028575Y0025273
X0044196Y0032258
X00360426Y004191
X0018542Y0041529
X001778Y0045466
X00097536Y0035941
X0012827Y0032258
X0017526Y0056642
X001778Y006096
X0022606Y008763
X0036322Y008509
X0043688Y00802894
X0041275Y007747
X0062484Y0075946
X0072898
X0084074Y0081788
X00806196Y0085852
X009652Y00747522
T03
X0065278Y0007366
Y0009906
Y0012446
X0094234Y0034544
X0096774
Y004191
X0094234
X0091694
X0089154
Y0034544
X0091694
X0065024Y004699
X0062484
X0059944
X0057404
X0056388Y0023876
X0058928
X0065278Y0014986
X0053848Y0023876
X0051308
X0040894Y002413
Y002159
Y001905
Y001651
X0030734Y0035306
Y0037846
Y0040386
Y0042926
X0029972Y0050546
X0032512
X0035052
X0037592
X0011938Y0046482
X0009398
X0006858
X0004318
X0005207Y0015113
X0007747
X0010287
X0012827
X0012065Y0079883
X0009525
X0014605
X0017145
X006477Y0079756
Y0082296
Y0084836
Y0087376
X0076708Y00762
Y007366
Y007112
Y006858
T04
X002413Y0071628
X002667
X0031242Y0077724
Y0080264
X0033782Y0065532
Y0062992
X0042418
Y0065532
X0052324Y0093218
X0054864
X0066548Y0070612
X0069088
M30
