G04*
G04 #@! TF.GenerationSoftware,Altium Limited,Altium Designer,25.2.1 (25)*
G04*
G04 Layer_Color=255*
%FSLAX44Y44*%
%MOMM*%
G71*
G04*
G04 #@! TF.SameCoordinates,E3E45374-9F76-4001-9276-F41C8DC03B42*
G04*
G04*
G04 #@! TF.FilePolarity,Positive*
G04*
G01*
G75*
%ADD19R,1.8034X1.1176*%
%ADD20R,1.1176X1.8034*%
%ADD21R,3.4000X0.6000*%
%ADD22R,1.7000X3.0988*%
%ADD23R,1.7000X0.8382*%
%ADD24R,2.6500X0.6000*%
%ADD37O,3.3000X1.8000*%
%ADD38O,2.0000X3.8000*%
%ADD39C,1.7780*%
%ADD40C,1.6200*%
D19*
X535940Y855980D02*
D03*
Y885952D02*
D03*
X226060Y937006D02*
D03*
Y907034D02*
D03*
X965200Y772160D02*
D03*
Y802132D02*
D03*
X210820Y606806D02*
D03*
Y576834D02*
D03*
X436880Y826008D02*
D03*
Y855980D02*
D03*
X861060Y223774D02*
D03*
Y253746D02*
D03*
X703580Y241300D02*
D03*
Y271272D02*
D03*
X866140Y157480D02*
D03*
Y127508D02*
D03*
X772160Y239014D02*
D03*
Y268986D02*
D03*
D20*
X667766Y383540D02*
D03*
X637794D02*
D03*
X736854Y855980D02*
D03*
X766826D02*
D03*
X230886Y454660D02*
D03*
X200914D02*
D03*
X934466Y914400D02*
D03*
X904494D02*
D03*
X752094Y932180D02*
D03*
X782066D02*
D03*
X945134Y574040D02*
D03*
X975106D02*
D03*
X226314Y252730D02*
D03*
X256286D02*
D03*
X390906Y774700D02*
D03*
X360934D02*
D03*
X797306Y533400D02*
D03*
X767334D02*
D03*
X627126Y327660D02*
D03*
X597154D02*
D03*
X49784Y259080D02*
D03*
X79756D02*
D03*
X48260Y359410D02*
D03*
X78232D02*
D03*
X413512Y419100D02*
D03*
X383540D02*
D03*
X408686Y322580D02*
D03*
X378714D02*
D03*
X225806Y177800D02*
D03*
X195834D02*
D03*
D21*
X923620Y808990D02*
D03*
Y796290D02*
D03*
Y783590D02*
D03*
Y770890D02*
D03*
X869620D02*
D03*
Y783590D02*
D03*
Y796290D02*
D03*
Y808990D02*
D03*
D22*
X300240Y909320D02*
D03*
D23*
X365240Y886206D02*
D03*
Y909320D02*
D03*
X367740Y932434D02*
D03*
D24*
X815340Y439420D02*
D03*
X815760Y426720D02*
D03*
Y414020D02*
D03*
Y401320D02*
D03*
Y388620D02*
D03*
Y375920D02*
D03*
Y363220D02*
D03*
X759040D02*
D03*
Y375920D02*
D03*
Y388620D02*
D03*
Y401320D02*
D03*
Y414020D02*
D03*
Y426720D02*
D03*
Y439420D02*
D03*
X210820Y398780D02*
D03*
X211240Y386080D02*
D03*
Y373380D02*
D03*
Y360680D02*
D03*
Y347980D02*
D03*
Y335280D02*
D03*
Y322580D02*
D03*
X154520D02*
D03*
Y335280D02*
D03*
Y347980D02*
D03*
Y360680D02*
D03*
Y373380D02*
D03*
Y386080D02*
D03*
Y398780D02*
D03*
D37*
X121360Y888220D02*
D03*
D38*
X86360Y934720D02*
D03*
X146360D02*
D03*
D39*
X93980Y464820D02*
D03*
X119380D02*
D03*
X43180D02*
D03*
X68580D02*
D03*
X102870Y151130D02*
D03*
X128270D02*
D03*
X52070D02*
D03*
X77470D02*
D03*
X916940Y345440D02*
D03*
X891540D02*
D03*
X967740D02*
D03*
X942340D02*
D03*
X916940Y419100D02*
D03*
X891540D02*
D03*
X967740D02*
D03*
X942340D02*
D03*
X624840Y469900D02*
D03*
X650240D02*
D03*
X574040D02*
D03*
X599440D02*
D03*
X647700Y822960D02*
D03*
Y797560D02*
D03*
Y873760D02*
D03*
Y848360D02*
D03*
X767080Y711200D02*
D03*
Y685800D02*
D03*
Y762000D02*
D03*
Y736600D02*
D03*
X652780Y99060D02*
D03*
Y73660D02*
D03*
Y149860D02*
D03*
Y124460D02*
D03*
X538480Y238760D02*
D03*
X513080D02*
D03*
X589280D02*
D03*
X563880D02*
D03*
X146050Y798830D02*
D03*
X171450D02*
D03*
X95250D02*
D03*
X120650D02*
D03*
X325120Y505460D02*
D03*
X299720D02*
D03*
X375920D02*
D03*
X350520D02*
D03*
X408940Y215900D02*
D03*
Y241300D02*
D03*
Y165100D02*
D03*
Y190500D02*
D03*
X307340Y403860D02*
D03*
Y429260D02*
D03*
Y353060D02*
D03*
Y378460D02*
D03*
D40*
X424180Y655320D02*
D03*
Y629920D02*
D03*
X312420Y777240D02*
D03*
Y802640D02*
D03*
X690880Y706120D02*
D03*
X665480D02*
D03*
X523240Y932180D02*
D03*
X548640D02*
D03*
X266700Y716280D02*
D03*
X241300D02*
D03*
X337820Y655320D02*
D03*
Y629920D02*
D03*
M02*
