G04*
G04 #@! TF.GenerationSoftware,Altium Limited,Altium Designer,25.2.1 (25)*
G04*
G04 Layer_Physical_Order=1*
G04 Layer_Color=255*
%FSLAX44Y44*%
%MOMM*%
G71*
G04*
G04 #@! TF.SameCoordinates,E3E45374-9F76-4001-9276-F41C8DC03B42*
G04*
G04*
G04 #@! TF.FilePolarity,Positive*
G04*
G01*
G75*
%ADD11C,0.5080*%
%ADD13C,0.1524*%
%ADD15C,0.2540*%
%ADD19R,1.8034X1.1176*%
%ADD20R,1.1176X1.8034*%
%ADD21R,3.4000X0.6000*%
%ADD22R,1.7000X3.0988*%
%ADD23R,1.7000X0.8382*%
%ADD24R,2.6500X0.6000*%
%ADD37O,3.3000X1.8000*%
%ADD38O,2.0000X3.8000*%
%ADD39C,1.7780*%
%ADD40C,1.6200*%
%ADD41C,0.6350*%
D11*
X146360Y829000D02*
X172720Y802640D01*
X146360Y829000D02*
Y934720D01*
X815300Y401780D02*
X815760Y401320D01*
X798819Y401780D02*
X815300D01*
X793366Y407233D02*
X798819Y401780D01*
X793366Y407233D02*
Y427760D01*
X800974Y435368D01*
X801038D01*
X805090Y439420D01*
X815340D01*
X942158Y525090D02*
X945134Y528066D01*
X937950Y525090D02*
X942158D01*
X881380Y581660D02*
X937950Y525090D01*
X873760Y581660D02*
X881380D01*
X858084Y565984D02*
X873760Y581660D01*
X858084Y561776D02*
Y565984D01*
Y561776D02*
X861060Y558800D01*
X868680D01*
X869116Y559236D01*
X873324D01*
X876300Y556260D01*
Y551616D02*
Y556260D01*
Y551616D02*
X879276Y548640D01*
X881380D01*
X901700Y528320D01*
X906780D01*
X919480Y515620D01*
Y505460D02*
Y515620D01*
X909320Y495300D02*
X919480Y505460D01*
X904240Y495300D02*
X909320D01*
X891540Y508000D02*
X904240Y495300D01*
X891540Y508000D02*
Y510540D01*
X878840Y523240D02*
X891540Y510540D01*
X878840Y523240D02*
Y535940D01*
X875864Y538916D02*
X878840Y535940D01*
X871656Y538916D02*
X875864D01*
X863600Y530860D02*
X871656Y538916D01*
X863600Y505460D02*
Y530860D01*
Y505460D02*
X868680Y500380D01*
X879712D01*
X891976Y488116D01*
X891540Y487680D02*
X891976Y488116D01*
X891540Y475416D02*
Y487680D01*
X888564Y472440D02*
X891540Y475416D01*
X866140Y472440D02*
X888564D01*
X850900Y487680D02*
X866140Y472440D01*
X841176Y487680D02*
X850900D01*
X838200Y484704D02*
X841176Y487680D01*
X838200Y472440D02*
Y484704D01*
Y472440D02*
X856416Y454224D01*
Y450016D02*
Y454224D01*
X853440Y447040D02*
X856416Y450016D01*
X848360Y447040D02*
X853440D01*
X838200Y457200D02*
X848360Y447040D01*
X830580Y457200D02*
X838200D01*
X826050Y452670D02*
X830580Y457200D01*
X826050Y439880D02*
Y452670D01*
X825590Y439420D02*
X826050Y439880D01*
X815340Y439420D02*
X825590D01*
X815340D02*
Y511937D01*
X797306Y529971D02*
X815340Y511937D01*
X797306Y529971D02*
Y533400D01*
Y536829D01*
X690880Y643255D02*
X797306Y536829D01*
X690880Y643255D02*
Y706120D01*
X177800Y609600D02*
X178144D01*
X180938Y606806D01*
X210820D01*
X869620Y745160D02*
Y770890D01*
X761564Y637104D02*
X869620Y745160D01*
X757356Y637104D02*
X761564D01*
X711200Y683260D02*
X757356Y637104D01*
X711200Y683260D02*
Y774700D01*
X736854Y800354D01*
Y855980D01*
Y859409D01*
X752094Y874649D01*
Y932180D01*
X904494Y914400D02*
Y917829D01*
X548640Y932180D02*
X752094D01*
X210820Y606806D02*
X214249D01*
X217297Y609854D01*
Y613283D01*
X241300Y637286D01*
Y716280D01*
X945134Y528066D02*
Y574040D01*
X647700Y723900D02*
X665480Y706120D01*
X647700Y723900D02*
Y797560D01*
X627761D02*
X647700D01*
X539369Y885952D02*
X627761Y797560D01*
X535940Y885952D02*
X539369D01*
X300240Y902326D02*
Y909320D01*
X358394Y777240D02*
X360934Y774700D01*
X312420Y777240D02*
X358394D01*
X300240Y814820D02*
X312420Y802640D01*
X300240Y814820D02*
Y902326D01*
X266700Y716280D02*
Y868786D01*
X436880Y855980D02*
X535940D01*
X423219Y885952D02*
X535940D01*
X399851Y909320D02*
X423219Y885952D01*
X365240Y909320D02*
X399851D01*
X300240D02*
X365240D01*
X226060Y876300D02*
Y907034D01*
X266700Y868786D02*
X300240Y902326D01*
X523113Y932307D02*
X523240Y932180D01*
X367867Y932307D02*
X523113D01*
X367740Y932434D02*
X367867Y932307D01*
X363431Y932434D02*
X367740D01*
X358859Y937006D02*
X363431Y932434D01*
X226060Y937006D02*
X358859D01*
X148646D02*
X226060D01*
X146360Y934720D02*
X148646Y937006D01*
D13*
X154773Y348233D02*
X156297Y346710D01*
X182880D01*
X194310Y335280D01*
X211240D01*
X150044Y322580D02*
X152282Y320342D01*
X128270Y322580D02*
X150044D01*
X185420Y394059D02*
Y415290D01*
Y394059D02*
X194038Y385441D01*
X194941D01*
X195580Y386080D01*
X211240D01*
X171072Y374396D02*
Y390448D01*
Y374272D02*
Y374396D01*
X154520Y373380D02*
X170056D01*
X170948Y374272D02*
X171072D01*
Y350142D02*
Y374272D01*
X117378Y373380D02*
X154520D01*
X170056D02*
X170948Y374272D01*
X169163Y348233D02*
X171072Y350142D01*
X169138Y392382D02*
X171072Y390448D01*
X154773Y348233D02*
X169163D01*
X152282Y320342D02*
X154520Y322580D01*
X144270D02*
X154520D01*
X866140Y127508D02*
X963168D01*
X967740Y132080D01*
Y345440D01*
X955548Y431292D02*
X967740Y419100D01*
X799208Y409652D02*
X801190Y407670D01*
X799208Y409652D02*
Y420418D01*
X805510Y426720D01*
X830330Y394970D02*
X832312Y396952D01*
X830330Y407670D02*
X832312Y405688D01*
Y396952D02*
Y405688D01*
X799208Y392988D02*
X801190Y394970D01*
Y407670D02*
X830330D01*
X801190Y394970D02*
X830330D01*
X805510Y426720D02*
X881918D01*
X799208Y384252D02*
Y392988D01*
X967740Y419100D02*
Y420173D01*
X975106Y427539D01*
Y574040D01*
X441960Y322580D02*
X447040Y327660D01*
X597154D01*
X799208Y384252D02*
X801142Y382318D01*
X830282D01*
X832312Y380288D01*
Y371552D02*
Y380288D01*
X830378Y369618D02*
X832312Y371552D01*
X760152Y369618D02*
X830378D01*
X759040Y368506D02*
X760152Y369618D01*
X759040Y363220D02*
Y368506D01*
X738424Y390954D02*
Y394671D01*
X795144Y382569D02*
Y386286D01*
X742739Y398986D02*
X746456D01*
X748790Y401320D01*
X795144Y382569D02*
X799459Y378254D01*
X803176D02*
X805510Y375920D01*
X731010Y383540D02*
X738424Y390954D01*
X799459Y378254D02*
X803176D01*
X792810Y388620D02*
X795144Y386286D01*
X738424Y394671D02*
X742739Y398986D01*
X759040Y388620D02*
X759460Y389040D01*
X760572Y395018D02*
X773658D01*
X759460Y393906D02*
X760572Y395018D01*
X773658D02*
X775592Y396952D01*
X759460Y389040D02*
Y393906D01*
X775592Y396952D02*
Y405688D01*
X773658Y407622D02*
X775592Y405688D01*
X768731Y268986D02*
X772160D01*
X759040Y278677D02*
X768731Y268986D01*
X759040Y278677D02*
Y363220D01*
X686176Y313306D02*
X748790Y375920D01*
X686176Y303404D02*
Y313306D01*
X667766Y383540D02*
X731010D01*
X637794Y341757D02*
Y383540D01*
X627126Y331089D02*
X637794Y341757D01*
X863092Y124460D02*
X866140Y127508D01*
X652780Y124460D02*
X863092D01*
X862711Y157480D02*
X865886D01*
X855091Y149860D02*
X862711Y157480D01*
X652780Y149860D02*
X855091D01*
X652780Y99060D02*
Y124460D01*
Y73660D02*
Y99060D01*
X563880Y162560D02*
X652780Y73660D01*
X563880Y162560D02*
Y238760D01*
X769874Y241300D02*
X772160Y239014D01*
X703580Y241300D02*
X769874D01*
X703580Y271272D02*
Y286000D01*
X686176Y303404D02*
X703580Y286000D01*
X748790Y375920D02*
X759040D01*
X599440Y469900D02*
X624840D01*
X574040D02*
X599440D01*
Y329946D02*
Y469900D01*
X597154Y327660D02*
X599440Y329946D01*
X597154Y324231D02*
Y327660D01*
X563880Y290957D02*
X597154Y324231D01*
X563880Y238760D02*
Y290957D01*
X589280Y238760D02*
Y286385D01*
X627126Y324231D01*
X513080Y238760D02*
X538480D01*
X563880D01*
X627126Y324231D02*
Y327660D01*
Y331089D01*
X748790Y401320D02*
X759040D01*
X805510Y375920D02*
X815760D01*
X759040Y388620D02*
X792810D01*
X759040Y439420D02*
X769290D01*
X775592Y433118D01*
Y420322D02*
Y433118D01*
X769290Y414020D02*
X775592Y420322D01*
X759040Y414020D02*
X769290D01*
X759933Y407622D02*
X773658D01*
X759040Y408515D02*
X759933Y407622D01*
X759040Y408515D02*
Y414020D01*
X650240Y469900D02*
X687022Y433118D01*
X758147D01*
X759040Y432225D01*
Y426720D02*
Y432225D01*
Y439420D02*
Y521677D01*
X767334Y529971D01*
Y533400D01*
X520700D02*
X767334D01*
X424180Y629920D02*
X520700Y533400D01*
X861060Y162306D02*
X865886Y157480D01*
X861060Y162306D02*
Y223774D01*
X857631Y253746D02*
X861060D01*
X815760Y295617D02*
X857631Y253746D01*
X815760Y295617D02*
Y363220D01*
X848360Y388620D02*
X891540Y345440D01*
X815760Y388620D02*
X848360D01*
X916940Y345440D02*
X942340D01*
X967740D01*
X942340Y419100D02*
X967740D01*
Y345440D02*
Y419100D01*
X916940D02*
X942340D01*
X886490Y431292D02*
X955548D01*
X881918Y426720D02*
X886490Y431292D01*
X888698Y416258D02*
X891540Y419100D01*
X817998Y416258D02*
X888698D01*
X815760Y414020D02*
X817998Y416258D01*
X732826Y762000D02*
X767080D01*
X730286Y759460D02*
X732826Y762000D01*
X728980Y759460D02*
X730286D01*
X528320D02*
X624840D01*
X424180Y655320D02*
X528320Y759460D01*
X30988Y469870D02*
X137952Y576834D01*
X210820D01*
X284734D01*
X869620Y770890D02*
X883620D01*
X889922Y777192D01*
Y787958D01*
X887988Y789892D02*
X889922Y787958D01*
X851348Y789892D02*
X887988D01*
X849318Y791922D02*
X851348Y789892D01*
X849318Y791922D02*
Y800658D01*
X851252Y802592D01*
X890318D01*
X902922Y789988D01*
X941988D01*
X943922Y791922D01*
Y802688D01*
X937620Y808990D02*
X943922Y802688D01*
X923620Y808990D02*
X937620D01*
X893986Y785924D02*
X894082Y785828D01*
X939954Y785924D02*
X943671D01*
X947986Y790239D01*
Y796221D01*
X937620Y783590D02*
X939954Y785924D01*
X947986Y796221D02*
X953897Y802132D01*
X893986Y785924D02*
Y789641D01*
X885954Y793956D02*
X889671D01*
X961771Y802132D02*
X965200D01*
X883620Y796290D02*
X885954Y793956D01*
X889671D02*
X893986Y789641D01*
X953897Y802132D02*
X961771D01*
X894082Y785828D02*
X921382D01*
X923620Y783590D02*
X937620D01*
X782066Y932180D02*
X786892Y927354D01*
Y919018D02*
Y927354D01*
Y919018D02*
X909620Y796290D01*
X923620D01*
X921382Y785828D02*
X923620Y783590D01*
X869620Y796290D02*
X883620D01*
X767080Y762000D02*
X786711Y781631D01*
X855620Y808990D02*
X869620D01*
X846730Y817880D02*
X855620Y808990D01*
X840740Y817880D02*
X846730D01*
X934466Y829437D02*
X961771Y802132D01*
X934466Y829437D02*
Y914400D01*
X890143Y932180D02*
X904494Y917829D01*
X782066Y932180D02*
X890143D01*
X866503Y807720D02*
X867192Y807031D01*
X786711Y781631D02*
X867192D01*
X965200Y772160D02*
Y777240D01*
Y747522D02*
Y772160D01*
X766826Y855980D02*
X802350D01*
X284734Y576834D02*
X337820Y629920D01*
X154520Y393494D02*
Y398780D01*
Y393494D02*
X155632Y392382D01*
X169138D01*
X30988Y459770D02*
Y469870D01*
Y459770D02*
X117378Y373380D01*
X804890Y858520D02*
X806196D01*
X802350Y855980D02*
X804890Y858520D01*
X390906Y774700D02*
X412750D01*
X436880Y802894D02*
Y826008D01*
X363220Y850900D02*
Y852206D01*
X365240Y854226D01*
Y886206D01*
X369549D01*
X356626Y890511D02*
X360677Y886460D01*
X337820Y655320D02*
X424180D01*
X177800Y454660D02*
X200914D01*
X299720Y447893D02*
Y505460D01*
X227445Y375618D02*
X299720Y447893D01*
X213478Y375618D02*
X227445D01*
X211240Y373380D02*
X213478Y375618D01*
X256286Y252730D02*
X285750D01*
X360426Y419100D02*
X383540D01*
X78232Y359410D02*
X97536D01*
D15*
X230886Y454660D02*
Y458089D01*
X175260Y513715D02*
X230886Y458089D01*
X175260Y513715D02*
Y566420D01*
X230886Y429211D02*
Y454660D01*
X219888Y418213D02*
X230886Y429211D01*
X219888Y400510D02*
Y418213D01*
X218158Y398780D02*
X219888Y400510D01*
X210820Y398780D02*
X218158D01*
X221070D01*
X266700Y716280D02*
X269240Y718820D01*
X221070Y398780D02*
X258630Y436340D01*
Y482330D01*
X294459Y518160D01*
X304981D01*
X312420Y510720D01*
Y454127D02*
Y510720D01*
X294640Y436347D02*
X312420Y454127D01*
X294640Y433830D02*
Y436347D01*
X221490Y360680D02*
X294640Y433830D01*
X211240Y360680D02*
X221490D01*
X121920Y386080D02*
X154520D01*
X43180Y464820D02*
X121920Y386080D01*
X256540Y378460D02*
X307340Y429260D01*
X256540Y347980D02*
Y378460D01*
X211240Y322580D02*
X378714D01*
X408686D02*
X408940Y322326D01*
Y241300D02*
Y322326D01*
X408686Y322580D02*
Y326009D01*
X413512Y330835D01*
Y419100D01*
X211240Y347980D02*
X256540D01*
X413512Y419100D02*
X415798Y416814D01*
X144270Y360680D02*
X154520D01*
X79756Y296166D02*
X144270Y360680D01*
X79756Y259080D02*
Y296166D01*
X48260Y359410D02*
X49784Y357886D01*
Y259080D02*
Y357886D01*
X154520Y335280D02*
X164770D01*
X179008Y321042D01*
Y198055D02*
Y321042D01*
Y198055D02*
X195834Y181229D01*
Y177800D02*
Y181229D01*
X49784Y259080D02*
X52070Y256794D01*
Y151130D02*
Y256794D01*
X225806Y177800D02*
X226314Y178308D01*
Y252730D01*
D19*
X535940Y855980D02*
D03*
Y885952D02*
D03*
X226060Y937006D02*
D03*
Y907034D02*
D03*
X965200Y772160D02*
D03*
Y802132D02*
D03*
X210820Y606806D02*
D03*
Y576834D02*
D03*
X436880Y826008D02*
D03*
Y855980D02*
D03*
X861060Y223774D02*
D03*
Y253746D02*
D03*
X703580Y241300D02*
D03*
Y271272D02*
D03*
X866140Y157480D02*
D03*
Y127508D02*
D03*
X772160Y239014D02*
D03*
Y268986D02*
D03*
D20*
X667766Y383540D02*
D03*
X637794D02*
D03*
X736854Y855980D02*
D03*
X766826D02*
D03*
X230886Y454660D02*
D03*
X200914D02*
D03*
X934466Y914400D02*
D03*
X904494D02*
D03*
X752094Y932180D02*
D03*
X782066D02*
D03*
X945134Y574040D02*
D03*
X975106D02*
D03*
X226314Y252730D02*
D03*
X256286D02*
D03*
X390906Y774700D02*
D03*
X360934D02*
D03*
X797306Y533400D02*
D03*
X767334D02*
D03*
X627126Y327660D02*
D03*
X597154D02*
D03*
X49784Y259080D02*
D03*
X79756D02*
D03*
X48260Y359410D02*
D03*
X78232D02*
D03*
X413512Y419100D02*
D03*
X383540D02*
D03*
X408686Y322580D02*
D03*
X378714D02*
D03*
X225806Y177800D02*
D03*
X195834D02*
D03*
D21*
X923620Y808990D02*
D03*
Y796290D02*
D03*
Y783590D02*
D03*
Y770890D02*
D03*
X869620D02*
D03*
Y783590D02*
D03*
Y796290D02*
D03*
Y808990D02*
D03*
D22*
X300240Y909320D02*
D03*
D23*
X365240Y886206D02*
D03*
Y909320D02*
D03*
X367740Y932434D02*
D03*
D24*
X815340Y439420D02*
D03*
X815760Y426720D02*
D03*
Y414020D02*
D03*
Y401320D02*
D03*
Y388620D02*
D03*
Y375920D02*
D03*
Y363220D02*
D03*
X759040D02*
D03*
Y375920D02*
D03*
Y388620D02*
D03*
Y401320D02*
D03*
Y414020D02*
D03*
Y426720D02*
D03*
Y439420D02*
D03*
X210820Y398780D02*
D03*
X211240Y386080D02*
D03*
Y373380D02*
D03*
Y360680D02*
D03*
Y347980D02*
D03*
Y335280D02*
D03*
Y322580D02*
D03*
X154520D02*
D03*
Y335280D02*
D03*
Y347980D02*
D03*
Y360680D02*
D03*
Y373380D02*
D03*
Y386080D02*
D03*
Y398780D02*
D03*
D37*
X121360Y888220D02*
D03*
D38*
X86360Y934720D02*
D03*
X146360D02*
D03*
D39*
X93980Y464820D02*
D03*
X119380D02*
D03*
X43180D02*
D03*
X68580D02*
D03*
X102870Y151130D02*
D03*
X128270D02*
D03*
X52070D02*
D03*
X77470D02*
D03*
X916940Y345440D02*
D03*
X891540D02*
D03*
X967740D02*
D03*
X942340D02*
D03*
X916940Y419100D02*
D03*
X891540D02*
D03*
X967740D02*
D03*
X942340D02*
D03*
X624840Y469900D02*
D03*
X650240D02*
D03*
X574040D02*
D03*
X599440D02*
D03*
X647700Y822960D02*
D03*
Y797560D02*
D03*
Y873760D02*
D03*
Y848360D02*
D03*
X767080Y711200D02*
D03*
Y685800D02*
D03*
Y762000D02*
D03*
Y736600D02*
D03*
X652780Y99060D02*
D03*
Y73660D02*
D03*
Y149860D02*
D03*
Y124460D02*
D03*
X538480Y238760D02*
D03*
X513080D02*
D03*
X589280D02*
D03*
X563880D02*
D03*
X146050Y798830D02*
D03*
X171450D02*
D03*
X95250D02*
D03*
X120650D02*
D03*
X325120Y505460D02*
D03*
X299720D02*
D03*
X375920D02*
D03*
X350520D02*
D03*
X408940Y215900D02*
D03*
Y241300D02*
D03*
Y165100D02*
D03*
Y190500D02*
D03*
X307340Y403860D02*
D03*
Y429260D02*
D03*
Y353060D02*
D03*
Y378460D02*
D03*
D40*
X424180Y655320D02*
D03*
Y629920D02*
D03*
X312420Y777240D02*
D03*
Y802640D02*
D03*
X690880Y706120D02*
D03*
X665480D02*
D03*
X523240Y932180D02*
D03*
X548640D02*
D03*
X266700Y716280D02*
D03*
X241300D02*
D03*
X337820Y655320D02*
D03*
Y629920D02*
D03*
D41*
X128270Y322580D02*
D03*
X185420Y415290D02*
D03*
X965200Y747522D02*
D03*
X728980Y759460D02*
D03*
X624840D02*
D03*
X175260Y566420D02*
D03*
X177800Y609600D02*
D03*
X840740Y817880D02*
D03*
X806196Y858520D02*
D03*
X441960Y322580D02*
D03*
X436880Y802894D02*
D03*
X363220Y850900D02*
D03*
X177800Y454660D02*
D03*
X360426Y419100D02*
D03*
X285750Y252730D02*
D03*
X412750Y774700D02*
D03*
X226060Y876300D02*
D03*
X97536Y359410D02*
D03*
M02*
