G04*
G04 #@! TF.GenerationSoftware,Altium Limited,Altium Designer,25.2.1 (25)*
G04*
G04 Layer_Color=128*
%FSLAX44Y44*%
%MOMM*%
G71*
G04*
G04 #@! TF.SameCoordinates,E3E45374-9F76-4001-9276-F41C8DC03B42*
G04*
G04*
G04 #@! TF.FilePolarity,Positive*
G04*
G01*
G75*
%ADD16C,0.1270*%
D16*
X116360Y888220D02*
X126360D01*
X121360Y883220D02*
Y893220D01*
X80360Y934720D02*
X92360D01*
X86360Y928720D02*
Y940720D01*
X140360Y934720D02*
X152360D01*
X146360Y928720D02*
Y940720D01*
X88900Y464820D02*
X99060D01*
X93980Y459740D02*
Y469900D01*
X114300Y464820D02*
X124460D01*
X119380Y459740D02*
Y469900D01*
X38100Y464820D02*
X48260D01*
X43180Y459740D02*
Y469900D01*
X63500Y464820D02*
X73660D01*
X68580Y459740D02*
Y469900D01*
X97790Y151130D02*
X107950D01*
X102870Y146050D02*
Y156210D01*
X123190Y151130D02*
X133350D01*
X128270Y146050D02*
Y156210D01*
X46990Y151130D02*
X57150D01*
X52070Y146050D02*
Y156210D01*
X72390Y151130D02*
X82550D01*
X77470Y146050D02*
Y156210D01*
X911860Y345440D02*
X922020D01*
X916940Y340360D02*
Y350520D01*
X886460Y345440D02*
X896620D01*
X891540Y340360D02*
Y350520D01*
X962660Y345440D02*
X972820D01*
X967740Y340360D02*
Y350520D01*
X937260Y345440D02*
X947420D01*
X942340Y340360D02*
Y350520D01*
X911860Y419100D02*
X922020D01*
X916940Y414020D02*
Y424180D01*
X886460Y419100D02*
X896620D01*
X891540Y414020D02*
Y424180D01*
X962660Y419100D02*
X972820D01*
X967740Y414020D02*
Y424180D01*
X937260Y419100D02*
X947420D01*
X942340Y414020D02*
Y424180D01*
X619760Y469900D02*
X629920D01*
X624840Y464820D02*
Y474980D01*
X645160Y469900D02*
X655320D01*
X650240Y464820D02*
Y474980D01*
X568960Y469900D02*
X579120D01*
X574040Y464820D02*
Y474980D01*
X594360Y469900D02*
X604520D01*
X599440Y464820D02*
Y474980D01*
X642620Y822960D02*
X652780D01*
X647700Y817880D02*
Y828040D01*
X642620Y797560D02*
X652780D01*
X647700Y792480D02*
Y802640D01*
X642620Y873760D02*
X652780D01*
X647700Y868680D02*
Y878840D01*
X642620Y848360D02*
X652780D01*
X647700Y843280D02*
Y853440D01*
X419080Y655320D02*
X429280D01*
X424180Y650220D02*
Y660420D01*
X419080Y629920D02*
X429280D01*
X424180Y624820D02*
Y635020D01*
X762000Y711200D02*
X772160D01*
X767080Y706120D02*
Y716280D01*
X762000Y685800D02*
X772160D01*
X767080Y680720D02*
Y690880D01*
X762000Y762000D02*
X772160D01*
X767080Y756920D02*
Y767080D01*
X762000Y736600D02*
X772160D01*
X767080Y731520D02*
Y741680D01*
X307320Y777240D02*
X317520D01*
X312420Y772140D02*
Y782340D01*
X307320Y802640D02*
X317520D01*
X312420Y797540D02*
Y807740D01*
X685780Y706120D02*
X695980D01*
X690880Y701020D02*
Y711220D01*
X660380Y706120D02*
X670580D01*
X665480Y701020D02*
Y711220D01*
X647700Y99060D02*
X657860D01*
X652780Y93980D02*
Y104140D01*
X647700Y73660D02*
X657860D01*
X652780Y68580D02*
Y78740D01*
X647700Y149860D02*
X657860D01*
X652780Y144780D02*
Y154940D01*
X647700Y124460D02*
X657860D01*
X652780Y119380D02*
Y129540D01*
X533400Y238760D02*
X543560D01*
X538480Y233680D02*
Y243840D01*
X508000Y238760D02*
X518160D01*
X513080Y233680D02*
Y243840D01*
X584200Y238760D02*
X594360D01*
X589280Y233680D02*
Y243840D01*
X558800Y238760D02*
X568960D01*
X563880Y233680D02*
Y243840D01*
X518140Y932180D02*
X528340D01*
X523240Y927080D02*
Y937280D01*
X543540Y932180D02*
X553740D01*
X548640Y927080D02*
Y937280D01*
X261600Y716280D02*
X271800D01*
X266700Y711180D02*
Y721380D01*
X236200Y716280D02*
X246400D01*
X241300Y711180D02*
Y721380D01*
X332720Y655320D02*
X342920D01*
X337820Y650220D02*
Y660420D01*
X332720Y629920D02*
X342920D01*
X337820Y624820D02*
Y635020D01*
X140970Y798830D02*
X151130D01*
X146050Y793750D02*
Y803910D01*
X166370Y798830D02*
X176530D01*
X171450Y793750D02*
Y803910D01*
X90170Y798830D02*
X100330D01*
X95250Y793750D02*
Y803910D01*
X115570Y798830D02*
X125730D01*
X120650Y793750D02*
Y803910D01*
X320040Y505460D02*
X330200D01*
X325120Y500380D02*
Y510540D01*
X294640Y505460D02*
X304800D01*
X299720Y500380D02*
Y510540D01*
X370840Y505460D02*
X381000D01*
X375920Y500380D02*
Y510540D01*
X345440Y505460D02*
X355600D01*
X350520Y500380D02*
Y510540D01*
X403860Y215900D02*
X414020D01*
X408940Y210820D02*
Y220980D01*
X403860Y241300D02*
X414020D01*
X408940Y236220D02*
Y246380D01*
X403860Y165100D02*
X414020D01*
X408940Y160020D02*
Y170180D01*
X403860Y190500D02*
X414020D01*
X408940Y185420D02*
Y195580D01*
X302260Y403860D02*
X312420D01*
X307340Y398780D02*
Y408940D01*
X302260Y429260D02*
X312420D01*
X307340Y424180D02*
Y434340D01*
X302260Y353060D02*
X312420D01*
X307340Y347980D02*
Y358140D01*
X302260Y378460D02*
X312420D01*
X307340Y373380D02*
Y383540D01*
X126619Y322580D02*
X129921D01*
X128270Y320929D02*
Y324231D01*
X183769Y415290D02*
X187071D01*
X185420Y413639D02*
Y416941D01*
X963549Y747522D02*
X966851D01*
X965200Y745871D02*
Y749173D01*
X727329Y759460D02*
X730631D01*
X728980Y757809D02*
Y761111D01*
X623189Y759460D02*
X626491D01*
X624840Y757809D02*
Y761111D01*
X173609Y566420D02*
X176911D01*
X175260Y564769D02*
Y568071D01*
X176149Y609600D02*
X179451D01*
X177800Y607949D02*
Y611251D01*
X839089Y817880D02*
X842391D01*
X840740Y816229D02*
Y819531D01*
X804545Y858520D02*
X807847D01*
X806196Y856869D02*
Y860171D01*
X440309Y322580D02*
X443611D01*
X441960Y320929D02*
Y324231D01*
X435229Y802894D02*
X438531D01*
X436880Y801243D02*
Y804545D01*
X361569Y850900D02*
X364871D01*
X363220Y849249D02*
Y852551D01*
X176149Y454660D02*
X179451D01*
X177800Y453009D02*
Y456311D01*
X358775Y419100D02*
X362077D01*
X360426Y417449D02*
Y420751D01*
X284099Y252730D02*
X287401D01*
X285750Y251079D02*
Y254381D01*
X411099Y774700D02*
X414401D01*
X412750Y773049D02*
Y776351D01*
X224409Y876300D02*
X227711D01*
X226060Y874649D02*
Y877951D01*
X95885Y359410D02*
X99187D01*
X97536Y357759D02*
Y361061D01*
M02*
