G04*
G04 #@! TF.GenerationSoftware,Altium Limited,Altium Designer,25.2.1 (25)*
G04*
G04 Layer_Color=65535*
%FSLAX44Y44*%
%MOMM*%
G71*
G04*
G04 #@! TF.SameCoordinates,E3E45374-9F76-4001-9276-F41C8DC03B42*
G04*
G04*
G04 #@! TF.FilePolarity,Positive*
G04*
G01*
G75*
%ADD10C,0.4000*%
%ADD11C,0.5080*%
%ADD12C,0.3000*%
%ADD13C,0.1524*%
%ADD14C,0.3810*%
%ADD15C,0.2540*%
%ADD16C,0.1270*%
%ADD17C,0.1999*%
%ADD18C,0.2000*%
D10*
X174268Y934466D02*
G03*
X174268Y934466I-2000J0D01*
G01*
D11*
X425845Y684303D02*
G03*
X425845Y684303I-1270J0D01*
G01*
X870620Y819150D02*
G03*
X870620Y819150I-1250J0D01*
G01*
X314085Y831623D02*
G03*
X314085Y831623I-1270J0D01*
G01*
X637767Y706515D02*
G03*
X637767Y706515I-1270J0D01*
G01*
X495527Y932575D02*
G03*
X495527Y932575I-1270J0D01*
G01*
X296953Y715885D02*
G03*
X296953Y715885I-1270J0D01*
G01*
X339485Y684303D02*
G03*
X339485Y684303I-1270J0D01*
G01*
D12*
X893556Y808482D02*
G03*
X893556Y808482I-1000J0D01*
G01*
D13*
X358936Y872490D02*
G03*
X358936Y872490I-1796J0D01*
G01*
X548940Y856742D02*
Y884682D01*
X522940Y856488D02*
Y884428D01*
X217170Y917194D02*
Y926846D01*
X234950Y917194D02*
Y926846D01*
X638302Y396540D02*
X666242D01*
X638556Y370540D02*
X666496D01*
X747014Y847090D02*
X756666D01*
X747014Y864870D02*
X756666D01*
X974090Y782320D02*
Y791972D01*
X956310Y782320D02*
Y791972D01*
X211074Y463550D02*
X220726D01*
X211074Y445770D02*
X220726D01*
X199420Y586994D02*
Y596646D01*
X222220Y586994D02*
Y596646D01*
X914654Y925800D02*
X924306D01*
X914654Y903000D02*
X924306D01*
X762254Y920780D02*
X771906D01*
X762254Y943580D02*
X771906D01*
X448280Y836168D02*
Y845820D01*
X425480Y836168D02*
Y845820D01*
X314198Y942848D02*
X351282D01*
X314198Y875792D02*
Y942848D01*
Y875792D02*
X351282D01*
Y942848D01*
X955294Y565150D02*
X964946D01*
X955294Y582930D02*
X964946D01*
X874060Y224536D02*
Y252476D01*
X848060Y224282D02*
Y252222D01*
X716580Y242062D02*
Y270002D01*
X690580Y241808D02*
Y269748D01*
X854740Y137668D02*
Y147320D01*
X877540Y137668D02*
Y147320D01*
X236474Y241330D02*
X246126D01*
X236474Y264130D02*
X246126D01*
X371094Y783590D02*
X380746D01*
X371094Y765810D02*
X380746D01*
X777494Y544800D02*
X787146D01*
X777494Y522000D02*
X787146D01*
X607314Y339060D02*
X616966D01*
X607314Y316260D02*
X616966D01*
X783560Y249174D02*
Y258826D01*
X760760Y249174D02*
Y258826D01*
X50546Y246080D02*
X78486D01*
X50292Y272080D02*
X78232D01*
X58420Y348010D02*
X68072D01*
X58420Y370810D02*
X68072D01*
X393700Y430500D02*
X403352D01*
X393700Y407700D02*
X403352D01*
X379984Y335580D02*
X407924D01*
X380238Y309580D02*
X408178D01*
X197104Y190800D02*
X225044D01*
X197358Y164800D02*
X225298D01*
D14*
X750570Y450850D02*
G03*
X750570Y450850I-1270J0D01*
G01*
X146050Y410210D02*
G03*
X146050Y410210I-1270J0D01*
G01*
X27940Y450850D02*
X54610D01*
X27940D02*
Y478790D01*
X130810Y450850D02*
X134620D01*
Y478790D01*
X27940D02*
X134620D01*
X36830Y137160D02*
X63500D01*
X36830D02*
Y165100D01*
X139700Y137160D02*
X143510D01*
Y165100D01*
X36830D02*
X143510D01*
X876300Y359410D02*
X982980D01*
Y331470D02*
Y359410D01*
X979170Y331470D02*
X982980D01*
X876300D02*
Y359410D01*
Y331470D02*
X902970D01*
X876300Y433070D02*
X982980D01*
Y405130D02*
Y433070D01*
X979170Y405130D02*
X982980D01*
X876300D02*
Y433070D01*
Y405130D02*
X902970D01*
X558800Y455930D02*
X665480D01*
X558800D02*
Y483870D01*
X562610D01*
X665480Y455930D02*
Y483870D01*
X638810D02*
X665480D01*
X633730Y782320D02*
Y889000D01*
X661670D01*
Y885190D02*
Y889000D01*
X633730Y782320D02*
X661670D01*
Y808990D01*
X753110Y750570D02*
Y777240D01*
X781050D01*
X753110Y670560D02*
Y674370D01*
Y670560D02*
X781050D01*
Y777240D01*
X638810Y138430D02*
Y165100D01*
X666750D01*
X638810Y58420D02*
Y62230D01*
Y58420D02*
X666750D01*
Y165100D01*
X577850Y252730D02*
X604520D01*
Y224790D02*
Y252730D01*
X497840D02*
X501650D01*
X497840Y224790D02*
Y252730D01*
Y224790D02*
X604520D01*
X80010Y784860D02*
X186690D01*
X80010D02*
Y812800D01*
X83820D01*
X186690Y784860D02*
Y812800D01*
X160020D02*
X186690D01*
X284480Y519430D02*
X391160D01*
Y491490D02*
Y519430D01*
X387350Y491490D02*
X391160D01*
X284480D02*
Y519430D01*
Y491490D02*
X311150D01*
X422910Y149860D02*
Y256540D01*
X394970Y149860D02*
X422910D01*
X394970D02*
Y153670D01*
Y256540D02*
X422910D01*
X394970Y229870D02*
Y256540D01*
X321310Y337820D02*
Y444500D01*
X293370Y337820D02*
X321310D01*
X293370D02*
Y341630D01*
Y444500D02*
X321310D01*
X293370Y417830D02*
Y444500D01*
D15*
X529336Y845820D02*
X543560D01*
X86590Y934720D02*
X86670D01*
X62865Y448310D02*
X74295D01*
X68580D02*
Y450918D01*
X65405Y444500D02*
X71755D01*
X67368Y440690D02*
X69215D01*
X88265Y448310D02*
X99695D01*
X93980D02*
Y450918D01*
X90805Y444500D02*
X97155D01*
X92768Y440690D02*
X94615D01*
X113665Y448310D02*
X125095D01*
X119380D02*
Y450918D01*
X116205Y444500D02*
X122555D01*
X118168Y440690D02*
X120015D01*
X71755Y134620D02*
X83185D01*
X77470D02*
Y137228D01*
X74295Y130810D02*
X80645D01*
X76258Y127000D02*
X78105D01*
X97155Y134620D02*
X108585D01*
X102870D02*
Y137228D01*
X99695Y130810D02*
X106045D01*
X101658Y127000D02*
X103505D01*
X122555Y134620D02*
X133985D01*
X128270D02*
Y137228D01*
X125095Y130810D02*
X131445D01*
X127058Y127000D02*
X128905D01*
X966528Y321310D02*
X968375D01*
X964565Y325120D02*
X970915D01*
X967740Y328930D02*
Y331538D01*
X962025Y328930D02*
X973455D01*
X941128Y321310D02*
X942975D01*
X939165Y325120D02*
X945515D01*
X942340Y328930D02*
Y331538D01*
X936625Y328930D02*
X948055D01*
X915728Y321310D02*
X917575D01*
X913765Y325120D02*
X920115D01*
X916940Y328930D02*
Y331538D01*
X911225Y328930D02*
X922655D01*
X966528Y394970D02*
X968375D01*
X964565Y398780D02*
X970915D01*
X967740Y402590D02*
Y405198D01*
X962025Y402590D02*
X973455D01*
X941128Y394970D02*
X942975D01*
X939165Y398780D02*
X945515D01*
X942340Y402590D02*
Y405198D01*
X936625Y402590D02*
X948055D01*
X915728Y394970D02*
X917575D01*
X913765Y398780D02*
X920115D01*
X916940Y402590D02*
Y405198D01*
X911225Y402590D02*
X922655D01*
X573405Y494030D02*
X575252D01*
X570865Y490220D02*
X577215D01*
X574040Y483802D02*
Y486410D01*
X568325D02*
X579755D01*
X598805Y494030D02*
X600652D01*
X596265Y490220D02*
X602615D01*
X599440Y483802D02*
Y486410D01*
X593725D02*
X605155D01*
X624205Y494030D02*
X626052D01*
X621665Y490220D02*
X628015D01*
X624840Y483802D02*
Y486410D01*
X619125D02*
X630555D01*
X671830Y872548D02*
Y874395D01*
X668020Y870585D02*
Y876935D01*
X661602Y873760D02*
X664210D01*
Y868045D02*
Y879475D01*
X671830Y847148D02*
Y848995D01*
X668020Y845185D02*
Y851535D01*
X661602Y848360D02*
X664210D01*
Y842645D02*
Y854075D01*
X671830Y821748D02*
Y823595D01*
X668020Y819785D02*
Y826135D01*
X661602Y822960D02*
X664210D01*
Y817245D02*
Y828675D01*
X627634Y375920D02*
Y390144D01*
X750570Y730885D02*
Y742315D01*
Y736600D02*
X753178D01*
X746760Y733425D02*
Y739775D01*
X742950Y735965D02*
Y737812D01*
X750570Y705485D02*
Y716915D01*
Y711200D02*
X753178D01*
X746760Y708025D02*
Y714375D01*
X742950Y710565D02*
Y712412D01*
X750570Y680085D02*
Y691515D01*
Y685800D02*
X753178D01*
X746760Y682625D02*
Y688975D01*
X742950Y685165D02*
Y687012D01*
X636270Y118745D02*
Y130175D01*
Y124460D02*
X638878D01*
X632460Y121285D02*
Y127635D01*
X628650Y123825D02*
Y125672D01*
X636270Y93345D02*
Y104775D01*
Y99060D02*
X638878D01*
X632460Y95885D02*
Y102235D01*
X628650Y98425D02*
Y100272D01*
X636270Y67945D02*
Y79375D01*
Y73660D02*
X638878D01*
X632460Y70485D02*
Y76835D01*
X628650Y73025D02*
Y74872D01*
X558165Y255270D02*
X569595D01*
X563880Y252662D02*
Y255270D01*
X560705Y259080D02*
X567055D01*
X563245Y262890D02*
X565092D01*
X532765Y255270D02*
X544195D01*
X538480Y252662D02*
Y255270D01*
X535305Y259080D02*
X541655D01*
X537845Y262890D02*
X539692D01*
X507365Y255270D02*
X518795D01*
X513080Y252662D02*
Y255270D01*
X509905Y259080D02*
X516255D01*
X512445Y262890D02*
X514292D01*
X854456Y213614D02*
X868680D01*
X696976Y231140D02*
X711200D01*
X94615Y822960D02*
X96462D01*
X92075Y819150D02*
X98425D01*
X95250Y812732D02*
Y815340D01*
X89535D02*
X100965D01*
X120015Y822960D02*
X121862D01*
X117475Y819150D02*
X123825D01*
X120650Y812732D02*
Y815340D01*
X114935D02*
X126365D01*
X145415Y822960D02*
X147262D01*
X142875Y819150D02*
X149225D01*
X146050Y812732D02*
Y815340D01*
X140335D02*
X151765D01*
X374708Y481330D02*
X376555D01*
X372745Y485140D02*
X379095D01*
X375920Y488950D02*
Y491558D01*
X370205Y488950D02*
X381635D01*
X349308Y481330D02*
X351155D01*
X347345Y485140D02*
X353695D01*
X350520Y488950D02*
Y491558D01*
X344805Y488950D02*
X356235D01*
X323908Y481330D02*
X325755D01*
X321945Y485140D02*
X328295D01*
X325120Y488950D02*
Y491558D01*
X319405Y488950D02*
X330835D01*
X39624Y251460D02*
Y265684D01*
X384810Y164465D02*
Y166312D01*
X388620Y161925D02*
Y168275D01*
X392430Y165100D02*
X395038D01*
X392430Y159385D02*
Y170815D01*
X384810Y189865D02*
Y191712D01*
X388620Y187325D02*
Y193675D01*
X392430Y190500D02*
X395038D01*
X392430Y184785D02*
Y196215D01*
X384810Y215265D02*
Y217112D01*
X388620Y212725D02*
Y219075D01*
X392430Y215900D02*
X395038D01*
X392430Y210185D02*
Y221615D01*
X283210Y352425D02*
Y354272D01*
X287020Y349885D02*
Y356235D01*
X290830Y353060D02*
X293438D01*
X290830Y347345D02*
Y358775D01*
X283210Y377825D02*
Y379672D01*
X287020Y375285D02*
Y381635D01*
X290830Y378460D02*
X293438D01*
X290830Y372745D02*
Y384175D01*
X283210Y403225D02*
Y405072D01*
X287020Y400685D02*
Y407035D01*
X290830Y403860D02*
X293438D01*
X290830Y398145D02*
Y409575D01*
X418846Y315976D02*
Y330200D01*
X235966Y171196D02*
Y185420D01*
X63497Y95492D02*
X53340D01*
Y80257D01*
X63497D01*
X53340Y87875D02*
X58418D01*
X78732Y92953D02*
X76193Y95492D01*
X71114D01*
X68575Y92953D01*
Y82796D01*
X71114Y80257D01*
X76193D01*
X78732Y82796D01*
X93967Y95492D02*
X83810D01*
Y80257D01*
X93967D01*
X83810Y87875D02*
X88889D01*
X99045Y80257D02*
Y95492D01*
X109202Y80257D01*
Y95492D01*
X129515Y92953D02*
X132055Y95492D01*
X137133D01*
X139672Y92953D01*
Y90414D01*
X137133Y87875D01*
X134594D01*
X137133D01*
X139672Y85336D01*
Y82796D01*
X137133Y80257D01*
X132055D01*
X129515Y82796D01*
X144750Y95492D02*
X154907D01*
Y92953D01*
X144750Y82796D01*
Y80257D01*
X159986Y92953D02*
X162525Y95492D01*
X167603D01*
X170142Y92953D01*
Y90414D01*
X167603Y87875D01*
X165064D01*
X167603D01*
X170142Y85336D01*
Y82796D01*
X167603Y80257D01*
X162525D01*
X159986Y82796D01*
X175221Y92953D02*
X177760Y95492D01*
X182838D01*
X185377Y92953D01*
Y82796D01*
X182838Y80257D01*
X177760D01*
X175221Y82796D01*
Y92953D01*
X53340Y71114D02*
Y55879D01*
X60957D01*
X63497Y58418D01*
Y60957D01*
X60957Y63497D01*
X53340D01*
X60957D01*
X63497Y66036D01*
Y68575D01*
X60957Y71114D01*
X53340D01*
X68575Y66036D02*
Y55879D01*
Y60957D01*
X71114Y63497D01*
X73653Y66036D01*
X76193D01*
X93967Y71114D02*
Y55879D01*
X86349D01*
X83810Y58418D01*
Y63497D01*
X86349Y66036D01*
X93967D01*
X99045Y53340D02*
X109202D01*
X124437Y55879D02*
X114280D01*
X124437Y66036D01*
Y68575D01*
X121898Y71114D01*
X116819D01*
X114280Y68575D01*
X524518Y914398D02*
Y899163D01*
X534675D01*
X549910Y914398D02*
X539753D01*
Y899163D01*
X549910D01*
X539753Y906780D02*
X544832D01*
X554988Y914398D02*
Y899163D01*
X562606D01*
X565145Y901702D01*
Y911858D01*
X562606Y914398D01*
X554988D01*
X570223Y899163D02*
X575302D01*
X572763D01*
Y914398D01*
X570223Y911858D01*
X17783Y863603D02*
Y878838D01*
X25401D01*
X27940Y876298D01*
Y871220D01*
X25401Y868681D01*
X17783D01*
X33018Y863603D02*
X38097D01*
X35558D01*
Y878838D01*
X33018Y876298D01*
X30487Y528317D02*
X40643D01*
X35565D01*
Y513083D01*
X45722D02*
Y528317D01*
X53339D01*
X55878Y525778D01*
Y520700D01*
X53339Y518161D01*
X45722D01*
X60957Y515622D02*
X63496Y513083D01*
X68574D01*
X71113Y515622D01*
Y525778D01*
X68574Y528317D01*
X63496D01*
X60957Y525778D01*
Y523239D01*
X63496Y520700D01*
X71113D01*
X72811Y496990D02*
X71118Y498682D01*
X67733D01*
X66040Y496990D01*
Y495297D01*
X67733Y493604D01*
X71118D01*
X72811Y491911D01*
Y490218D01*
X71118Y488526D01*
X67733D01*
X66040Y490218D01*
X82968Y495297D02*
X77889D01*
X76197Y493604D01*
Y490218D01*
X77889Y488526D01*
X82968D01*
X88046D02*
X91432D01*
X93125Y490218D01*
Y493604D01*
X91432Y495297D01*
X88046D01*
X86353Y493604D01*
Y490218D01*
X88046Y488526D01*
X96510Y485140D02*
Y495297D01*
X101588D01*
X103281Y493604D01*
Y490218D01*
X101588Y488526D01*
X96510D01*
X111745D02*
X108360D01*
X106667Y490218D01*
Y493604D01*
X108360Y495297D01*
X111745D01*
X113438Y493604D01*
Y491911D01*
X106667D01*
X116824Y486833D02*
X123595D01*
X126980Y485140D02*
Y495297D01*
X132059D01*
X133751Y493604D01*
Y490218D01*
X132059Y488526D01*
X126980D01*
X137137Y495297D02*
Y488526D01*
Y491911D01*
X138830Y493604D01*
X140523Y495297D01*
X142215D01*
X148987Y488526D02*
X152372D01*
X154065Y490218D01*
Y493604D01*
X152372Y495297D01*
X148987D01*
X147294Y493604D01*
Y490218D01*
X148987Y488526D01*
X157451Y498682D02*
Y488526D01*
X162529D01*
X164222Y490218D01*
Y491911D01*
Y493604D01*
X162529Y495297D01*
X157451D01*
X172686Y488526D02*
X169300D01*
X167607Y490218D01*
Y493604D01*
X169300Y495297D01*
X172686D01*
X174378Y493604D01*
Y491911D01*
X167607D01*
X366181Y538899D02*
X364488Y540592D01*
X361103D01*
X359410Y538899D01*
Y532128D01*
X361103Y530436D01*
X364488D01*
X366181Y532128D01*
Y535514D01*
X362796D01*
X369567Y528743D02*
X376338D01*
X381416Y530436D02*
X384802D01*
X386495Y532128D01*
Y535514D01*
X384802Y537207D01*
X381416D01*
X379723Y535514D01*
Y532128D01*
X381416Y530436D01*
X389880Y537207D02*
Y532128D01*
X391573Y530436D01*
X396651D01*
Y537207D01*
X401730Y538899D02*
Y537207D01*
X400037D01*
X403423D01*
X401730D01*
Y532128D01*
X403423Y530436D01*
X408501Y528743D02*
X415272D01*
X418658Y540592D02*
Y530436D01*
Y535514D01*
X425429D01*
Y540592D01*
Y530436D01*
X428814D02*
X432200D01*
X430507D01*
Y537207D01*
X428814D01*
X440664Y527050D02*
X442357D01*
X444049Y528743D01*
Y537207D01*
X438971D01*
X437278Y535514D01*
Y532128D01*
X438971Y530436D01*
X444049D01*
X447435Y540592D02*
Y530436D01*
Y535514D01*
X449128Y537207D01*
X452513D01*
X454206Y535514D01*
Y530436D01*
X263311Y317497D02*
X261618Y319189D01*
X258233D01*
X256540Y317497D01*
Y310726D01*
X258233Y309033D01*
X261618D01*
X263311Y310726D01*
Y314111D01*
X259926D01*
X266697Y307340D02*
X273468D01*
X278546Y309033D02*
X281932D01*
X283625Y310726D01*
Y314111D01*
X281932Y315804D01*
X278546D01*
X276853Y314111D01*
Y310726D01*
X278546Y309033D01*
X287010Y315804D02*
Y310726D01*
X288703Y309033D01*
X293781D01*
Y315804D01*
X298860Y317497D02*
Y315804D01*
X297167D01*
X300553D01*
X298860D01*
Y310726D01*
X300553Y309033D01*
X305631Y307340D02*
X312402D01*
X315788Y319189D02*
Y309033D01*
X322559D01*
X327637D02*
X331023D01*
X332715Y310726D01*
Y314111D01*
X331023Y315804D01*
X327637D01*
X325944Y314111D01*
Y310726D01*
X327637Y309033D01*
X336101Y315804D02*
Y310726D01*
X337794Y309033D01*
X339487Y310726D01*
X341179Y309033D01*
X342872Y310726D01*
Y315804D01*
X370840Y130382D02*
X377611D01*
X374226D01*
Y120226D01*
X380997Y130382D02*
Y120226D01*
Y125304D01*
X382690Y126997D01*
X386075D01*
X387768Y125304D01*
Y120226D01*
X396232D02*
X392846D01*
X391153Y121918D01*
Y125304D01*
X392846Y126997D01*
X396232D01*
X397925Y125304D01*
Y123611D01*
X391153D01*
X401310Y126997D02*
X404696Y120226D01*
X408081Y126997D01*
X411467Y118533D02*
X418238D01*
X423316Y128689D02*
Y126997D01*
X421624D01*
X425009D01*
X423316D01*
Y121918D01*
X425009Y120226D01*
X430088Y126997D02*
Y120226D01*
Y123611D01*
X431780Y125304D01*
X433473Y126997D01*
X435166D01*
X440244Y120226D02*
X443630D01*
X441937D01*
Y126997D01*
X440244D01*
X452094Y116840D02*
X453787D01*
X455479Y118533D01*
Y126997D01*
X450401D01*
X448708Y125304D01*
Y121918D01*
X450401Y120226D01*
X455479D01*
X11439Y186688D02*
X21595D01*
X16517D01*
Y171453D01*
X26674D02*
Y186688D01*
X34291D01*
X36830Y184148D01*
Y179070D01*
X34291Y176531D01*
X26674D01*
X41909Y171453D02*
X46987D01*
X44448D01*
Y186688D01*
X41909Y184148D01*
X54605D02*
X57144Y186688D01*
X62222D01*
X64761Y184148D01*
Y173992D01*
X62222Y171453D01*
X57144D01*
X54605Y173992D01*
Y184148D01*
X98634Y186262D02*
X90170D01*
Y179914D01*
X94402Y182030D01*
X96518D01*
X98634Y179914D01*
Y175682D01*
X96518Y173566D01*
X92286D01*
X90170Y175682D01*
X102866Y184146D02*
X104982Y186262D01*
X109214D01*
X111330Y184146D01*
Y175682D01*
X109214Y173566D01*
X104982D01*
X102866Y175682D01*
Y184146D01*
X115562Y171450D02*
X124026D01*
X130374Y173566D02*
X134606D01*
X136722Y175682D01*
Y179914D01*
X134606Y182030D01*
X130374D01*
X128258Y179914D01*
Y175682D01*
X130374Y173566D01*
X140954Y186262D02*
Y173566D01*
Y179914D01*
X143069Y182030D01*
X147302D01*
X149417Y179914D01*
Y173566D01*
X153649D02*
Y182030D01*
X155765D01*
X157881Y179914D01*
Y173566D01*
Y179914D01*
X159997Y182030D01*
X162113Y179914D01*
Y173566D01*
X688340Y79582D02*
X695111D01*
X691726D01*
Y69426D01*
X698497Y79582D02*
Y69426D01*
Y74504D01*
X700190Y76197D01*
X703575D01*
X705268Y74504D01*
Y69426D01*
X713732D02*
X710346D01*
X708653Y71118D01*
Y74504D01*
X710346Y76197D01*
X713732D01*
X715425Y74504D01*
Y72811D01*
X708653D01*
X718810Y76197D02*
X722196Y69426D01*
X725581Y76197D01*
X728967Y67733D02*
X735738D01*
X740816Y77889D02*
Y76197D01*
X739124D01*
X742509D01*
X740816D01*
Y71118D01*
X742509Y69426D01*
X747588Y76197D02*
Y69426D01*
Y72811D01*
X749280Y74504D01*
X750973Y76197D01*
X752666D01*
X757744Y69426D02*
X761130D01*
X759437D01*
Y76197D01*
X757744D01*
X769594Y66040D02*
X771287D01*
X772979Y67733D01*
Y76197D01*
X767901D01*
X766208Y74504D01*
Y71118D01*
X767901Y69426D01*
X772979D01*
X878840Y382690D02*
Y372533D01*
X883918D01*
X885611Y374226D01*
Y375918D01*
X883918Y377611D01*
X878840D01*
X883918D01*
X885611Y379304D01*
Y380997D01*
X883918Y382690D01*
X878840D01*
X888997Y370840D02*
X895768D01*
X900846Y372533D02*
X904232D01*
X905925Y374226D01*
Y377611D01*
X904232Y379304D01*
X900846D01*
X899153Y377611D01*
Y374226D01*
X900846Y372533D01*
X909310Y379304D02*
Y374226D01*
X911003Y372533D01*
X916081D01*
Y379304D01*
X921160Y380997D02*
Y379304D01*
X919467D01*
X922852D01*
X921160D01*
Y374226D01*
X922852Y372533D01*
X927931Y370840D02*
X934702D01*
X938088Y382690D02*
Y372533D01*
X944859D01*
X949937D02*
X953323D01*
X955015Y374226D01*
Y377611D01*
X953323Y379304D01*
X949937D01*
X948244Y377611D01*
Y374226D01*
X949937Y372533D01*
X958401Y379304D02*
Y374226D01*
X960094Y372533D01*
X961787Y374226D01*
X963479Y372533D01*
X965172Y374226D01*
Y379304D01*
X825507Y350518D02*
X835663D01*
X830585D01*
Y335283D01*
X840742D02*
Y350518D01*
X848359D01*
X850898Y347978D01*
Y342900D01*
X848359Y340361D01*
X840742D01*
X866133Y350518D02*
X861055Y347978D01*
X855977Y342900D01*
Y337822D01*
X858516Y335283D01*
X863594D01*
X866133Y337822D01*
Y340361D01*
X863594Y342900D01*
X855977D01*
X919487Y490218D02*
X929643D01*
X924565D01*
Y474982D01*
X934722D02*
Y490218D01*
X942339D01*
X944878Y487678D01*
Y482600D01*
X942339Y480061D01*
X934722D01*
X957574Y474982D02*
Y490218D01*
X949957Y482600D01*
X960113D01*
X878840Y460582D02*
Y450426D01*
X883918D01*
X885611Y452118D01*
Y453811D01*
X883918Y455504D01*
X878840D01*
X883918D01*
X885611Y457197D01*
Y458890D01*
X883918Y460582D01*
X878840D01*
X888997Y448733D02*
X895768D01*
X900846Y450426D02*
X904232D01*
X905925Y452118D01*
Y455504D01*
X904232Y457197D01*
X900846D01*
X899153Y455504D01*
Y452118D01*
X900846Y450426D01*
X909310Y457197D02*
Y452118D01*
X911003Y450426D01*
X916081D01*
Y457197D01*
X921160Y458890D02*
Y457197D01*
X919467D01*
X922852D01*
X921160D01*
Y452118D01*
X922852Y450426D01*
X927931Y448733D02*
X934702D01*
X938088Y460582D02*
Y450426D01*
Y455504D01*
X944859D01*
Y460582D01*
Y450426D01*
X948244D02*
X951630D01*
X949937D01*
Y457197D01*
X948244D01*
X960094Y447040D02*
X961787D01*
X963479Y448733D01*
Y457197D01*
X958401D01*
X956708Y455504D01*
Y452118D01*
X958401Y450426D01*
X963479D01*
X966865Y460582D02*
Y450426D01*
Y455504D01*
X968558Y457197D01*
X971943D01*
X973636Y455504D01*
Y450426D01*
X519004Y207852D02*
X510540D01*
Y201504D01*
X514772Y203620D01*
X516888D01*
X519004Y201504D01*
Y197272D01*
X516888Y195156D01*
X512656D01*
X510540Y197272D01*
X523236Y205736D02*
X525352Y207852D01*
X529584D01*
X531700Y205736D01*
Y197272D01*
X529584Y195156D01*
X525352D01*
X523236Y197272D01*
Y205736D01*
X535932Y193040D02*
X544396D01*
X550744Y195156D02*
X554976D01*
X557092Y197272D01*
Y201504D01*
X554976Y203620D01*
X550744D01*
X548628Y201504D01*
Y197272D01*
X550744Y195156D01*
X561324Y207852D02*
Y195156D01*
Y201504D01*
X563439Y203620D01*
X567672D01*
X569787Y201504D01*
Y195156D01*
X574019D02*
Y203620D01*
X576135D01*
X578251Y201504D01*
Y195156D01*
Y201504D01*
X580367Y203620D01*
X582483Y201504D01*
Y195156D01*
X513087Y452118D02*
X523243D01*
X518165D01*
Y436883D01*
X528322D02*
Y452118D01*
X535939D01*
X538478Y449578D01*
Y444500D01*
X535939Y441961D01*
X528322D01*
X543557Y449578D02*
X546096Y452118D01*
X551174D01*
X553713Y449578D01*
Y447039D01*
X551174Y444500D01*
X548635D01*
X551174D01*
X553713Y441961D01*
Y439422D01*
X551174Y436883D01*
X546096D01*
X543557Y439422D01*
X557951Y512229D02*
X556258Y513922D01*
X552873D01*
X551180Y512229D01*
Y510537D01*
X552873Y508844D01*
X556258D01*
X557951Y507151D01*
Y505458D01*
X556258Y503766D01*
X552873D01*
X551180Y505458D01*
X568108Y510537D02*
X563030D01*
X561337Y508844D01*
Y505458D01*
X563030Y503766D01*
X568108D01*
X573186D02*
X576572D01*
X578265Y505458D01*
Y508844D01*
X576572Y510537D01*
X573186D01*
X571493Y508844D01*
Y505458D01*
X573186Y503766D01*
X581650Y500380D02*
Y510537D01*
X586729D01*
X588421Y508844D01*
Y505458D01*
X586729Y503766D01*
X581650D01*
X596885D02*
X593500D01*
X591807Y505458D01*
Y508844D01*
X593500Y510537D01*
X596885D01*
X598578Y508844D01*
Y507151D01*
X591807D01*
X601964Y502073D02*
X608735D01*
X612120Y500380D02*
Y510537D01*
X617199D01*
X618891Y508844D01*
Y505458D01*
X617199Y503766D01*
X612120D01*
X622277Y510537D02*
Y503766D01*
Y507151D01*
X623970Y508844D01*
X625663Y510537D01*
X627355D01*
X634127Y503766D02*
X637512D01*
X639205Y505458D01*
Y508844D01*
X637512Y510537D01*
X634127D01*
X632434Y508844D01*
Y505458D01*
X634127Y503766D01*
X642590Y513922D02*
Y503766D01*
X647669D01*
X649362Y505458D01*
Y507151D01*
Y508844D01*
X647669Y510537D01*
X642590D01*
X657826Y503766D02*
X654440D01*
X652747Y505458D01*
Y508844D01*
X654440Y510537D01*
X657826D01*
X659518Y508844D01*
Y507151D01*
X652747D01*
X91440Y766233D02*
Y776389D01*
X96518D01*
X98211Y774697D01*
Y771311D01*
X96518Y769618D01*
X91440D01*
X101597Y773004D02*
Y767926D01*
X103289Y766233D01*
X104982Y767926D01*
X106675Y766233D01*
X108368Y767926D01*
Y773004D01*
X111753D02*
Y766233D01*
Y769618D01*
X113446Y771311D01*
X115139Y773004D01*
X116832D01*
X121910Y764540D02*
X128681D01*
X132067Y766233D02*
X135452D01*
X133760D01*
Y773004D01*
X132067D01*
X140531Y766233D02*
Y773004D01*
X145609D01*
X147302Y771311D01*
Y766233D01*
X678187Y871217D02*
X688343D01*
X683265D01*
Y855983D01*
X693422D02*
Y871217D01*
X701039D01*
X703578Y868678D01*
Y863600D01*
X701039Y861061D01*
X693422D01*
X718813Y855983D02*
X708657D01*
X718813Y866139D01*
Y868678D01*
X716274Y871217D01*
X711196D01*
X708657Y868678D01*
X624840Y905933D02*
Y916089D01*
X629918D01*
X631611Y914397D01*
Y911011D01*
X629918Y909318D01*
X624840D01*
X634997Y912704D02*
Y907626D01*
X636689Y905933D01*
X638382Y907626D01*
X640075Y905933D01*
X641768Y907626D01*
Y912704D01*
X645153D02*
Y905933D01*
Y909318D01*
X646846Y911011D01*
X648539Y912704D01*
X650232D01*
X655310Y904240D02*
X662081D01*
X665467Y905933D02*
X668852D01*
X667160D01*
Y912704D01*
X665467D01*
X673931Y905933D02*
Y912704D01*
X679009D01*
X680702Y911011D01*
Y905933D01*
X251461Y919478D02*
X248922Y922018D01*
X243843D01*
X241304Y919478D01*
Y909322D01*
X243843Y906783D01*
X248922D01*
X251461Y909322D01*
X266696Y922018D02*
X256539D01*
Y914400D01*
X261618Y916939D01*
X264157D01*
X266696Y914400D01*
Y909322D01*
X264157Y906783D01*
X259078D01*
X256539Y909322D01*
X383540Y950804D02*
X385233Y952497D01*
X388618D01*
X390311Y950804D01*
Y949111D01*
X388618Y947418D01*
X386926D01*
X388618D01*
X390311Y945726D01*
Y944033D01*
X388618Y942340D01*
X385233D01*
X383540Y944033D01*
X393697Y942340D02*
Y944033D01*
X395390D01*
Y942340D01*
X393697D01*
X402161Y950804D02*
X403853Y952497D01*
X407239D01*
X408932Y950804D01*
Y949111D01*
X407239Y947418D01*
X405546D01*
X407239D01*
X408932Y945726D01*
Y944033D01*
X407239Y942340D01*
X403853D01*
X402161Y944033D01*
X412317Y952497D02*
Y945726D01*
X415703Y942340D01*
X419089Y945726D01*
Y952497D01*
X212511Y965197D02*
X205740D01*
Y960118D01*
X209126Y961811D01*
X210818D01*
X212511Y960118D01*
Y956733D01*
X210818Y955040D01*
X207433D01*
X205740Y956733D01*
X215897Y965197D02*
Y958426D01*
X219282Y955040D01*
X222668Y958426D01*
Y965197D01*
X453811Y649389D02*
X447040D01*
Y644311D01*
X450426Y646004D01*
X452118D01*
X453811Y644311D01*
Y640926D01*
X452118Y639233D01*
X448733D01*
X447040Y640926D01*
X463968Y649389D02*
X457197D01*
Y644311D01*
X460582Y646004D01*
X462275D01*
X463968Y644311D01*
Y640926D01*
X462275Y639233D01*
X458890D01*
X457197Y640926D01*
X474125Y649389D02*
X467353D01*
Y644311D01*
X470739Y646004D01*
X472432D01*
X474125Y644311D01*
Y640926D01*
X472432Y639233D01*
X469046D01*
X467353Y640926D01*
X477510Y637540D02*
X484281D01*
X489360Y639233D02*
X492745D01*
X494438Y640926D01*
Y644311D01*
X492745Y646004D01*
X489360D01*
X487667Y644311D01*
Y640926D01*
X489360Y639233D01*
X497824Y646004D02*
Y640926D01*
X499516Y639233D01*
X504595D01*
Y646004D01*
X509673Y647697D02*
Y646004D01*
X507980D01*
X511366D01*
X509673D01*
Y640926D01*
X511366Y639233D01*
X516444Y637540D02*
X523215D01*
X526601Y649389D02*
Y639233D01*
X531679D01*
X533372Y640926D01*
Y642618D01*
X531679Y644311D01*
X526601D01*
X531679D01*
X533372Y646004D01*
Y647697D01*
X531679Y649389D01*
X526601D01*
X538451Y646004D02*
X541836D01*
X543529Y644311D01*
Y639233D01*
X538451D01*
X536758Y640926D01*
X538451Y642618D01*
X543529D01*
X553686Y649389D02*
Y639233D01*
X548607D01*
X546914Y640926D01*
Y644311D01*
X548607Y646004D01*
X553686D01*
X326811Y598590D02*
X320040D01*
Y593511D01*
X323426Y595204D01*
X325118D01*
X326811Y593511D01*
Y590126D01*
X325118Y588433D01*
X321733D01*
X320040Y590126D01*
X336968Y598590D02*
X330197D01*
Y593511D01*
X333582Y595204D01*
X335275D01*
X336968Y593511D01*
Y590126D01*
X335275Y588433D01*
X331889D01*
X330197Y590126D01*
X347125Y598590D02*
X340353D01*
Y593511D01*
X343739Y595204D01*
X345432D01*
X347125Y593511D01*
Y590126D01*
X345432Y588433D01*
X342046D01*
X340353Y590126D01*
X350510Y586740D02*
X357281D01*
X362360Y588433D02*
X365745D01*
X367438Y590126D01*
Y593511D01*
X365745Y595204D01*
X362360D01*
X360667Y593511D01*
Y590126D01*
X362360Y588433D01*
X370824Y595204D02*
Y590126D01*
X372516Y588433D01*
X377595D01*
Y595204D01*
X382673Y596897D02*
Y595204D01*
X380980D01*
X384366D01*
X382673D01*
Y590126D01*
X384366Y588433D01*
X389444Y586740D02*
X396215D01*
X406372Y596897D02*
X404679Y598590D01*
X401294D01*
X399601Y596897D01*
Y590126D01*
X401294Y588433D01*
X404679D01*
X406372Y590126D01*
Y593511D01*
X402987D01*
X411451Y588433D02*
X414836D01*
X416529Y590126D01*
Y593511D01*
X414836Y595204D01*
X411451D01*
X409758Y593511D01*
Y590126D01*
X411451Y588433D01*
X421607D02*
X424993D01*
X426686Y590126D01*
Y593511D01*
X424993Y595204D01*
X421607D01*
X419915Y593511D01*
Y590126D01*
X421607Y588433D01*
X436842Y598590D02*
Y588433D01*
X431764D01*
X430071Y590126D01*
Y593511D01*
X431764Y595204D01*
X436842D01*
X142240Y715433D02*
Y725590D01*
X147318D01*
X149011Y723897D01*
Y720511D01*
X147318Y718818D01*
X142240D01*
X152397Y722204D02*
Y717126D01*
X154089Y715433D01*
X155782Y717126D01*
X157475Y715433D01*
X159168Y717126D01*
Y722204D01*
X162553D02*
Y715433D01*
Y718818D01*
X164246Y720511D01*
X165939Y722204D01*
X167632D01*
X172710Y713740D02*
X179481D01*
X182867Y725590D02*
Y715433D01*
X187945D01*
X189638Y717126D01*
Y718818D01*
Y720511D01*
X187945Y722204D01*
X182867D01*
X194716D02*
X198102D01*
X199795Y720511D01*
Y715433D01*
X194716D01*
X193024Y717126D01*
X194716Y718818D01*
X199795D01*
X209951Y725590D02*
Y715433D01*
X204873D01*
X203180Y717126D01*
Y720511D01*
X204873Y722204D01*
X209951D01*
X599440Y677333D02*
Y687489D01*
X604518D01*
X606211Y685797D01*
Y682411D01*
X604518Y680718D01*
X599440D01*
X609597Y684104D02*
Y679026D01*
X611289Y677333D01*
X612982Y679026D01*
X614675Y677333D01*
X616368Y679026D01*
Y684104D01*
X619753D02*
Y677333D01*
Y680718D01*
X621446Y682411D01*
X623139Y684104D01*
X624832D01*
X629910Y675640D02*
X636681D01*
X640067Y687489D02*
Y677333D01*
X645145D01*
X646838Y679026D01*
Y680718D01*
X645145Y682411D01*
X640067D01*
X645145D01*
X646838Y684104D01*
Y685797D01*
X645145Y687489D01*
X640067D01*
X651916Y684104D02*
X655302D01*
X656995Y682411D01*
Y677333D01*
X651916D01*
X650224Y679026D01*
X651916Y680718D01*
X656995D01*
X667151Y687489D02*
Y677333D01*
X662073D01*
X660380Y679026D01*
Y682411D01*
X662073Y684104D01*
X667151D01*
X326811Y750990D02*
X320040D01*
Y745911D01*
X323426D01*
X320040D01*
Y740833D01*
X330197D02*
X333582D01*
X331889D01*
Y747604D01*
X330197D01*
X338661Y740833D02*
X342046D01*
X340353D01*
Y750990D01*
X338661D01*
X348817Y749297D02*
Y747604D01*
X347125D01*
X350510D01*
X348817D01*
Y742526D01*
X350510Y740833D01*
X360667D02*
X357281D01*
X355588Y742526D01*
Y745911D01*
X357281Y747604D01*
X360667D01*
X362360Y745911D01*
Y744218D01*
X355588D01*
X365745Y747604D02*
Y740833D01*
Y744218D01*
X367438Y745911D01*
X369131Y747604D01*
X370824D01*
X375902Y739140D02*
X382673D01*
X392830Y749297D02*
X391137Y750990D01*
X387752D01*
X386059Y749297D01*
Y747604D01*
X387752Y745911D01*
X391137D01*
X392830Y744218D01*
Y742526D01*
X391137Y740833D01*
X387752D01*
X386059Y742526D01*
X396215Y750990D02*
Y740833D01*
X399601Y744218D01*
X402987Y740833D01*
Y750990D01*
X548640Y956733D02*
Y966889D01*
X553718D01*
X555411Y965197D01*
Y961811D01*
X553718Y960118D01*
X548640D01*
X558797Y963504D02*
Y958426D01*
X560490Y956733D01*
X562182Y958426D01*
X563875Y956733D01*
X565568Y958426D01*
Y963504D01*
X568953D02*
Y956733D01*
Y960118D01*
X570646Y961811D01*
X572339Y963504D01*
X574032D01*
X579110Y955040D02*
X585881D01*
X596038Y966889D02*
X589267D01*
Y961811D01*
X592653Y963504D01*
X594345D01*
X596038Y961811D01*
Y958426D01*
X594345Y956733D01*
X590960D01*
X589267Y958426D01*
X606195Y966889D02*
X599424D01*
Y961811D01*
X602809Y963504D01*
X604502D01*
X606195Y961811D01*
Y958426D01*
X604502Y956733D01*
X601116D01*
X599424Y958426D01*
X616352Y966889D02*
X609580D01*
Y961811D01*
X612966Y963504D01*
X614659D01*
X616352Y961811D01*
Y958426D01*
X614659Y956733D01*
X611273D01*
X609580Y958426D01*
X63497Y48253D02*
X58418D01*
X60957D01*
Y35557D01*
X58418Y33018D01*
X55879D01*
X53340Y35557D01*
X76193Y33018D02*
X71114D01*
X68575Y35557D01*
Y40636D01*
X71114Y43175D01*
X76193D01*
X78732Y40636D01*
Y38097D01*
X68575D01*
X83810Y43175D02*
Y33018D01*
Y38097D01*
X86349Y40636D01*
X88889Y43175D01*
X91428D01*
X106663Y33018D02*
X101584D01*
X99045Y35557D01*
Y40636D01*
X101584Y43175D01*
X106663D01*
X109202Y40636D01*
Y38097D01*
X99045D01*
X114280Y33018D02*
Y43175D01*
X116819D01*
X119359Y40636D01*
Y33018D01*
Y40636D01*
X121898Y43175D01*
X124437Y40636D01*
Y33018D01*
X129515Y43175D02*
Y35557D01*
X132055Y33018D01*
X139672D01*
Y30479D01*
X137133Y27940D01*
X134594D01*
X139672Y33018D02*
Y43175D01*
X159986Y48253D02*
Y33018D01*
Y38097D01*
X170142Y48253D01*
X162525Y40636D01*
X170142Y33018D01*
X175221D02*
X180299D01*
X177760D01*
Y43175D01*
X175221D01*
X190456D02*
X195534D01*
X198073Y40636D01*
Y33018D01*
X190456D01*
X187917Y35557D01*
X190456Y38097D01*
X198073D01*
X203151Y43175D02*
Y33018D01*
Y38097D01*
X205691Y40636D01*
X208230Y43175D01*
X210769D01*
X218387Y33018D02*
X223465D01*
X220926D01*
Y43175D01*
X218387D01*
X238700Y33018D02*
X233622D01*
X231082Y35557D01*
Y40636D01*
X233622Y43175D01*
X238700D01*
X241239Y40636D01*
Y38097D01*
X231082D01*
X599195Y421637D02*
Y406403D01*
X609352D01*
X624587Y421637D02*
X614430D01*
Y406403D01*
X624587D01*
X614430Y414020D02*
X619509D01*
X629665Y421637D02*
Y406403D01*
X637283D01*
X639822Y408942D01*
Y419098D01*
X637283Y421637D01*
X629665D01*
X655057Y406403D02*
X644900D01*
X655057Y416559D01*
Y419098D01*
X652518Y421637D01*
X647439D01*
X644900Y419098D01*
X419103Y706118D02*
X416564Y708658D01*
X411486D01*
X408947Y706118D01*
Y703579D01*
X411486Y701040D01*
X416564D01*
X419103Y698501D01*
Y695962D01*
X416564Y693422D01*
X411486D01*
X408947Y695962D01*
X424182Y708658D02*
Y693422D01*
X429260Y698501D01*
X434338Y693422D01*
Y708658D01*
X439417Y706118D02*
X441956Y708658D01*
X447034D01*
X449573Y706118D01*
Y703579D01*
X447034Y701040D01*
X444495D01*
X447034D01*
X449573Y698501D01*
Y695962D01*
X447034Y693422D01*
X441956D01*
X439417Y695962D01*
X866032Y855396D02*
Y842700D01*
X868571Y840161D01*
X873649D01*
X876189Y842700D01*
Y855396D01*
X881267Y840161D02*
X886345D01*
X883806D01*
Y855396D01*
X881267Y852857D01*
X742947Y886456D02*
X740407Y888995D01*
X735329D01*
X732790Y886456D01*
Y876299D01*
X735329Y873760D01*
X740407D01*
X742947Y876299D01*
X758182Y873760D02*
X748025D01*
X758182Y883917D01*
Y886456D01*
X755643Y888995D01*
X750564D01*
X748025Y886456D01*
X952501Y731264D02*
X949962Y733803D01*
X944883D01*
X942344Y731264D01*
Y721108D01*
X944883Y718568D01*
X949962D01*
X952501Y721108D01*
X957579Y731264D02*
X960118Y733803D01*
X965197D01*
X967736Y731264D01*
Y728725D01*
X965197Y726186D01*
X962657D01*
X965197D01*
X967736Y723647D01*
Y721108D01*
X965197Y718568D01*
X960118D01*
X957579Y721108D01*
X744220Y802127D02*
X754377D01*
X749298D01*
Y786892D01*
X759455D02*
Y802127D01*
X767073D01*
X769612Y799588D01*
Y794510D01*
X767073Y791970D01*
X759455D01*
X774690Y802127D02*
X784847D01*
Y799588D01*
X774690Y789431D01*
Y786892D01*
X207007Y485136D02*
X204468Y487675D01*
X199389D01*
X196850Y485136D01*
Y474979D01*
X199389Y472440D01*
X204468D01*
X207007Y474979D01*
X222242Y487675D02*
X217163Y485136D01*
X212085Y480057D01*
Y474979D01*
X214624Y472440D01*
X219703D01*
X222242Y474979D01*
Y477518D01*
X219703Y480057D01*
X212085D01*
X111764Y586743D02*
Y601978D01*
X119382D01*
X121921Y599438D01*
Y594360D01*
X119382Y591821D01*
X111764D01*
X116842D02*
X121921Y586743D01*
X126999Y599438D02*
X129538Y601978D01*
X134617D01*
X137156Y599438D01*
Y596899D01*
X134617Y594360D01*
X137156Y591821D01*
Y589282D01*
X134617Y586743D01*
X129538D01*
X126999Y589282D01*
Y591821D01*
X129538Y594360D01*
X126999Y596899D01*
Y599438D01*
X129538Y594360D02*
X134617D01*
X911858Y937264D02*
X896622D01*
Y944882D01*
X899162Y947421D01*
X904240D01*
X906779Y944882D01*
Y937264D01*
Y942343D02*
X911858Y947421D01*
X899162Y952499D02*
X896622Y955038D01*
Y960117D01*
X899162Y962656D01*
X901701D01*
X904240Y960117D01*
Y957578D01*
Y960117D01*
X906779Y962656D01*
X909318D01*
X911858Y960117D01*
Y955038D01*
X909318Y952499D01*
X503171Y966212D02*
X500631Y968751D01*
X495553D01*
X493014Y966212D01*
Y963673D01*
X495553Y961133D01*
X500631D01*
X503171Y958594D01*
Y956055D01*
X500631Y953516D01*
X495553D01*
X493014Y956055D01*
X508249Y968751D02*
Y953516D01*
X513327Y958594D01*
X518406Y953516D01*
Y968751D01*
X533641D02*
X528563Y966212D01*
X523484Y961133D01*
Y956055D01*
X526023Y953516D01*
X531102D01*
X533641Y956055D01*
Y958594D01*
X531102Y961133D01*
X523484D01*
X235709Y750312D02*
X233169Y752851D01*
X228091D01*
X225552Y750312D01*
Y747773D01*
X228091Y745234D01*
X233169D01*
X235709Y742694D01*
Y740155D01*
X233169Y737616D01*
X228091D01*
X225552Y740155D01*
X240787Y752851D02*
Y737616D01*
X245865Y742694D01*
X250944Y737616D01*
Y752851D01*
X266179D02*
X256022D01*
Y745234D01*
X261101Y747773D01*
X263640D01*
X266179Y745234D01*
Y740155D01*
X263640Y737616D01*
X258561D01*
X256022Y740155D01*
X142748Y436367D02*
Y423671D01*
X145287Y421132D01*
X150365D01*
X152905Y423671D01*
Y436367D01*
X157983Y433828D02*
X160522Y436367D01*
X165601D01*
X168140Y433828D01*
Y431289D01*
X165601Y428750D01*
X163061D01*
X165601D01*
X168140Y426210D01*
Y423671D01*
X165601Y421132D01*
X160522D01*
X157983Y423671D01*
X747268Y477007D02*
Y464311D01*
X749807Y461772D01*
X754885D01*
X757425Y464311D01*
Y477007D01*
X772660Y461772D02*
X762503D01*
X772660Y471929D01*
Y474468D01*
X770121Y477007D01*
X765042D01*
X762503Y474468D01*
X498348Y287015D02*
X508505D01*
X503426D01*
Y271780D01*
X513583D02*
Y287015D01*
X521201D01*
X523740Y284476D01*
Y279398D01*
X521201Y276858D01*
X513583D01*
X528818Y271780D02*
X533896D01*
X531357D01*
Y287015D01*
X528818Y284476D01*
X541514D02*
X544053Y287015D01*
X549132D01*
X551671Y284476D01*
Y281937D01*
X549132Y279398D01*
X546592D01*
X549132D01*
X551671Y276858D01*
Y274319D01*
X549132Y271780D01*
X544053D01*
X541514Y274319D01*
X284480Y469387D02*
X294637D01*
X289558D01*
Y454152D01*
X299715D02*
Y469387D01*
X307333D01*
X309872Y466848D01*
Y461769D01*
X307333Y459230D01*
X299715D01*
X314950Y454152D02*
X320028D01*
X317489D01*
Y469387D01*
X314950Y466848D01*
X337803Y454152D02*
X327646D01*
X337803Y464309D01*
Y466848D01*
X335264Y469387D01*
X330185D01*
X327646Y466848D01*
X386080Y281427D02*
X396237D01*
X391158D01*
Y266192D01*
X401315D02*
Y281427D01*
X408933D01*
X411472Y278888D01*
Y273810D01*
X408933Y271270D01*
X401315D01*
X416550Y266192D02*
X421628D01*
X419089D01*
Y281427D01*
X416550Y278888D01*
X429246Y266192D02*
X434324D01*
X431785D01*
Y281427D01*
X429246Y278888D01*
X284988Y544063D02*
X295145D01*
X290066D01*
Y528828D01*
X300223D02*
Y544063D01*
X307841D01*
X310380Y541524D01*
Y536446D01*
X307841Y533906D01*
X300223D01*
X315458Y541524D02*
X317997Y544063D01*
X323076D01*
X325615Y541524D01*
Y538985D01*
X323076Y536446D01*
X325615Y533906D01*
Y531367D01*
X323076Y528828D01*
X317997D01*
X315458Y531367D01*
Y533906D01*
X317997Y536446D01*
X315458Y538985D01*
Y541524D01*
X317997Y536446D02*
X323076D01*
X629920Y189987D02*
X640077D01*
X634998D01*
Y174752D01*
X645155D02*
Y189987D01*
X652773D01*
X655312Y187448D01*
Y182369D01*
X652773Y179830D01*
X645155D01*
X670547Y189987D02*
X660390D01*
Y182369D01*
X665469Y184909D01*
X668008D01*
X670547Y182369D01*
Y177291D01*
X668008Y174752D01*
X662929D01*
X660390Y177291D01*
X80772Y847085D02*
X90929D01*
X85850D01*
Y831850D01*
X96007D02*
Y847085D01*
X103625D01*
X106164Y844546D01*
Y839467D01*
X103625Y836928D01*
X96007D01*
X111242Y831850D02*
X116320D01*
X113781D01*
Y847085D01*
X111242Y844546D01*
X281943Y652778D02*
X279404Y655318D01*
X274326D01*
X271787Y652778D01*
Y650239D01*
X274326Y647700D01*
X279404D01*
X281943Y645161D01*
Y642622D01*
X279404Y640082D01*
X274326D01*
X271787Y642622D01*
X287022Y655318D02*
Y640082D01*
X292100Y645161D01*
X297178Y640082D01*
Y655318D01*
X309874Y640082D02*
Y655318D01*
X302257Y647700D01*
X312413D01*
X660403Y746758D02*
X657864Y749297D01*
X652786D01*
X650247Y746758D01*
Y744219D01*
X652786Y741680D01*
X657864D01*
X660403Y739141D01*
Y736602D01*
X657864Y734062D01*
X652786D01*
X650247Y736602D01*
X665482Y749297D02*
Y734062D01*
X670560Y739141D01*
X675638Y734062D01*
Y749297D01*
X690873Y734062D02*
X680717D01*
X690873Y744219D01*
Y746758D01*
X688334Y749297D01*
X683256D01*
X680717Y746758D01*
X311401Y855722D02*
X308862Y858261D01*
X303783D01*
X301244Y855722D01*
Y853183D01*
X303783Y850643D01*
X308862D01*
X311401Y848104D01*
Y845565D01*
X308862Y843026D01*
X303783D01*
X301244Y845565D01*
X316479Y858261D02*
Y843026D01*
X321557Y848104D01*
X326636Y843026D01*
Y858261D01*
X331714Y843026D02*
X336792D01*
X334253D01*
Y858261D01*
X331714Y855722D01*
X379476Y438912D02*
Y454147D01*
X387094D01*
X389633Y451608D01*
Y446530D01*
X387094Y443990D01*
X379476D01*
X384554D02*
X389633Y438912D01*
X394711D02*
X399789D01*
X397250D01*
Y454147D01*
X394711Y451608D01*
X407407Y438912D02*
X412485D01*
X409946D01*
Y454147D01*
X407407Y451608D01*
X222002Y270513D02*
Y285748D01*
X229620D01*
X232159Y283208D01*
Y278130D01*
X229620Y275591D01*
X222002D01*
X227080D02*
X232159Y270513D01*
X237237D02*
X242316D01*
X239776D01*
Y285748D01*
X237237Y283208D01*
X249933D02*
X252472Y285748D01*
X257551D01*
X260090Y283208D01*
Y273052D01*
X257551Y270513D01*
X252472D01*
X249933Y273052D01*
Y283208D01*
X44196Y379222D02*
Y394457D01*
X51814D01*
X54353Y391918D01*
Y386839D01*
X51814Y384300D01*
X44196D01*
X49274D02*
X54353Y379222D01*
X59431Y381761D02*
X61970Y379222D01*
X67049D01*
X69588Y381761D01*
Y391918D01*
X67049Y394457D01*
X61970D01*
X59431Y391918D01*
Y389379D01*
X61970Y386839D01*
X69588D01*
X762508Y283210D02*
Y298445D01*
X770126D01*
X772665Y295906D01*
Y290828D01*
X770126Y288288D01*
X762508D01*
X767586D02*
X772665Y283210D01*
X777743Y298445D02*
X787900D01*
Y295906D01*
X777743Y285749D01*
Y283210D01*
X849628Y130814D02*
X834392D01*
Y138432D01*
X836932Y140971D01*
X842010D01*
X844549Y138432D01*
Y130814D01*
Y135892D02*
X849628Y140971D01*
X834392Y156206D02*
X836932Y151128D01*
X842010Y146049D01*
X847088D01*
X849628Y148588D01*
Y153667D01*
X847088Y156206D01*
X844549D01*
X842010Y153667D01*
Y146049D01*
X593090Y347472D02*
Y362707D01*
X600708D01*
X603247Y360168D01*
Y355089D01*
X600708Y352550D01*
X593090D01*
X598168D02*
X603247Y347472D01*
X618482Y362707D02*
X608325D01*
Y355089D01*
X613403Y357629D01*
X615943D01*
X618482Y355089D01*
Y350011D01*
X615943Y347472D01*
X610864D01*
X608325Y350011D01*
X763270Y553212D02*
Y568447D01*
X770888D01*
X773427Y565908D01*
Y560830D01*
X770888Y558290D01*
X763270D01*
X768348D02*
X773427Y553212D01*
X786123D02*
Y568447D01*
X778505Y560830D01*
X788662D01*
X748030Y951992D02*
Y967227D01*
X755648D01*
X758187Y964688D01*
Y959610D01*
X755648Y957070D01*
X748030D01*
X753108D02*
X758187Y951992D01*
X773422D02*
X763265D01*
X773422Y962149D01*
Y964688D01*
X770883Y967227D01*
X765804D01*
X763265Y964688D01*
X427228Y870204D02*
Y885439D01*
X434846D01*
X437385Y882900D01*
Y877822D01*
X434846Y875282D01*
X427228D01*
X432306D02*
X437385Y870204D01*
X442463D02*
X447541D01*
X445002D01*
Y885439D01*
X442463Y882900D01*
X293370Y951230D02*
Y966465D01*
X300987D01*
X303527Y963926D01*
Y958848D01*
X300987Y956308D01*
X293370D01*
X318762Y963926D02*
X316223Y966465D01*
X311144D01*
X308605Y963926D01*
Y961387D01*
X311144Y958848D01*
X316223D01*
X318762Y956308D01*
Y953769D01*
X316223Y951230D01*
X311144D01*
X308605Y953769D01*
X323840Y951230D02*
X328918D01*
X326379D01*
Y966465D01*
X323840Y963926D01*
X374650Y359151D02*
Y343916D01*
X384807D01*
X400042Y359151D02*
X389885D01*
Y343916D01*
X400042D01*
X389885Y351534D02*
X394963D01*
X405120Y359151D02*
Y343916D01*
X412738D01*
X415277Y346455D01*
Y356612D01*
X412738Y359151D01*
X405120D01*
X420355D02*
X430512D01*
Y356612D01*
X420355Y346455D01*
Y343916D01*
X191770Y214371D02*
Y199136D01*
X201927D01*
X217162Y214371D02*
X207005D01*
Y199136D01*
X217162D01*
X207005Y206754D02*
X212083D01*
X222240Y214371D02*
Y199136D01*
X229858D01*
X232397Y201675D01*
Y211832D01*
X229858Y214371D01*
X222240D01*
X247632D02*
X242554Y211832D01*
X237475Y206754D01*
Y201675D01*
X240014Y199136D01*
X245093D01*
X247632Y201675D01*
Y204214D01*
X245093Y206754D01*
X237475D01*
X40894Y295651D02*
Y280416D01*
X51051D01*
X66286Y295651D02*
X56129D01*
Y280416D01*
X66286D01*
X56129Y288034D02*
X61207D01*
X71364Y295651D02*
Y280416D01*
X78982D01*
X81521Y282955D01*
Y293112D01*
X78982Y295651D01*
X71364D01*
X96756D02*
X86599D01*
Y288034D01*
X91678Y290573D01*
X94217D01*
X96756Y288034D01*
Y282955D01*
X94217Y280416D01*
X89138D01*
X86599Y282955D01*
X868689Y284478D02*
Y269242D01*
X878846D01*
X894081Y284478D02*
X883924D01*
Y269242D01*
X894081D01*
X883924Y276860D02*
X889003D01*
X899159Y284478D02*
Y269242D01*
X906777D01*
X909316Y271782D01*
Y281938D01*
X906777Y284478D01*
X899159D01*
X922012Y269242D02*
Y284478D01*
X914394Y276860D01*
X924551D01*
X690889Y220977D02*
Y205742D01*
X701046D01*
X716281Y220977D02*
X706124D01*
Y205742D01*
X716281D01*
X706124Y213360D02*
X711202D01*
X721359Y220977D02*
Y205742D01*
X728977D01*
X731516Y208282D01*
Y218438D01*
X728977Y220977D01*
X721359D01*
X736594Y218438D02*
X739133Y220977D01*
X744212D01*
X746751Y218438D01*
Y215899D01*
X744212Y213360D01*
X741673D01*
X744212D01*
X746751Y210821D01*
Y208282D01*
X744212Y205742D01*
X739133D01*
X736594Y208282D01*
X947167Y607058D02*
X944628Y609598D01*
X939549D01*
X937010Y607058D01*
Y596902D01*
X939549Y594362D01*
X944628D01*
X947167Y596902D01*
X959863Y594362D02*
Y609598D01*
X952245Y601980D01*
X962402D01*
X347982Y798830D02*
X345443Y796291D01*
Y791212D01*
X347982Y788673D01*
X358138D01*
X360677Y791212D01*
Y796291D01*
X358138Y798830D01*
X360677Y803908D02*
Y808987D01*
Y806448D01*
X345443D01*
X347982Y803908D01*
D16*
X141534Y889720D02*
X153590D01*
Y912622D01*
X9590Y889720D02*
Y979720D01*
X153590D01*
Y958850D02*
Y979720D01*
X9590Y889720D02*
X99090D01*
X767900Y357020D02*
X806900D01*
X767900Y445620D02*
X806900D01*
X163380Y316380D02*
X202380D01*
X163380Y404980D02*
X202380D01*
D17*
X411480Y612719D02*
X436791D01*
Y672521D01*
X411480D02*
X436791D01*
X411480Y612719D02*
Y672521D01*
X299720Y760039D02*
Y819841D01*
X325031D01*
Y760039D02*
Y819841D01*
X299720Y760039D02*
X325031D01*
X648279Y693420D02*
X708081D01*
X648279D02*
Y718731D01*
X708081D01*
Y693420D02*
Y718731D01*
X565841Y919480D02*
Y944791D01*
X506039D02*
X565841D01*
X506039Y919480D02*
Y944791D01*
Y919480D02*
X565841D01*
X224099Y703669D02*
Y728980D01*
Y703669D02*
X283901D01*
Y728980D01*
X224099D02*
X283901D01*
X325120Y612719D02*
X350431D01*
Y672521D01*
X325120D02*
X350431D01*
X325120Y612719D02*
Y672521D01*
D18*
X880622Y817626D02*
X912622D01*
X880618Y762254D02*
X912618D01*
M02*
