G04*
G04 #@! TF.GenerationSoftware,Altium Limited,Altium Designer,25.2.1 (25)*
G04*
G04 Layer_Color=16711935*
%FSLAX44Y44*%
%MOMM*%
G71*
G04*
G04 #@! TF.SameCoordinates,E3E45374-9F76-4001-9276-F41C8DC03B42*
G04*
G04*
G04 #@! TF.FilePolarity,Negative*
G04*
G01*
G75*
%ADD25C,0.0000*%
%ADD32O,3.5032X2.0032*%
%ADD33O,2.2032X4.0032*%
%ADD34C,1.9812*%
%ADD35C,1.8232*%
%ADD36C,0.8382*%
D25*
X432791Y655320D02*
G03*
X432791Y655320I-8611J0D01*
G01*
Y629920D02*
G03*
X432791Y629920I-8611J0D01*
G01*
X321031Y777240D02*
G03*
X321031Y777240I-8611J0D01*
G01*
Y802640D02*
G03*
X321031Y802640I-8611J0D01*
G01*
X699491Y706120D02*
G03*
X699491Y706120I-8611J0D01*
G01*
X674091D02*
G03*
X674091Y706120I-8611J0D01*
G01*
X531851Y932180D02*
G03*
X531851Y932180I-8611J0D01*
G01*
X557251D02*
G03*
X557251Y932180I-8611J0D01*
G01*
X275311Y716280D02*
G03*
X275311Y716280I-8611J0D01*
G01*
X249911D02*
G03*
X249911Y716280I-8611J0D01*
G01*
X346431Y655320D02*
G03*
X346431Y655320I-8611J0D01*
G01*
Y629920D02*
G03*
X346431Y629920I-8611J0D01*
G01*
D32*
X121360Y888220D02*
D03*
D33*
X86360Y934720D02*
D03*
X146360D02*
D03*
D34*
X93980Y464820D02*
D03*
X119380D02*
D03*
X43180D02*
D03*
X68580D02*
D03*
X102870Y151130D02*
D03*
X128270D02*
D03*
X52070D02*
D03*
X77470D02*
D03*
X916940Y345440D02*
D03*
X891540D02*
D03*
X967740D02*
D03*
X942340D02*
D03*
X916940Y419100D02*
D03*
X891540D02*
D03*
X967740D02*
D03*
X942340D02*
D03*
X624840Y469900D02*
D03*
X650240D02*
D03*
X574040D02*
D03*
X599440D02*
D03*
X647700Y822960D02*
D03*
Y797560D02*
D03*
Y873760D02*
D03*
Y848360D02*
D03*
X767080Y711200D02*
D03*
Y685800D02*
D03*
Y762000D02*
D03*
Y736600D02*
D03*
X652780Y99060D02*
D03*
Y73660D02*
D03*
Y149860D02*
D03*
Y124460D02*
D03*
X538480Y238760D02*
D03*
X513080D02*
D03*
X589280D02*
D03*
X563880D02*
D03*
X146050Y798830D02*
D03*
X171450D02*
D03*
X95250D02*
D03*
X120650D02*
D03*
X325120Y505460D02*
D03*
X299720D02*
D03*
X375920D02*
D03*
X350520D02*
D03*
X408940Y215900D02*
D03*
Y241300D02*
D03*
Y165100D02*
D03*
Y190500D02*
D03*
X307340Y403860D02*
D03*
Y429260D02*
D03*
Y353060D02*
D03*
Y378460D02*
D03*
D35*
X424180Y655320D02*
D03*
Y629920D02*
D03*
X312420Y777240D02*
D03*
Y802640D02*
D03*
X690880Y706120D02*
D03*
X665480D02*
D03*
X523240Y932180D02*
D03*
X548640D02*
D03*
X266700Y716280D02*
D03*
X241300D02*
D03*
X337820Y655320D02*
D03*
Y629920D02*
D03*
D36*
X128270Y322580D02*
D03*
X185420Y415290D02*
D03*
X965200Y747522D02*
D03*
X728980Y759460D02*
D03*
X624840D02*
D03*
X175260Y566420D02*
D03*
X177800Y609600D02*
D03*
X840740Y817880D02*
D03*
X806196Y858520D02*
D03*
X441960Y322580D02*
D03*
X436880Y802894D02*
D03*
X363220Y850900D02*
D03*
X177800Y454660D02*
D03*
X360426Y419100D02*
D03*
X285750Y252730D02*
D03*
X412750Y774700D02*
D03*
X226060Y876300D02*
D03*
X97536Y359410D02*
D03*
M02*
