G04*
G04 #@! TF.GenerationSoftware,Altium Limited,Altium Designer,25.2.1 (25)*
G04*
G04 Layer_Color=8421504*
%FSLAX44Y44*%
%MOMM*%
G71*
G04*
G04 #@! TF.SameCoordinates,E3E45374-9F76-4001-9276-F41C8DC03B42*
G04*
G04*
G04 #@! TF.FilePolarity,Positive*
G04*
G01*
G75*
%ADD19R,1.8034X1.1176*%
%ADD20R,1.1176X1.8034*%
%ADD21R,3.4000X0.6000*%
%ADD22R,1.7000X3.0988*%
%ADD23R,1.7000X0.8382*%
%ADD24R,2.6500X0.6000*%
D19*
X535940Y855980D02*
D03*
Y885952D02*
D03*
X226060Y937006D02*
D03*
Y907034D02*
D03*
X965200Y772160D02*
D03*
Y802132D02*
D03*
X210820Y606806D02*
D03*
Y576834D02*
D03*
X436880Y826008D02*
D03*
Y855980D02*
D03*
X861060Y223774D02*
D03*
Y253746D02*
D03*
X703580Y241300D02*
D03*
Y271272D02*
D03*
X866140Y157480D02*
D03*
Y127508D02*
D03*
X772160Y239014D02*
D03*
Y268986D02*
D03*
D20*
X667766Y383540D02*
D03*
X637794D02*
D03*
X736854Y855980D02*
D03*
X766826D02*
D03*
X230886Y454660D02*
D03*
X200914D02*
D03*
X934466Y914400D02*
D03*
X904494D02*
D03*
X752094Y932180D02*
D03*
X782066D02*
D03*
X945134Y574040D02*
D03*
X975106D02*
D03*
X226314Y252730D02*
D03*
X256286D02*
D03*
X390906Y774700D02*
D03*
X360934D02*
D03*
X797306Y533400D02*
D03*
X767334D02*
D03*
X627126Y327660D02*
D03*
X597154D02*
D03*
X49784Y259080D02*
D03*
X79756D02*
D03*
X48260Y359410D02*
D03*
X78232D02*
D03*
X413512Y419100D02*
D03*
X383540D02*
D03*
X408686Y322580D02*
D03*
X378714D02*
D03*
X225806Y177800D02*
D03*
X195834D02*
D03*
D21*
X923620Y808990D02*
D03*
Y796290D02*
D03*
Y783590D02*
D03*
Y770890D02*
D03*
X869620D02*
D03*
Y783590D02*
D03*
Y796290D02*
D03*
Y808990D02*
D03*
D22*
X300240Y909320D02*
D03*
D23*
X365240Y886206D02*
D03*
Y909320D02*
D03*
X367740Y932434D02*
D03*
D24*
X815340Y439420D02*
D03*
X815760Y426720D02*
D03*
Y414020D02*
D03*
Y401320D02*
D03*
Y388620D02*
D03*
Y375920D02*
D03*
Y363220D02*
D03*
X759040D02*
D03*
Y375920D02*
D03*
Y388620D02*
D03*
Y401320D02*
D03*
Y414020D02*
D03*
Y426720D02*
D03*
Y439420D02*
D03*
X210820Y398780D02*
D03*
X211240Y386080D02*
D03*
Y373380D02*
D03*
Y360680D02*
D03*
Y347980D02*
D03*
Y335280D02*
D03*
Y322580D02*
D03*
X154520D02*
D03*
Y335280D02*
D03*
Y347980D02*
D03*
Y360680D02*
D03*
Y373380D02*
D03*
Y386080D02*
D03*
Y398780D02*
D03*
M02*
