G04*
G04 #@! TF.GenerationSoftware,Altium Limited,Altium Designer,25.3.3 (18)*
G04*
G04 Layer_Color=8421504*
%FSLAX44Y44*%
%MOMM*%
G71*
G04*
G04 #@! TF.SameCoordinates,4EAFF8D4-B45D-4A5C-95F9-93AD59DE9582*
G04*
G04*
G04 #@! TF.FilePolarity,Positive*
G04*
G01*
G75*
%ADD18R,1.8034X1.1176*%
G04:AMPARAMS|DCode=19|XSize=10.5mm|YSize=8.8mm|CornerRadius=0.044mm|HoleSize=0mm|Usage=FLASHONLY|Rotation=180.000|XOffset=0mm|YOffset=0mm|HoleType=Round|Shape=RoundedRectangle|*
%AMROUNDEDRECTD19*
21,1,10.5000,8.7120,0,0,180.0*
21,1,10.4120,8.8000,0,0,180.0*
1,1,0.0880,-5.2060,4.3560*
1,1,0.0880,5.2060,4.3560*
1,1,0.0880,5.2060,-4.3560*
1,1,0.0880,-5.2060,-4.3560*
%
%ADD19ROUNDEDRECTD19*%
G04:AMPARAMS|DCode=20|XSize=0.95mm|YSize=3.5mm|CornerRadius=0.0522mm|HoleSize=0mm|Usage=FLASHONLY|Rotation=180.000|XOffset=0mm|YOffset=0mm|HoleType=Round|Shape=RoundedRectangle|*
%AMROUNDEDRECTD20*
21,1,0.9500,3.3955,0,0,180.0*
21,1,0.8455,3.5000,0,0,180.0*
1,1,0.1045,-0.4228,1.6978*
1,1,0.1045,0.4228,1.6978*
1,1,0.1045,0.4228,-1.6978*
1,1,0.1045,-0.4228,-1.6978*
%
%ADD20ROUNDEDRECTD20*%
%ADD21R,1.1176X1.8034*%
%ADD22R,1.4400X1.8200*%
%ADD23R,3.8608X5.5118*%
%ADD24R,2.1800X3.1200*%
%ADD25R,3.1200X2.1800*%
D18*
X532130Y294386D02*
D03*
Y264414D02*
D03*
X596900D02*
D03*
Y294386D02*
D03*
X302260Y400050D02*
D03*
Y430022D02*
D03*
X191770Y429006D02*
D03*
Y399034D02*
D03*
D19*
X102870Y932180D02*
D03*
X532130Y817880D02*
D03*
X782320Y791210D02*
D03*
D20*
X140970Y832680D02*
D03*
X128270D02*
D03*
X115570D02*
D03*
X102870D02*
D03*
X90170D02*
D03*
X77470D02*
D03*
X64770D02*
D03*
X570230Y718380D02*
D03*
X557530D02*
D03*
X544830D02*
D03*
X532130D02*
D03*
X519430D02*
D03*
X506730D02*
D03*
X494030D02*
D03*
X820420Y691710D02*
D03*
X807720D02*
D03*
X795020D02*
D03*
X782320D02*
D03*
X769620D02*
D03*
X756920D02*
D03*
X744220D02*
D03*
D21*
X77724Y720090D02*
D03*
X107696D02*
D03*
X251206Y817880D02*
D03*
X221234D02*
D03*
X496824Y565150D02*
D03*
X526796D02*
D03*
X581914Y626110D02*
D03*
X611886D02*
D03*
X794766Y170180D02*
D03*
X764794D02*
D03*
X222504Y727710D02*
D03*
X252476D02*
D03*
X251206Y778510D02*
D03*
X221234D02*
D03*
X764794Y287020D02*
D03*
X794766D02*
D03*
X610870Y673100D02*
D03*
X580898D02*
D03*
X632206Y717550D02*
D03*
X602234D02*
D03*
X898144Y645160D02*
D03*
X928116D02*
D03*
X926846Y744220D02*
D03*
X896874D02*
D03*
X926846Y692150D02*
D03*
X896874D02*
D03*
X757174Y571500D02*
D03*
X787146D02*
D03*
D22*
X106070Y788670D02*
D03*
X79350D02*
D03*
X107340Y756920D02*
D03*
X80620D02*
D03*
X536600Y637540D02*
D03*
X509880D02*
D03*
X535330Y673100D02*
D03*
X508610D02*
D03*
X785520Y617220D02*
D03*
X758800D02*
D03*
X785520Y650240D02*
D03*
X758800D02*
D03*
D23*
X544576Y453390D02*
D03*
X644144D02*
D03*
X194056Y565150D02*
D03*
X293624D02*
D03*
X849376Y462280D02*
D03*
X948944D02*
D03*
D24*
X42620Y609600D02*
D03*
X112320D02*
D03*
D25*
X755650Y393140D02*
D03*
Y462840D02*
D03*
X426720Y389330D02*
D03*
Y459030D02*
D03*
M02*
