M48
;Layer_Color=9474304
;FILE_FORMAT=4:4
METRIC,LZ
;TYPE=PLATED
T01F00S00C0.3302
T02F00S00C1.0000
T03F00S00C1.0201
T04F00S00C1.8288
%
T01
X0081788Y0017018
X0075565Y0036957
X0053213Y0031115
X0042545Y0035814
X001651Y0042926
X0001778Y0064897
X0012573Y0077216
X002032Y0072644
X0027559Y0081661
X0016891Y0093345
X0053213Y0075692
X0054991Y0065532
X0058166Y0060071
X0065532Y0071755
X0078232Y007366
X0080645Y0063246
X0087757Y0064389
X0094234Y0074422
T02
X0022126Y0004191
X0025626
X0035108
X0038608
X0049558Y0004318
X0053058
X0062413Y0004445
X0065913
X0094742Y0009017
Y0012517
Y0027714
Y0031214
X0004318Y0044732
Y0048232
X0064544Y0094996
X0068044
T03
X0022225Y0013081
X0035179Y0013335
X0050165Y0012319
X0062865Y0011811
X0065405
X0083693Y0009017
X0086233
X0086106Y0027686
Y0030226
X0078994Y0022733
X0076454
X0046863Y0026543
Y0029083
X0050165Y0014859
X0035179Y0015875
X0022225Y0015621
X0024384Y0039878
Y0042418
X0011684Y0044704
Y0047244
X0025273Y008763
X0027813
X0040005Y0080645
Y0078105
X0066421Y0077216
Y0079756
X0073914Y0095885
X0076454
T04
X0095885Y0084963
Y0093218
M30
