G04*
G04 #@! TF.GenerationSoftware,Altium Limited,Altium Designer,25.3.3 (18)*
G04*
G04 Layer_Color=8388736*
%FSLAX44Y44*%
%MOMM*%
G71*
G04*
G04 #@! TF.SameCoordinates,4EAFF8D4-B45D-4A5C-95F9-93AD59DE9582*
G04*
G04*
G04 #@! TF.FilePolarity,Negative*
G04*
G01*
G75*
%ADD23R,3.8608X5.5118*%
%ADD26C,0.0000*%
%ADD27R,2.0066X1.3208*%
G04:AMPARAMS|DCode=28|XSize=10.7032mm|YSize=9.0032mm|CornerRadius=0.1456mm|HoleSize=0mm|Usage=FLASHONLY|Rotation=180.000|XOffset=0mm|YOffset=0mm|HoleType=Round|Shape=RoundedRectangle|*
%AMROUNDEDRECTD28*
21,1,10.7032,8.7120,0,0,180.0*
21,1,10.4120,9.0032,0,0,180.0*
1,1,0.2912,-5.2060,4.3560*
1,1,0.2912,5.2060,4.3560*
1,1,0.2912,5.2060,-4.3560*
1,1,0.2912,-5.2060,-4.3560*
%
%ADD28ROUNDEDRECTD28*%
G04:AMPARAMS|DCode=29|XSize=1.1532mm|YSize=3.7032mm|CornerRadius=0.1539mm|HoleSize=0mm|Usage=FLASHONLY|Rotation=180.000|XOffset=0mm|YOffset=0mm|HoleType=Round|Shape=RoundedRectangle|*
%AMROUNDEDRECTD29*
21,1,1.1532,3.3955,0,0,180.0*
21,1,0.8455,3.7032,0,0,180.0*
1,1,0.3077,-0.4228,1.6978*
1,1,0.3077,0.4228,1.6978*
1,1,0.3077,0.4228,-1.6978*
1,1,0.3077,-0.4228,-1.6978*
%
%ADD29ROUNDEDRECTD29*%
%ADD30R,1.3208X2.0066*%
%ADD31R,1.6432X2.0232*%
%ADD32R,2.3832X3.3232*%
%ADD33R,3.3232X2.3832*%
%ADD34C,1.8232*%
%ADD35C,2.2032*%
%ADD36R,2.9464X2.9464*%
%ADD37C,2.9464*%
%ADD38C,0.8382*%
D23*
X544576Y453390D02*
D03*
X644144D02*
D03*
X194056Y565150D02*
D03*
X293624D02*
D03*
X849376Y462280D02*
D03*
X948944D02*
D03*
D26*
X477241Y265430D02*
G03*
X477241Y265430I-8611J0D01*
G01*
Y290830D02*
G03*
X477241Y290830I-8611J0D01*
G01*
X637261Y118110D02*
G03*
X637261Y118110I-8611J0D01*
G01*
X662661D02*
G03*
X662661Y118110I-8611J0D01*
G01*
X747751Y958850D02*
G03*
X747751Y958850I-8611J0D01*
G01*
X773151D02*
G03*
X773151Y958850I-8611J0D01*
G01*
Y227330D02*
G03*
X773151Y227330I-8611J0D01*
G01*
X798551D02*
G03*
X798551Y227330I-8611J0D01*
G01*
X672821Y797560D02*
G03*
X672821Y797560I-8611J0D01*
G01*
Y772160D02*
G03*
X672821Y772160I-8611J0D01*
G01*
X252451Y398780D02*
G03*
X252451Y398780I-8611J0D01*
G01*
Y424180D02*
G03*
X252451Y424180I-8611J0D01*
G01*
X869671Y276860D02*
G03*
X869671Y276860I-8611J0D01*
G01*
Y302260D02*
G03*
X869671Y302260I-8611J0D01*
G01*
X286741Y876300D02*
G03*
X286741Y876300I-8611J0D01*
G01*
X261341D02*
G03*
X261341Y876300I-8611J0D01*
G01*
X408661Y806450D02*
G03*
X408661Y806450I-8611J0D01*
G01*
Y781050D02*
G03*
X408661Y781050I-8611J0D01*
G01*
X125451Y472440D02*
G03*
X125451Y472440I-8611J0D01*
G01*
Y447040D02*
G03*
X125451Y447040I-8611J0D01*
G01*
X870941Y90170D02*
G03*
X870941Y90170I-8611J0D01*
G01*
X845541D02*
G03*
X845541Y90170I-8611J0D01*
G01*
X510261Y123190D02*
G03*
X510261Y123190I-8611J0D01*
G01*
Y148590D02*
G03*
X510261Y148590I-8611J0D01*
G01*
X360401Y133350D02*
G03*
X360401Y133350I-8611J0D01*
G01*
Y158750D02*
G03*
X360401Y158750I-8611J0D01*
G01*
X230861Y130810D02*
G03*
X230861Y130810I-8611J0D01*
G01*
Y156210D02*
G03*
X230861Y156210I-8611J0D01*
G01*
D27*
X532130Y294386D02*
D03*
Y264414D02*
D03*
X596900D02*
D03*
Y294386D02*
D03*
X302260Y400050D02*
D03*
Y430022D02*
D03*
X191770Y429006D02*
D03*
Y399034D02*
D03*
D28*
X102870Y932180D02*
D03*
X532130Y817880D02*
D03*
X782320Y791210D02*
D03*
D29*
X140970Y832680D02*
D03*
X128270D02*
D03*
X115570D02*
D03*
X102870D02*
D03*
X90170D02*
D03*
X77470D02*
D03*
X64770D02*
D03*
X570230Y718380D02*
D03*
X557530D02*
D03*
X544830D02*
D03*
X532130D02*
D03*
X519430D02*
D03*
X506730D02*
D03*
X494030D02*
D03*
X820420Y691710D02*
D03*
X807720D02*
D03*
X795020D02*
D03*
X782320D02*
D03*
X769620D02*
D03*
X756920D02*
D03*
X744220D02*
D03*
D30*
X77724Y720090D02*
D03*
X107696D02*
D03*
X251206Y817880D02*
D03*
X221234D02*
D03*
X496824Y565150D02*
D03*
X526796D02*
D03*
X581914Y626110D02*
D03*
X611886D02*
D03*
X794766Y170180D02*
D03*
X764794D02*
D03*
X222504Y727710D02*
D03*
X252476D02*
D03*
X251206Y778510D02*
D03*
X221234D02*
D03*
X764794Y287020D02*
D03*
X794766D02*
D03*
X610870Y673100D02*
D03*
X580898D02*
D03*
X632206Y717550D02*
D03*
X602234D02*
D03*
X898144Y645160D02*
D03*
X928116D02*
D03*
X926846Y744220D02*
D03*
X896874D02*
D03*
X926846Y692150D02*
D03*
X896874D02*
D03*
X757174Y571500D02*
D03*
X787146D02*
D03*
D31*
X106070Y788670D02*
D03*
X79350D02*
D03*
X107340Y756920D02*
D03*
X80620D02*
D03*
X536600Y637540D02*
D03*
X509880D02*
D03*
X535330Y673100D02*
D03*
X508610D02*
D03*
X785520Y617220D02*
D03*
X758800D02*
D03*
X785520Y650240D02*
D03*
X758800D02*
D03*
D32*
X42620Y609600D02*
D03*
X112320D02*
D03*
D33*
X755650Y393140D02*
D03*
Y462840D02*
D03*
X426720Y389330D02*
D03*
Y459030D02*
D03*
D34*
X468630Y265430D02*
D03*
Y290830D02*
D03*
X628650Y118110D02*
D03*
X654050D02*
D03*
X739140Y958850D02*
D03*
X764540D02*
D03*
Y227330D02*
D03*
X789940D02*
D03*
X664210Y797560D02*
D03*
Y772160D02*
D03*
X243840Y398780D02*
D03*
Y424180D02*
D03*
X861060Y276860D02*
D03*
Y302260D02*
D03*
X278130Y876300D02*
D03*
X252730D02*
D03*
X400050Y806450D02*
D03*
Y781050D02*
D03*
X116840Y472440D02*
D03*
Y447040D02*
D03*
X862330Y90170D02*
D03*
X836930D02*
D03*
X501650Y123190D02*
D03*
Y148590D02*
D03*
X351790Y133350D02*
D03*
Y158750D02*
D03*
X222250Y130810D02*
D03*
Y156210D02*
D03*
D35*
X947420Y312140D02*
D03*
Y277140D02*
D03*
X386080Y41910D02*
D03*
X351080D02*
D03*
X530580Y43180D02*
D03*
X495580D02*
D03*
X659130Y44450D02*
D03*
X624130D02*
D03*
X256260Y41910D02*
D03*
X221260D02*
D03*
X645440Y949960D02*
D03*
X680440D02*
D03*
X43180Y447320D02*
D03*
Y482320D02*
D03*
X947420Y125170D02*
D03*
Y90170D02*
D03*
D36*
X958850Y932180D02*
D03*
D37*
Y849630D02*
D03*
D38*
X165100Y429260D02*
D03*
X532130Y311150D02*
D03*
X275590Y816610D02*
D03*
X17780Y648970D02*
D03*
X203200Y726440D02*
D03*
X168910Y933450D02*
D03*
X125730Y772160D02*
D03*
X532130Y756920D02*
D03*
X425450Y358140D02*
D03*
X581660Y600710D02*
D03*
X549910Y655320D02*
D03*
X655320Y717550D02*
D03*
X817880Y170180D02*
D03*
X806450Y632460D02*
D03*
X755650Y369570D02*
D03*
X877570Y643890D02*
D03*
X942340Y744220D02*
D03*
X782320Y736600D02*
D03*
M02*
