G04*
G04 #@! TF.GenerationSoftware,Altium Limited,Altium Designer,25.3.3 (18)*
G04*
G04 Layer_Color=128*
%FSLAX44Y44*%
%MOMM*%
G71*
G04*
G04 #@! TF.SameCoordinates,4EAFF8D4-B45D-4A5C-95F9-93AD59DE9582*
G04*
G04*
G04 #@! TF.FilePolarity,Positive*
G04*
G01*
G75*
%ADD15C,0.1270*%
D15*
X463530Y265430D02*
X473730D01*
X468630Y260330D02*
Y270530D01*
X463530Y290830D02*
X473730D01*
X468630Y285730D02*
Y295930D01*
X623550Y118110D02*
X633750D01*
X628650Y113010D02*
Y123210D01*
X648950Y118110D02*
X659150D01*
X654050Y113010D02*
Y123210D01*
X734040Y958850D02*
X744240D01*
X739140Y953750D02*
Y963950D01*
X759440Y958850D02*
X769640D01*
X764540Y953750D02*
Y963950D01*
X759440Y227330D02*
X769640D01*
X764540Y222230D02*
Y232430D01*
X784840Y227330D02*
X795040D01*
X789940Y222230D02*
Y232430D01*
X942420Y312140D02*
X952420D01*
X947420Y307140D02*
Y317140D01*
X942420Y277140D02*
X952420D01*
X947420Y272140D02*
Y282140D01*
X659110Y797560D02*
X669310D01*
X664210Y792460D02*
Y802660D01*
X659110Y772160D02*
X669310D01*
X664210Y767060D02*
Y777260D01*
X238740Y398780D02*
X248940D01*
X243840Y393680D02*
Y403880D01*
X238740Y424180D02*
X248940D01*
X243840Y419080D02*
Y429280D01*
X381080Y41910D02*
X391080D01*
X386080Y36910D02*
Y46910D01*
X346080Y41910D02*
X356080D01*
X351080Y36910D02*
Y46910D01*
X525580Y43180D02*
X535580D01*
X530580Y38180D02*
Y48180D01*
X490580Y43180D02*
X500580D01*
X495580Y38180D02*
Y48180D01*
X654130Y44450D02*
X664130D01*
X659130Y39450D02*
Y49450D01*
X619130Y44450D02*
X629130D01*
X624130Y39450D02*
Y49450D01*
X251260Y41910D02*
X261260D01*
X256260Y36910D02*
Y46910D01*
X216260Y41910D02*
X226260D01*
X221260Y36910D02*
Y46910D01*
X855960Y276860D02*
X866160D01*
X861060Y271760D02*
Y281960D01*
X855960Y302260D02*
X866160D01*
X861060Y297160D02*
Y307360D01*
X640440Y949960D02*
X650440D01*
X645440Y944960D02*
Y954960D01*
X675440Y949960D02*
X685440D01*
X680440Y944960D02*
Y954960D01*
X949706Y932180D02*
X967994D01*
X958850Y923036D02*
Y941324D01*
X949706Y849630D02*
X967994D01*
X958850Y840486D02*
Y858774D01*
X273030Y876300D02*
X283230D01*
X278130Y871200D02*
Y881400D01*
X247630Y876300D02*
X257830D01*
X252730Y871200D02*
Y881400D01*
X394950Y806450D02*
X405150D01*
X400050Y801350D02*
Y811550D01*
X394950Y781050D02*
X405150D01*
X400050Y775950D02*
Y786150D01*
X111740Y472440D02*
X121940D01*
X116840Y467340D02*
Y477540D01*
X111740Y447040D02*
X121940D01*
X116840Y441940D02*
Y452140D01*
X38180Y447320D02*
X48180D01*
X43180Y442320D02*
Y452320D01*
X38180Y482320D02*
X48180D01*
X43180Y477320D02*
Y487320D01*
X857230Y90170D02*
X867430D01*
X862330Y85070D02*
Y95270D01*
X831830Y90170D02*
X842030D01*
X836930Y85070D02*
Y95270D01*
X942420Y125170D02*
X952420D01*
X947420Y120170D02*
Y130170D01*
X942420Y90170D02*
X952420D01*
X947420Y85170D02*
Y95170D01*
X496550Y123190D02*
X506750D01*
X501650Y118090D02*
Y128290D01*
X496550Y148590D02*
X506750D01*
X501650Y143490D02*
Y153690D01*
X346690Y133350D02*
X356890D01*
X351790Y128250D02*
Y138450D01*
X346690Y158750D02*
X356890D01*
X351790Y153650D02*
Y163850D01*
X217150Y130810D02*
X227350D01*
X222250Y125710D02*
Y135910D01*
X217150Y156210D02*
X227350D01*
X222250Y151110D02*
Y161310D01*
X163449Y429260D02*
X166751D01*
X165100Y427609D02*
Y430911D01*
X530479Y311150D02*
X533781D01*
X532130Y309499D02*
Y312801D01*
X273939Y816610D02*
X277241D01*
X275590Y814959D02*
Y818261D01*
X16129Y648970D02*
X19431D01*
X17780Y647319D02*
Y650621D01*
X201549Y726440D02*
X204851D01*
X203200Y724789D02*
Y728091D01*
X167259Y933450D02*
X170561D01*
X168910Y931799D02*
Y935101D01*
X124079Y772160D02*
X127381D01*
X125730Y770509D02*
Y773811D01*
X530479Y756920D02*
X533781D01*
X532130Y755269D02*
Y758571D01*
X423799Y358140D02*
X427101D01*
X425450Y356489D02*
Y359791D01*
X580009Y600710D02*
X583311D01*
X581660Y599059D02*
Y602361D01*
X548259Y655320D02*
X551561D01*
X549910Y653669D02*
Y656971D01*
X653669Y717550D02*
X656971D01*
X655320Y715899D02*
Y719201D01*
X816229Y170180D02*
X819531D01*
X817880Y168529D02*
Y171831D01*
X804799Y632460D02*
X808101D01*
X806450Y630809D02*
Y634111D01*
X753999Y369570D02*
X757301D01*
X755650Y367919D02*
Y371221D01*
X875919Y643890D02*
X879221D01*
X877570Y642239D02*
Y645541D01*
X940689Y744220D02*
X943991D01*
X942340Y742569D02*
Y745871D01*
X780669Y736600D02*
X783971D01*
X782320Y734949D02*
Y738251D01*
M02*
