G04*
G04 #@! TF.GenerationSoftware,Altium Limited,Altium Designer,25.3.3 (18)*
G04*
G04 Layer_Color=2752767*
%FSLAX44Y44*%
%MOMM*%
G71*
G04*
G04 #@! TF.SameCoordinates,4EAFF8D4-B45D-4A5C-95F9-93AD59DE9582*
G04*
G04*
G04 #@! TF.FilePolarity,Positive*
G04*
G01*
G75*
%ADD15C,0.1270*%
%ADD44C,0.1693*%
D15*
X947420Y307060D02*
X942340Y317220D01*
X952500D01*
X947420Y307060D01*
Y272060D02*
X942340Y282220D01*
X952500D01*
X947420Y272060D01*
X386080Y36830D02*
X381000Y46990D01*
X391160D01*
X386080Y36830D01*
X351080D02*
X346000Y46990D01*
X356160D01*
X351080Y36830D01*
X530580Y38100D02*
X525500Y48260D01*
X535660D01*
X530580Y38100D01*
X495580D02*
X490500Y48260D01*
X500660D01*
X495580Y38100D01*
X659130Y39370D02*
X654050Y49530D01*
X664210D01*
X659130Y39370D01*
X624130D02*
X619050Y49530D01*
X629210D01*
X624130Y39370D01*
X256260Y36830D02*
X251180Y46990D01*
X261340D01*
X256260Y36830D01*
X221260D02*
X216180Y46990D01*
X226340D01*
X221260Y36830D01*
X645440Y944880D02*
X640360Y955040D01*
X650520D01*
X645440Y944880D01*
X680440D02*
X675360Y955040D01*
X685520D01*
X680440Y944880D01*
X953770Y927100D02*
Y937260D01*
X963930D01*
Y927100D01*
X953770D01*
Y844550D02*
Y854710D01*
X963930D01*
Y844550D01*
X953770D01*
X43180Y442240D02*
X38100Y452400D01*
X48260D01*
X43180Y442240D01*
Y477240D02*
X38100Y487400D01*
X48260D01*
X43180Y477240D01*
X947420Y120090D02*
X942340Y130250D01*
X952500D01*
X947420Y120090D01*
Y85090D02*
X942340Y95250D01*
X952500D01*
X947420Y85090D01*
X165100Y424180D02*
X167640Y426720D01*
X170180D01*
X167640Y429260D01*
X170180Y431800D01*
X167640D01*
X165100Y434340D01*
X162560Y431800D01*
X160020D01*
X162560Y429260D01*
X160020Y426720D01*
X162560D01*
X165100Y424180D01*
X532130Y306070D02*
X534670Y308610D01*
X537210D01*
X534670Y311150D01*
X537210Y313690D01*
X534670D01*
X532130Y316230D01*
X529590Y313690D01*
X527050D01*
X529590Y311150D01*
X527050Y308610D01*
X529590D01*
X532130Y306070D01*
X275590Y811530D02*
X278130Y814070D01*
X280670D01*
X278130Y816610D01*
X280670Y819150D01*
X278130D01*
X275590Y821690D01*
X273050Y819150D01*
X270510D01*
X273050Y816610D01*
X270510Y814070D01*
X273050D01*
X275590Y811530D01*
X17780Y643890D02*
X20320Y646430D01*
X22860D01*
X20320Y648970D01*
X22860Y651510D01*
X20320D01*
X17780Y654050D01*
X15240Y651510D01*
X12700D01*
X15240Y648970D01*
X12700Y646430D01*
X15240D01*
X17780Y643890D01*
X203200Y721360D02*
X205740Y723900D01*
X208280D01*
X205740Y726440D01*
X208280Y728980D01*
X205740D01*
X203200Y731520D01*
X200660Y728980D01*
X198120D01*
X200660Y726440D01*
X198120Y723900D01*
X200660D01*
X203200Y721360D01*
X168910Y928370D02*
X171450Y930910D01*
X173990D01*
X171450Y933450D01*
X173990Y935990D01*
X171450D01*
X168910Y938530D01*
X166370Y935990D01*
X163830D01*
X166370Y933450D01*
X163830Y930910D01*
X166370D01*
X168910Y928370D01*
X125730Y767080D02*
X128270Y769620D01*
X130810D01*
X128270Y772160D01*
X130810Y774700D01*
X128270D01*
X125730Y777240D01*
X123190Y774700D01*
X120650D01*
X123190Y772160D01*
X120650Y769620D01*
X123190D01*
X125730Y767080D01*
X532130Y751840D02*
X534670Y754380D01*
X537210D01*
X534670Y756920D01*
X537210Y759460D01*
X534670D01*
X532130Y762000D01*
X529590Y759460D01*
X527050D01*
X529590Y756920D01*
X527050Y754380D01*
X529590D01*
X532130Y751840D01*
X425450Y353060D02*
X427990Y355600D01*
X430530D01*
X427990Y358140D01*
X430530Y360680D01*
X427990D01*
X425450Y363220D01*
X422910Y360680D01*
X420370D01*
X422910Y358140D01*
X420370Y355600D01*
X422910D01*
X425450Y353060D01*
X581660Y595630D02*
X584200Y598170D01*
X586740D01*
X584200Y600710D01*
X586740Y603250D01*
X584200D01*
X581660Y605790D01*
X579120Y603250D01*
X576580D01*
X579120Y600710D01*
X576580Y598170D01*
X579120D01*
X581660Y595630D01*
X549910Y650240D02*
X552450Y652780D01*
X554990D01*
X552450Y655320D01*
X554990Y657860D01*
X552450D01*
X549910Y660400D01*
X547370Y657860D01*
X544830D01*
X547370Y655320D01*
X544830Y652780D01*
X547370D01*
X549910Y650240D01*
X655320Y712470D02*
X657860Y715010D01*
X660400D01*
X657860Y717550D01*
X660400Y720090D01*
X657860D01*
X655320Y722630D01*
X652780Y720090D01*
X650240D01*
X652780Y717550D01*
X650240Y715010D01*
X652780D01*
X655320Y712470D01*
X817880Y165100D02*
X820420Y167640D01*
X822960D01*
X820420Y170180D01*
X822960Y172720D01*
X820420D01*
X817880Y175260D01*
X815340Y172720D01*
X812800D01*
X815340Y170180D01*
X812800Y167640D01*
X815340D01*
X817880Y165100D01*
X806450Y627380D02*
X808990Y629920D01*
X811530D01*
X808990Y632460D01*
X811530Y635000D01*
X808990D01*
X806450Y637540D01*
X803910Y635000D01*
X801370D01*
X803910Y632460D01*
X801370Y629920D01*
X803910D01*
X806450Y627380D01*
X755650Y364490D02*
X758190Y367030D01*
X760730D01*
X758190Y369570D01*
X760730Y372110D01*
X758190D01*
X755650Y374650D01*
X753110Y372110D01*
X750570D01*
X753110Y369570D01*
X750570Y367030D01*
X753110D01*
X755650Y364490D01*
X877570Y638810D02*
X880110Y641350D01*
X882650D01*
X880110Y643890D01*
X882650Y646430D01*
X880110D01*
X877570Y648970D01*
X875030Y646430D01*
X872490D01*
X875030Y643890D01*
X872490Y641350D01*
X875030D01*
X877570Y638810D01*
X942340Y739140D02*
X944880Y741680D01*
X947420D01*
X944880Y744220D01*
X947420Y746760D01*
X944880D01*
X942340Y749300D01*
X939800Y746760D01*
X937260D01*
X939800Y744220D01*
X937260Y741680D01*
X939800D01*
X942340Y739140D01*
X782320Y731520D02*
X784860Y734060D01*
X787400D01*
X784860Y736600D01*
X787400Y739140D01*
X784860D01*
X782320Y741680D01*
X779780Y739140D01*
X777240D01*
X779780Y736600D01*
X777240Y734060D01*
X779780D01*
X782320Y731520D01*
D44*
X473710Y265430D02*
G03*
X473710Y265430I-5080J0D01*
G01*
Y290830D02*
G03*
X473710Y290830I-5080J0D01*
G01*
X633730Y118110D02*
G03*
X633730Y118110I-5080J0D01*
G01*
X659130D02*
G03*
X659130Y118110I-5080J0D01*
G01*
X744220Y958850D02*
G03*
X744220Y958850I-5080J0D01*
G01*
X769620D02*
G03*
X769620Y958850I-5080J0D01*
G01*
Y227330D02*
G03*
X769620Y227330I-5080J0D01*
G01*
X795020D02*
G03*
X795020Y227330I-5080J0D01*
G01*
X669290Y797560D02*
G03*
X669290Y797560I-5080J0D01*
G01*
Y772160D02*
G03*
X669290Y772160I-5080J0D01*
G01*
X248920Y398780D02*
G03*
X248920Y398780I-5080J0D01*
G01*
Y424180D02*
G03*
X248920Y424180I-5080J0D01*
G01*
X866140Y276860D02*
G03*
X866140Y276860I-5080J0D01*
G01*
Y302260D02*
G03*
X866140Y302260I-5080J0D01*
G01*
X283210Y876300D02*
G03*
X283210Y876300I-5080J0D01*
G01*
X257810D02*
G03*
X257810Y876300I-5080J0D01*
G01*
X405130Y806450D02*
G03*
X405130Y806450I-5080J0D01*
G01*
Y781050D02*
G03*
X405130Y781050I-5080J0D01*
G01*
X121920Y472440D02*
G03*
X121920Y472440I-5080J0D01*
G01*
Y447040D02*
G03*
X121920Y447040I-5080J0D01*
G01*
X867410Y90170D02*
G03*
X867410Y90170I-5080J0D01*
G01*
X842010D02*
G03*
X842010Y90170I-5080J0D01*
G01*
X506730Y123190D02*
G03*
X506730Y123190I-5080J0D01*
G01*
Y148590D02*
G03*
X506730Y148590I-5080J0D01*
G01*
X356870Y133350D02*
G03*
X356870Y133350I-5080J0D01*
G01*
Y158750D02*
G03*
X356870Y158750I-5080J0D01*
G01*
X227330Y130810D02*
G03*
X227330Y130810I-5080J0D01*
G01*
Y156210D02*
G03*
X227330Y156210I-5080J0D01*
G01*
M02*
