G04*
G04 #@! TF.GenerationSoftware,Altium Limited,Altium Designer,26.4.1 (12)*
G04*
G04 Layer_Color=8421504*
%FSLAX44Y44*%
%MOMM*%
G71*
G04*
G04 #@! TF.SameCoordinates,DB855846-0AFC-48C9-95EB-AAB98D394E30*
G04*
G04*
G04 #@! TF.FilePolarity,Positive*
G04*
G01*
G75*
%ADD18R,3.8608X5.5118*%
%ADD19R,1.1176X1.8034*%
%ADD20R,2.1800X3.1200*%
%ADD21R,1.8034X1.1176*%
G04:AMPARAMS|DCode=22|XSize=0.95mm|YSize=3.5mm|CornerRadius=0.0522mm|HoleSize=0mm|Usage=FLASHONLY|Rotation=180.000|XOffset=0mm|YOffset=0mm|HoleType=Round|Shape=RoundedRectangle|*
%AMROUNDEDRECTD22*
21,1,0.9500,3.3955,0,0,180.0*
21,1,0.8455,3.5000,0,0,180.0*
1,1,0.1045,-0.4228,1.6978*
1,1,0.1045,0.4228,1.6978*
1,1,0.1045,0.4228,-1.6978*
1,1,0.1045,-0.4228,-1.6978*
%
%ADD22ROUNDEDRECTD22*%
%ADD23R,1.4400X1.8200*%
G04:AMPARAMS|DCode=24|XSize=10.5mm|YSize=8.8mm|CornerRadius=0.044mm|HoleSize=0mm|Usage=FLASHONLY|Rotation=180.000|XOffset=0mm|YOffset=0mm|HoleType=Round|Shape=RoundedRectangle|*
%AMROUNDEDRECTD24*
21,1,10.5000,8.7120,0,0,180.0*
21,1,10.4120,8.8000,0,0,180.0*
1,1,0.0880,-5.2060,4.3560*
1,1,0.0880,5.2060,4.3560*
1,1,0.0880,5.2060,-4.3560*
1,1,0.0880,-5.2060,-4.3560*
%
%ADD24ROUNDEDRECTD24*%
%ADD25R,3.1200X2.1800*%
D18*
X1139444Y474980D02*
D03*
X630936Y420370D02*
D03*
X730504D02*
D03*
X237236Y557530D02*
D03*
X336804D02*
D03*
X1039876Y474980D02*
D03*
D19*
X1117346Y704850D02*
D03*
X1118616Y657860D02*
D03*
X977646Y307340D02*
D03*
X265684Y720090D02*
D03*
X294386Y810260D02*
D03*
X795274Y133350D02*
D03*
X668274Y593090D02*
D03*
X977646Y190500D02*
D03*
X718566Y684530D02*
D03*
X1088644Y657860D02*
D03*
X1117346Y756920D02*
D03*
X947674Y307340D02*
D03*
Y190500D02*
D03*
X150876Y712470D02*
D03*
X120904D02*
D03*
X795274Y246380D02*
D03*
X825246D02*
D03*
Y133350D02*
D03*
X264414Y810260D02*
D03*
X583184Y532130D02*
D03*
X613156D02*
D03*
X698246Y593090D02*
D03*
X295656Y720090D02*
D03*
X294386Y770890D02*
D03*
X264414D02*
D03*
X697230Y640080D02*
D03*
X667258D02*
D03*
X688594Y684530D02*
D03*
X1087374Y756920D02*
D03*
Y704850D02*
D03*
X947674Y584200D02*
D03*
X977646D02*
D03*
D20*
X483310Y414020D02*
D03*
X85800Y601980D02*
D03*
X553010Y414020D02*
D03*
X155500Y601980D02*
D03*
D21*
X234950Y421386D02*
D03*
X929640Y932434D02*
D03*
Y962406D02*
D03*
X345440Y392430D02*
D03*
Y422402D02*
D03*
X234950Y391414D02*
D03*
D22*
X618490Y685360D02*
D03*
X146050Y825060D02*
D03*
X972820Y704410D02*
D03*
X184150Y825060D02*
D03*
X171450D02*
D03*
X158750D02*
D03*
X133350D02*
D03*
X120650D02*
D03*
X107950D02*
D03*
X656590Y685360D02*
D03*
X643890D02*
D03*
X631190D02*
D03*
X605790D02*
D03*
X593090D02*
D03*
X580390D02*
D03*
X1010920Y704410D02*
D03*
X998220D02*
D03*
X985520D02*
D03*
X960120D02*
D03*
X947420D02*
D03*
X934720D02*
D03*
D23*
X621690Y640080D02*
D03*
X622960Y604520D02*
D03*
X150520Y749300D02*
D03*
X149250Y781050D02*
D03*
X976020Y629920D02*
D03*
Y662940D02*
D03*
X122530Y781050D02*
D03*
X123800Y749300D02*
D03*
X596240Y604520D02*
D03*
X594970Y640080D02*
D03*
X949300Y629920D02*
D03*
Y662940D02*
D03*
D24*
X146050Y924560D02*
D03*
X618490Y784860D02*
D03*
X972820Y803910D02*
D03*
D25*
X946150Y405840D02*
D03*
Y475540D02*
D03*
M02*
