G04*
G04 #@! TF.GenerationSoftware,Altium Limited,Altium Designer,26.4.1 (12)*
G04*
G04 Layer_Physical_Order=1*
G04 Layer_Color=255*
%FSLAX44Y44*%
%MOMM*%
G71*
G04*
G04 #@! TF.SameCoordinates,DB855846-0AFC-48C9-95EB-AAB98D394E30*
G04*
G04*
G04 #@! TF.FilePolarity,Positive*
G04*
G01*
G75*
%ADD11C,0.5080*%
%ADD14C,0.2540*%
%ADD15C,0.1524*%
%ADD18R,3.8608X5.5118*%
%ADD19R,1.1176X1.8034*%
%ADD20R,2.1800X3.1200*%
%ADD21R,1.8034X1.1176*%
G04:AMPARAMS|DCode=22|XSize=0.95mm|YSize=3.5mm|CornerRadius=0.0522mm|HoleSize=0mm|Usage=FLASHONLY|Rotation=180.000|XOffset=0mm|YOffset=0mm|HoleType=Round|Shape=RoundedRectangle|*
%AMROUNDEDRECTD22*
21,1,0.9500,3.3955,0,0,180.0*
21,1,0.8455,3.5000,0,0,180.0*
1,1,0.1045,-0.4228,1.6978*
1,1,0.1045,0.4228,1.6978*
1,1,0.1045,0.4228,-1.6978*
1,1,0.1045,-0.4228,-1.6978*
%
%ADD22ROUNDEDRECTD22*%
%ADD23R,1.4400X1.8200*%
G04:AMPARAMS|DCode=24|XSize=10.5mm|YSize=8.8mm|CornerRadius=0.044mm|HoleSize=0mm|Usage=FLASHONLY|Rotation=180.000|XOffset=0mm|YOffset=0mm|HoleType=Round|Shape=RoundedRectangle|*
%AMROUNDEDRECTD24*
21,1,10.5000,8.7120,0,0,180.0*
21,1,10.4120,8.8000,0,0,180.0*
1,1,0.0880,-5.2060,4.3560*
1,1,0.0880,5.2060,4.3560*
1,1,0.0880,5.2060,-4.3560*
1,1,0.0880,-5.2060,-4.3560*
%
%ADD24ROUNDEDRECTD24*%
%ADD25R,3.1200X2.1800*%
%ADD39C,1.6200*%
%ADD40C,2.0000*%
%ADD41C,2.7432*%
%ADD42R,2.7432X2.7432*%
%ADD43C,0.6350*%
D11*
X429400Y45860D02*
Y121920D01*
X280315Y47345D02*
Y138430D01*
X947420Y247650D02*
Y307340D01*
Y190500D02*
Y247650D01*
X754452Y421568D02*
X795274Y380746D01*
X731702Y421568D02*
X754452D01*
X730504Y420370D02*
X731702Y421568D01*
X795274Y246380D02*
Y380746D01*
X322072Y493450D02*
Y540512D01*
X336804Y553720D02*
Y557530D01*
X322072Y540512D02*
X335280Y553720D01*
X336804Y440436D02*
Y553720D01*
X298522Y469900D02*
X322072Y493450D01*
X824230Y189230D02*
X825246Y190246D01*
Y246380D01*
X619760Y46000D02*
Y121920D01*
X135890Y47980D02*
Y135890D01*
X134900Y46990D02*
X135890Y47980D01*
X825246Y133350D02*
Y185205D01*
X824230Y186221D02*
X825246Y185205D01*
X1178560Y89460D02*
X1193640Y104540D01*
Y160440D01*
X1178560Y175520D02*
X1193640Y160440D01*
X1178560Y175520D02*
Y231420D01*
X1139444Y341376D02*
Y474980D01*
X1178205Y89815D02*
X1178560Y89460D01*
X1053185Y89815D02*
X1178205D01*
X1052830Y90170D02*
X1053185Y89815D01*
X1033780Y307340D02*
X1137920Y411480D01*
X977646Y307340D02*
X1033780D01*
X1198880Y251740D02*
Y281940D01*
X1139444Y341376D02*
X1198880Y281940D01*
X1139444Y474980D02*
Y633603D01*
X1178560Y231420D02*
X1198880Y251740D01*
X1176300Y233680D02*
X1178560Y231420D01*
X1066800Y233680D02*
X1176300D01*
X1118616Y654431D02*
X1139444Y633603D01*
X1117981Y658495D02*
X1118616Y657860D01*
X1117981Y658495D02*
Y704215D01*
X1118616Y654431D02*
Y657860D01*
X1117346Y704850D02*
X1117981Y704215D01*
X1039316Y475540D02*
X1039876Y474980D01*
X946150Y475540D02*
X1039316D01*
X946150D02*
X947674Y477064D01*
Y584200D01*
X915230Y704410D02*
X934720D01*
X909320Y698500D02*
X915230Y704410D01*
X909320Y609600D02*
Y698500D01*
Y609600D02*
X934720Y584200D01*
X947674D01*
X624586Y414020D02*
X630936Y420370D01*
X553010Y414020D02*
X624586D01*
X581660Y492760D02*
Y530606D01*
X583184Y532130D01*
X553010Y414020D02*
Y464110D01*
X581660Y492760D01*
X556260Y559054D02*
X583184Y532130D01*
X134900Y46990D02*
X149980Y31910D01*
X212248D01*
X227328Y46990D01*
X279960D01*
X295040Y31910D01*
X360203D01*
X374013Y45720D01*
X429540D01*
X444620Y60800D01*
X529608D01*
X544688Y45720D01*
X620040D01*
X619760Y121920D02*
X696240D01*
X729811Y155491D02*
Y413394D01*
X730504D02*
Y420370D01*
X696240Y121920D02*
X729811Y155491D01*
Y421063D02*
X730504Y420370D01*
X729811Y421063D02*
Y558096D01*
X698246Y589661D02*
X729811Y558096D01*
X698246Y589661D02*
Y593090D01*
X697738Y593598D02*
X698246Y593090D01*
X697738Y593598D02*
Y639572D01*
X697230Y640080D02*
X697738Y639572D01*
X556260Y559054D02*
Y670560D01*
X570996Y685296D01*
X580326D02*
X580390Y685360D01*
X570996Y685296D02*
X580326D01*
X171044Y598576D02*
X212090Y557530D01*
X155500Y601980D02*
X158904Y598576D01*
X171044D01*
X212090Y557530D02*
X237236D01*
X155500Y604330D02*
Y606680D01*
X107950Y822126D02*
Y825060D01*
X91440Y812800D02*
X98556Y819916D01*
X105740D02*
X107950Y822126D01*
X91440Y745363D02*
Y812800D01*
X98556Y819916D02*
X105740D01*
X234950Y391414D02*
X235077Y391287D01*
X286893D01*
X287020Y391160D01*
X287655Y391795D01*
X344805D01*
X345440Y392430D01*
X45720Y479780D02*
X49757D01*
X59637Y469900D01*
X119380D01*
X298522D01*
X345440Y422402D02*
Y431800D01*
X336804Y440436D02*
X345440Y431800D01*
X336804Y557530D02*
Y675513D01*
X295656Y716661D02*
X336804Y675513D01*
X295656Y716661D02*
Y720090D01*
X295021Y720725D02*
X295656Y720090D01*
X295021Y720725D02*
Y770255D01*
X294386Y770890D02*
X295021Y770255D01*
X120904Y641276D02*
X155500Y606680D01*
X120904Y641276D02*
Y712470D01*
Y715899D01*
X91440Y745363D02*
X120904Y715899D01*
X543280Y972820D02*
X558360Y987900D01*
X642500D01*
X657580Y972820D01*
X656450Y971690D02*
X657580Y972820D01*
X538480Y904240D02*
Y907249D01*
X543280Y912049D01*
Y972820D01*
X655320Y904240D02*
X656450Y905370D01*
Y971690D01*
X657580Y972820D02*
X670120Y985360D01*
X828200D01*
X843280Y970280D01*
Y906780D02*
Y970280D01*
X847317D01*
X855191Y962406D01*
X929640D01*
X1115060Y868680D02*
X1183640Y937260D01*
Y962660D01*
X929640Y962406D02*
X930783Y961263D01*
X997077D01*
X998220Y960120D01*
X1023620D02*
X1181100D01*
X1183640Y962660D01*
X363220Y868680D02*
X477520D01*
X886460Y731520D02*
X941070D01*
X830580Y787400D02*
X886460Y731520D01*
X830580Y812800D02*
Y868680D01*
X1115060D01*
X147842D02*
X337820D01*
X122530Y781050D02*
X123165Y780415D01*
X121590Y781990D02*
X122530Y781050D01*
X477520Y741296D02*
X483036Y735780D01*
X477520Y741296D02*
Y782320D01*
Y807720D02*
Y868680D01*
X830580D01*
X941070Y731520D02*
X945210Y727380D01*
Y706620D02*
Y727380D01*
X483036Y735780D02*
X565970D01*
X120650Y825060D02*
X122860Y827270D01*
Y843698D01*
X147842Y868680D01*
X123165Y749935D02*
Y780415D01*
Y749935D02*
X123800Y749300D01*
X120650Y825060D02*
X121590Y824120D01*
Y781990D02*
Y824120D01*
X565970Y735780D02*
X592990Y708760D01*
Y685460D02*
Y708760D01*
X593155Y685295D02*
X594970Y683480D01*
Y640080D02*
Y683480D01*
X595605Y605155D02*
X596240Y604520D01*
X595605Y605155D02*
Y639445D01*
X594970Y640080D02*
X595605Y639445D01*
X947420Y704410D02*
X948903Y702927D01*
X945210Y706620D02*
X947420Y704410D01*
X948903Y663337D02*
X949300Y662940D01*
X948903Y663337D02*
Y702927D01*
X949300Y629920D02*
Y662940D01*
D14*
X150876Y712470D02*
Y715899D01*
X998220Y704410D02*
X1000650Y706840D01*
X960120Y704410D02*
X961332Y703198D01*
D15*
X50800Y601980D02*
X85800D01*
X946150Y382270D02*
Y405840D01*
X208280Y421640D02*
X234696D01*
X234950Y421386D01*
X452120Y415290D02*
X482040D01*
X483310Y414020D01*
X621690Y638180D02*
X636270Y623600D01*
X618490Y685360D02*
Y723900D01*
X621690Y638180D02*
Y640080D01*
X150520Y749300D02*
Y751200D01*
X156958Y757638D01*
X162008D01*
X168910Y764540D01*
X160738Y772712D02*
X168910Y764540D01*
X146050Y784250D02*
Y825060D01*
Y924560D02*
X147320Y925830D01*
X149250Y779150D02*
X155688Y772712D01*
X160738D01*
X146050Y784250D02*
X149250Y781050D01*
Y779150D02*
Y781050D01*
X246380Y718820D02*
X264414D01*
X265684Y720090D01*
X618490Y723900D02*
Y784860D01*
X294386Y810260D02*
X295656Y808990D01*
X318770D01*
X147320Y925830D02*
X212090D01*
X668020Y567690D02*
Y592836D01*
X778510Y133350D02*
X795274D01*
X622960Y604520D02*
Y606420D01*
X635347Y618807D01*
Y621377D02*
X636270Y622300D01*
X668020Y592836D02*
X668274Y593090D01*
X635347Y618807D02*
Y621377D01*
X636270Y622300D02*
Y623600D01*
X977646Y190500D02*
X1000760D01*
X976020Y629920D02*
Y631820D01*
X982458Y638258D01*
X990048D01*
X718566Y684530D02*
X741680D01*
X972820Y704410D02*
Y749300D01*
X976020Y661040D02*
Y662940D01*
X972820Y749300D02*
Y803910D01*
X929640Y932434D02*
X929803Y932271D01*
X959957Y932017D02*
X960120Y932180D01*
X929803Y932271D02*
X959957D01*
X987508Y654602D02*
X996950Y645160D01*
X990048Y638258D02*
X996950Y645160D01*
X976020Y661040D02*
X982458Y654602D01*
X987508D01*
X1068070Y656590D02*
X1087374D01*
X1088644Y657860D01*
X1117346Y756920D02*
X1132840D01*
X174981Y828592D02*
Y843657D01*
X177186Y845862D01*
X241258D01*
X171450Y825060D02*
X174981Y828592D01*
X175438Y783412D02*
X187960Y770890D01*
X264414D01*
X241258Y845862D02*
X264414Y822706D01*
Y810260D02*
Y822706D01*
X171450Y825060D02*
X175438Y821072D01*
Y783412D02*
Y821072D01*
X138240Y728535D02*
X150876Y715899D01*
X138240Y728535D02*
Y787028D01*
X133350Y791918D02*
X138240Y787028D01*
X133350Y791918D02*
Y825060D01*
X613156Y532130D02*
Y593354D01*
X612458Y594052D02*
X613156Y593354D01*
X612458Y594052D02*
Y609272D01*
X605790Y615940D02*
X612458Y609272D01*
X605790Y615940D02*
Y685360D01*
X645353Y640080D02*
X667258D01*
X643865Y641568D02*
X645353Y640080D01*
X643865Y641568D02*
Y685335D01*
X643890Y685360D02*
Y709033D01*
X645378Y710521D02*
X686479D01*
X688594Y684530D02*
Y708406D01*
X686479Y710521D02*
X688594Y708406D01*
X643890Y709033D02*
X645378Y710521D01*
X1023620Y609600D02*
Y657860D01*
X998220Y584200D02*
X1023620Y609600D01*
X1001522Y679958D02*
X1023620Y657860D01*
X1087374Y704850D02*
Y756920D01*
X1002523Y725212D02*
X1032468D01*
X1052830Y704850D02*
X1087374D01*
X1032468Y725212D02*
X1052830Y704850D01*
X1000650Y706840D02*
Y723339D01*
X1002523Y725212D01*
X977646Y584200D02*
X998220D01*
X965962Y679958D02*
X1001522D01*
X961332Y684588D02*
Y703198D01*
Y684588D02*
X965962Y679958D01*
D18*
X1139444Y474980D02*
D03*
X630936Y420370D02*
D03*
X730504D02*
D03*
X237236Y557530D02*
D03*
X336804D02*
D03*
X1039876Y474980D02*
D03*
D19*
X1117346Y704850D02*
D03*
X1118616Y657860D02*
D03*
X977646Y307340D02*
D03*
X265684Y720090D02*
D03*
X294386Y810260D02*
D03*
X795274Y133350D02*
D03*
X668274Y593090D02*
D03*
X977646Y190500D02*
D03*
X718566Y684530D02*
D03*
X1088644Y657860D02*
D03*
X1117346Y756920D02*
D03*
X947674Y307340D02*
D03*
Y190500D02*
D03*
X150876Y712470D02*
D03*
X120904D02*
D03*
X795274Y246380D02*
D03*
X825246D02*
D03*
Y133350D02*
D03*
X264414Y810260D02*
D03*
X583184Y532130D02*
D03*
X613156D02*
D03*
X698246Y593090D02*
D03*
X295656Y720090D02*
D03*
X294386Y770890D02*
D03*
X264414D02*
D03*
X697230Y640080D02*
D03*
X667258D02*
D03*
X688594Y684530D02*
D03*
X1087374Y756920D02*
D03*
Y704850D02*
D03*
X947674Y584200D02*
D03*
X977646D02*
D03*
D20*
X483310Y414020D02*
D03*
X85800Y601980D02*
D03*
X553010Y414020D02*
D03*
X155500Y601980D02*
D03*
D21*
X234950Y421386D02*
D03*
X929640Y932434D02*
D03*
Y962406D02*
D03*
X345440Y392430D02*
D03*
Y422402D02*
D03*
X234950Y391414D02*
D03*
D22*
X618490Y685360D02*
D03*
X146050Y825060D02*
D03*
X972820Y704410D02*
D03*
X184150Y825060D02*
D03*
X171450D02*
D03*
X158750D02*
D03*
X133350D02*
D03*
X120650D02*
D03*
X107950D02*
D03*
X656590Y685360D02*
D03*
X643890D02*
D03*
X631190D02*
D03*
X605790D02*
D03*
X593090D02*
D03*
X580390D02*
D03*
X1010920Y704410D02*
D03*
X998220D02*
D03*
X985520D02*
D03*
X960120D02*
D03*
X947420D02*
D03*
X934720D02*
D03*
D23*
X621690Y640080D02*
D03*
X622960Y604520D02*
D03*
X150520Y749300D02*
D03*
X149250Y781050D02*
D03*
X976020Y629920D02*
D03*
Y662940D02*
D03*
X122530Y781050D02*
D03*
X123800Y749300D02*
D03*
X596240Y604520D02*
D03*
X594970Y640080D02*
D03*
X949300Y629920D02*
D03*
Y662940D02*
D03*
D24*
X146050Y924560D02*
D03*
X618490Y784860D02*
D03*
X972820Y803910D02*
D03*
D25*
X946150Y405840D02*
D03*
Y475540D02*
D03*
D39*
X1052830Y90170D02*
D03*
X1027430D02*
D03*
X1066800Y233680D02*
D03*
X513080Y904240D02*
D03*
X135890Y161290D02*
D03*
X280670Y163830D02*
D03*
X119380Y444500D02*
D03*
X429260Y147320D02*
D03*
X619760D02*
D03*
X287020Y416560D02*
D03*
X629920Y904240D02*
D03*
X798830Y189230D02*
D03*
X972820Y247650D02*
D03*
X1066800Y259080D02*
D03*
X817880Y906780D02*
D03*
X947420Y247650D02*
D03*
X538480Y904240D02*
D03*
X655320D02*
D03*
X998220Y960120D02*
D03*
X843280Y906780D02*
D03*
X477520Y782320D02*
D03*
Y807720D02*
D03*
X1023620Y960120D02*
D03*
X824230Y189230D02*
D03*
X619760Y121920D02*
D03*
X830580Y812800D02*
D03*
Y787400D02*
D03*
X287020Y391160D02*
D03*
X363220Y866140D02*
D03*
X337820D02*
D03*
X119380Y469900D02*
D03*
X429260Y121920D02*
D03*
X280670Y138430D02*
D03*
X135890Y135890D02*
D03*
D40*
X1178560Y231420D02*
D03*
Y89460D02*
D03*
Y124460D02*
D03*
X508280Y972820D02*
D03*
X169900Y46990D02*
D03*
X45720Y444780D02*
D03*
X464540Y45720D02*
D03*
X314960Y46990D02*
D03*
X622580Y972820D02*
D03*
X655040Y45720D02*
D03*
X808280Y970280D02*
D03*
X1178560Y266420D02*
D03*
X657580Y972820D02*
D03*
X543280D02*
D03*
X843280Y970280D02*
D03*
X279960Y46990D02*
D03*
X429540Y45720D02*
D03*
X620040D02*
D03*
X134900Y46990D02*
D03*
X45720Y479780D02*
D03*
D41*
X1183640Y880110D02*
D03*
D42*
Y962660D02*
D03*
D43*
X50800Y601980D02*
D03*
X946150Y382270D02*
D03*
X208280Y421640D02*
D03*
X452120Y415290D02*
D03*
X168910Y764540D02*
D03*
X246380Y718820D02*
D03*
X618490Y723900D02*
D03*
X212090Y925830D02*
D03*
X318770Y808990D02*
D03*
X668020Y567690D02*
D03*
X778510Y133350D02*
D03*
X636270Y622300D02*
D03*
X1000760Y190500D02*
D03*
X741680Y684530D02*
D03*
X972820Y749300D02*
D03*
X960120Y932180D02*
D03*
X996950Y645160D02*
D03*
X1068070Y656590D02*
D03*
X1132840Y756920D02*
D03*
M02*
