G04*
G04 #@! TF.GenerationSoftware,Altium Limited,Altium Designer,26.4.1 (12)*
G04*
G04 Layer_Color=2752767*
%FSLAX44Y44*%
%MOMM*%
G71*
G04*
G04 #@! TF.SameCoordinates,DB855846-0AFC-48C9-95EB-AAB98D394E30*
G04*
G04*
G04 #@! TF.FilePolarity,Positive*
G04*
G01*
G75*
%ADD16C,0.1270*%
%ADD44C,0.1693*%
D16*
X1178560Y226340D02*
X1173480Y236500D01*
X1183640D01*
X1178560Y226340D01*
Y84380D02*
X1173480Y94540D01*
X1183640D01*
X1178560Y84380D01*
Y119380D02*
X1173480Y129540D01*
X1183640D01*
X1178560Y119380D01*
X508280Y967740D02*
X503200Y977900D01*
X513360D01*
X508280Y967740D01*
X169900Y41910D02*
X164820Y52070D01*
X174980D01*
X169900Y41910D01*
X45720Y439700D02*
X40640Y449860D01*
X50800D01*
X45720Y439700D01*
X464540Y40640D02*
X459460Y50800D01*
X469620D01*
X464540Y40640D01*
X314960Y41910D02*
X309880Y52070D01*
X320040D01*
X314960Y41910D01*
X622580Y967740D02*
X617500Y977900D01*
X627660D01*
X622580Y967740D01*
X655040Y40640D02*
X649960Y50800D01*
X660120D01*
X655040Y40640D01*
X808280Y965200D02*
X803200Y975360D01*
X813360D01*
X808280Y965200D01*
X1178560Y875030D02*
Y885190D01*
X1188720D01*
Y875030D01*
X1178560D01*
Y261340D02*
X1173480Y271500D01*
X1183640D01*
X1178560Y261340D01*
X657580Y967740D02*
X652500Y977900D01*
X662660D01*
X657580Y967740D01*
X543280D02*
X538200Y977900D01*
X548360D01*
X543280Y967740D01*
X843280Y965200D02*
X838200Y975360D01*
X848360D01*
X843280Y965200D01*
X1178560Y957580D02*
Y967740D01*
X1188720D01*
Y957580D01*
X1178560D01*
X279960Y41910D02*
X274880Y52070D01*
X285040D01*
X279960Y41910D01*
X429540Y40640D02*
X424460Y50800D01*
X434620D01*
X429540Y40640D01*
X620040D02*
X614960Y50800D01*
X625120D01*
X620040Y40640D01*
X134900Y41910D02*
X129820Y52070D01*
X139980D01*
X134900Y41910D01*
X45720Y474700D02*
X40640Y484860D01*
X50800D01*
X45720Y474700D01*
X50800Y596900D02*
X53340Y599440D01*
X55880D01*
X53340Y601980D01*
X55880Y604520D01*
X53340D01*
X50800Y607060D01*
X48260Y604520D01*
X45720D01*
X48260Y601980D01*
X45720Y599440D01*
X48260D01*
X50800Y596900D01*
X946150Y377190D02*
X948690Y379730D01*
X951230D01*
X948690Y382270D01*
X951230Y384810D01*
X948690D01*
X946150Y387350D01*
X943610Y384810D01*
X941070D01*
X943610Y382270D01*
X941070Y379730D01*
X943610D01*
X946150Y377190D01*
X208280Y416560D02*
X210820Y419100D01*
X213360D01*
X210820Y421640D01*
X213360Y424180D01*
X210820D01*
X208280Y426720D01*
X205740Y424180D01*
X203200D01*
X205740Y421640D01*
X203200Y419100D01*
X205740D01*
X208280Y416560D01*
X452120Y410210D02*
X454660Y412750D01*
X457200D01*
X454660Y415290D01*
X457200Y417830D01*
X454660D01*
X452120Y420370D01*
X449580Y417830D01*
X447040D01*
X449580Y415290D01*
X447040Y412750D01*
X449580D01*
X452120Y410210D01*
X168910Y759460D02*
X171450Y762000D01*
X173990D01*
X171450Y764540D01*
X173990Y767080D01*
X171450D01*
X168910Y769620D01*
X166370Y767080D01*
X163830D01*
X166370Y764540D01*
X163830Y762000D01*
X166370D01*
X168910Y759460D01*
X246380Y713740D02*
X248920Y716280D01*
X251460D01*
X248920Y718820D01*
X251460Y721360D01*
X248920D01*
X246380Y723900D01*
X243840Y721360D01*
X241300D01*
X243840Y718820D01*
X241300Y716280D01*
X243840D01*
X246380Y713740D01*
X618490Y718820D02*
X621030Y721360D01*
X623570D01*
X621030Y723900D01*
X623570Y726440D01*
X621030D01*
X618490Y728980D01*
X615950Y726440D01*
X613410D01*
X615950Y723900D01*
X613410Y721360D01*
X615950D01*
X618490Y718820D01*
X212090Y920750D02*
X214630Y923290D01*
X217170D01*
X214630Y925830D01*
X217170Y928370D01*
X214630D01*
X212090Y930910D01*
X209550Y928370D01*
X207010D01*
X209550Y925830D01*
X207010Y923290D01*
X209550D01*
X212090Y920750D01*
X318770Y803910D02*
X321310Y806450D01*
X323850D01*
X321310Y808990D01*
X323850Y811530D01*
X321310D01*
X318770Y814070D01*
X316230Y811530D01*
X313690D01*
X316230Y808990D01*
X313690Y806450D01*
X316230D01*
X318770Y803910D01*
X668020Y562610D02*
X670560Y565150D01*
X673100D01*
X670560Y567690D01*
X673100Y570230D01*
X670560D01*
X668020Y572770D01*
X665480Y570230D01*
X662940D01*
X665480Y567690D01*
X662940Y565150D01*
X665480D01*
X668020Y562610D01*
X778510Y128270D02*
X781050Y130810D01*
X783590D01*
X781050Y133350D01*
X783590Y135890D01*
X781050D01*
X778510Y138430D01*
X775970Y135890D01*
X773430D01*
X775970Y133350D01*
X773430Y130810D01*
X775970D01*
X778510Y128270D01*
X636270Y617220D02*
X638810Y619760D01*
X641350D01*
X638810Y622300D01*
X641350Y624840D01*
X638810D01*
X636270Y627380D01*
X633730Y624840D01*
X631190D01*
X633730Y622300D01*
X631190Y619760D01*
X633730D01*
X636270Y617220D01*
X1000760Y185420D02*
X1003300Y187960D01*
X1005840D01*
X1003300Y190500D01*
X1005840Y193040D01*
X1003300D01*
X1000760Y195580D01*
X998220Y193040D01*
X995680D01*
X998220Y190500D01*
X995680Y187960D01*
X998220D01*
X1000760Y185420D01*
X741680Y679450D02*
X744220Y681990D01*
X746760D01*
X744220Y684530D01*
X746760Y687070D01*
X744220D01*
X741680Y689610D01*
X739140Y687070D01*
X736600D01*
X739140Y684530D01*
X736600Y681990D01*
X739140D01*
X741680Y679450D01*
X972820Y744220D02*
X975360Y746760D01*
X977900D01*
X975360Y749300D01*
X977900Y751840D01*
X975360D01*
X972820Y754380D01*
X970280Y751840D01*
X967740D01*
X970280Y749300D01*
X967740Y746760D01*
X970280D01*
X972820Y744220D01*
X960120Y927100D02*
X962660Y929640D01*
X965200D01*
X962660Y932180D01*
X965200Y934720D01*
X962660D01*
X960120Y937260D01*
X957580Y934720D01*
X955040D01*
X957580Y932180D01*
X955040Y929640D01*
X957580D01*
X960120Y927100D01*
X996950Y640080D02*
X999490Y642620D01*
X1002030D01*
X999490Y645160D01*
X1002030Y647700D01*
X999490D01*
X996950Y650240D01*
X994410Y647700D01*
X991870D01*
X994410Y645160D01*
X991870Y642620D01*
X994410D01*
X996950Y640080D01*
X1068070Y651510D02*
X1070610Y654050D01*
X1073150D01*
X1070610Y656590D01*
X1073150Y659130D01*
X1070610D01*
X1068070Y661670D01*
X1065530Y659130D01*
X1062990D01*
X1065530Y656590D01*
X1062990Y654050D01*
X1065530D01*
X1068070Y651510D01*
X1132840Y751840D02*
X1135380Y754380D01*
X1137920D01*
X1135380Y756920D01*
X1137920Y759460D01*
X1135380D01*
X1132840Y762000D01*
X1130300Y759460D01*
X1127760D01*
X1130300Y756920D01*
X1127760Y754380D01*
X1130300D01*
X1132840Y751840D01*
D44*
X1057910Y90170D02*
G03*
X1057910Y90170I-5080J0D01*
G01*
X1032510D02*
G03*
X1032510Y90170I-5080J0D01*
G01*
X1071880Y233680D02*
G03*
X1071880Y233680I-5080J0D01*
G01*
X518160Y904240D02*
G03*
X518160Y904240I-5080J0D01*
G01*
X140970Y161290D02*
G03*
X140970Y161290I-5080J0D01*
G01*
X285750Y163830D02*
G03*
X285750Y163830I-5080J0D01*
G01*
X124460Y444500D02*
G03*
X124460Y444500I-5080J0D01*
G01*
X434340Y147320D02*
G03*
X434340Y147320I-5080J0D01*
G01*
X624840D02*
G03*
X624840Y147320I-5080J0D01*
G01*
X292100Y416560D02*
G03*
X292100Y416560I-5080J0D01*
G01*
X635000Y904240D02*
G03*
X635000Y904240I-5080J0D01*
G01*
X803910Y189230D02*
G03*
X803910Y189230I-5080J0D01*
G01*
X977900Y247650D02*
G03*
X977900Y247650I-5080J0D01*
G01*
X1071880Y259080D02*
G03*
X1071880Y259080I-5080J0D01*
G01*
X822960Y906780D02*
G03*
X822960Y906780I-5080J0D01*
G01*
X952500Y247650D02*
G03*
X952500Y247650I-5080J0D01*
G01*
X543560Y904240D02*
G03*
X543560Y904240I-5080J0D01*
G01*
X660400D02*
G03*
X660400Y904240I-5080J0D01*
G01*
X1003300Y960120D02*
G03*
X1003300Y960120I-5080J0D01*
G01*
X848360Y906780D02*
G03*
X848360Y906780I-5080J0D01*
G01*
X482600Y782320D02*
G03*
X482600Y782320I-5080J0D01*
G01*
Y807720D02*
G03*
X482600Y807720I-5080J0D01*
G01*
X1028700Y960120D02*
G03*
X1028700Y960120I-5080J0D01*
G01*
X829310Y189230D02*
G03*
X829310Y189230I-5080J0D01*
G01*
X624840Y121920D02*
G03*
X624840Y121920I-5080J0D01*
G01*
X835660Y812800D02*
G03*
X835660Y812800I-5080J0D01*
G01*
Y787400D02*
G03*
X835660Y787400I-5080J0D01*
G01*
X292100Y391160D02*
G03*
X292100Y391160I-5080J0D01*
G01*
X368300Y866140D02*
G03*
X368300Y866140I-5080J0D01*
G01*
X342900D02*
G03*
X342900Y866140I-5080J0D01*
G01*
X124460Y469900D02*
G03*
X124460Y469900I-5080J0D01*
G01*
X434340Y121920D02*
G03*
X434340Y121920I-5080J0D01*
G01*
X285750Y138430D02*
G03*
X285750Y138430I-5080J0D01*
G01*
X140970Y135890D02*
G03*
X140970Y135890I-5080J0D01*
G01*
M02*
