G04*
G04 #@! TF.GenerationSoftware,Altium Limited,Altium Designer,25.3.3 (18)*
G04*
G04 Layer_Physical_Order=1*
G04 Layer_Color=255*
%FSLAX44Y44*%
%MOMM*%
G71*
G04*
G04 #@! TF.SameCoordinates,108E2B8E-3C58-48EF-89C0-CA54B0DA4996*
G04*
G04*
G04 #@! TF.FilePolarity,Positive*
G04*
G01*
G75*
%ADD11C,0.1524*%
%ADD18R,1.8034X1.1176*%
%ADD19R,1.7000X0.8382*%
%ADD20R,1.7000X3.0988*%
%ADD21R,1.4000X1.8000*%
%ADD22R,0.5080X1.6500*%
%ADD23R,1.6500X0.5080*%
%ADD24R,1.1176X1.8034*%
G04:AMPARAMS|DCode=25|XSize=1.35mm|YSize=0.58mm|CornerRadius=0.0725mm|HoleSize=0mm|Usage=FLASHONLY|Rotation=180.000|XOffset=0mm|YOffset=0mm|HoleType=Round|Shape=RoundedRectangle|*
%AMROUNDEDRECTD25*
21,1,1.3500,0.4350,0,0,180.0*
21,1,1.2050,0.5800,0,0,180.0*
1,1,0.1450,-0.6025,0.2175*
1,1,0.1450,0.6025,0.2175*
1,1,0.1450,0.6025,-0.2175*
1,1,0.1450,-0.6025,-0.2175*
%
%ADD25ROUNDEDRECTD25*%
%ADD26O,0.6096X2.2000*%
%ADD27R,1.2000X1.5000*%
%ADD28R,1.8542X1.3716*%
%ADD48C,0.1524*%
%ADD49C,0.5080*%
%ADD50O,1.8000X3.3000*%
%ADD51O,3.8000X2.0000*%
%ADD52O,1.2000X2.4000*%
%ADD53C,1.2000*%
%ADD54C,1.6500*%
%ADD55C,1.6200*%
%ADD56C,1.5240*%
%ADD57C,0.6350*%
D11*
X527037Y354317D02*
G03*
X524523Y351803I6363J-8877D01*
G01*
X533400Y365760D02*
G03*
X533400Y365753I1524J-25D01*
G01*
X533018Y391788D02*
G03*
X517131Y370938I5751J-20860D01*
G01*
X541851Y453959D02*
G03*
X540774Y455097I-8451J-6919D01*
G01*
X538520Y457160D02*
G03*
X527688Y459933I-9074J-12901D01*
G01*
X311150Y95504D02*
X312420Y96774D01*
X311150Y78740D02*
Y95504D01*
X403860Y104910D02*
Y152400D01*
X372420Y104910D02*
X403860D01*
X428998D01*
X393320Y162940D02*
X403860Y152400D01*
X428998Y104656D02*
X432663Y100991D01*
X312420Y248794D02*
Y266700D01*
X297942Y250318D02*
Y262382D01*
X313051Y276229D02*
X337693Y251587D01*
X281940Y288290D02*
X298315Y271915D01*
X337693Y248777D02*
Y251587D01*
X311789Y276229D02*
X313051D01*
X297942Y262382D02*
X311789Y276229D01*
X312166Y248540D02*
X312420Y248794D01*
X416578Y849020D02*
X421441Y853882D01*
X395390Y849020D02*
X416578D01*
X421441Y853882D02*
Y906461D01*
X358140Y924560D02*
X368300Y934720D01*
X416560D01*
X637540Y810260D02*
Y835914D01*
X454660Y835660D02*
X482854D01*
X426777Y923998D02*
X429442Y921333D01*
X426777Y923998D02*
Y924503D01*
X429442Y918499D02*
Y921333D01*
X416560Y934720D02*
X426777Y924503D01*
X404179Y906461D02*
X405441D01*
X397510Y913130D02*
X404179Y906461D01*
X397510Y913130D02*
Y927859D01*
X395739Y858171D02*
X411863D01*
X412212Y857822D01*
X395390Y858520D02*
X395739Y858171D01*
X421860Y751493D02*
X422783Y750570D01*
X407670Y776056D02*
X429260Y754466D01*
Y747760D02*
Y754466D01*
X426720Y745220D02*
X429260Y747760D01*
X394970Y774700D02*
X418177Y751493D01*
X421860D01*
X395390Y809500D02*
Y849020D01*
X385338Y862363D02*
X387697Y864722D01*
X385338Y806852D02*
Y862363D01*
X395390Y809500D02*
X407670Y797220D01*
X385338Y806852D02*
X394970Y797220D01*
X358140Y916940D02*
Y924560D01*
Y916940D02*
X400594Y874486D01*
X395390Y868020D02*
X397545D01*
X391540D02*
X395390D01*
X400594Y873224D02*
Y874486D01*
X399683Y872313D02*
X400594Y873224D01*
X399683Y870158D02*
Y872313D01*
X397545Y868020D02*
X399683Y870158D01*
X162560Y321310D02*
X172720Y331470D01*
Y497074D02*
X175260Y499614D01*
X172720Y331470D02*
Y497074D01*
X175260Y499614D02*
Y500380D01*
X219710Y329946D02*
X265291D01*
X282689Y312547D01*
X284623D02*
X288417Y308753D01*
Y306819D02*
Y308753D01*
X282689Y312547D02*
X284623D01*
X231410Y499110D02*
X292100D01*
X231283Y499237D02*
X231410Y499110D01*
X225790D02*
X225917Y499237D01*
X196850Y499110D02*
X225790D01*
X225917Y499237D02*
X231283D01*
X185420Y332740D02*
Y617220D01*
X171450Y318770D02*
X185420Y332740D01*
Y617220D02*
X240030Y671830D01*
X365760Y274360D02*
Y294640D01*
X327660Y332740D02*
X365760Y294640D01*
X417727Y377190D02*
X421537Y381000D01*
X421640D01*
X393446Y377190D02*
X417727D01*
X396020Y340360D02*
X421640D01*
X363474Y342646D02*
X365760Y340360D01*
X363474Y342646D02*
Y377190D01*
X50800Y177800D02*
X116096Y243096D01*
X243256D01*
X152672Y239032D02*
X249192D01*
X170180Y217170D02*
Y232555D01*
X170815Y253365D02*
X171450Y252730D01*
X152400Y251460D02*
Y294640D01*
X243256Y243096D02*
X260252Y260092D01*
X170815Y253365D02*
Y294005D01*
X170180Y294640D02*
X170815Y294005D01*
X485666Y201186D02*
X533400Y248920D01*
Y264160D01*
X334900Y201186D02*
X485666D01*
X449852Y211092D02*
X533400Y294640D01*
X336678Y211092D02*
X449852D01*
X432326Y218966D02*
X533400Y320040D01*
X336678Y218966D02*
X432326D01*
X532007Y359287D02*
Y364360D01*
X334900Y233190D02*
X405910D01*
X527037Y354317D02*
X532007Y359287D01*
X405910Y233190D02*
X524523Y351803D01*
X532007Y364360D02*
X533400Y365753D01*
X533400Y365760D02*
X533400Y365760D01*
X398653Y244983D02*
X494386Y340716D01*
Y441067D01*
X341487Y244983D02*
X398653D01*
X517131Y370938D02*
X517131Y370926D01*
X346060Y237490D02*
X398780D01*
X517131Y370926D02*
X517131Y355841D01*
X398780Y237490D02*
X517131Y355841D01*
X533018Y391788D02*
X533743Y392514D01*
X533400Y396240D02*
X533743Y393231D01*
Y392514D02*
Y393231D01*
X334900Y225316D02*
X413276D01*
X533400Y345440D01*
X511865Y475042D02*
X526973Y459933D01*
X527605Y459933D02*
X527688Y459933D01*
X511865Y476305D02*
X533400Y497840D01*
X526973Y459933D02*
X527605Y459933D01*
X511865Y475042D02*
Y476305D01*
X538520Y457160D02*
X540774Y455097D01*
X542438Y453242D02*
X553720Y441960D01*
X541851Y453959D02*
X542438Y453242D01*
X553720Y16133D02*
Y441960D01*
X541104Y469816D02*
X558800Y452120D01*
X552827Y15240D02*
X553720Y16133D01*
X533400Y472440D02*
X536024Y469816D01*
X541104D01*
X558800Y11053D02*
Y452120D01*
X196850Y27940D02*
X485140D01*
X533400Y76200D01*
X449580Y34290D02*
X516890Y101600D01*
X533400D01*
X204470Y34290D02*
X449580D01*
X192024Y23876D02*
X506476D01*
X533400Y50800D01*
X345440Y447294D02*
Y476250D01*
X345186Y447040D02*
X345440Y447294D01*
X269240Y406781D02*
X271653D01*
X277749Y400685D01*
Y387829D02*
Y400685D01*
Y387829D02*
X287020Y378558D01*
Y327660D02*
Y378558D01*
X281940Y288290D02*
Y306070D01*
X288417Y306819D02*
X320896Y274340D01*
X249300Y201186D02*
X267226D01*
X270311Y204271D01*
Y206811D01*
X274320Y210820D01*
X297180Y223520D02*
X307340Y233680D01*
X316230D01*
X344170Y251460D02*
Y259080D01*
X352692Y267602D01*
X358222D01*
X363460Y272840D01*
Y274340D01*
X320896D02*
X363460D01*
X202184Y312420D02*
X219710Y329946D01*
X50800Y355600D02*
X93980Y312420D01*
X174133Y312293D02*
X174260Y312420D01*
X202184D01*
X168767Y312293D02*
X174133D01*
X93980Y312420D02*
X168640D01*
X168767Y312293D01*
X321310Y363220D02*
Y382524D01*
X396020Y271780D02*
X411480D01*
X393460Y274340D02*
X396020Y271780D01*
X296164Y248540D02*
X297942Y250318D01*
X388620Y595630D02*
Y668020D01*
X292100Y499110D02*
X388620Y595630D01*
X373380Y683260D02*
X388620Y668020D01*
X153670Y321310D02*
X162560D01*
X154940Y195580D02*
Y232410D01*
X177796Y171454D02*
X177800Y171450D01*
X176534Y171454D02*
X177796D01*
X149860Y144780D02*
X176534Y171454D01*
X149860Y128270D02*
Y144780D01*
X167640Y127000D02*
X175260D01*
X176530Y125730D01*
X373380Y683260D02*
X401320Y711200D01*
X176530Y125730D02*
Y143510D01*
X372110Y496570D02*
X466090Y590550D01*
X372110Y417830D02*
Y496570D01*
X466090Y590550D02*
X517160D01*
X148463Y235093D02*
X152257Y238887D01*
X152527D02*
X152672Y239032D01*
X152257Y238887D02*
X152527D01*
X262382Y246380D02*
X264160Y248158D01*
X148463Y234823D02*
Y235093D01*
X256540Y246380D02*
X262382D01*
X50800Y152400D02*
X57789Y145411D01*
X264160Y248158D02*
Y248540D01*
X59051Y145411D02*
X148463Y234823D01*
X57789Y145411D02*
X59051D01*
X249192Y239032D02*
X256540Y246380D01*
X100330Y127000D02*
X204742Y231412D01*
X81280Y101600D02*
X204996Y225316D01*
X68580Y81280D02*
X204488Y217188D01*
X53106Y59456D02*
X202964Y209314D01*
X158115Y137795D02*
X204470Y184150D01*
X158115Y57785D02*
Y137795D01*
Y57785D02*
X192024Y23876D01*
X196850Y191770D02*
X204470Y184150D01*
X213632Y193312D01*
X249300D01*
X240030Y671830D02*
X261874D01*
X203200D02*
X240030D01*
X170180Y217170D02*
X175260Y212090D01*
X176530Y143510D02*
X218204Y185184D01*
X262890Y599186D02*
X265430Y596646D01*
X262890Y599186D02*
Y642874D01*
X321310Y412496D02*
X366776D01*
X372110Y417830D01*
X517160Y590550D02*
X573659Y647049D01*
Y758542D01*
X531261Y800940D02*
X573659Y758542D01*
X420370Y800940D02*
X531261D01*
X414020Y794590D02*
X420370Y800940D01*
X414020Y786638D02*
Y794590D01*
X458470Y712900D02*
X509380D01*
X445770Y709697D02*
Y737784D01*
X452120Y719250D02*
X458470Y712900D01*
Y741504D02*
X464820Y735154D01*
X445770Y737784D02*
X449490Y741504D01*
X464820Y727202D02*
X500078D01*
X449490Y741504D02*
X458470D01*
X463804Y655320D02*
Y691663D01*
X464820Y727202D02*
Y735154D01*
X445770Y709697D02*
X463804Y691663D01*
X452120Y719250D02*
Y727202D01*
X495279Y441960D02*
X533400D01*
X494386Y441067D02*
X495279Y441960D01*
X337693Y248777D02*
X341487Y244983D01*
X332557Y248540D02*
X333629Y247468D01*
X339804Y240919D02*
X340178D01*
X342065Y239032D01*
X333629Y247094D02*
Y247468D01*
Y247094D02*
X339804Y240919D01*
X283210Y232410D02*
X288036Y237236D01*
Y248540D01*
X320040D02*
X332557D01*
X342065Y239032D02*
X344518D01*
X346060Y237490D01*
X204742Y231412D02*
X247522D01*
X260252Y260092D02*
X268068D01*
X270256Y257904D01*
Y250318D02*
Y257904D01*
Y250318D02*
X272034Y248540D01*
X297180Y163956D02*
Y180340D01*
X271364Y179070D02*
X278384Y172050D01*
X270510Y179070D02*
X271364D01*
X278384Y164718D02*
Y172050D01*
X296164Y162940D02*
X297180Y163956D01*
X347980Y727710D02*
X375412D01*
X375920Y727202D01*
X353020Y104910D02*
X353060Y104870D01*
Y87630D02*
Y104870D01*
X431800Y134366D02*
X432816Y133350D01*
X454660D01*
X373380Y132270D02*
Y149860D01*
X372420Y131310D02*
X373380Y132270D01*
X533146Y779780D02*
X533400Y779526D01*
Y755650D02*
Y779526D01*
X520700Y727900D02*
Y748030D01*
X519740Y726940D02*
X520700Y727900D01*
X499570Y699770D02*
X500340Y700540D01*
X477520Y699770D02*
X499570D01*
X561340Y643890D02*
Y670814D01*
X414020Y638810D02*
Y656844D01*
X296164Y787400D02*
X311404D01*
X235458Y940574D02*
X236486Y939546D01*
X235458Y940574D02*
Y957326D01*
X278384Y164718D02*
X280162Y162940D01*
X264160Y63500D02*
Y81534D01*
X227330Y62230D02*
Y81534D01*
X367030Y636270D02*
Y637750D01*
X360426Y644354D02*
X367030Y637750D01*
X360426Y644354D02*
Y670306D01*
X261874Y671830D02*
X262890Y672846D01*
X327660Y595376D02*
Y640334D01*
X262890Y693797D02*
X263783Y694690D01*
X364699D01*
X262890Y672846D02*
Y693797D01*
X327660Y670306D02*
X360426D01*
X364699Y694690D02*
X388620Y718611D01*
Y727202D01*
X360426Y670306D02*
X373380Y683260D01*
X320040Y162940D02*
X393320D01*
X378206Y60960D02*
Y64389D01*
X372420Y70175D02*
X378206Y64389D01*
X372420Y70175D02*
Y104910D01*
X325120Y61853D02*
Y126746D01*
X326013Y60960D02*
X348234D01*
X325120Y61853D02*
X326013Y60960D01*
X325120Y126746D02*
X348456D01*
X312420D02*
X325120D01*
X348456D02*
X353020Y131310D01*
X312420Y126746D02*
Y162686D01*
X312166Y162940D02*
X312420Y162686D01*
X334900Y217188D02*
X336678Y218966D01*
X334900Y209314D02*
X336678Y211092D01*
X503192Y193312D02*
X533400Y223520D01*
X334900Y193312D02*
X503192D01*
X520464Y185184D02*
X533400Y198120D01*
X334900Y185184D02*
X520464D01*
X529688Y172720D02*
X533400D01*
X525098Y177310D02*
X529688Y172720D01*
X334900Y177310D02*
X525098D01*
X226318Y151388D02*
X270768D01*
X272034Y152654D01*
Y162940D01*
X200660Y54610D02*
X210820Y44450D01*
X417830D01*
X200660Y54610D02*
Y125730D01*
X226318Y151388D01*
X193040Y53340D02*
Y132080D01*
X207010Y39370D02*
X426720D01*
X193040Y53340D02*
X207010Y39370D01*
X193040Y132080D02*
X223900Y162940D01*
X184150Y137160D02*
X224300Y177310D01*
X184150Y54610D02*
Y137160D01*
Y54610D02*
X204470Y34290D01*
X176530Y48260D02*
Y125730D01*
Y48260D02*
X196850Y27940D01*
X218204Y185184D02*
X249300D01*
X202964Y209314D02*
X249300D01*
X204488Y217188D02*
X249300D01*
X50800Y127000D02*
X100330D01*
X50800Y101600D02*
X81280D01*
X204996Y225316D02*
X249300D01*
X53106Y53106D02*
Y59456D01*
X50800Y50800D02*
X53106Y53106D01*
X50800Y30480D02*
Y50800D01*
X58467Y81280D02*
X68580D01*
X223900Y162940D02*
X264160D01*
X224300Y177310D02*
X249300D01*
X417830Y44450D02*
X520700Y147320D01*
X426720Y39370D02*
X509270Y121920D01*
X520700Y147320D02*
X533400D01*
X509270Y121920D02*
X533400D01*
X401320Y711200D02*
Y727202D01*
X50800Y76200D02*
X53387D01*
X58467Y81280D01*
X66040Y15240D02*
X552827D01*
X50800Y30480D02*
X66040Y15240D01*
X39878Y31242D02*
Y65278D01*
Y31242D02*
X60960Y10160D01*
X557907D01*
X558800Y11053D01*
X39878Y65278D02*
X50800Y76200D01*
X247522Y231412D02*
X249300Y233190D01*
X375920Y63246D02*
X378206Y60960D01*
X519740Y698540D02*
Y700540D01*
X493776Y672576D02*
X519740Y698540D01*
X493776Y655320D02*
Y672576D01*
X561094Y700540D02*
X561340Y700786D01*
X519740Y700540D02*
X561094D01*
X500078Y727202D02*
X503174Y730298D01*
Y779780D01*
X414020Y686816D02*
Y727202D01*
X519740Y700540D02*
Y702540D01*
X509380Y712900D02*
X519740Y702540D01*
X439420Y727202D02*
Y750570D01*
X426720Y727202D02*
Y745220D01*
X407670Y776056D02*
Y797220D01*
X394970Y774700D02*
Y797220D01*
X387697Y864722D02*
X388242D01*
X391540Y868020D01*
D18*
X312420Y126746D02*
D03*
Y96774D02*
D03*
X637540Y865886D02*
D03*
Y835914D02*
D03*
X591820Y865886D02*
D03*
Y835914D02*
D03*
X219710Y299974D02*
D03*
Y329946D02*
D03*
X321310Y382524D02*
D03*
Y412496D02*
D03*
X561340Y670814D02*
D03*
X414020Y656844D02*
D03*
X431800Y134366D02*
D03*
X264160Y81534D02*
D03*
X227330D02*
D03*
X327660Y565404D02*
D03*
Y595376D02*
D03*
X264160Y111506D02*
D03*
X227330D02*
D03*
X265430Y566674D02*
D03*
Y596646D02*
D03*
X262890Y642874D02*
D03*
Y672846D02*
D03*
X327660Y670306D02*
D03*
Y640334D02*
D03*
X431800Y104394D02*
D03*
X414020Y686816D02*
D03*
X561340Y700786D02*
D03*
D19*
X233986Y893318D02*
D03*
X236486Y916432D02*
D03*
Y939546D02*
D03*
D20*
X301486Y916432D02*
D03*
D21*
X500340Y726940D02*
D03*
X519740Y700540D02*
D03*
Y726940D02*
D03*
X500340Y700540D02*
D03*
X372420Y131310D02*
D03*
X353020Y104910D02*
D03*
Y131310D02*
D03*
X372420Y104910D02*
D03*
D22*
X264160Y162940D02*
D03*
X272034D02*
D03*
X280162D02*
D03*
X288036D02*
D03*
X296164D02*
D03*
X304038D02*
D03*
X312166D02*
D03*
X320040D02*
D03*
Y248540D02*
D03*
X312166D02*
D03*
X304038D02*
D03*
X296164D02*
D03*
X288036D02*
D03*
X280162D02*
D03*
X272034D02*
D03*
X264160D02*
D03*
D23*
X334900Y177310D02*
D03*
Y185184D02*
D03*
Y193312D02*
D03*
Y201186D02*
D03*
Y209314D02*
D03*
Y217188D02*
D03*
Y225316D02*
D03*
Y233190D02*
D03*
X249300D02*
D03*
Y225316D02*
D03*
Y217188D02*
D03*
Y209314D02*
D03*
Y201186D02*
D03*
Y193312D02*
D03*
Y185184D02*
D03*
Y177310D02*
D03*
D24*
X482854Y835660D02*
D03*
X512826D02*
D03*
X393446Y377190D02*
D03*
X363474D02*
D03*
X315214Y447040D02*
D03*
X345186D02*
D03*
X533146Y779780D02*
D03*
X311404Y787400D02*
D03*
X378206Y60960D02*
D03*
X348234D02*
D03*
X493776Y655320D02*
D03*
X463804D02*
D03*
X341376Y787400D02*
D03*
X503174Y779780D02*
D03*
D25*
X371690Y849020D02*
D03*
Y858520D02*
D03*
Y868020D02*
D03*
X395390D02*
D03*
Y858520D02*
D03*
Y849020D02*
D03*
D26*
X375920Y727202D02*
D03*
X388620D02*
D03*
X401320D02*
D03*
X414020D02*
D03*
X426720D02*
D03*
X439420D02*
D03*
X452120D02*
D03*
X464820D02*
D03*
Y786638D02*
D03*
X452120D02*
D03*
X439420D02*
D03*
X426720D02*
D03*
X414020D02*
D03*
X401320D02*
D03*
X388620D02*
D03*
X375920D02*
D03*
D27*
X395760Y340360D02*
D03*
X365760Y274360D02*
D03*
X395760D02*
D03*
X365760Y340360D02*
D03*
D28*
X269240Y406781D02*
D03*
Y375539D02*
D03*
D48*
X527605Y459933D02*
D03*
D49*
X38100Y819984D02*
X41076Y822960D01*
X284480Y825936D02*
Y826770D01*
X38100Y342900D02*
Y819984D01*
X41076Y822960D02*
X281504D01*
X284480Y825936D01*
X233680Y424008D02*
Y482600D01*
X228600Y360680D02*
Y418928D01*
X233680Y424008D01*
X434340Y858520D02*
X512953D01*
X408940Y833120D02*
X434340Y858520D01*
X353926Y833120D02*
X373380D01*
X353060Y832254D02*
X353926Y833120D01*
X512953Y858520D02*
Y881253D01*
X353060Y832254D02*
Y846799D01*
X342290Y828220D02*
X375920Y794590D01*
X437440Y906461D02*
X462522Y881380D01*
X487680D01*
X538480D02*
Y905007D01*
X463429Y980059D02*
X538480Y905007D01*
X223139Y980059D02*
X463429D01*
X152400Y909320D02*
X223139Y980059D01*
X117038Y846018D02*
X149860Y878840D01*
X65024Y846018D02*
X117038D01*
X236486Y916432D02*
X301486D01*
X257091Y874522D02*
X342290D01*
Y828220D02*
Y874522D01*
X238295Y893318D02*
X257091Y874522D01*
X32604Y857686D02*
Y884350D01*
X82650Y893318D02*
X238295D01*
X30820Y886134D02*
X32604Y884350D01*
X47398Y893318D02*
X49778Y890938D01*
X80270D01*
X20320Y307776D02*
Y846462D01*
X23296Y849438D01*
X80270Y890938D02*
X82650Y893318D01*
X33796D02*
X47398D01*
X30820Y886134D02*
Y890342D01*
X23296Y849438D02*
X24356D01*
X32604Y857686D01*
X30820Y890342D02*
X33796Y893318D01*
X668020Y782320D02*
Y855980D01*
X658114Y865886D02*
X668020Y855980D01*
X637540Y865886D02*
X658114D01*
X591820D02*
X637540D01*
X662940Y777240D02*
X668020Y782320D01*
X627380Y777240D02*
X662940D01*
X512953Y881253D02*
X513080Y881380D01*
X512953Y835787D02*
Y858520D01*
X512826Y835660D02*
X512953Y835787D01*
X513080Y835914D02*
X591820D01*
X512826Y835660D02*
X513080Y835914D01*
X353060Y817708D02*
Y832254D01*
Y846799D02*
X364421Y858160D01*
X371330D01*
X371690Y858520D01*
X375920Y786638D02*
Y794590D01*
X233680Y355600D02*
X254000D01*
X228600Y360680D02*
X233680Y355600D01*
X254000D02*
Y368245D01*
X233680Y508000D02*
X265430Y539750D01*
Y566674D01*
X254000Y368245D02*
X256976Y371221D01*
X264922D02*
X269240Y375539D01*
X254000Y340360D02*
Y355600D01*
X256976Y371221D02*
X264922D01*
X238760Y304800D02*
X254000Y320040D01*
X238760Y262890D02*
Y304800D01*
X284480Y826770D02*
X320040Y862330D01*
X301486Y909438D02*
Y916432D01*
Y909438D02*
X319797Y891127D01*
Y886703D02*
Y891127D01*
Y886703D02*
X320040Y886460D01*
X38100Y342900D02*
X50800Y330200D01*
Y304800D02*
X211455D01*
X216281Y299974D01*
X23296Y304800D02*
X50800D01*
X216281Y299974D02*
X219710D01*
X327025Y566039D02*
X327660Y565404D01*
X266065Y566039D02*
X327025D01*
X265430Y566674D02*
X266065Y566039D01*
X312674Y449580D02*
X315214Y447040D01*
X269240Y449580D02*
X312674D01*
X269240Y406781D02*
Y449580D01*
X293370Y137287D02*
Y147320D01*
X288036Y162940D02*
Y210322D01*
X284089Y222885D02*
X288925Y218049D01*
X267589Y111506D02*
X293370Y137287D01*
X304038Y147955D01*
X283017Y223713D02*
X283845Y222885D01*
X284089D01*
X288036Y210322D02*
X288925Y211211D01*
Y218049D01*
X273201Y223713D02*
X283017D01*
X288036Y152654D02*
Y162940D01*
X219710Y281940D02*
X238760Y262890D01*
X219710Y281940D02*
Y299974D01*
X265430Y231140D02*
X265774D01*
X273201Y223713D01*
X288036Y152654D02*
X293370Y147320D01*
X227330Y111506D02*
X264160D01*
X267589D01*
X304038Y147955D02*
Y162940D01*
X23296Y228600D02*
X50800D01*
X20320Y231576D02*
X23296Y228600D01*
X20320Y231576D02*
Y307776D01*
X23296Y304800D01*
X341376Y787400D02*
X342138Y786638D01*
X375920D01*
D50*
X18524Y871018D02*
D03*
D51*
X65024Y906018D02*
D03*
Y846018D02*
D03*
D52*
X458840Y962979D02*
D03*
Y915479D02*
D03*
X384440D02*
D03*
Y962979D02*
D03*
D53*
X405441Y906461D02*
D03*
X421441D02*
D03*
X413442Y918499D02*
D03*
X429442D02*
D03*
X437440Y906461D02*
D03*
D54*
X538480Y881380D02*
D03*
X513080D02*
D03*
X487680D02*
D03*
D55*
X627380Y777240D02*
D03*
X601980D02*
D03*
X269240Y474980D02*
D03*
Y449580D02*
D03*
X327660Y307340D02*
D03*
Y332740D02*
D03*
X367030Y610870D02*
D03*
X177800Y671830D02*
D03*
X367030Y636270D02*
D03*
X203200Y671830D02*
D03*
D56*
X533400Y228600D02*
D03*
Y203200D02*
D03*
Y177800D02*
D03*
Y152400D02*
D03*
Y127000D02*
D03*
Y101600D02*
D03*
Y76200D02*
D03*
Y50800D02*
D03*
X50800Y406400D02*
D03*
Y381000D02*
D03*
Y355600D02*
D03*
Y330200D02*
D03*
Y304800D02*
D03*
Y279400D02*
D03*
Y254000D02*
D03*
Y228600D02*
D03*
X533400Y421640D02*
D03*
X50800Y177800D02*
D03*
Y152400D02*
D03*
Y127000D02*
D03*
Y101600D02*
D03*
Y76200D02*
D03*
Y50800D02*
D03*
X533400Y269240D02*
D03*
Y294640D02*
D03*
Y320040D02*
D03*
Y345440D02*
D03*
Y370840D02*
D03*
Y396240D02*
D03*
Y447040D02*
D03*
Y472440D02*
D03*
Y497840D02*
D03*
D57*
X311150Y78740D02*
D03*
X312420Y266700D02*
D03*
X298315Y271915D02*
D03*
X233680Y482600D02*
D03*
X408940Y833120D02*
D03*
X373380D02*
D03*
X152400Y909320D02*
D03*
X149860Y878840D02*
D03*
X454660Y835660D02*
D03*
X637540Y810260D02*
D03*
X412212Y857822D02*
D03*
X422783Y750570D02*
D03*
X397510Y927859D02*
D03*
X233680Y508000D02*
D03*
X254000Y340360D02*
D03*
Y320040D02*
D03*
X421640Y381000D02*
D03*
Y340360D02*
D03*
X170180Y232555D02*
D03*
X152400Y251460D02*
D03*
X171450Y252730D02*
D03*
X345440Y476250D02*
D03*
X287020Y327660D02*
D03*
X281940Y306070D02*
D03*
X274320Y210820D02*
D03*
X297180Y223520D02*
D03*
X316230Y233680D02*
D03*
X344170Y251460D02*
D03*
X321310Y363220D02*
D03*
X411480Y271780D02*
D03*
X320040Y886460D02*
D03*
Y862330D02*
D03*
X196850Y499110D02*
D03*
X175260Y500380D02*
D03*
X153670Y321310D02*
D03*
X152400Y294640D02*
D03*
X154940Y232410D02*
D03*
Y195580D02*
D03*
X177800Y171450D02*
D03*
X149860Y128270D02*
D03*
X167640Y127000D02*
D03*
X171450Y318770D02*
D03*
X170180Y294640D02*
D03*
X175260Y212090D02*
D03*
X196850Y191770D02*
D03*
X283210Y232410D02*
D03*
X238760Y262890D02*
D03*
X265430Y231140D02*
D03*
X270510Y179070D02*
D03*
X297180Y180340D02*
D03*
X347980Y727710D02*
D03*
X353060Y87630D02*
D03*
X454660Y133350D02*
D03*
X373380Y149860D02*
D03*
X533400Y755650D02*
D03*
X520700Y748030D02*
D03*
X477520Y699770D02*
D03*
X561340Y643890D02*
D03*
X414020Y638810D02*
D03*
X296164Y787400D02*
D03*
X235458Y957326D02*
D03*
X264160Y63500D02*
D03*
X227330Y62230D02*
D03*
X439420Y750570D02*
D03*
M02*
