G04*
G04 #@! TF.GenerationSoftware,Altium Limited,Altium Designer,25.3.3 (18)*
G04*
G04 Layer_Color=16711935*
%FSLAX44Y44*%
%MOMM*%
G71*
G04*
G04 #@! TF.SameCoordinates,108E2B8E-3C58-48EF-89C0-CA54B0DA4996*
G04*
G04*
G04 #@! TF.FilePolarity,Negative*
G04*
G01*
G75*
%ADD29C,0.0000*%
%ADD40O,2.0032X3.5032*%
%ADD41O,4.0032X2.2032*%
%ADD42O,1.4032X2.6032*%
%ADD43C,1.4032*%
%ADD44C,1.8532*%
%ADD45C,1.8232*%
%ADD46C,1.7272*%
%ADD47C,0.8382*%
D29*
X635991Y777240D02*
G03*
X635991Y777240I-8611J0D01*
G01*
X610591D02*
G03*
X610591Y777240I-8611J0D01*
G01*
X277851Y474980D02*
G03*
X277851Y474980I-8611J0D01*
G01*
Y449580D02*
G03*
X277851Y449580I-8611J0D01*
G01*
X336271Y307340D02*
G03*
X336271Y307340I-8611J0D01*
G01*
Y332740D02*
G03*
X336271Y332740I-8611J0D01*
G01*
X375641Y610870D02*
G03*
X375641Y610870I-8611J0D01*
G01*
Y636270D02*
G03*
X375641Y636270I-8611J0D01*
G01*
X186411Y671830D02*
G03*
X186411Y671830I-8611J0D01*
G01*
X211811D02*
G03*
X211811Y671830I-8611J0D01*
G01*
D40*
X18524Y871018D02*
D03*
D41*
X65024Y906018D02*
D03*
Y846018D02*
D03*
D42*
X458840Y962979D02*
D03*
Y915479D02*
D03*
X384440D02*
D03*
Y962979D02*
D03*
D43*
X405441Y906461D02*
D03*
X421441D02*
D03*
X413442Y918499D02*
D03*
X429442D02*
D03*
X437440Y906461D02*
D03*
D44*
X538480Y881380D02*
D03*
X513080D02*
D03*
X487680D02*
D03*
D45*
X627380Y777240D02*
D03*
X601980D02*
D03*
X269240Y474980D02*
D03*
Y449580D02*
D03*
X327660Y307340D02*
D03*
Y332740D02*
D03*
X367030Y610870D02*
D03*
X177800Y671830D02*
D03*
X367030Y636270D02*
D03*
X203200Y671830D02*
D03*
D46*
X533400Y228600D02*
D03*
Y203200D02*
D03*
Y177800D02*
D03*
Y152400D02*
D03*
Y127000D02*
D03*
Y101600D02*
D03*
Y76200D02*
D03*
Y50800D02*
D03*
X50800Y406400D02*
D03*
Y381000D02*
D03*
Y355600D02*
D03*
Y330200D02*
D03*
Y304800D02*
D03*
Y279400D02*
D03*
Y254000D02*
D03*
Y228600D02*
D03*
X533400Y421640D02*
D03*
X50800Y177800D02*
D03*
Y152400D02*
D03*
Y127000D02*
D03*
Y101600D02*
D03*
Y76200D02*
D03*
Y50800D02*
D03*
X533400Y269240D02*
D03*
Y294640D02*
D03*
Y320040D02*
D03*
Y345440D02*
D03*
Y370840D02*
D03*
Y396240D02*
D03*
Y447040D02*
D03*
Y472440D02*
D03*
Y497840D02*
D03*
D47*
X311150Y78740D02*
D03*
X312420Y266700D02*
D03*
X298315Y271915D02*
D03*
X233680Y482600D02*
D03*
X408940Y833120D02*
D03*
X373380D02*
D03*
X152400Y909320D02*
D03*
X149860Y878840D02*
D03*
X454660Y835660D02*
D03*
X637540Y810260D02*
D03*
X412212Y857822D02*
D03*
X422783Y750570D02*
D03*
X397510Y927859D02*
D03*
X233680Y508000D02*
D03*
X254000Y340360D02*
D03*
Y320040D02*
D03*
X421640Y381000D02*
D03*
Y340360D02*
D03*
X170180Y232555D02*
D03*
X152400Y251460D02*
D03*
X171450Y252730D02*
D03*
X345440Y476250D02*
D03*
X287020Y327660D02*
D03*
X281940Y306070D02*
D03*
X274320Y210820D02*
D03*
X297180Y223520D02*
D03*
X316230Y233680D02*
D03*
X344170Y251460D02*
D03*
X321310Y363220D02*
D03*
X411480Y271780D02*
D03*
X320040Y886460D02*
D03*
Y862330D02*
D03*
X196850Y499110D02*
D03*
X175260Y500380D02*
D03*
X153670Y321310D02*
D03*
X152400Y294640D02*
D03*
X154940Y232410D02*
D03*
Y195580D02*
D03*
X177800Y171450D02*
D03*
X149860Y128270D02*
D03*
X167640Y127000D02*
D03*
X171450Y318770D02*
D03*
X170180Y294640D02*
D03*
X175260Y212090D02*
D03*
X196850Y191770D02*
D03*
X283210Y232410D02*
D03*
X238760Y262890D02*
D03*
X265430Y231140D02*
D03*
X270510Y179070D02*
D03*
X297180Y180340D02*
D03*
X347980Y727710D02*
D03*
X353060Y87630D02*
D03*
X454660Y133350D02*
D03*
X373380Y149860D02*
D03*
X533400Y755650D02*
D03*
X520700Y748030D02*
D03*
X477520Y699770D02*
D03*
X561340Y643890D02*
D03*
X414020Y638810D02*
D03*
X296164Y787400D02*
D03*
X235458Y957326D02*
D03*
X264160Y63500D02*
D03*
X227330Y62230D02*
D03*
X439420Y750570D02*
D03*
M02*
