M48
;Layer_Color=9474304
;FILE_FORMAT=4:4
METRIC,LZ
;TYPE=PLATED
T01F00S00C0.3302
T02F00S00C0.8000
T05F00S00C1.0201
T06F00S00C1.1000
%
T01
X0014986Y0012827
X0016764Y00127
X0022733Y0006223
X0026416Y000635
X0031115Y0007874
X0035306Y0008763
X0045466Y0013335
X0037338Y0014986
X0029718Y0018034
X0027051Y0017907
X0027432Y0021082
X0026543Y0023114
X0028321Y0023241
X0029718Y0022352
X0031623Y0023368
X0031242Y002667
X00298315Y00271915
X0028194Y0030607
X0028702Y0032766
X00254Y0032004
Y0034036
X0032131Y0036322
X0042164Y00381
Y0034036
X0041148Y0027178
X0034417Y0025146
X0023876Y0026289
X0017145Y0025273
X001524Y0025146
X0015494Y0023241
X0017018Y00232555
X0017526Y0021209
X0015494Y0019558
X0019685Y0019177
X001778Y0017145
X0017018Y0029464
X001524
X0015367Y0032131
X0017145Y0031877
X0017526Y0050038
X0019685Y0049911
X0023368Y00508
Y004826
X0034544Y0047625
X0041402Y0063881
X00422783Y0075057
X0043942
X005207Y0074803
X005334Y0075565
X0047752Y0069977
X0034798Y0072771
X00296164Y007874
X0032004Y0086233
Y0088646
X0037338Y0083312
X0040894
X00412212Y00857822
X0045466Y0083566
X0039751Y00927859
X001524Y0090932
X0014986Y0087884
X0063754Y0081026
X0056134Y0064389
X00235458Y00957326
T02
X00405441Y00906461
X00421441
X0043744
X00429442Y00918499
X00413442
T05
X0032766Y0030734
Y0033274
X0026924Y0044958
Y0047498
X0036703Y0061087
Y0063627
X002032Y0067183
X001778
X0060198Y0077724
X0062738
T06
X000508Y000508
Y000762
Y001016
Y00127
X005334
Y001016
Y000762
Y000508
Y001524
Y001778
Y002032
Y002286
Y0026924
Y0029464
Y0032004
Y0034544
Y0037084
Y0039624
Y0042164
Y0044704
Y0047244
Y0049784
X000508Y004064
Y00381
Y003556
Y003302
Y003048
Y002794
Y00254
Y002286
Y001778
Y001524
X0048768Y0088138
X0051308
X0053848
M30
