G04*
G04 #@! TF.GenerationSoftware,Altium Limited,Altium Designer,25.3.3 (18)*
G04*
G04 Layer_Color=8421504*
%FSLAX44Y44*%
%MOMM*%
G71*
G04*
G04 #@! TF.SameCoordinates,108E2B8E-3C58-48EF-89C0-CA54B0DA4996*
G04*
G04*
G04 #@! TF.FilePolarity,Positive*
G04*
G01*
G75*
%ADD18R,1.8034X1.1176*%
%ADD19R,1.7000X0.8382*%
%ADD20R,1.7000X3.0988*%
%ADD21R,1.4000X1.8000*%
%ADD22R,0.5080X1.6500*%
%ADD23R,1.6500X0.5080*%
%ADD24R,1.1176X1.8034*%
G04:AMPARAMS|DCode=25|XSize=1.35mm|YSize=0.58mm|CornerRadius=0.0725mm|HoleSize=0mm|Usage=FLASHONLY|Rotation=180.000|XOffset=0mm|YOffset=0mm|HoleType=Round|Shape=RoundedRectangle|*
%AMROUNDEDRECTD25*
21,1,1.3500,0.4350,0,0,180.0*
21,1,1.2050,0.5800,0,0,180.0*
1,1,0.1450,-0.6025,0.2175*
1,1,0.1450,0.6025,0.2175*
1,1,0.1450,0.6025,-0.2175*
1,1,0.1450,-0.6025,-0.2175*
%
%ADD25ROUNDEDRECTD25*%
%ADD26O,0.6096X2.2000*%
%ADD27R,1.2000X1.5000*%
%ADD28R,1.8542X1.3716*%
D18*
X312420Y126746D02*
D03*
Y96774D02*
D03*
X637540Y865886D02*
D03*
Y835914D02*
D03*
X591820Y865886D02*
D03*
Y835914D02*
D03*
X219710Y299974D02*
D03*
Y329946D02*
D03*
X321310Y382524D02*
D03*
Y412496D02*
D03*
X561340Y670814D02*
D03*
X414020Y656844D02*
D03*
X431800Y134366D02*
D03*
X264160Y81534D02*
D03*
X227330D02*
D03*
X327660Y565404D02*
D03*
Y595376D02*
D03*
X264160Y111506D02*
D03*
X227330D02*
D03*
X265430Y566674D02*
D03*
Y596646D02*
D03*
X262890Y642874D02*
D03*
Y672846D02*
D03*
X327660Y670306D02*
D03*
Y640334D02*
D03*
X431800Y104394D02*
D03*
X414020Y686816D02*
D03*
X561340Y700786D02*
D03*
D19*
X233986Y893318D02*
D03*
X236486Y916432D02*
D03*
Y939546D02*
D03*
D20*
X301486Y916432D02*
D03*
D21*
X500340Y726940D02*
D03*
X519740Y700540D02*
D03*
Y726940D02*
D03*
X500340Y700540D02*
D03*
X372420Y131310D02*
D03*
X353020Y104910D02*
D03*
Y131310D02*
D03*
X372420Y104910D02*
D03*
D22*
X264160Y162940D02*
D03*
X272034D02*
D03*
X280162D02*
D03*
X288036D02*
D03*
X296164D02*
D03*
X304038D02*
D03*
X312166D02*
D03*
X320040D02*
D03*
Y248540D02*
D03*
X312166D02*
D03*
X304038D02*
D03*
X296164D02*
D03*
X288036D02*
D03*
X280162D02*
D03*
X272034D02*
D03*
X264160D02*
D03*
D23*
X334900Y177310D02*
D03*
Y185184D02*
D03*
Y193312D02*
D03*
Y201186D02*
D03*
Y209314D02*
D03*
Y217188D02*
D03*
Y225316D02*
D03*
Y233190D02*
D03*
X249300D02*
D03*
Y225316D02*
D03*
Y217188D02*
D03*
Y209314D02*
D03*
Y201186D02*
D03*
Y193312D02*
D03*
Y185184D02*
D03*
Y177310D02*
D03*
D24*
X482854Y835660D02*
D03*
X512826D02*
D03*
X393446Y377190D02*
D03*
X363474D02*
D03*
X315214Y447040D02*
D03*
X345186D02*
D03*
X533146Y779780D02*
D03*
X311404Y787400D02*
D03*
X378206Y60960D02*
D03*
X348234D02*
D03*
X493776Y655320D02*
D03*
X463804D02*
D03*
X341376Y787400D02*
D03*
X503174Y779780D02*
D03*
D25*
X371690Y849020D02*
D03*
Y858520D02*
D03*
Y868020D02*
D03*
X395390D02*
D03*
Y858520D02*
D03*
Y849020D02*
D03*
D26*
X375920Y727202D02*
D03*
X388620D02*
D03*
X401320D02*
D03*
X414020D02*
D03*
X426720D02*
D03*
X439420D02*
D03*
X452120D02*
D03*
X464820D02*
D03*
Y786638D02*
D03*
X452120D02*
D03*
X439420D02*
D03*
X426720D02*
D03*
X414020D02*
D03*
X401320D02*
D03*
X388620D02*
D03*
X375920D02*
D03*
D27*
X395760Y340360D02*
D03*
X365760Y274360D02*
D03*
X395760D02*
D03*
X365760Y340360D02*
D03*
D28*
X269240Y406781D02*
D03*
Y375539D02*
D03*
M02*
