G04*
G04 #@! TF.GenerationSoftware,Altium Limited,Altium Designer,26.4.1 (12)*
G04*
G04 Layer_Color=128*
%FSLAX44Y44*%
%MOMM*%
G71*
G04*
G04 #@! TF.SameCoordinates,1666C7A0-12F2-4B08-8772-BA7E2557FA20*
G04*
G04*
G04 #@! TF.FilePolarity,Positive*
G04*
G01*
G75*
%ADD16C,0.1270*%
D16*
X346690Y840740D02*
X356890D01*
X351790Y835640D02*
Y845840D01*
X372090Y840740D02*
X382290D01*
X377190Y835640D02*
Y845840D01*
X350320Y971550D02*
X360320D01*
X355320Y966550D02*
Y976550D01*
X315320Y971550D02*
X325320D01*
X320320Y966550D02*
Y976550D01*
X236020Y971550D02*
X246020D01*
X241020Y966550D02*
Y976550D01*
X201020Y971550D02*
X211020D01*
X206020Y966550D02*
Y976550D01*
X536020Y969010D02*
X546020D01*
X541020Y964010D02*
Y974010D01*
X501020Y969010D02*
X511020D01*
X506020Y964010D02*
Y974010D01*
X992886Y876300D02*
X1011174D01*
X1002030Y867156D02*
Y885444D01*
X510520Y905510D02*
X520720D01*
X515620Y900410D02*
Y910610D01*
X958830Y354330D02*
X969030D01*
X963930Y349230D02*
Y359430D01*
X990680Y197840D02*
X1000680D01*
X995680Y192840D02*
Y202840D01*
X924540Y195580D02*
X934740D01*
X929640Y190480D02*
Y200680D01*
X797360Y43180D02*
X807360D01*
X802360Y38180D02*
Y48180D01*
X708640Y63500D02*
X718840D01*
X713740Y58400D02*
Y68600D01*
X205720Y902970D02*
X215920D01*
X210820Y897870D02*
Y908070D01*
X322560Y902970D02*
X332760D01*
X327660Y897870D02*
Y908070D01*
X422890Y388620D02*
X433090D01*
X427990Y383520D02*
Y393720D01*
X152200Y41910D02*
X162200D01*
X157200Y36910D02*
Y46910D01*
X316210Y107950D02*
X326410D01*
X321310Y102850D02*
Y113050D01*
X113010Y317500D02*
X123210D01*
X118110Y312400D02*
Y322600D01*
X39450Y307620D02*
X49450D01*
X44450Y302620D02*
Y312620D01*
X144760Y100330D02*
X154960D01*
X149860Y95230D02*
Y105430D01*
X323650Y43180D02*
X333650D01*
X328650Y38180D02*
Y48180D01*
X535920Y905510D02*
X546120D01*
X541020Y900410D02*
Y910610D01*
X778490Y961390D02*
X788690D01*
X783590Y956290D02*
Y966490D01*
X347960Y902970D02*
X358160D01*
X353060Y897870D02*
Y908070D01*
X231120Y902970D02*
X241320D01*
X236220Y897870D02*
Y908070D01*
X39450Y342620D02*
X49450D01*
X44450Y337620D02*
Y347620D01*
X113010Y342900D02*
X123210D01*
X118110Y337800D02*
Y348000D01*
X290810Y107950D02*
X301010D01*
X295910Y102850D02*
Y113050D01*
X288650Y43180D02*
X298650D01*
X293650Y38180D02*
Y48180D01*
X720070Y798830D02*
X730270D01*
X725170Y793730D02*
Y803930D01*
X708640Y38100D02*
X718840D01*
X713740Y33000D02*
Y43200D01*
X117200Y41910D02*
X127200D01*
X122200Y36910D02*
Y46910D01*
X119360Y100330D02*
X129560D01*
X124460Y95230D02*
Y105430D01*
X992886Y958850D02*
X1011174D01*
X1002030Y949706D02*
Y967994D01*
X694670Y798830D02*
X704870D01*
X699770Y793730D02*
Y803930D01*
X803890Y961390D02*
X814090D01*
X808990Y956290D02*
Y966490D01*
X984230Y354330D02*
X994430D01*
X989330Y349230D02*
Y359430D01*
X924540Y170180D02*
X934740D01*
X929640Y165080D02*
Y175280D01*
X448290Y388620D02*
X458490D01*
X453390Y383520D02*
Y393720D01*
X990680Y162840D02*
X1000680D01*
X995680Y157840D02*
Y167840D01*
X762360Y43180D02*
X772360D01*
X767360Y38180D02*
Y48180D01*
X271399Y170180D02*
X274701D01*
X273050Y168529D02*
Y171831D01*
X186309Y140970D02*
X189611D01*
X187960Y139319D02*
Y142621D01*
X346329Y152400D02*
X349631D01*
X347980Y150749D02*
Y154051D01*
X214249Y706120D02*
X217551D01*
X215900Y704469D02*
Y707771D01*
X80899Y189230D02*
X84201D01*
X82550Y187579D02*
Y190881D01*
X656209Y930910D02*
X659511D01*
X657860Y929259D02*
Y932561D01*
X797179Y828040D02*
X800481D01*
X798830Y826389D02*
Y829691D01*
X827659Y646430D02*
X830961D01*
X829310Y644779D02*
Y648081D01*
X714579Y720090D02*
X717881D01*
X716230Y718439D02*
Y721741D01*
X908939Y632460D02*
X912241D01*
X910590Y630809D02*
Y634111D01*
X856869Y530860D02*
X860171D01*
X858520Y529209D02*
Y532511D01*
X941959Y298450D02*
X945261D01*
X943610Y296799D02*
Y300101D01*
X836549Y226060D02*
X839851D01*
X838200Y224409D02*
Y227711D01*
X722249Y175260D02*
X725551D01*
X723900Y173609D02*
Y176911D01*
X628269Y533400D02*
X631571D01*
X629920Y531749D02*
Y535051D01*
X714629Y137160D02*
X717931D01*
X716280Y135509D02*
Y138811D01*
X280289Y773430D02*
X283591D01*
X281940Y771779D02*
Y775081D01*
X294259Y628650D02*
X297561D01*
X295910Y626999D02*
Y630301D01*
X93269Y718490D02*
X96571D01*
X94920Y716839D02*
Y720141D01*
X421259Y309880D02*
X424561D01*
X422910Y308229D02*
Y311531D01*
X220599Y548640D02*
X223901D01*
X222250Y546989D02*
Y550291D01*
X70739Y487680D02*
X74041D01*
X72390Y486029D02*
Y489331D01*
M02*
