G04*
G04 #@! TF.GenerationSoftware,Altium Limited,Altium Designer,26.4.1 (12)*
G04*
G04 Layer_Physical_Order=2*
G04 Layer_Color=16711680*
%FSLAX44Y44*%
%MOMM*%
G71*
G04*
G04 #@! TF.SameCoordinates,1666C7A0-12F2-4B08-8772-BA7E2557FA20*
G04*
G04*
G04 #@! TF.FilePolarity,Positive*
G04*
G01*
G75*
%ADD41C,1.6200*%
%ADD42C,2.0000*%
%ADD43C,2.7432*%
%ADD44R,2.7432X2.7432*%
%ADD45C,0.6350*%
G36*
X1033680Y5179D02*
X5179D01*
Y990600D01*
Y1013361D01*
X1033680D01*
X1033680Y5179D01*
D02*
G37*
%LPC*%
G36*
X356971Y984090D02*
X353669D01*
X350480Y983235D01*
X347620Y981584D01*
X345285Y979250D01*
X343635Y976390D01*
X342780Y973201D01*
Y969899D01*
X343635Y966710D01*
X345285Y963850D01*
X347620Y961516D01*
X350480Y959865D01*
X353669Y959010D01*
X356971D01*
X360160Y959865D01*
X363020Y961516D01*
X365354Y963850D01*
X367005Y966710D01*
X367860Y969899D01*
Y973201D01*
X367005Y976390D01*
X365354Y979250D01*
X363020Y981584D01*
X360160Y983235D01*
X356971Y984090D01*
D02*
G37*
G36*
X242671D02*
X239369D01*
X236180Y983235D01*
X233320Y981584D01*
X230986Y979250D01*
X229335Y976390D01*
X228480Y973201D01*
Y969899D01*
X229335Y966710D01*
X230986Y963850D01*
X233320Y961516D01*
X236180Y959865D01*
X239369Y959010D01*
X242671D01*
X245860Y959865D01*
X248720Y961516D01*
X251054Y963850D01*
X252705Y966710D01*
X253560Y969899D01*
Y973201D01*
X252705Y976390D01*
X251054Y979250D01*
X248720Y981584D01*
X245860Y983235D01*
X242671Y984090D01*
D02*
G37*
G36*
X542671Y981550D02*
X539369D01*
X536180Y980695D01*
X533320Y979044D01*
X530985Y976710D01*
X529335Y973850D01*
X528480Y970661D01*
Y967359D01*
X529335Y964170D01*
X530985Y961310D01*
X533320Y958976D01*
X536180Y957325D01*
X539369Y956470D01*
X542671D01*
X545860Y957325D01*
X548720Y958976D01*
X551054Y961310D01*
X552705Y964170D01*
X553560Y967359D01*
Y970661D01*
X552705Y973850D01*
X551054Y976710D01*
X548720Y979044D01*
X545860Y980695D01*
X542671Y981550D01*
D02*
G37*
G36*
X810391Y972030D02*
X807589D01*
X804883Y971305D01*
X802457Y969904D01*
X800476Y967923D01*
X799075Y965497D01*
X798350Y962791D01*
Y959989D01*
X799075Y957283D01*
X800476Y954857D01*
X802457Y952876D01*
X804883Y951475D01*
X807589Y950750D01*
X810391D01*
X813097Y951475D01*
X815523Y952876D01*
X817504Y954857D01*
X818905Y957283D01*
X819630Y959989D01*
Y962791D01*
X818905Y965497D01*
X817504Y967923D01*
X815523Y969904D01*
X813097Y971305D01*
X810391Y972030D01*
D02*
G37*
G36*
X784991D02*
X782189D01*
X779483Y971305D01*
X777057Y969904D01*
X775076Y967923D01*
X773675Y965497D01*
X772950Y962791D01*
Y959989D01*
X773675Y957283D01*
X775076Y954857D01*
X777057Y952876D01*
X779483Y951475D01*
X782189Y950750D01*
X784991D01*
X787697Y951475D01*
X790123Y952876D01*
X792104Y954857D01*
X793505Y957283D01*
X794230Y959989D01*
Y962791D01*
X793505Y965497D01*
X792104Y967923D01*
X790123Y969904D01*
X787697Y971305D01*
X784991Y972030D01*
D02*
G37*
G36*
X1018286Y975106D02*
X985774D01*
Y942594D01*
X1018286D01*
Y975106D01*
D02*
G37*
G36*
X542421Y916150D02*
X539619D01*
X536913Y915425D01*
X534487Y914024D01*
X532506Y912043D01*
X531105Y909617D01*
X530380Y906911D01*
Y904109D01*
X531105Y901403D01*
X532506Y898977D01*
X534487Y896996D01*
X536913Y895595D01*
X539619Y894870D01*
X542421D01*
X545127Y895595D01*
X547553Y896996D01*
X549534Y898977D01*
X550935Y901403D01*
X551660Y904109D01*
Y906911D01*
X550935Y909617D01*
X549534Y912043D01*
X547553Y914024D01*
X545127Y915425D01*
X542421Y916150D01*
D02*
G37*
G36*
X354461Y913610D02*
X351659D01*
X348953Y912885D01*
X346527Y911484D01*
X344546Y909503D01*
X343145Y907077D01*
X342420Y904371D01*
Y901569D01*
X343145Y898863D01*
X344546Y896437D01*
X346527Y894456D01*
X348953Y893055D01*
X351659Y892330D01*
X354461D01*
X357167Y893055D01*
X359593Y894456D01*
X361574Y896437D01*
X362975Y898863D01*
X363700Y901569D01*
Y904371D01*
X362975Y907077D01*
X361574Y909503D01*
X359593Y911484D01*
X357167Y912885D01*
X354461Y913610D01*
D02*
G37*
G36*
X237621D02*
X234819D01*
X232113Y912885D01*
X229687Y911484D01*
X227706Y909503D01*
X226305Y907077D01*
X225580Y904371D01*
Y901569D01*
X226305Y898863D01*
X227706Y896437D01*
X229687Y894456D01*
X232113Y893055D01*
X234819Y892330D01*
X237621D01*
X240327Y893055D01*
X242753Y894456D01*
X244734Y896437D01*
X246135Y898863D01*
X246860Y901569D01*
Y904371D01*
X246135Y907077D01*
X244734Y909503D01*
X242753Y911484D01*
X240327Y912885D01*
X237621Y913610D01*
D02*
G37*
G36*
X378591Y851380D02*
X375789D01*
X373083Y850655D01*
X370657Y849254D01*
X368676Y847273D01*
X367275Y844847D01*
X366550Y842141D01*
Y839339D01*
X367275Y836633D01*
X368676Y834207D01*
X370657Y832226D01*
X373083Y830825D01*
X375789Y830100D01*
X378591D01*
X381297Y830825D01*
X383723Y832226D01*
X385704Y834207D01*
X387105Y836633D01*
X387830Y839339D01*
Y842141D01*
X387105Y844847D01*
X385704Y847273D01*
X383723Y849254D01*
X381297Y850655D01*
X378591Y851380D01*
D02*
G37*
G36*
X353191D02*
X350389D01*
X347683Y850655D01*
X345257Y849254D01*
X343276Y847273D01*
X341875Y844847D01*
X341150Y842141D01*
Y839339D01*
X341875Y836633D01*
X343276Y834207D01*
X345257Y832226D01*
X347683Y830825D01*
X350389Y830100D01*
X353191D01*
X355897Y830825D01*
X358323Y832226D01*
X360304Y834207D01*
X361705Y836633D01*
X362430Y839339D01*
Y842141D01*
X361705Y844847D01*
X360304Y847273D01*
X358323Y849254D01*
X355897Y850655D01*
X353191Y851380D01*
D02*
G37*
G36*
X726571Y809470D02*
X723769D01*
X721063Y808745D01*
X718637Y807344D01*
X716656Y805363D01*
X715255Y802937D01*
X714530Y800231D01*
Y797429D01*
X715255Y794723D01*
X716656Y792297D01*
X718637Y790316D01*
X721063Y788915D01*
X723769Y788190D01*
X726571D01*
X729277Y788915D01*
X731703Y790316D01*
X733684Y792297D01*
X735085Y794723D01*
X735810Y797429D01*
Y800231D01*
X735085Y802937D01*
X733684Y805363D01*
X731703Y807344D01*
X729277Y808745D01*
X726571Y809470D01*
D02*
G37*
G36*
X701171D02*
X698369D01*
X695663Y808745D01*
X693237Y807344D01*
X691256Y805363D01*
X689855Y802937D01*
X689130Y800231D01*
Y797429D01*
X689855Y794723D01*
X691256Y792297D01*
X693237Y790316D01*
X695663Y788915D01*
X698369Y788190D01*
X701171D01*
X703877Y788915D01*
X706303Y790316D01*
X708284Y792297D01*
X709685Y794723D01*
X710410Y797429D01*
Y800231D01*
X709685Y802937D01*
X708284Y805363D01*
X706303Y807344D01*
X703877Y808745D01*
X701171Y809470D01*
D02*
G37*
G36*
X454791Y399260D02*
X451989D01*
X449283Y398535D01*
X446857Y397134D01*
X444876Y395153D01*
X443475Y392727D01*
X442750Y390021D01*
Y387219D01*
X443475Y384513D01*
X444876Y382087D01*
X446857Y380106D01*
X449283Y378705D01*
X451989Y377980D01*
X454791D01*
X457497Y378705D01*
X459923Y380106D01*
X461904Y382087D01*
X463305Y384513D01*
X464030Y387219D01*
Y390021D01*
X463305Y392727D01*
X461904Y395153D01*
X459923Y397134D01*
X457497Y398535D01*
X454791Y399260D01*
D02*
G37*
G36*
X990731Y364970D02*
X987929D01*
X985223Y364245D01*
X982797Y362844D01*
X980816Y360863D01*
X979415Y358437D01*
X978690Y355731D01*
Y352929D01*
X979415Y350223D01*
X980816Y347797D01*
X982797Y345816D01*
X985223Y344415D01*
X987929Y343690D01*
X990731D01*
X993437Y344415D01*
X995863Y345816D01*
X997844Y347797D01*
X999245Y350223D01*
X999970Y352929D01*
Y355731D01*
X999245Y358437D01*
X997844Y360863D01*
X995863Y362844D01*
X993437Y364245D01*
X990731Y364970D01*
D02*
G37*
G36*
X119511Y353540D02*
X116709D01*
X114003Y352815D01*
X111577Y351414D01*
X109596Y349433D01*
X108195Y347007D01*
X107470Y344301D01*
Y341499D01*
X108195Y338793D01*
X109596Y336367D01*
X111577Y334386D01*
X114003Y332985D01*
X116709Y332260D01*
X119511D01*
X122217Y332985D01*
X124643Y334386D01*
X126624Y336367D01*
X128025Y338793D01*
X128750Y341499D01*
Y344301D01*
X128025Y347007D01*
X126624Y349433D01*
X124643Y351414D01*
X122217Y352815D01*
X119511Y353540D01*
D02*
G37*
G36*
X46101Y355160D02*
X42799D01*
X39610Y354305D01*
X36750Y352654D01*
X34416Y350320D01*
X32765Y347460D01*
X31910Y344271D01*
Y340969D01*
X32765Y337780D01*
X34416Y334920D01*
X36750Y332585D01*
X39610Y330935D01*
X42799Y330080D01*
X46101D01*
X49290Y330935D01*
X52150Y332585D01*
X54485Y334920D01*
X56135Y337780D01*
X56990Y340969D01*
Y344271D01*
X56135Y347460D01*
X54485Y350320D01*
X52150Y352654D01*
X49290Y354305D01*
X46101Y355160D01*
D02*
G37*
G36*
X931041Y180820D02*
X928239D01*
X925533Y180095D01*
X923107Y178694D01*
X921126Y176713D01*
X919725Y174287D01*
X919000Y171581D01*
Y168779D01*
X919725Y166073D01*
X921126Y163647D01*
X923107Y161666D01*
X925533Y160265D01*
X928239Y159540D01*
X931041D01*
X933747Y160265D01*
X936173Y161666D01*
X938154Y163647D01*
X939555Y166073D01*
X940280Y168779D01*
Y171581D01*
X939555Y174287D01*
X938154Y176713D01*
X936173Y178694D01*
X933747Y180095D01*
X931041Y180820D01*
D02*
G37*
G36*
X997331Y175380D02*
X994029D01*
X990840Y174525D01*
X987980Y172875D01*
X985646Y170540D01*
X983995Y167680D01*
X983140Y164491D01*
Y161189D01*
X983995Y158000D01*
X985646Y155140D01*
X987980Y152806D01*
X990840Y151155D01*
X994029Y150300D01*
X997331D01*
X1000520Y151155D01*
X1003380Y152806D01*
X1005714Y155140D01*
X1007365Y158000D01*
X1008220Y161189D01*
Y164491D01*
X1007365Y167680D01*
X1005714Y170540D01*
X1003380Y172875D01*
X1000520Y174525D01*
X997331Y175380D01*
D02*
G37*
G36*
X297311Y118590D02*
X294509D01*
X291803Y117865D01*
X289377Y116464D01*
X287396Y114483D01*
X285995Y112057D01*
X285270Y109351D01*
Y106549D01*
X285995Y103843D01*
X287396Y101417D01*
X289377Y99436D01*
X291803Y98035D01*
X294509Y97310D01*
X297311D01*
X300017Y98035D01*
X302443Y99436D01*
X304424Y101417D01*
X305825Y103843D01*
X306550Y106549D01*
Y109351D01*
X305825Y112057D01*
X304424Y114483D01*
X302443Y116464D01*
X300017Y117865D01*
X297311Y118590D01*
D02*
G37*
G36*
X125861Y110970D02*
X123059D01*
X120353Y110245D01*
X117927Y108844D01*
X115946Y106863D01*
X114545Y104437D01*
X113820Y101731D01*
Y98929D01*
X114545Y96223D01*
X115946Y93797D01*
X117927Y91816D01*
X120353Y90415D01*
X123059Y89690D01*
X125861D01*
X128567Y90415D01*
X130993Y91816D01*
X132974Y93797D01*
X134375Y96223D01*
X135100Y98929D01*
Y101731D01*
X134375Y104437D01*
X132974Y106863D01*
X130993Y108844D01*
X128567Y110245D01*
X125861Y110970D01*
D02*
G37*
G36*
X769011Y55720D02*
X765709D01*
X762520Y54865D01*
X759660Y53215D01*
X757326Y50880D01*
X755675Y48020D01*
X754820Y44831D01*
Y41529D01*
X755675Y38340D01*
X757326Y35480D01*
X759660Y33145D01*
X762520Y31495D01*
X765709Y30640D01*
X769011D01*
X772200Y31495D01*
X775060Y33145D01*
X777394Y35480D01*
X779045Y38340D01*
X779900Y41529D01*
Y44831D01*
X779045Y48020D01*
X777394Y50880D01*
X775060Y53215D01*
X772200Y54865D01*
X769011Y55720D01*
D02*
G37*
G36*
X295301D02*
X291999D01*
X288810Y54865D01*
X285950Y53215D01*
X283616Y50880D01*
X281965Y48020D01*
X281110Y44831D01*
Y41529D01*
X281965Y38340D01*
X283616Y35480D01*
X285950Y33145D01*
X288810Y31495D01*
X291999Y30640D01*
X295301D01*
X298490Y31495D01*
X301350Y33145D01*
X303685Y35480D01*
X305335Y38340D01*
X306190Y41529D01*
Y44831D01*
X305335Y48020D01*
X303685Y50880D01*
X301350Y53215D01*
X298490Y54865D01*
X295301Y55720D01*
D02*
G37*
G36*
X123851Y54450D02*
X120549D01*
X117360Y53595D01*
X114500Y51944D01*
X112166Y49610D01*
X110515Y46750D01*
X109660Y43561D01*
Y40259D01*
X110515Y37070D01*
X112166Y34210D01*
X114500Y31876D01*
X117360Y30225D01*
X120549Y29370D01*
X123851D01*
X127040Y30225D01*
X129900Y31876D01*
X132234Y34210D01*
X133885Y37070D01*
X134740Y40259D01*
Y43561D01*
X133885Y46750D01*
X132234Y49610D01*
X129900Y51944D01*
X127040Y53595D01*
X123851Y54450D01*
D02*
G37*
G36*
X715141Y48740D02*
X712339D01*
X709633Y48015D01*
X707207Y46614D01*
X705226Y44633D01*
X703825Y42207D01*
X703100Y39501D01*
Y36699D01*
X703825Y33993D01*
X705226Y31567D01*
X707207Y29586D01*
X709633Y28185D01*
X712339Y27460D01*
X715141D01*
X717847Y28185D01*
X720273Y29586D01*
X722254Y31567D01*
X723655Y33993D01*
X724380Y36699D01*
Y39501D01*
X723655Y42207D01*
X722254Y44633D01*
X720273Y46614D01*
X717847Y48015D01*
X715141Y48740D01*
D02*
G37*
%LPD*%
D41*
X351790Y840740D02*
D03*
X377190D02*
D03*
X515620Y905510D02*
D03*
X963930Y354330D02*
D03*
X929640Y195580D02*
D03*
X713740Y63500D02*
D03*
X210820Y902970D02*
D03*
X327660D02*
D03*
X427990Y388620D02*
D03*
X321310Y107950D02*
D03*
X118110Y317500D02*
D03*
X149860Y100330D02*
D03*
X541020Y905510D02*
D03*
X783590Y961390D02*
D03*
X353060Y902970D02*
D03*
X236220D02*
D03*
X118110Y342900D02*
D03*
X295910Y107950D02*
D03*
X725170Y798830D02*
D03*
X713740Y38100D02*
D03*
X124460Y100330D02*
D03*
X699770Y798830D02*
D03*
X808990Y961390D02*
D03*
X989330Y354330D02*
D03*
X929640Y170180D02*
D03*
X453390Y388620D02*
D03*
D42*
X355320Y971550D02*
D03*
X320320D02*
D03*
X241020D02*
D03*
X206020D02*
D03*
X541020Y969010D02*
D03*
X506020D02*
D03*
X995680Y197840D02*
D03*
X802360Y43180D02*
D03*
X157200Y41910D02*
D03*
X44450Y307620D02*
D03*
X328650Y43180D02*
D03*
X44450Y342620D02*
D03*
X293650Y43180D02*
D03*
X122200Y41910D02*
D03*
X995680Y162840D02*
D03*
X767360Y43180D02*
D03*
D43*
X1002030Y876300D02*
D03*
D44*
Y958850D02*
D03*
D45*
X273050Y170180D02*
D03*
X187960Y140970D02*
D03*
X347980Y152400D02*
D03*
X215900Y706120D02*
D03*
X82550Y189230D02*
D03*
X657860Y930910D02*
D03*
X798830Y828040D02*
D03*
X829310Y646430D02*
D03*
X716230Y720090D02*
D03*
X910590Y632460D02*
D03*
X858520Y530860D02*
D03*
X943610Y298450D02*
D03*
X838200Y226060D02*
D03*
X723900Y175260D02*
D03*
X629920Y533400D02*
D03*
X716280Y137160D02*
D03*
X281940Y773430D02*
D03*
X295910Y628650D02*
D03*
X94920Y718490D02*
D03*
X422910Y309880D02*
D03*
X222250Y548640D02*
D03*
X72390Y487680D02*
D03*
M02*
