G04*
G04 #@! TF.GenerationSoftware,Altium Limited,Altium Designer,26.4.1 (12)*
G04*
G04 Layer_Color=16711935*
%FSLAX44Y44*%
%MOMM*%
G71*
G04*
G04 #@! TF.SameCoordinates,1666C7A0-12F2-4B08-8772-BA7E2557FA20*
G04*
G04*
G04 #@! TF.FilePolarity,Negative*
G04*
G01*
G75*
%ADD27C,0.0000*%
%ADD36C,1.8232*%
%ADD37C,2.2032*%
%ADD38C,2.9464*%
%ADD39R,2.9464X2.9464*%
%ADD40C,0.8382*%
D27*
X360401Y840740D02*
G03*
X360401Y840740I-8611J0D01*
G01*
X385801D02*
G03*
X385801Y840740I-8611J0D01*
G01*
X304521Y107950D02*
G03*
X304521Y107950I-8611J0D01*
G01*
X329921D02*
G03*
X329921Y107950I-8611J0D01*
G01*
X722351Y63500D02*
G03*
X722351Y63500I-8611J0D01*
G01*
Y38100D02*
G03*
X722351Y38100I-8611J0D01*
G01*
X244831Y902970D02*
G03*
X244831Y902970I-8611J0D01*
G01*
X219431D02*
G03*
X219431Y902970I-8611J0D01*
G01*
X336271D02*
G03*
X336271Y902970I-8611J0D01*
G01*
X361671D02*
G03*
X361671Y902970I-8611J0D01*
G01*
X733781Y798830D02*
G03*
X733781Y798830I-8611J0D01*
G01*
X708381D02*
G03*
X708381Y798830I-8611J0D01*
G01*
X817601Y961390D02*
G03*
X817601Y961390I-8611J0D01*
G01*
X792201D02*
G03*
X792201Y961390I-8611J0D01*
G01*
X549631Y905510D02*
G03*
X549631Y905510I-8611J0D01*
G01*
X524231D02*
G03*
X524231Y905510I-8611J0D01*
G01*
X997941Y354330D02*
G03*
X997941Y354330I-8611J0D01*
G01*
X972541D02*
G03*
X972541Y354330I-8611J0D01*
G01*
X938251Y170180D02*
G03*
X938251Y170180I-8611J0D01*
G01*
Y195580D02*
G03*
X938251Y195580I-8611J0D01*
G01*
X462001Y388620D02*
G03*
X462001Y388620I-8611J0D01*
G01*
X436601D02*
G03*
X436601Y388620I-8611J0D01*
G01*
X133071Y100330D02*
G03*
X133071Y100330I-8611J0D01*
G01*
X158471D02*
G03*
X158471Y100330I-8611J0D01*
G01*
X126721Y342900D02*
G03*
X126721Y342900I-8611J0D01*
G01*
Y317500D02*
G03*
X126721Y317500I-8611J0D01*
G01*
D36*
X351790Y840740D02*
D03*
X377190D02*
D03*
X515620Y905510D02*
D03*
X963930Y354330D02*
D03*
X929640Y195580D02*
D03*
X713740Y63500D02*
D03*
X210820Y902970D02*
D03*
X327660D02*
D03*
X427990Y388620D02*
D03*
X321310Y107950D02*
D03*
X118110Y317500D02*
D03*
X149860Y100330D02*
D03*
X541020Y905510D02*
D03*
X783590Y961390D02*
D03*
X353060Y902970D02*
D03*
X236220D02*
D03*
X118110Y342900D02*
D03*
X295910Y107950D02*
D03*
X725170Y798830D02*
D03*
X713740Y38100D02*
D03*
X124460Y100330D02*
D03*
X699770Y798830D02*
D03*
X808990Y961390D02*
D03*
X989330Y354330D02*
D03*
X929640Y170180D02*
D03*
X453390Y388620D02*
D03*
D37*
X355320Y971550D02*
D03*
X320320D02*
D03*
X241020D02*
D03*
X206020D02*
D03*
X541020Y969010D02*
D03*
X506020D02*
D03*
X995680Y197840D02*
D03*
X802360Y43180D02*
D03*
X157200Y41910D02*
D03*
X44450Y307620D02*
D03*
X328650Y43180D02*
D03*
X44450Y342620D02*
D03*
X293650Y43180D02*
D03*
X122200Y41910D02*
D03*
X995680Y162840D02*
D03*
X767360Y43180D02*
D03*
D38*
X1002030Y876300D02*
D03*
D39*
Y958850D02*
D03*
D40*
X273050Y170180D02*
D03*
X187960Y140970D02*
D03*
X347980Y152400D02*
D03*
X215900Y706120D02*
D03*
X82550Y189230D02*
D03*
X657860Y930910D02*
D03*
X798830Y828040D02*
D03*
X829310Y646430D02*
D03*
X716230Y720090D02*
D03*
X910590Y632460D02*
D03*
X858520Y530860D02*
D03*
X943610Y298450D02*
D03*
X838200Y226060D02*
D03*
X723900Y175260D02*
D03*
X629920Y533400D02*
D03*
X716280Y137160D02*
D03*
X281940Y773430D02*
D03*
X295910Y628650D02*
D03*
X94920Y718490D02*
D03*
X422910Y309880D02*
D03*
X222250Y548640D02*
D03*
X72390Y487680D02*
D03*
M02*
