M48
;Layer_Color=9474304
;FILE_FORMAT=4:4
METRIC,LZ
;TYPE=PLATED
T01F00S00C0.3302
T02F00S00C1.0000
T03F00S00C1.0201
T04F00S00C1.8288
%
T01
X0018796Y0014097
X0071628Y0013716
X0094361Y0029845
X008382Y0022606
X007239Y0017526
X0062992Y005334
X0085852Y0053086
X0042291Y0030988
X0034798Y001524
X0027305Y0017018
X0008255Y0018923
X0007239Y0048768
X0009492Y0071849
X002159Y0070612
X0028194Y0077343
X0029591Y0062865
X0022225Y0054864
X0071623Y0072009
X0082931Y0064643
X0091059Y0063246
X0079883Y0082804
X0065786Y0093091
T02
X001222Y0004191
X001572
X0029365Y0004318
X0032865
X0076736
X0080236
X0099568Y0016284
Y0019784
X0004445Y0030762
Y0034262
X0054102Y0096901
X0050602
X0035532Y0097155
X0032032
X0024102
X0020602
T03
X0012446Y0010033
X0014986
X0029591Y0010795
X0032131
X0071374Y000635
Y000381
X0096393Y0035433
X0098933
X0092964Y0019558
Y0017018
X0045339Y0038862
X0042799
X0011811Y003429
Y003175
X0021082Y0090297
X0023622
X0032766
X0035306
X0035179Y0084074
X0037719
X0051562Y0090551
X0054102
X0069977Y0079883
X0072517
X0078359Y0096139
X0080899
T04
X0100203Y008763
Y0095885
M30
