G04*
G04 #@! TF.GenerationSoftware,Altium Limited,Altium Designer,26.4.1 (12)*
G04*
G04 Layer_Color=8421504*
%FSLAX44Y44*%
%MOMM*%
G71*
G04*
G04 #@! TF.SameCoordinates,1666C7A0-12F2-4B08-8772-BA7E2557FA20*
G04*
G04*
G04 #@! TF.FilePolarity,Positive*
G04*
G01*
G75*
%ADD18R,1.8034X1.1176*%
G04:AMPARAMS|DCode=19|XSize=10.5mm|YSize=8.8mm|CornerRadius=0.044mm|HoleSize=0mm|Usage=FLASHONLY|Rotation=180.000|XOffset=0mm|YOffset=0mm|HoleType=Round|Shape=RoundedRectangle|*
%AMROUNDEDRECTD19*
21,1,10.5000,8.7120,0,0,180.0*
21,1,10.4120,8.8000,0,0,180.0*
1,1,0.0880,-5.2060,4.3560*
1,1,0.0880,5.2060,4.3560*
1,1,0.0880,5.2060,-4.3560*
1,1,0.0880,-5.2060,-4.3560*
%
%ADD19ROUNDEDRECTD19*%
%ADD20R,1.4400X1.8200*%
G04:AMPARAMS|DCode=21|XSize=0.95mm|YSize=3.5mm|CornerRadius=0.0522mm|HoleSize=0mm|Usage=FLASHONLY|Rotation=180.000|XOffset=0mm|YOffset=0mm|HoleType=Round|Shape=RoundedRectangle|*
%AMROUNDEDRECTD21*
21,1,0.9500,3.3955,0,0,180.0*
21,1,0.8455,3.5000,0,0,180.0*
1,1,0.1045,-0.4228,1.6978*
1,1,0.1045,0.4228,1.6978*
1,1,0.1045,0.4228,-1.6978*
1,1,0.1045,-0.4228,-1.6978*
%
%ADD21ROUNDEDRECTD21*%
%ADD22R,1.1176X1.8034*%
%ADD23R,0.8382X1.7000*%
%ADD24R,2.1800X3.1200*%
%ADD25R,3.8608X5.5118*%
%ADD26R,3.0988X1.7000*%
D18*
X627380Y961136D02*
D03*
Y931164D02*
D03*
X838200Y205486D02*
D03*
X365760Y164084D02*
D03*
X190500Y157734D02*
D03*
Y187706D02*
D03*
X365760Y194056D02*
D03*
X838200Y175514D02*
D03*
D19*
X830580Y773430D02*
D03*
X215900Y772160D02*
D03*
D20*
X730200Y736600D02*
D03*
X731470Y701040D02*
D03*
X113310Y733730D02*
D03*
X114580Y701980D02*
D03*
X758190Y701040D02*
D03*
X756920Y736600D02*
D03*
X141300Y701980D02*
D03*
X140030Y733730D02*
D03*
D21*
X830580Y673930D02*
D03*
X215900Y672660D02*
D03*
X177800D02*
D03*
X190500D02*
D03*
X203200D02*
D03*
X228600D02*
D03*
X241300D02*
D03*
X254000D02*
D03*
X817880Y673930D02*
D03*
X805180D02*
D03*
X868680D02*
D03*
X855980D02*
D03*
X843280D02*
D03*
X792480D02*
D03*
D22*
X887476Y632460D02*
D03*
X858774Y556260D02*
D03*
X960374Y298450D02*
D03*
X739394Y137160D02*
D03*
X271526Y629920D02*
D03*
X241554Y549910D02*
D03*
X423164Y336550D02*
D03*
X326136Y154940D02*
D03*
X154686Y143510D02*
D03*
X422148Y447040D02*
D03*
X271526Y549910D02*
D03*
Y593090D02*
D03*
X124714Y143510D02*
D03*
X296164Y154940D02*
D03*
X241554Y593090D02*
D03*
Y629920D02*
D03*
X206756Y607060D02*
D03*
X858774Y599440D02*
D03*
X888746D02*
D03*
X816356Y601980D02*
D03*
X769366Y137160D02*
D03*
X176784Y607060D02*
D03*
X960374Y411480D02*
D03*
X990346D02*
D03*
Y298450D02*
D03*
X786384Y601980D02*
D03*
X888746Y556260D02*
D03*
X452120Y447040D02*
D03*
X453136Y336550D02*
D03*
X857504Y632460D02*
D03*
D23*
X743966Y178320D02*
D03*
X101346Y192290D02*
D03*
X274066Y197370D02*
D03*
X147574Y189790D02*
D03*
X320294Y194870D02*
D03*
X124460Y192290D02*
D03*
X297180Y197370D02*
D03*
X790194Y175820D02*
D03*
X767080Y178320D02*
D03*
D24*
X661110Y532130D02*
D03*
X107390Y487680D02*
D03*
X730810Y532130D02*
D03*
X177090Y487680D02*
D03*
D25*
X366014Y448310D02*
D03*
X266446D02*
D03*
X765556Y411480D02*
D03*
X865124D02*
D03*
D26*
X124460Y257290D02*
D03*
X297180Y262370D02*
D03*
X767080Y243320D02*
D03*
M02*
