G04*
G04 #@! TF.GenerationSoftware,Altium Limited,Altium Designer,26.4.1 (12)*
G04*
G04 Layer_Color=8388736*
%FSLAX44Y44*%
%MOMM*%
G71*
G04*
G04 #@! TF.SameCoordinates,1666C7A0-12F2-4B08-8772-BA7E2557FA20*
G04*
G04*
G04 #@! TF.FilePolarity,Negative*
G04*
G01*
G75*
%ADD25R,3.8608X5.5118*%
%ADD27C,0.0000*%
%ADD28R,2.0066X1.3208*%
G04:AMPARAMS|DCode=29|XSize=10.7032mm|YSize=9.0032mm|CornerRadius=0.1456mm|HoleSize=0mm|Usage=FLASHONLY|Rotation=180.000|XOffset=0mm|YOffset=0mm|HoleType=Round|Shape=RoundedRectangle|*
%AMROUNDEDRECTD29*
21,1,10.7032,8.7120,0,0,180.0*
21,1,10.4120,9.0032,0,0,180.0*
1,1,0.2912,-5.2060,4.3560*
1,1,0.2912,5.2060,4.3560*
1,1,0.2912,5.2060,-4.3560*
1,1,0.2912,-5.2060,-4.3560*
%
%ADD29ROUNDEDRECTD29*%
%ADD30R,1.6432X2.0232*%
G04:AMPARAMS|DCode=31|XSize=1.1532mm|YSize=3.7032mm|CornerRadius=0.1539mm|HoleSize=0mm|Usage=FLASHONLY|Rotation=180.000|XOffset=0mm|YOffset=0mm|HoleType=Round|Shape=RoundedRectangle|*
%AMROUNDEDRECTD31*
21,1,1.1532,3.3955,0,0,180.0*
21,1,0.8455,3.7032,0,0,180.0*
1,1,0.3077,-0.4228,1.6978*
1,1,0.3077,0.4228,1.6978*
1,1,0.3077,0.4228,-1.6978*
1,1,0.3077,-0.4228,-1.6978*
%
%ADD31ROUNDEDRECTD31*%
%ADD32R,1.3208X2.0066*%
%ADD33R,1.0414X1.9032*%
%ADD34R,2.3832X3.3232*%
%ADD35R,3.3020X1.9032*%
%ADD36C,1.8232*%
%ADD37C,2.2032*%
%ADD38C,2.9464*%
%ADD39R,2.9464X2.9464*%
%ADD40C,0.8382*%
D25*
X366014Y448310D02*
D03*
X266446D02*
D03*
X765556Y411480D02*
D03*
X865124D02*
D03*
D27*
X360401Y840740D02*
G03*
X360401Y840740I-8611J0D01*
G01*
X385801D02*
G03*
X385801Y840740I-8611J0D01*
G01*
X304521Y107950D02*
G03*
X304521Y107950I-8611J0D01*
G01*
X329921D02*
G03*
X329921Y107950I-8611J0D01*
G01*
X722351Y63500D02*
G03*
X722351Y63500I-8611J0D01*
G01*
Y38100D02*
G03*
X722351Y38100I-8611J0D01*
G01*
X244831Y902970D02*
G03*
X244831Y902970I-8611J0D01*
G01*
X219431D02*
G03*
X219431Y902970I-8611J0D01*
G01*
X336271D02*
G03*
X336271Y902970I-8611J0D01*
G01*
X361671D02*
G03*
X361671Y902970I-8611J0D01*
G01*
X733781Y798830D02*
G03*
X733781Y798830I-8611J0D01*
G01*
X708381D02*
G03*
X708381Y798830I-8611J0D01*
G01*
X817601Y961390D02*
G03*
X817601Y961390I-8611J0D01*
G01*
X792201D02*
G03*
X792201Y961390I-8611J0D01*
G01*
X549631Y905510D02*
G03*
X549631Y905510I-8611J0D01*
G01*
X524231D02*
G03*
X524231Y905510I-8611J0D01*
G01*
X997941Y354330D02*
G03*
X997941Y354330I-8611J0D01*
G01*
X972541D02*
G03*
X972541Y354330I-8611J0D01*
G01*
X938251Y170180D02*
G03*
X938251Y170180I-8611J0D01*
G01*
Y195580D02*
G03*
X938251Y195580I-8611J0D01*
G01*
X462001Y388620D02*
G03*
X462001Y388620I-8611J0D01*
G01*
X436601D02*
G03*
X436601Y388620I-8611J0D01*
G01*
X133071Y100330D02*
G03*
X133071Y100330I-8611J0D01*
G01*
X158471D02*
G03*
X158471Y100330I-8611J0D01*
G01*
X126721Y342900D02*
G03*
X126721Y342900I-8611J0D01*
G01*
Y317500D02*
G03*
X126721Y317500I-8611J0D01*
G01*
D28*
X627380Y961136D02*
D03*
Y931164D02*
D03*
X838200Y205486D02*
D03*
X365760Y164084D02*
D03*
X190500Y157734D02*
D03*
Y187706D02*
D03*
X365760Y194056D02*
D03*
X838200Y175514D02*
D03*
D29*
X830580Y773430D02*
D03*
X215900Y772160D02*
D03*
D30*
X730200Y736600D02*
D03*
X731470Y701040D02*
D03*
X113310Y733730D02*
D03*
X114580Y701980D02*
D03*
X758190Y701040D02*
D03*
X756920Y736600D02*
D03*
X141300Y701980D02*
D03*
X140030Y733730D02*
D03*
D31*
X830580Y673930D02*
D03*
X215900Y672660D02*
D03*
X177800D02*
D03*
X190500D02*
D03*
X203200D02*
D03*
X228600D02*
D03*
X241300D02*
D03*
X254000D02*
D03*
X817880Y673930D02*
D03*
X805180D02*
D03*
X868680D02*
D03*
X855980D02*
D03*
X843280D02*
D03*
X792480D02*
D03*
D32*
X887476Y632460D02*
D03*
X858774Y556260D02*
D03*
X960374Y298450D02*
D03*
X739394Y137160D02*
D03*
X271526Y629920D02*
D03*
X241554Y549910D02*
D03*
X423164Y336550D02*
D03*
X326136Y154940D02*
D03*
X154686Y143510D02*
D03*
X422148Y447040D02*
D03*
X271526Y549910D02*
D03*
Y593090D02*
D03*
X124714Y143510D02*
D03*
X296164Y154940D02*
D03*
X241554Y593090D02*
D03*
Y629920D02*
D03*
X206756Y607060D02*
D03*
X858774Y599440D02*
D03*
X888746D02*
D03*
X816356Y601980D02*
D03*
X769366Y137160D02*
D03*
X176784Y607060D02*
D03*
X960374Y411480D02*
D03*
X990346D02*
D03*
Y298450D02*
D03*
X786384Y601980D02*
D03*
X888746Y556260D02*
D03*
X452120Y447040D02*
D03*
X453136Y336550D02*
D03*
X857504Y632460D02*
D03*
D33*
X743966Y178320D02*
D03*
X101346Y192290D02*
D03*
X274066Y197370D02*
D03*
X147574Y189790D02*
D03*
X320294Y194870D02*
D03*
X124460Y192290D02*
D03*
X297180Y197370D02*
D03*
X790194Y175820D02*
D03*
X767080Y178320D02*
D03*
D34*
X661110Y532130D02*
D03*
X107390Y487680D02*
D03*
X730810Y532130D02*
D03*
X177090Y487680D02*
D03*
D35*
X124460Y257290D02*
D03*
X297180Y262370D02*
D03*
X767080Y243320D02*
D03*
D36*
X351790Y840740D02*
D03*
X377190D02*
D03*
X515620Y905510D02*
D03*
X963930Y354330D02*
D03*
X929640Y195580D02*
D03*
X713740Y63500D02*
D03*
X210820Y902970D02*
D03*
X327660D02*
D03*
X427990Y388620D02*
D03*
X321310Y107950D02*
D03*
X118110Y317500D02*
D03*
X149860Y100330D02*
D03*
X541020Y905510D02*
D03*
X783590Y961390D02*
D03*
X353060Y902970D02*
D03*
X236220D02*
D03*
X118110Y342900D02*
D03*
X295910Y107950D02*
D03*
X725170Y798830D02*
D03*
X713740Y38100D02*
D03*
X124460Y100330D02*
D03*
X699770Y798830D02*
D03*
X808990Y961390D02*
D03*
X989330Y354330D02*
D03*
X929640Y170180D02*
D03*
X453390Y388620D02*
D03*
D37*
X355320Y971550D02*
D03*
X320320D02*
D03*
X241020D02*
D03*
X206020D02*
D03*
X541020Y969010D02*
D03*
X506020D02*
D03*
X995680Y197840D02*
D03*
X802360Y43180D02*
D03*
X157200Y41910D02*
D03*
X44450Y307620D02*
D03*
X328650Y43180D02*
D03*
X44450Y342620D02*
D03*
X293650Y43180D02*
D03*
X122200Y41910D02*
D03*
X995680Y162840D02*
D03*
X767360Y43180D02*
D03*
D38*
X1002030Y876300D02*
D03*
D39*
Y958850D02*
D03*
D40*
X273050Y170180D02*
D03*
X187960Y140970D02*
D03*
X347980Y152400D02*
D03*
X215900Y706120D02*
D03*
X82550Y189230D02*
D03*
X657860Y930910D02*
D03*
X798830Y828040D02*
D03*
X829310Y646430D02*
D03*
X716230Y720090D02*
D03*
X910590Y632460D02*
D03*
X858520Y530860D02*
D03*
X943610Y298450D02*
D03*
X838200Y226060D02*
D03*
X723900Y175260D02*
D03*
X629920Y533400D02*
D03*
X716280Y137160D02*
D03*
X281940Y773430D02*
D03*
X295910Y628650D02*
D03*
X94920Y718490D02*
D03*
X422910Y309880D02*
D03*
X222250Y548640D02*
D03*
X72390Y487680D02*
D03*
M02*
