G04*
G04 #@! TF.GenerationSoftware,Altium Limited,Altium Designer,26.4.1 (12)*
G04*
G04 Layer_Physical_Order=1*
G04 Layer_Color=255*
%FSLAX44Y44*%
%MOMM*%
G71*
G04*
G04 #@! TF.SameCoordinates,1666C7A0-12F2-4B08-8772-BA7E2557FA20*
G04*
G04*
G04 #@! TF.FilePolarity,Positive*
G04*
G01*
G75*
%ADD10C,0.5080*%
%ADD11C,0.1524*%
%ADD15C,0.2540*%
%ADD18R,1.8034X1.1176*%
G04:AMPARAMS|DCode=19|XSize=10.5mm|YSize=8.8mm|CornerRadius=0.044mm|HoleSize=0mm|Usage=FLASHONLY|Rotation=180.000|XOffset=0mm|YOffset=0mm|HoleType=Round|Shape=RoundedRectangle|*
%AMROUNDEDRECTD19*
21,1,10.5000,8.7120,0,0,180.0*
21,1,10.4120,8.8000,0,0,180.0*
1,1,0.0880,-5.2060,4.3560*
1,1,0.0880,5.2060,4.3560*
1,1,0.0880,5.2060,-4.3560*
1,1,0.0880,-5.2060,-4.3560*
%
%ADD19ROUNDEDRECTD19*%
%ADD20R,1.4400X1.8200*%
G04:AMPARAMS|DCode=21|XSize=0.95mm|YSize=3.5mm|CornerRadius=0.0522mm|HoleSize=0mm|Usage=FLASHONLY|Rotation=180.000|XOffset=0mm|YOffset=0mm|HoleType=Round|Shape=RoundedRectangle|*
%AMROUNDEDRECTD21*
21,1,0.9500,3.3955,0,0,180.0*
21,1,0.8455,3.5000,0,0,180.0*
1,1,0.1045,-0.4228,1.6978*
1,1,0.1045,0.4228,1.6978*
1,1,0.1045,0.4228,-1.6978*
1,1,0.1045,-0.4228,-1.6978*
%
%ADD21ROUNDEDRECTD21*%
%ADD22R,1.1176X1.8034*%
%ADD23R,0.8382X1.7000*%
%ADD24R,2.1800X3.1200*%
%ADD25R,3.8608X5.5118*%
%ADD26R,3.0988X1.7000*%
%ADD41C,1.6200*%
%ADD42C,2.0000*%
%ADD43C,2.7432*%
%ADD44R,2.7432X2.7432*%
%ADD45C,0.6350*%
D10*
X377190Y840740D02*
X392512D01*
X877570D01*
X875030Y838200D02*
X877570Y840740D01*
X984831Y948001D01*
X995680Y952827D02*
Y958850D01*
X154940Y840740D02*
X351790D01*
X140030Y825830D02*
X154940Y840740D01*
X140665Y733095D02*
X142240Y731520D01*
X140030Y733730D02*
X140665Y733095D01*
X122200Y41910D02*
X123330Y43040D01*
Y99200D01*
X124460Y100330D01*
X124714Y99447D02*
Y143510D01*
X699770Y798830D02*
Y836494D01*
X995680Y958850D02*
X1002030D01*
X699770Y836494D02*
X701476Y838200D01*
X875030D01*
X808990Y961390D02*
X999490D01*
X984831Y948001D02*
X990854D01*
X995680Y952827D01*
X999490Y961390D02*
X1002030Y958850D01*
X628523Y959993D02*
X783590D01*
X140030Y733730D02*
Y825830D01*
X187524Y701980D02*
X190500Y699004D01*
Y672660D02*
Y699004D01*
X141300Y701980D02*
X187524D01*
X122695Y98565D02*
X124460Y100330D01*
X124587Y143637D02*
X124714Y143510D01*
X124587Y143637D02*
Y192163D01*
X124460Y192290D02*
X124587Y192163D01*
X124460Y192290D02*
Y257290D01*
X147574Y189357D02*
Y189790D01*
Y189357D02*
X149225Y187706D01*
X190500D01*
Y344170D01*
X366014D01*
X118110Y342900D02*
X119380Y344170D01*
X190500D01*
X366014D02*
Y448310D01*
X293650Y43180D02*
X294780Y44310D01*
Y106820D01*
X295910Y107950D01*
X296037Y108077D01*
Y154813D01*
X296164Y154940D01*
X296672Y196862D02*
X297180Y197370D01*
X296672Y155448D02*
Y196862D01*
X296164Y154940D02*
X296672Y155448D01*
X297180Y197370D02*
Y262370D01*
X320294Y194870D02*
X321108Y194056D01*
X365760D01*
X420878Y448310D02*
X422148Y447040D01*
X366014Y448310D02*
X420878D01*
X541020Y905510D02*
Y969010D01*
X552931Y961136D02*
X627380D01*
X545057Y969010D02*
X552931Y961136D01*
X541020Y969010D02*
X545057D01*
X627380Y961136D02*
X628523Y959993D01*
X236220Y905979D02*
X241020Y910779D01*
X236220Y902970D02*
Y905979D01*
X241020Y971550D02*
X256100Y986630D01*
X241020Y910779D02*
Y971550D01*
X256100Y986630D02*
X340240D01*
X354190Y970420D02*
X355320Y971550D01*
X353060Y902970D02*
X354190Y904100D01*
Y970420D01*
X340240Y986630D02*
X355320Y971550D01*
X367860Y984090D01*
X525940D02*
X541020Y969010D01*
X367860Y984090D02*
X525940D01*
X365760Y194056D02*
X366014Y194310D01*
Y344170D01*
X44450Y342620D02*
X117830D01*
X366014Y448310D02*
Y497658D01*
X320239Y543433D02*
X366014Y497658D01*
X274574Y543433D02*
X320239D01*
X271526Y546481D02*
X274574Y543433D01*
X271526Y546481D02*
Y549910D01*
Y593090D01*
X216460Y448310D02*
X266446D01*
X190150Y474620D02*
X216460Y448310D01*
X185450Y474620D02*
X190150D01*
X177090Y482980D02*
X185450Y474620D01*
X177090Y482980D02*
Y487680D01*
X176784Y490336D02*
X177090Y490030D01*
X176784Y490336D02*
Y607060D01*
X177800Y613537D02*
Y672660D01*
X176784Y607060D02*
X177800Y613537D01*
X757555Y701675D02*
Y736600D01*
X726126Y797874D02*
X754579D01*
X757555Y794898D01*
Y736600D02*
Y794898D01*
X725170Y798830D02*
X726126Y797874D01*
X869133Y413203D02*
Y485593D01*
X888746Y505206D02*
Y556260D01*
X869133Y485593D02*
X888746Y505206D01*
X867410Y411480D02*
X869133Y413203D01*
X873760Y175260D02*
Y405130D01*
X867410Y411480D02*
X873760Y405130D01*
X869133Y411480D02*
X960374D01*
X865124D02*
X867410D01*
X888746Y556260D02*
Y599440D01*
X746354Y536804D02*
X786384Y576834D01*
Y601980D01*
X730810Y532130D02*
X735484Y536804D01*
X746354D01*
X730810Y415499D02*
Y532130D01*
X783590Y604774D02*
X786384Y601980D01*
X734829Y411480D02*
X765556D01*
X730810Y415499D02*
X734829Y411480D01*
X786566Y658970D02*
X790270D01*
X792480Y661180D02*
Y673930D01*
X783590Y655994D02*
X786566Y658970D01*
X790270D02*
X792480Y661180D01*
X783590Y604774D02*
Y655994D01*
X799994Y701040D02*
X802970Y698064D01*
X758190Y701040D02*
X799994D01*
X802970Y676140D02*
Y698064D01*
Y676140D02*
X805180Y673930D01*
X757555Y701675D02*
X758190Y701040D01*
X713740Y38100D02*
X716749D01*
X721829Y43180D01*
X767360D01*
X768363Y136157D02*
X769366Y137160D01*
X768363Y44183D02*
Y136157D01*
X767360Y43180D02*
X768363Y44183D01*
X768223Y138303D02*
X769366Y137160D01*
X768223Y138303D02*
Y177177D01*
X767080Y178320D02*
X768223Y177177D01*
X767080Y178320D02*
Y243320D01*
X790194Y175820D02*
X813825D01*
X813519Y175514D02*
X813825Y175820D01*
X813519Y175514D02*
X838200D01*
X991643Y162840D02*
X995680D01*
X984303Y170180D02*
X991643Y162840D01*
X929640Y170180D02*
X984303D01*
X873760Y175260D02*
X921551D01*
X926631Y170180D02*
X929640D01*
X921551Y175260D02*
X926631Y170180D01*
X838200Y175514D02*
X838454Y175260D01*
X873760D01*
X989330Y354330D02*
X990346Y355346D01*
Y411480D01*
Y298450D02*
Y350305D01*
X989330Y351321D02*
X990346Y350305D01*
X453136Y336550D02*
X453263Y336677D01*
Y388493D01*
X453390Y388620D01*
X452755Y389255D02*
X453390Y388620D01*
X452755Y389255D02*
Y446405D01*
X452120Y447040D02*
X452755Y446405D01*
X140665Y702615D02*
X141300Y701980D01*
X140665Y702615D02*
Y733095D01*
D11*
X273050Y170180D02*
Y196354D01*
X274066Y197370D01*
X187960Y140970D02*
Y142276D01*
X154686Y143510D02*
X184114D01*
X186654Y140970D01*
X187960D01*
X190500Y144816D02*
Y157734D01*
X187960Y142276D02*
X190500Y144816D01*
X326136Y154940D02*
X344134D01*
X347980Y152400D02*
X348903Y153323D01*
X351570D02*
X362331Y164084D01*
X344134Y154940D02*
X346674Y152400D01*
X348903Y153323D02*
X351570D01*
X346674Y152400D02*
X347980D01*
X362331Y164084D02*
X365760D01*
X215900Y672660D02*
Y706120D01*
X100097Y189230D02*
X101346Y187981D01*
X82550Y189230D02*
X100097D01*
X101346Y187981D02*
Y192290D01*
X657697Y930747D02*
X657860Y930910D01*
X627380Y931164D02*
X627543Y931001D01*
X657697D01*
X798830Y805180D02*
Y828040D01*
Y805180D02*
X830580Y773430D01*
X829310Y672660D02*
X830580Y673930D01*
X829310Y646430D02*
Y672660D01*
X887476Y632460D02*
X910590D01*
X725133Y707377D02*
X731470Y701040D01*
X723762Y730162D02*
X730200Y736600D01*
X723762Y722542D02*
Y730162D01*
X725133Y707377D02*
Y711188D01*
X721310Y720090D02*
X723762Y722542D01*
X716230Y720090D02*
X721310D01*
X716230D02*
X725133Y711188D01*
X858520Y530860D02*
Y556006D01*
X858774Y556260D01*
X943610Y298450D02*
X960374D01*
X838200Y205486D02*
Y226060D01*
X659840Y533400D02*
X661110Y532130D01*
X629920Y533400D02*
X659840D01*
X740906Y175260D02*
X743966Y178320D01*
X723900Y175260D02*
X740906D01*
X716280Y137160D02*
X739394D01*
X217170Y773430D02*
X281940D01*
X272796Y628650D02*
X295910D01*
X271526Y629920D02*
X272796Y628650D01*
X222250Y548640D02*
X240284D01*
X241554Y549910D01*
X215900Y772160D02*
X217170Y773430D01*
X113310Y731830D02*
Y733730D01*
X106872Y725392D02*
X113310Y731830D01*
X101822Y725392D02*
X106872D01*
X94920Y718490D02*
X101822Y725392D01*
X114580Y701980D02*
Y703880D01*
X108142Y710318D02*
X114580Y703880D01*
Y701980D02*
X117780Y698780D01*
X103092Y710318D02*
X108142D01*
X94920Y718490D02*
X103092Y710318D01*
X422910Y336296D02*
X423164Y336550D01*
X422910Y309880D02*
Y336296D01*
X72390Y487680D02*
X107390D01*
X241554Y593090D02*
Y629920D01*
X241300Y630174D02*
X241554Y629920D01*
X241300Y630174D02*
Y672660D01*
X857504Y600710D02*
X858463Y599752D01*
X857504Y600710D02*
Y632460D01*
X855955Y634009D02*
X857504Y632460D01*
X855955Y634009D02*
Y673905D01*
D15*
X203200Y610616D02*
X206756Y607060D01*
X203200Y610616D02*
Y672660D01*
X816356Y601980D02*
X817880Y603504D01*
Y673930D01*
D18*
X627380Y961136D02*
D03*
Y931164D02*
D03*
X838200Y205486D02*
D03*
X365760Y164084D02*
D03*
X190500Y157734D02*
D03*
Y187706D02*
D03*
X365760Y194056D02*
D03*
X838200Y175514D02*
D03*
D19*
X830580Y773430D02*
D03*
X215900Y772160D02*
D03*
D20*
X730200Y736600D02*
D03*
X731470Y701040D02*
D03*
X113310Y733730D02*
D03*
X114580Y701980D02*
D03*
X758190Y701040D02*
D03*
X756920Y736600D02*
D03*
X141300Y701980D02*
D03*
X140030Y733730D02*
D03*
D21*
X830580Y673930D02*
D03*
X215900Y672660D02*
D03*
X177800D02*
D03*
X190500D02*
D03*
X203200D02*
D03*
X228600D02*
D03*
X241300D02*
D03*
X254000D02*
D03*
X817880Y673930D02*
D03*
X805180D02*
D03*
X868680D02*
D03*
X855980D02*
D03*
X843280D02*
D03*
X792480D02*
D03*
D22*
X887476Y632460D02*
D03*
X858774Y556260D02*
D03*
X960374Y298450D02*
D03*
X739394Y137160D02*
D03*
X271526Y629920D02*
D03*
X241554Y549910D02*
D03*
X423164Y336550D02*
D03*
X326136Y154940D02*
D03*
X154686Y143510D02*
D03*
X422148Y447040D02*
D03*
X271526Y549910D02*
D03*
Y593090D02*
D03*
X124714Y143510D02*
D03*
X296164Y154940D02*
D03*
X241554Y593090D02*
D03*
Y629920D02*
D03*
X206756Y607060D02*
D03*
X858774Y599440D02*
D03*
X888746D02*
D03*
X816356Y601980D02*
D03*
X769366Y137160D02*
D03*
X176784Y607060D02*
D03*
X960374Y411480D02*
D03*
X990346D02*
D03*
Y298450D02*
D03*
X786384Y601980D02*
D03*
X888746Y556260D02*
D03*
X452120Y447040D02*
D03*
X453136Y336550D02*
D03*
X857504Y632460D02*
D03*
D23*
X743966Y178320D02*
D03*
X101346Y192290D02*
D03*
X274066Y197370D02*
D03*
X147574Y189790D02*
D03*
X320294Y194870D02*
D03*
X124460Y192290D02*
D03*
X297180Y197370D02*
D03*
X790194Y175820D02*
D03*
X767080Y178320D02*
D03*
D24*
X661110Y532130D02*
D03*
X107390Y487680D02*
D03*
X730810Y532130D02*
D03*
X177090Y487680D02*
D03*
D25*
X366014Y448310D02*
D03*
X266446D02*
D03*
X765556Y411480D02*
D03*
X865124D02*
D03*
D26*
X124460Y257290D02*
D03*
X297180Y262370D02*
D03*
X767080Y243320D02*
D03*
D41*
X351790Y840740D02*
D03*
X377190D02*
D03*
X515620Y905510D02*
D03*
X963930Y354330D02*
D03*
X929640Y195580D02*
D03*
X713740Y63500D02*
D03*
X210820Y902970D02*
D03*
X327660D02*
D03*
X427990Y388620D02*
D03*
X321310Y107950D02*
D03*
X118110Y317500D02*
D03*
X149860Y100330D02*
D03*
X541020Y905510D02*
D03*
X783590Y961390D02*
D03*
X353060Y902970D02*
D03*
X236220D02*
D03*
X118110Y342900D02*
D03*
X295910Y107950D02*
D03*
X725170Y798830D02*
D03*
X713740Y38100D02*
D03*
X124460Y100330D02*
D03*
X699770Y798830D02*
D03*
X808990Y961390D02*
D03*
X989330Y354330D02*
D03*
X929640Y170180D02*
D03*
X453390Y388620D02*
D03*
D42*
X355320Y971550D02*
D03*
X320320D02*
D03*
X241020D02*
D03*
X206020D02*
D03*
X541020Y969010D02*
D03*
X506020D02*
D03*
X995680Y197840D02*
D03*
X802360Y43180D02*
D03*
X157200Y41910D02*
D03*
X44450Y307620D02*
D03*
X328650Y43180D02*
D03*
X44450Y342620D02*
D03*
X293650Y43180D02*
D03*
X122200Y41910D02*
D03*
X995680Y162840D02*
D03*
X767360Y43180D02*
D03*
D43*
X1002030Y876300D02*
D03*
D44*
Y958850D02*
D03*
D45*
X273050Y170180D02*
D03*
X187960Y140970D02*
D03*
X347980Y152400D02*
D03*
X215900Y706120D02*
D03*
X82550Y189230D02*
D03*
X657860Y930910D02*
D03*
X798830Y828040D02*
D03*
X829310Y646430D02*
D03*
X716230Y720090D02*
D03*
X910590Y632460D02*
D03*
X858520Y530860D02*
D03*
X943610Y298450D02*
D03*
X838200Y226060D02*
D03*
X723900Y175260D02*
D03*
X629920Y533400D02*
D03*
X716280Y137160D02*
D03*
X281940Y773430D02*
D03*
X295910Y628650D02*
D03*
X94920Y718490D02*
D03*
X422910Y309880D02*
D03*
X222250Y548640D02*
D03*
X72390Y487680D02*
D03*
M02*
