G04*
G04 #@! TF.GenerationSoftware,Altium Limited,Altium Designer,26.4.1 (12)*
G04*
G04 Layer_Color=65535*
%FSLAX44Y44*%
%MOMM*%
G71*
G04*
G04 #@! TF.SameCoordinates,1666C7A0-12F2-4B08-8772-BA7E2557FA20*
G04*
G04*
G04 #@! TF.FilePolarity,Positive*
G04*
G01*
G75*
%ADD10C,0.5080*%
%ADD11C,0.1524*%
%ADD12C,0.2500*%
%ADD13C,0.2000*%
%ADD14C,0.1999*%
%ADD15C,0.2540*%
%ADD16C,0.1270*%
%ADD17C,0.0762*%
D10*
X407443Y840345D02*
G03*
X407443Y840345I-1270J0D01*
G01*
X672057Y799225D02*
G03*
X672057Y799225I-1270J0D01*
G01*
X839243Y960995D02*
G03*
X839243Y960995I-1270J0D01*
G01*
D11*
X89426Y200390D02*
G03*
X89426Y200390I-1796J0D01*
G01*
X262146Y205470D02*
G03*
X262146Y205470I-1796J0D01*
G01*
X732046Y186420D02*
G03*
X732046Y186420I-1796J0D01*
G01*
X636270Y941324D02*
Y950976D01*
X618490Y941324D02*
Y950976D01*
X90932Y206248D02*
X157988D01*
X90932D02*
Y243332D01*
X157988D01*
Y206248D02*
Y243332D01*
X134874Y152400D02*
X144526D01*
X134874Y134620D02*
X144526D01*
X263652Y211328D02*
X330708D01*
X263652D02*
Y248412D01*
X330708D01*
Y211328D02*
Y248412D01*
X306324Y163830D02*
X315976D01*
X306324Y146050D02*
X315976D01*
X379984Y479196D02*
Y512064D01*
X252476Y384556D02*
Y417424D01*
Y479196D02*
Y512064D01*
X379984D01*
Y384556D02*
Y417424D01*
X252476Y384556D02*
X379984D01*
X868934Y588040D02*
X878586D01*
X868934Y610840D02*
X878586D01*
X733552Y192278D02*
X800608D01*
X733552D02*
Y229362D01*
X800608D01*
Y192278D02*
Y229362D01*
X374650Y174244D02*
Y183896D01*
X356870Y174244D02*
Y183896D01*
X199390Y167894D02*
Y177546D01*
X181610Y167894D02*
Y177546D01*
X655260Y563230D02*
X736660D01*
X655260Y501030D02*
X736660D01*
X186944Y615950D02*
X196596D01*
X186944Y598170D02*
X196596D01*
X961898Y398480D02*
X989838D01*
X961644Y424480D02*
X989584D01*
X970534Y287050D02*
X980186D01*
X970534Y309850D02*
X980186D01*
X251714Y641320D02*
X261366D01*
X251714Y618520D02*
X261366D01*
X751586Y347726D02*
X879094D01*
Y380594D01*
X751586Y475234D02*
X879094D01*
X751586Y442366D02*
Y475234D01*
Y347726D02*
Y380594D01*
X879094Y442366D02*
Y475234D01*
X796544Y593090D02*
X806196D01*
X796544Y610870D02*
X806196D01*
X868934Y547370D02*
X878586D01*
X868934Y565150D02*
X878586D01*
X423418Y460040D02*
X451358D01*
X423672Y434040D02*
X451612D01*
X433324Y325150D02*
X442976D01*
X433324Y347950D02*
X442976D01*
X251714Y541020D02*
X261366D01*
X251714Y558800D02*
X261366D01*
X251714Y604490D02*
X261366D01*
X251714Y581690D02*
X261366D01*
X867664Y643860D02*
X877316D01*
X867664Y621060D02*
X877316D01*
X749554Y128270D02*
X759206D01*
X749554Y146050D02*
X759206D01*
X829310Y185674D02*
Y195326D01*
X847090Y185674D02*
Y195326D01*
X101540Y456580D02*
X182940D01*
X101540Y518780D02*
X182940D01*
D12*
X168800Y672660D02*
G03*
X168800Y672660I-1250J0D01*
G01*
X783480Y673930D02*
G03*
X783480Y673930I-1250J0D01*
G01*
D13*
X749160Y532130D02*
G03*
X749160Y532130I-1000J0D01*
G01*
X1031930Y958850D02*
G03*
X1031930Y958850I-1000J0D01*
G01*
X195440Y487680D02*
G03*
X195440Y487680I-1000J0D01*
G01*
X163900Y703160D02*
Y724160D01*
Y703160D02*
X267900D01*
Y724160D01*
X882580Y704430D02*
Y725430D01*
X778580Y704430D02*
X882580D01*
X778580D02*
Y725430D01*
D14*
X334589Y853440D02*
X394391D01*
Y828129D02*
Y853440D01*
X334589Y828129D02*
X394391D01*
X334589D02*
Y853440D01*
X338511Y95250D02*
Y120561D01*
X278709Y95250D02*
Y120561D01*
Y95250D02*
X331470D01*
X338511D01*
X278709Y120561D02*
X338511D01*
X701129Y20899D02*
Y80701D01*
X726440Y73660D02*
Y80701D01*
Y20899D02*
Y73660D01*
X701129Y20899D02*
X726440D01*
X701129Y80701D02*
X726440D01*
X193619Y890359D02*
Y915670D01*
X253421Y890359D02*
Y915670D01*
X200660D02*
X253421D01*
X193619D02*
X200660D01*
X193619Y890359D02*
X253421D01*
X310459D02*
X370261D01*
X310459Y915670D02*
X317500D01*
X370261D01*
Y890359D02*
Y915670D01*
X310459Y890359D02*
Y915670D01*
X682569Y786130D02*
X742371D01*
X682569D02*
Y811441D01*
X742371D01*
Y786130D02*
Y811441D01*
X766389Y948779D02*
Y974090D01*
Y948779D02*
X826191D01*
Y974090D01*
X766389D02*
X826191D01*
X498419Y892899D02*
Y918210D01*
X558221Y892899D02*
Y918210D01*
X505460D02*
X558221D01*
X498419D02*
X505460D01*
X498419Y892899D02*
X558221D01*
X946729Y341719D02*
Y367030D01*
X1006531Y341719D02*
Y367030D01*
X953770D02*
X1006531D01*
X946729D02*
X953770D01*
X946729Y341719D02*
X1006531D01*
X917029Y212781D02*
X942340D01*
X917029Y152979D02*
X942340D01*
Y205740D01*
Y212781D01*
X917029Y152979D02*
Y212781D01*
X410789Y376009D02*
Y401320D01*
X470591Y376009D02*
Y401320D01*
X417830D02*
X470591D01*
X410789D02*
X417830D01*
X410789Y376009D02*
X470591D01*
X167061Y87630D02*
Y112941D01*
X107259Y87630D02*
Y112941D01*
Y87630D02*
X160020D01*
X167061D01*
X107259Y112941D02*
X167061D01*
X105410Y300299D02*
X130721D01*
X105410Y360101D02*
X130721D01*
X105410Y307340D02*
Y360101D01*
Y300299D02*
Y307340D01*
X130721Y300299D02*
Y360101D01*
D15*
X298319Y944550D02*
X302819D01*
X298319Y936550D02*
Y944550D01*
Y936550D02*
X302819D01*
X372820Y997550D02*
X377320D01*
Y1005550D01*
X372820D02*
X377320D01*
X372820Y936550D02*
Y1005550D01*
X302819Y936550D02*
X372820D01*
X302819Y952863D02*
X372820D01*
X310957Y990814D02*
Y1005551D01*
Y990814D02*
X315420Y986351D01*
X325320D01*
X329626Y990657D01*
Y1005551D01*
X345956Y990814D02*
Y1005552D01*
Y990814D02*
X350418Y986351D01*
X360318D01*
X364624Y990657D01*
Y1005552D01*
X302819Y1005551D02*
X372820D01*
X302817Y936550D02*
Y1005551D01*
X188517Y936550D02*
Y1005551D01*
X188519Y1005551D02*
X258519D01*
X250324Y990657D02*
Y1005552D01*
X246018Y986351D02*
X250324Y990657D01*
X236118Y986351D02*
X246018D01*
X231656Y990814D02*
X236118Y986351D01*
X231656Y990814D02*
Y1005552D01*
X215326Y990657D02*
Y1005551D01*
X211020Y986351D02*
X215326Y990657D01*
X201120Y986351D02*
X211020D01*
X196657Y990814D02*
X201120Y986351D01*
X196657Y990814D02*
Y1005551D01*
X188519Y952863D02*
X258520D01*
X188519Y936550D02*
X258520D01*
Y1005550D01*
X263020D01*
Y997550D02*
Y1005550D01*
X258520Y997550D02*
X263020D01*
X184019Y936550D02*
X188519D01*
X184019D02*
Y944550D01*
X188519D01*
X484019Y942010D02*
X488520D01*
X484019Y934010D02*
Y942010D01*
Y934010D02*
X488520D01*
X558520Y995010D02*
X563020D01*
Y1003010D01*
X558520D02*
X563020D01*
X558520Y934010D02*
Y1003010D01*
X488520Y934010D02*
X558520D01*
X488519Y950323D02*
X558520D01*
X496657Y988274D02*
Y1003011D01*
Y988274D02*
X501120Y983811D01*
X511020D01*
X515326Y988117D01*
Y1003011D01*
X531656Y988274D02*
Y1003012D01*
Y988274D02*
X536118Y983811D01*
X546018D01*
X550325Y988117D01*
Y1003012D01*
X488519Y1003011D02*
X558520D01*
X488517Y934010D02*
Y1003011D01*
X10449Y290117D02*
X79450D01*
X10449Y290119D02*
Y360120D01*
X10448Y351925D02*
X25343D01*
X29649Y347618D01*
Y337718D02*
Y347618D01*
X25186Y333256D02*
X29649Y337718D01*
X10448Y333256D02*
X25186D01*
X10449Y316926D02*
X25343D01*
X29649Y312620D01*
Y302720D02*
Y312620D01*
X25186Y298257D02*
X29649Y302720D01*
X10449Y298257D02*
X25186D01*
X63137Y290119D02*
Y360120D01*
X79450Y290119D02*
Y360120D01*
X10450D02*
X79450D01*
X10450D02*
Y364620D01*
X18450D01*
Y360120D02*
Y364620D01*
X79450Y285619D02*
Y290119D01*
X71450Y285619D02*
X79450D01*
X71450D02*
Y290119D01*
X346151Y70180D02*
X350651D01*
Y78180D01*
X346151D02*
X350651D01*
X271650Y17180D02*
X276150D01*
X271650Y9180D02*
Y17180D01*
Y9180D02*
X276150D01*
Y78180D01*
X346151D01*
X276150Y61867D02*
X346151D01*
X338013Y9179D02*
Y23916D01*
X333550Y28379D02*
X338013Y23916D01*
X323650Y28379D02*
X333550D01*
X319344Y24073D02*
X323650Y28379D01*
X319344Y9179D02*
Y24073D01*
X303015Y9178D02*
Y23916D01*
X298552Y28379D02*
X303015Y23916D01*
X288652Y28379D02*
X298552D01*
X284345Y24073D02*
X288652Y28379D01*
X284345Y9178D02*
Y24073D01*
X276150Y9179D02*
X346151D01*
X346153Y9179D02*
Y78180D01*
X174703Y7909D02*
Y76910D01*
X104700Y7909D02*
X174701D01*
X112895Y7908D02*
Y22803D01*
X117202Y27109D01*
X127102D01*
X131565Y22646D01*
Y7908D02*
Y22646D01*
X147894Y7909D02*
Y22803D01*
X152200Y27109D01*
X162100D01*
X166563Y22646D01*
Y7909D02*
Y22646D01*
X104700Y60597D02*
X174701D01*
X104700Y76910D02*
X174701D01*
X104700Y7910D02*
Y76910D01*
X100200Y7910D02*
X104700D01*
X100200D02*
Y15910D01*
X104700D01*
X174701Y76910D02*
X179201D01*
Y68910D02*
Y76910D01*
X174701Y68910D02*
X179201D01*
X1000506Y404876D02*
Y419100D01*
X462280Y440436D02*
Y454660D01*
X968680Y215341D02*
Y219841D01*
X960680D02*
X968680D01*
X960680Y215341D02*
Y219841D01*
X1021680Y140840D02*
Y145340D01*
Y140840D02*
X1029680D01*
Y145340D01*
X960680D02*
X1029680D01*
X960680D02*
Y215341D01*
X976993Y145340D02*
Y215341D01*
X1014944Y207203D02*
X1029681D01*
X1010481Y202740D02*
X1014944Y207203D01*
X1010481Y192840D02*
Y202740D01*
Y192840D02*
X1014787Y188534D01*
X1029681D01*
X1014944Y172204D02*
X1029682D01*
X1010481Y167742D02*
X1014944Y172204D01*
X1010481Y157842D02*
Y167742D01*
Y157842D02*
X1014787Y153535D01*
X1029682D01*
X1029681Y145340D02*
Y215341D01*
X960680Y215343D02*
X1029681D01*
X819861Y70180D02*
X824361D01*
Y78180D01*
X819861D02*
X824361D01*
X745360Y17180D02*
X749860D01*
X745360Y9180D02*
Y17180D01*
Y9180D02*
X749860D01*
Y78180D01*
X819861D01*
X749860Y61867D02*
X819861D01*
X811723Y9179D02*
Y23916D01*
X807260Y28379D02*
X811723Y23916D01*
X797360Y28379D02*
X807260D01*
X793054Y24073D02*
X797360Y28379D01*
X793054Y9179D02*
Y24073D01*
X776724Y9178D02*
Y23916D01*
X772262Y28379D02*
X776724Y23916D01*
X762362Y28379D02*
X772262D01*
X758055Y24073D02*
X762362Y28379D01*
X758055Y9178D02*
Y24073D01*
X749861Y9179D02*
X819861D01*
X819863Y9179D02*
Y78180D01*
X393699Y180340D02*
X394969Y181609D01*
Y184148D01*
X393699Y185418D01*
X388621D01*
X387351Y184148D01*
Y181609D01*
X388621Y180340D01*
X394969Y172722D02*
X393699Y175261D01*
X391160Y177800D01*
X388621D01*
X387351Y176531D01*
Y173992D01*
X388621Y172722D01*
X389891D01*
X391160Y173992D01*
Y177800D01*
X933450Y97790D02*
Y107947D01*
X938528D01*
X940221Y106254D01*
Y102868D01*
X938528Y101176D01*
X933450D01*
X943607Y97790D02*
X946992D01*
X945300D01*
Y104561D01*
X943607D01*
X952071Y97790D02*
X958842Y104561D01*
X967306Y97790D02*
X963920D01*
X962227Y99483D01*
Y102868D01*
X963920Y104561D01*
X967306D01*
X968998Y102868D01*
Y101176D01*
X962227D01*
X972384Y97790D02*
Y104561D01*
X977462D01*
X979155Y102868D01*
Y97790D01*
X989312Y104561D02*
X984234D01*
X982541Y102868D01*
Y99483D01*
X984234Y97790D01*
X989312D01*
X994390D02*
X997776D01*
X999469Y99483D01*
Y102868D01*
X997776Y104561D01*
X994390D01*
X992698Y102868D01*
Y99483D01*
X994390Y97790D01*
X1009625Y107947D02*
Y97790D01*
X1004547D01*
X1002854Y99483D01*
Y102868D01*
X1004547Y104561D01*
X1009625D01*
X1018089Y97790D02*
X1014704D01*
X1013011Y99483D01*
Y102868D01*
X1014704Y104561D01*
X1018089D01*
X1019782Y102868D01*
Y101176D01*
X1013011D01*
X1023168Y104561D02*
Y97790D01*
Y101176D01*
X1024861Y102868D01*
X1026553Y104561D01*
X1028246D01*
X853440Y53340D02*
Y60111D01*
X856826Y63497D01*
X860211Y60111D01*
Y53340D01*
Y58418D01*
X853440D01*
X863597Y63497D02*
Y53340D01*
X868675D01*
X870368Y55033D01*
Y61804D01*
X868675Y63497D01*
X863597D01*
X880525Y61804D02*
X878832Y63497D01*
X875446D01*
X873753Y61804D01*
Y55033D01*
X875446Y53340D01*
X878832D01*
X880525Y55033D01*
X383118Y20320D02*
X377193D01*
X374230Y23282D01*
X377193Y26245D01*
X383118D01*
X378674D01*
Y20320D01*
X383118Y29207D02*
X377193D01*
Y30688D01*
X378674Y32169D01*
X383118D01*
X378674D01*
X377193Y33651D01*
X378674Y35132D01*
X383118D01*
X386080Y38094D02*
X377193D01*
Y42538D01*
X378674Y44019D01*
X381636D01*
X383118Y42538D01*
Y38094D01*
Y46981D02*
Y49944D01*
Y48463D01*
X374230D01*
Y46981D01*
X383118Y54387D02*
Y57350D01*
Y55869D01*
X377193D01*
Y54387D01*
X383118Y63274D02*
X375712D01*
X378674D01*
Y61793D01*
Y64756D01*
Y63274D01*
X375712D01*
X374230Y64756D01*
X383118Y69199D02*
Y72162D01*
Y70680D01*
X377193D01*
Y69199D01*
X383118Y81049D02*
Y78086D01*
X381636Y76605D01*
X378674D01*
X377193Y78086D01*
Y81049D01*
X378674Y82530D01*
X380155D01*
Y76605D01*
X377193Y85492D02*
X383118D01*
X380155D01*
X378674Y86973D01*
X377193Y88455D01*
Y89936D01*
X38314Y35135D02*
X36833Y33654D01*
Y30691D01*
X38314Y29210D01*
X44239D01*
X45720Y30691D01*
Y33654D01*
X44239Y35135D01*
X41276D01*
Y32172D01*
X39795Y38097D02*
X44239D01*
X45720Y39578D01*
Y44022D01*
X39795D01*
X45720Y46984D02*
X39795D01*
Y51428D01*
X41276Y52909D01*
X45720D01*
Y55871D02*
X39795D01*
Y60315D01*
X41276Y61796D01*
X45720D01*
X36833Y73646D02*
X45720D01*
Y78089D01*
X44239Y79570D01*
X38314D01*
X36833Y78089D01*
Y73646D01*
X45720Y82533D02*
Y85495D01*
Y84014D01*
X39795D01*
Y82533D01*
X45720Y91420D02*
Y94382D01*
X44239Y95864D01*
X41276D01*
X39795Y94382D01*
Y91420D01*
X41276Y89939D01*
X44239D01*
X45720Y91420D01*
X36833Y104751D02*
X45720D01*
Y100307D01*
X44239Y98826D01*
X41276D01*
X39795Y100307D01*
Y104751D01*
X45720Y112156D02*
Y109194D01*
X44239Y107713D01*
X41276D01*
X39795Y109194D01*
Y112156D01*
X41276Y113638D01*
X42758D01*
Y107713D01*
X355602Y813646D02*
X353909Y815338D01*
X350523D01*
X348830Y813646D01*
Y811953D01*
X350523Y810260D01*
X353909D01*
X355602Y808567D01*
Y806874D01*
X353909Y805182D01*
X350523D01*
X348830Y806874D01*
X358987Y815338D02*
Y805182D01*
X362373Y808567D01*
X365758Y805182D01*
Y815338D01*
X369144Y805182D02*
X372529D01*
X370837D01*
Y815338D01*
X369144Y813646D01*
X388622Y995681D02*
Y1003299D01*
X392430D01*
X393700Y1002029D01*
Y999490D01*
X392430Y998220D01*
X388622D01*
X396239Y995681D02*
X398778D01*
X397509D01*
Y1003299D01*
X396239Y1002029D01*
X626531Y983824D02*
X624838Y985517D01*
X621453D01*
X619760Y983824D01*
Y977053D01*
X621453Y975360D01*
X624838D01*
X626531Y977053D01*
X629917Y983824D02*
X631609Y985517D01*
X634995D01*
X636688Y983824D01*
Y982131D01*
X634995Y980438D01*
X633302D01*
X634995D01*
X636688Y978746D01*
Y977053D01*
X634995Y975360D01*
X631609D01*
X629917Y977053D01*
X155298Y972821D02*
Y980439D01*
X159107D01*
X160376Y979169D01*
Y976630D01*
X159107Y975360D01*
X155298D01*
X162916Y972821D02*
X165455D01*
X164185D01*
Y980439D01*
X162916Y979169D01*
X169263D02*
X170533Y980439D01*
X173072D01*
X174342Y979169D01*
Y974091D01*
X173072Y972821D01*
X170533D01*
X169263Y974091D01*
Y979169D01*
X454096Y994412D02*
Y1004568D01*
X459174D01*
X460867Y1002876D01*
Y999490D01*
X459174Y997797D01*
X454096D01*
X464253Y996104D02*
X465946Y994412D01*
X469331D01*
X471024Y996104D01*
Y1002876D01*
X469331Y1004568D01*
X465946D01*
X464253Y1002876D01*
Y1001183D01*
X465946Y999490D01*
X471024D01*
X86360Y948690D02*
Y956308D01*
X88899Y953768D01*
X91438Y956308D01*
Y948690D01*
X95247D02*
X97786D01*
X99056Y949960D01*
Y952499D01*
X97786Y953768D01*
X95247D01*
X93977Y952499D01*
Y949960D01*
X95247Y948690D01*
X102865Y955038D02*
Y953768D01*
X101595D01*
X104134D01*
X102865D01*
Y949960D01*
X104134Y948690D01*
X109213D02*
X111752D01*
X113021Y949960D01*
Y952499D01*
X111752Y953768D01*
X109213D01*
X107943Y952499D01*
Y949960D01*
X109213Y948690D01*
X115561Y953768D02*
Y948690D01*
Y951229D01*
X116830Y952499D01*
X118100Y953768D01*
X119369D01*
X130796Y956308D02*
Y948690D01*
X134604D01*
X135874Y949960D01*
Y955038D01*
X134604Y956308D01*
X130796D01*
X138413Y953768D02*
Y948690D01*
Y951229D01*
X139683Y952499D01*
X140952Y953768D01*
X142222D01*
X146031Y948690D02*
X148570D01*
X147300D01*
Y953768D01*
X146031D01*
X152379D02*
X154918Y948690D01*
X157457Y953768D01*
X163805Y948690D02*
X161266D01*
X159996Y949960D01*
Y952499D01*
X161266Y953768D01*
X163805D01*
X165075Y952499D01*
Y951229D01*
X159996D01*
X167614Y953768D02*
Y948690D01*
Y951229D01*
X168883Y952499D01*
X170153Y953768D01*
X171423D01*
X416560Y953770D02*
X421638D01*
X423331Y955463D01*
X421638Y957156D01*
X418253D01*
X416560Y958848D01*
X418253Y960541D01*
X423331D01*
X426717D02*
Y955463D01*
X428410Y953770D01*
X430102Y955463D01*
X431795Y953770D01*
X433488Y955463D01*
Y960541D01*
X436873Y953770D02*
X440259D01*
X438566D01*
Y960541D01*
X436873D01*
X447030Y962234D02*
Y960541D01*
X445337D01*
X448723D01*
X447030D01*
Y955463D01*
X448723Y953770D01*
X460573Y960541D02*
X455494D01*
X453801Y958848D01*
Y955463D01*
X455494Y953770D01*
X460573D01*
X463958Y963927D02*
Y953770D01*
Y958848D01*
X465651Y960541D01*
X469036D01*
X470729Y958848D01*
Y953770D01*
X11684Y373634D02*
Y383791D01*
X16762D01*
X18455Y382098D01*
Y378712D01*
X16762Y377020D01*
X11684D01*
X28612Y373634D02*
X21841D01*
X28612Y380405D01*
Y382098D01*
X26919Y383791D01*
X23533D01*
X21841Y382098D01*
X56730Y221616D02*
Y230504D01*
X61174D01*
X62655Y229022D01*
Y226060D01*
X61174Y224579D01*
X56730D01*
X71542Y229022D02*
X70061Y230504D01*
X67099D01*
X65618Y229022D01*
Y227541D01*
X67099Y226060D01*
X70061D01*
X71542Y224579D01*
Y223098D01*
X70061Y221616D01*
X67099D01*
X65618Y223098D01*
X80429Y221616D02*
X74505D01*
X80429Y227541D01*
Y229022D01*
X78948Y230504D01*
X75986D01*
X74505Y229022D01*
X86256Y146472D02*
X84775Y147954D01*
X81812D01*
X80331Y146472D01*
Y140548D01*
X81812Y139066D01*
X84775D01*
X86256Y140548D01*
X89218Y139066D02*
X92181D01*
X90699D01*
Y147954D01*
X89218Y146472D01*
X101068Y139066D02*
Y147954D01*
X96624Y143510D01*
X102549D01*
X242573Y111759D02*
X247652D01*
X245112D01*
Y104141D01*
X250191D02*
Y111759D01*
X254000D01*
X255269Y110489D01*
Y107950D01*
X254000Y106680D01*
X250191D01*
X262887Y111759D02*
X257808D01*
Y107950D01*
X260348Y109220D01*
X261617D01*
X262887Y107950D01*
Y105411D01*
X261617Y104141D01*
X259078D01*
X257808Y105411D01*
X343750Y244476D02*
Y253364D01*
X348194D01*
X349675Y251882D01*
Y248920D01*
X348194Y247439D01*
X343750D01*
X358562Y251882D02*
X357081Y253364D01*
X354119D01*
X352638Y251882D01*
Y250401D01*
X354119Y248920D01*
X357081D01*
X358562Y247439D01*
Y245958D01*
X357081Y244476D01*
X354119D01*
X352638Y245958D01*
X361525Y251882D02*
X363006Y253364D01*
X365968D01*
X367449Y251882D01*
Y250401D01*
X365968Y248920D01*
X364487D01*
X365968D01*
X367449Y247439D01*
Y245958D01*
X365968Y244476D01*
X363006D01*
X361525Y245958D01*
X250086Y155362D02*
X248605Y156844D01*
X245642D01*
X244161Y155362D01*
Y149438D01*
X245642Y147956D01*
X248605D01*
X250086Y149438D01*
X253048Y147956D02*
X256011D01*
X254529D01*
Y156844D01*
X253048Y155362D01*
X266379Y156844D02*
X260454D01*
Y152400D01*
X263417Y153881D01*
X264898D01*
X266379Y152400D01*
Y149438D01*
X264898Y147956D01*
X261935D01*
X260454Y149438D01*
X243842Y72391D02*
Y80009D01*
X247651D01*
X248920Y78739D01*
Y76200D01*
X247651Y74930D01*
X243842D01*
X255268Y72391D02*
Y80009D01*
X251460Y76200D01*
X256538D01*
X364069Y533398D02*
Y523242D01*
X370840D01*
X374226D02*
X377611D01*
X375918D01*
Y533398D01*
X374226Y531706D01*
X281519Y808988D02*
Y800524D01*
X283212Y798832D01*
X286597D01*
X288290Y800524D01*
Y808988D01*
X291676Y798832D02*
X295061D01*
X293368D01*
Y808988D01*
X291676Y807296D01*
X912032Y598172D02*
Y608328D01*
X917110D01*
X918803Y606636D01*
Y603250D01*
X917110Y601557D01*
X912032D01*
X915418D02*
X918803Y598172D01*
X928960Y608328D02*
X925574Y606636D01*
X922189Y603250D01*
Y599864D01*
X923882Y598172D01*
X927267D01*
X928960Y599864D01*
Y601557D01*
X927267Y603250D01*
X922189D01*
X704800Y701039D02*
X703531Y702309D01*
X700992D01*
X699722Y701039D01*
Y695961D01*
X700992Y694691D01*
X703531D01*
X704800Y695961D01*
X712418Y702309D02*
X707340D01*
Y698500D01*
X709879Y699770D01*
X711148D01*
X712418Y698500D01*
Y695961D01*
X711148Y694691D01*
X708609D01*
X707340Y695961D01*
X704800Y741679D02*
X703531Y742949D01*
X700992D01*
X699722Y741679D01*
Y736601D01*
X700992Y735331D01*
X703531D01*
X704800Y736601D01*
X707340Y742949D02*
X712418D01*
Y741679D01*
X707340Y736601D01*
Y735331D01*
X664638Y33018D02*
X671409D01*
X668023D01*
Y22862D01*
X674794D02*
Y33018D01*
X679873D01*
X681566Y31326D01*
Y27940D01*
X679873Y26247D01*
X674794D01*
X684951Y33018D02*
X691722D01*
Y31326D01*
X684951Y24554D01*
Y22862D01*
X730250Y260350D02*
Y269237D01*
X734694D01*
X736175Y267756D01*
Y264794D01*
X734694Y263312D01*
X730250D01*
X745062Y267756D02*
X743581Y269237D01*
X740618D01*
X739137Y267756D01*
Y266275D01*
X740618Y264794D01*
X743581D01*
X745062Y263312D01*
Y261831D01*
X743581Y260350D01*
X740618D01*
X739137Y261831D01*
X748024Y260350D02*
X750987D01*
X749505D01*
Y269237D01*
X748024Y267756D01*
X899157Y369149D02*
Y375920D01*
X894078D01*
X895771Y372534D01*
Y370842D01*
X894078Y369149D01*
X890693D01*
X889000Y370842D01*
Y374227D01*
X890693Y375920D01*
X899157Y365763D02*
X892386D01*
X889000Y362378D01*
X892386Y358992D01*
X899157D01*
X889000Y353914D02*
Y350528D01*
X890693Y348835D01*
X894078D01*
X895771Y350528D01*
Y353914D01*
X894078Y355607D01*
X890693D01*
X889000Y353914D01*
X895771Y345450D02*
X890693D01*
X889000Y343757D01*
Y338679D01*
X895771D01*
X897464Y333600D02*
X895771D01*
Y335293D01*
Y331908D01*
Y333600D01*
X890693D01*
X889000Y331908D01*
X215900Y375917D02*
X222671D01*
Y374224D01*
X215900Y367453D01*
Y365760D01*
X226057Y375917D02*
Y369146D01*
X229442Y365760D01*
X232828Y369146D01*
Y375917D01*
X237906Y365760D02*
X241292D01*
X242985Y367453D01*
Y370838D01*
X241292Y372531D01*
X237906D01*
X236213Y370838D01*
Y367453D01*
X237906Y365760D01*
X246370Y372531D02*
Y367453D01*
X248063Y365760D01*
X253141D01*
Y372531D01*
X258220Y374224D02*
Y372531D01*
X256527D01*
X259912D01*
X258220D01*
Y367453D01*
X259912Y365760D01*
X49951Y402164D02*
X48258Y403857D01*
X44873D01*
X43180Y402164D01*
Y400471D01*
X44873Y398778D01*
X48258D01*
X49951Y397086D01*
Y395393D01*
X48258Y393700D01*
X44873D01*
X43180Y395393D01*
X58415Y393700D02*
X55030D01*
X53337Y395393D01*
Y398778D01*
X55030Y400471D01*
X58415D01*
X60108Y398778D01*
Y397086D01*
X53337D01*
X63493Y400471D02*
Y393700D01*
Y397086D01*
X65186Y398778D01*
X66879Y400471D01*
X68572D01*
X73650D02*
X77036Y393700D01*
X80421Y400471D01*
X85500Y393700D02*
X88885D01*
X90578Y395393D01*
Y398778D01*
X88885Y400471D01*
X85500D01*
X83807Y398778D01*
Y395393D01*
X85500Y393700D01*
X825921Y899583D02*
X819150D01*
X825921Y906354D01*
Y908047D01*
X824228Y909740D01*
X820843D01*
X819150Y908047D01*
X829307D02*
X831000Y909740D01*
X834385D01*
X836078Y908047D01*
Y906354D01*
X834385Y904661D01*
X836078Y902968D01*
Y901276D01*
X834385Y899583D01*
X831000D01*
X829307Y901276D01*
Y902968D01*
X831000Y904661D01*
X829307Y906354D01*
Y908047D01*
X831000Y904661D02*
X834385D01*
X839463Y909740D02*
Y902968D01*
X842849Y899583D01*
X846235Y902968D01*
Y909740D01*
X849620Y897890D02*
X856391D01*
X859777Y899583D02*
X863163D01*
X861470D01*
Y906354D01*
X859777D01*
X868241Y899583D02*
Y906354D01*
X873319D01*
X875012Y904661D01*
Y899583D01*
X389890Y670132D02*
Y659976D01*
X394968D01*
X396661Y661668D01*
Y668439D01*
X394968Y670132D01*
X389890D01*
X405125Y659976D02*
X401740D01*
X400047Y661668D01*
Y665054D01*
X401740Y666747D01*
X405125D01*
X406818Y665054D01*
Y663361D01*
X400047D01*
X410203Y659976D02*
X415282D01*
X416975Y661668D01*
X415282Y663361D01*
X411896D01*
X410203Y665054D01*
X411896Y666747D01*
X416975D01*
X420360Y659976D02*
X423746D01*
X422053D01*
Y666747D01*
X420360D01*
X432210Y656590D02*
X433903D01*
X435595Y658283D01*
Y666747D01*
X430517D01*
X428824Y665054D01*
Y661668D01*
X430517Y659976D01*
X435595D01*
X438981D02*
Y666747D01*
X444059D01*
X445752Y665054D01*
Y659976D01*
X454216D02*
X450830D01*
X449138Y661668D01*
Y665054D01*
X450830Y666747D01*
X454216D01*
X455909Y665054D01*
Y663361D01*
X449138D01*
X459294Y666747D02*
Y659976D01*
Y663361D01*
X460987Y665054D01*
X462680Y666747D01*
X464373D01*
X469451D02*
X471144D01*
Y665054D01*
X469451D01*
Y666747D01*
Y661668D02*
X471144D01*
Y659976D01*
X469451D01*
Y661668D01*
X494843Y670132D02*
X491457D01*
X493150D01*
Y661668D01*
X491457Y659976D01*
X489765D01*
X488072Y661668D01*
X503307Y659976D02*
X499921D01*
X498228Y661668D01*
Y665054D01*
X499921Y666747D01*
X503307D01*
X505000Y665054D01*
Y663361D01*
X498228D01*
X508385Y666747D02*
Y659976D01*
Y663361D01*
X510078Y665054D01*
X511771Y666747D01*
X513464D01*
X523620Y659976D02*
X520235D01*
X518542Y661668D01*
Y665054D01*
X520235Y666747D01*
X523620D01*
X525313Y665054D01*
Y663361D01*
X518542D01*
X528699Y659976D02*
Y666747D01*
X530391D01*
X532084Y665054D01*
Y659976D01*
Y665054D01*
X533777Y666747D01*
X535470Y665054D01*
Y659976D01*
X538855Y666747D02*
Y661668D01*
X540548Y659976D01*
X545626D01*
Y658283D01*
X543934Y656590D01*
X542241D01*
X545626Y659976D02*
Y666747D01*
X549012Y658283D02*
X555783D01*
X559169Y670132D02*
Y659976D01*
Y663361D01*
X565940Y670132D01*
X560862Y665054D01*
X565940Y659976D01*
X569325D02*
X572711D01*
X571018D01*
Y666747D01*
X569325D01*
X579482D02*
X582868D01*
X584561Y665054D01*
Y659976D01*
X579482D01*
X577789Y661668D01*
X579482Y663361D01*
X584561D01*
X587946Y666747D02*
Y659976D01*
Y663361D01*
X589639Y665054D01*
X591332Y666747D01*
X593024D01*
X598103Y659976D02*
X601488D01*
X599796D01*
Y666747D01*
X598103D01*
X611645Y659976D02*
X608260D01*
X606567Y661668D01*
Y665054D01*
X608260Y666747D01*
X611645D01*
X613338Y665054D01*
Y663361D01*
X606567D01*
X388620Y699766D02*
X397084D01*
X392852D01*
Y687070D01*
X407664D02*
X403432D01*
X401316Y689186D01*
Y693418D01*
X403432Y695534D01*
X407664D01*
X409780Y693418D01*
Y691302D01*
X401316D01*
X416128Y695534D02*
X420360D01*
X422476Y693418D01*
Y687070D01*
X416128D01*
X414012Y689186D01*
X416128Y691302D01*
X422476D01*
X426708Y687070D02*
Y695534D01*
X428824D01*
X430940Y693418D01*
Y687070D01*
Y693418D01*
X433056Y695534D01*
X435172Y693418D01*
Y687070D01*
X439403Y695534D02*
X441520D01*
Y693418D01*
X439403D01*
Y695534D01*
Y689186D02*
X441520D01*
Y687070D01*
X439403D01*
Y689186D01*
X462679Y699766D02*
Y687070D01*
X469027D01*
X471143Y689186D01*
Y691302D01*
X469027Y693418D01*
X462679D01*
X469027D01*
X471143Y695534D01*
Y697650D01*
X469027Y699766D01*
X462679D01*
X475375Y695534D02*
Y689186D01*
X477491Y687070D01*
X483839D01*
Y695534D01*
X490187Y687070D02*
Y697650D01*
Y693418D01*
X488071D01*
X492303D01*
X490187D01*
Y697650D01*
X492303Y699766D01*
X500767Y687070D02*
Y697650D01*
Y693418D01*
X498651D01*
X502883D01*
X500767D01*
Y697650D01*
X502883Y699766D01*
X530391Y687070D02*
X528275Y689186D01*
X526159Y687070D01*
X524043D01*
X521927Y689186D01*
Y691302D01*
X524043Y693418D01*
X521927Y695534D01*
Y697650D01*
X524043Y699766D01*
X526159D01*
X528275Y697650D01*
Y695534D01*
X526159Y693418D01*
X528275Y691302D01*
Y689186D01*
X530391Y693418D02*
X528275Y691302D01*
X524043Y693418D02*
X526159D01*
X555783Y697650D02*
X553666Y699766D01*
X549435D01*
X547319Y697650D01*
Y689186D01*
X549435Y687070D01*
X553666D01*
X555783Y689186D01*
X562130Y687070D02*
X566362D01*
X568478Y689186D01*
Y693418D01*
X566362Y695534D01*
X562130D01*
X560014Y693418D01*
Y689186D01*
X562130Y687070D01*
X572710D02*
Y689186D01*
X574826D01*
Y687070D01*
X572710D01*
X364910Y734054D02*
X361947Y737017D01*
X356022D01*
X353060Y734054D01*
Y731092D01*
X356022Y728130D01*
X361947D01*
X364910Y725167D01*
Y722205D01*
X361947Y719242D01*
X356022D01*
X353060Y722205D01*
X370834Y719242D02*
Y722205D01*
X373797D01*
Y719242D01*
X370834D01*
X385646D02*
Y737017D01*
X394533D01*
X397496Y734054D01*
Y728130D01*
X394533Y725167D01*
X385646D01*
X403420Y719242D02*
Y722205D01*
X406383D01*
Y719242D01*
X403420D01*
X418232D02*
Y731092D01*
X424157Y737017D01*
X430082Y731092D01*
Y719242D01*
Y728130D01*
X418232D01*
X436007Y719242D02*
Y722205D01*
X438969D01*
Y719242D01*
X436007D01*
X450818D02*
Y737017D01*
X456743Y731092D01*
X462668Y737017D01*
Y719242D01*
X468593Y716280D02*
X480442D01*
X486367Y719242D02*
Y737017D01*
X495254D01*
X498217Y734054D01*
Y728130D01*
X495254Y725167D01*
X486367D01*
X504141Y731092D02*
Y722205D01*
X507104Y719242D01*
X510066Y722205D01*
X513028Y719242D01*
X515991Y722205D01*
Y731092D01*
X521916D02*
Y719242D01*
Y725167D01*
X524878Y728130D01*
X527840Y731092D01*
X530803D01*
X539690Y716280D02*
X551539D01*
X557464Y737017D02*
Y719242D01*
X566351D01*
X569314Y722205D01*
Y725167D01*
X566351Y728130D01*
X557464D01*
X566351D01*
X569314Y731092D01*
Y734054D01*
X566351Y737017D01*
X557464D01*
X575238Y731092D02*
Y719242D01*
Y725167D01*
X578201Y728130D01*
X581163Y731092D01*
X584125D01*
X604862Y737017D02*
Y719242D01*
X595975D01*
X593013Y722205D01*
Y728130D01*
X595975Y731092D01*
X604862D01*
X610787Y716280D02*
X622636D01*
X637448Y719242D02*
Y737017D01*
X628561Y728130D01*
X640411D01*
X660143Y588767D02*
X655064D01*
X657604D01*
Y576071D01*
X655064Y573532D01*
X652525D01*
X649986Y576071D01*
X665221Y586228D02*
X667760Y588767D01*
X672839D01*
X675378Y586228D01*
Y583689D01*
X672839Y581149D01*
X670299D01*
X672839D01*
X675378Y578610D01*
Y576071D01*
X672839Y573532D01*
X667760D01*
X665221Y576071D01*
X154309Y904239D02*
X159388D01*
X156848D01*
Y896621D01*
X161927D02*
Y904239D01*
X165736D01*
X167005Y902969D01*
Y900430D01*
X165736Y899160D01*
X161927D01*
X169544Y896621D02*
X172084D01*
X170814D01*
Y904239D01*
X169544Y902969D01*
X175892D02*
X177162Y904239D01*
X179701D01*
X180971Y902969D01*
Y901700D01*
X179701Y900430D01*
X178431D01*
X179701D01*
X180971Y899160D01*
Y897891D01*
X179701Y896621D01*
X177162D01*
X175892Y897891D01*
X789519Y992716D02*
X787826Y994408D01*
X784441D01*
X782748Y992716D01*
Y991023D01*
X784441Y989330D01*
X787826D01*
X789519Y987637D01*
Y985944D01*
X787826Y984252D01*
X784441D01*
X782748Y985944D01*
X792904Y994408D02*
Y984252D01*
X796290Y987637D01*
X799676Y984252D01*
Y994408D01*
X808139Y984252D02*
Y994408D01*
X803061Y989330D01*
X809832D01*
X575309Y921381D02*
Y916302D01*
Y918841D01*
X567691D01*
Y913763D02*
X575309D01*
Y909954D01*
X574039Y908685D01*
X571500D01*
X570230Y909954D01*
Y913763D01*
X567691Y906146D02*
Y903606D01*
Y904876D01*
X575309D01*
X574039Y906146D01*
X567691Y894719D02*
Y899798D01*
X572770Y894719D01*
X574039D01*
X575309Y895989D01*
Y898528D01*
X574039Y899798D01*
X818306Y833118D02*
Y824654D01*
X819999Y822962D01*
X823384D01*
X825077Y824654D01*
Y833118D01*
X828463Y831426D02*
X830156Y833118D01*
X833541D01*
X835234Y831426D01*
Y829733D01*
X833541Y828040D01*
X831848D01*
X833541D01*
X835234Y826347D01*
Y824654D01*
X833541Y822962D01*
X830156D01*
X828463Y824654D01*
X916098Y386078D02*
X922870D01*
X919484D01*
Y375922D01*
X926255D02*
Y386078D01*
X931334D01*
X933026Y384386D01*
Y381000D01*
X931334Y379307D01*
X926255D01*
X936412Y375922D02*
X939798D01*
X938105D01*
Y386078D01*
X936412Y384386D01*
X944876Y375922D02*
X948261D01*
X946569D01*
Y386078D01*
X944876Y384386D01*
X914406Y236218D02*
X921177D01*
X917791D01*
Y226062D01*
X924563D02*
Y236218D01*
X929641D01*
X931334Y234526D01*
Y231140D01*
X929641Y229447D01*
X924563D01*
X934719Y226062D02*
X938105D01*
X936412D01*
Y236218D01*
X934719Y234526D01*
X943183D02*
X944876Y236218D01*
X948261D01*
X949954Y234526D01*
Y227754D01*
X948261Y226062D01*
X944876D01*
X943183Y227754D01*
Y234526D01*
X195583Y99059D02*
X200662D01*
X198123D01*
Y91441D01*
X203201D02*
Y99059D01*
X207010D01*
X208279Y97789D01*
Y95250D01*
X207010Y93980D01*
X203201D01*
X214627Y91441D02*
Y99059D01*
X210818Y95250D01*
X215897D01*
X490221Y379733D02*
Y384812D01*
Y382272D01*
X497839D01*
Y387351D02*
X490221D01*
Y391160D01*
X491491Y392429D01*
X494030D01*
X495300Y391160D01*
Y387351D01*
X491491Y394968D02*
X490221Y396238D01*
Y398777D01*
X491491Y400047D01*
X492760D01*
X494030Y398777D01*
Y397508D01*
Y398777D01*
X495300Y400047D01*
X496569D01*
X497839Y398777D01*
Y396238D01*
X496569Y394968D01*
X106934Y378965D02*
X113705D01*
X110320D01*
Y368808D01*
X117091D02*
Y378965D01*
X122169D01*
X123862Y377272D01*
Y373886D01*
X122169Y372194D01*
X117091D01*
X134019Y368808D02*
X127247D01*
X134019Y375579D01*
Y377272D01*
X132326Y378965D01*
X128940D01*
X127247Y377272D01*
X379733Y914399D02*
X384811D01*
X382272D01*
Y906781D01*
X387350D02*
Y914399D01*
X391159D01*
X392429Y913129D01*
Y910590D01*
X391159Y909320D01*
X387350D01*
X394968Y906781D02*
X397507D01*
X396237D01*
Y914399D01*
X394968Y913129D01*
X675219Y770466D02*
X673526Y772158D01*
X670141D01*
X668448Y770466D01*
Y768773D01*
X670141Y767080D01*
X673526D01*
X675219Y765387D01*
Y763694D01*
X673526Y762002D01*
X670141D01*
X668448Y763694D01*
X678604Y772158D02*
Y762002D01*
X681990Y765387D01*
X685376Y762002D01*
Y772158D01*
X688761Y770466D02*
X690454Y772158D01*
X693839D01*
X695532Y770466D01*
Y768773D01*
X693839Y767080D01*
X692147D01*
X693839D01*
X695532Y765387D01*
Y763694D01*
X693839Y762002D01*
X690454D01*
X688761Y763694D01*
X992296Y269242D02*
Y279398D01*
X997374D01*
X999067Y277706D01*
Y274320D01*
X997374Y272627D01*
X992296D01*
X995682D02*
X999067Y269242D01*
X1002453Y270934D02*
X1004146Y269242D01*
X1007531D01*
X1009224Y270934D01*
Y277706D01*
X1007531Y279398D01*
X1004146D01*
X1002453Y277706D01*
Y276013D01*
X1004146Y274320D01*
X1009224D01*
X501648Y328086D02*
X491492D01*
Y333164D01*
X493184Y334857D01*
X496570D01*
X498263Y333164D01*
Y328086D01*
Y331472D02*
X501648Y334857D01*
X491492Y338243D02*
Y345014D01*
X493184D01*
X499956Y338243D01*
X501648D01*
X923716Y635002D02*
Y645158D01*
X928794D01*
X930487Y643466D01*
Y640080D01*
X928794Y638387D01*
X923716D01*
X927102D02*
X930487Y635002D01*
X940644Y645158D02*
X933873D01*
Y640080D01*
X937258Y641773D01*
X938951D01*
X940644Y640080D01*
Y636694D01*
X938951Y635002D01*
X935566D01*
X933873Y636694D01*
X287446Y593092D02*
Y603248D01*
X292524D01*
X294217Y601556D01*
Y598170D01*
X292524Y596477D01*
X287446D01*
X290832D02*
X294217Y593092D01*
X304374D02*
X297603D01*
X304374Y599863D01*
Y601556D01*
X302681Y603248D01*
X299296D01*
X297603Y601556D01*
X278979Y648972D02*
Y659128D01*
X284057D01*
X285750Y657436D01*
Y654050D01*
X284057Y652357D01*
X278979D01*
X282364D02*
X285750Y648972D01*
X289136D02*
X292521D01*
X290828D01*
Y659128D01*
X289136Y657436D01*
X961816Y121922D02*
Y132078D01*
X966894D01*
X968587Y130386D01*
Y127000D01*
X966894Y125307D01*
X961816D01*
X971973Y130386D02*
X973666Y132078D01*
X977051D01*
X978744Y130386D01*
Y128693D01*
X977051Y127000D01*
X978744Y125307D01*
Y123614D01*
X977051Y121922D01*
X973666D01*
X971973Y123614D01*
Y125307D01*
X973666Y127000D01*
X971973Y128693D01*
Y130386D01*
X973666Y127000D02*
X977051D01*
X842436Y25402D02*
Y35558D01*
X847514D01*
X849207Y33866D01*
Y30480D01*
X847514Y28787D01*
X842436D01*
X859364Y35558D02*
X852593D01*
Y30480D01*
X855978Y32173D01*
X857671D01*
X859364Y30480D01*
Y27094D01*
X857671Y25402D01*
X854286D01*
X852593Y27094D01*
X75356Y60962D02*
Y71118D01*
X80434D01*
X82127Y69426D01*
Y66040D01*
X80434Y64347D01*
X75356D01*
X85513Y69426D02*
X87206Y71118D01*
X90591D01*
X92284Y69426D01*
Y67733D01*
X90591Y66040D01*
X88898D01*
X90591D01*
X92284Y64347D01*
Y62654D01*
X90591Y60962D01*
X87206D01*
X85513Y62654D01*
X931339Y449578D02*
Y439422D01*
X938111D01*
X948267Y449578D02*
X941496D01*
Y439422D01*
X948267D01*
X941496Y444500D02*
X944882D01*
X951653Y449578D02*
Y439422D01*
X956731D01*
X958424Y441114D01*
Y447886D01*
X956731Y449578D01*
X951653D01*
X961809Y447886D02*
X963502Y449578D01*
X966888D01*
X968581Y447886D01*
Y446193D01*
X966888Y444500D01*
X965195D01*
X966888D01*
X968581Y442807D01*
Y441114D01*
X966888Y439422D01*
X963502D01*
X961809Y441114D01*
X477522Y445352D02*
X487678D01*
Y452123D01*
X477522Y462280D02*
Y455509D01*
X487678D01*
Y462280D01*
X482600Y455509D02*
Y458894D01*
X477522Y465666D02*
X487678D01*
Y470744D01*
X485986Y472437D01*
X479214D01*
X477522Y470744D01*
Y465666D01*
X487678Y475822D02*
Y479208D01*
Y477515D01*
X477522D01*
X479214Y475822D01*
X819576Y509268D02*
Y499112D01*
X826347D01*
X829733Y507576D02*
X831426Y509268D01*
X834811D01*
X836504Y507576D01*
Y505883D01*
X834811Y504190D01*
X833118D01*
X834811D01*
X836504Y502497D01*
Y500804D01*
X834811Y499112D01*
X831426D01*
X829733Y500804D01*
X890269Y1000759D02*
X887730D01*
X889000D01*
Y994411D01*
X887730Y993141D01*
X886460D01*
X885191Y994411D01*
X103037Y539239D02*
X99652D01*
X101344D01*
Y530775D01*
X99652Y529082D01*
X97959D01*
X96266Y530775D01*
X106423Y529082D02*
X109808D01*
X108116D01*
Y539239D01*
X106423Y537546D01*
X912285Y559646D02*
X910592Y561338D01*
X907207D01*
X905514Y559646D01*
Y552874D01*
X907207Y551182D01*
X910592D01*
X912285Y552874D01*
X915671Y551182D02*
X919056D01*
X917364D01*
Y561338D01*
X915671Y559646D01*
X924135D02*
X925828Y561338D01*
X929213D01*
X930906Y559646D01*
Y557953D01*
X929213Y556260D01*
X927520D01*
X929213D01*
X930906Y554567D01*
Y552874D01*
X929213Y551182D01*
X925828D01*
X924135Y552874D01*
X793116Y129539D02*
X791847Y130809D01*
X789308D01*
X788038Y129539D01*
Y124461D01*
X789308Y123191D01*
X791847D01*
X793116Y124461D01*
X795656Y123191D02*
X798195D01*
X796925D01*
Y130809D01*
X795656Y129539D01*
X807082Y123191D02*
X802004D01*
X807082Y128270D01*
Y129539D01*
X805812Y130809D01*
X803273D01*
X802004Y129539D01*
X757768Y609176D02*
X756075Y610868D01*
X752690D01*
X750997Y609176D01*
Y602404D01*
X752690Y600712D01*
X756075D01*
X757768Y602404D01*
X761154Y600712D02*
X764539D01*
X762846D01*
Y610868D01*
X761154Y609176D01*
X769618Y600712D02*
X773003D01*
X771310D01*
Y610868D01*
X769618Y609176D01*
X294536Y556682D02*
X293055Y558164D01*
X290092D01*
X288611Y556682D01*
Y550758D01*
X290092Y549276D01*
X293055D01*
X294536Y550758D01*
X297498Y549276D02*
X300461D01*
X298979D01*
Y558164D01*
X297498Y556682D01*
X304904D02*
X306385Y558164D01*
X309348D01*
X310829Y556682D01*
Y550758D01*
X309348Y549276D01*
X306385D01*
X304904Y550758D01*
Y556682D01*
X859367Y153246D02*
X857674Y154938D01*
X854289D01*
X852596Y153246D01*
Y146474D01*
X854289Y144782D01*
X857674D01*
X859367Y146474D01*
X862753D02*
X864446Y144782D01*
X867831D01*
X869524Y146474D01*
Y153246D01*
X867831Y154938D01*
X864446D01*
X862753Y153246D01*
Y151553D01*
X864446Y149860D01*
X869524D01*
X140547Y610446D02*
X138854Y612138D01*
X135469D01*
X133776Y610446D01*
Y603674D01*
X135469Y601982D01*
X138854D01*
X140547Y603674D01*
X143933Y610446D02*
X145626Y612138D01*
X149011D01*
X150704Y610446D01*
Y608753D01*
X149011Y607060D01*
X150704Y605367D01*
Y603674D01*
X149011Y601982D01*
X145626D01*
X143933Y603674D01*
Y605367D01*
X145626Y607060D01*
X143933Y608753D01*
Y610446D01*
X145626Y607060D02*
X149011D01*
X218440Y187959D02*
X217171Y189229D01*
X214632D01*
X213362Y187959D01*
Y182881D01*
X214632Y181611D01*
X217171D01*
X218440Y182881D01*
X224788Y181611D02*
Y189229D01*
X220980Y185420D01*
X226058D01*
X93227Y757436D02*
X91534Y759128D01*
X88149D01*
X86456Y757436D01*
Y750664D01*
X88149Y748972D01*
X91534D01*
X93227Y750664D01*
X103384Y748972D02*
X96613D01*
X103384Y755743D01*
Y757436D01*
X101691Y759128D01*
X98306D01*
X96613Y757436D01*
X88900Y700616D02*
X87207Y702308D01*
X83822D01*
X82129Y700616D01*
Y693844D01*
X83822Y692152D01*
X87207D01*
X88900Y693844D01*
X92286Y692152D02*
X95671D01*
X93978D01*
Y702308D01*
X92286Y700616D01*
D16*
X741930Y692040D02*
X747730D01*
X741930Y710040D02*
X747730D01*
X740660Y727600D02*
X746460D01*
X740660Y745600D02*
X746460D01*
X897890Y828040D02*
Y1009650D01*
X1024890Y828040D02*
Y1009650D01*
X897890Y828040D02*
X1024890D01*
X897890Y1009650D02*
X1024890D01*
X125040Y710980D02*
X130840D01*
X125040Y692980D02*
X130840D01*
X123770Y742730D02*
X129570D01*
X123770Y724730D02*
X129570D01*
D17*
X294005Y441960D02*
Y454656D01*
X300353D01*
X302469Y452540D01*
Y448308D01*
X300353Y446192D01*
X294005D01*
X298237D02*
X302469Y441960D01*
X315165Y454656D02*
X306701D01*
Y441960D01*
X315165D01*
X306701Y448308D02*
X310933D01*
X327861Y454656D02*
X319397D01*
Y448308D01*
X323629D01*
X319397D01*
Y441960D01*
X332093Y454656D02*
Y441960D01*
X338441D01*
X340557Y444076D01*
Y452540D01*
X338441Y454656D01*
X332093D01*
X353252D02*
X344789D01*
Y441960D01*
X353252D01*
X344789Y448308D02*
X349021D01*
X365948Y452540D02*
X363832Y454656D01*
X359600D01*
X357484Y452540D01*
Y450424D01*
X359600Y448308D01*
X363832D01*
X365948Y446192D01*
Y444076D01*
X363832Y441960D01*
X359600D01*
X357484Y444076D01*
X297180Y441960D02*
Y454656D01*
X303528D01*
X305644Y452540D01*
Y448308D01*
X303528Y446192D01*
X297180D01*
X301412D02*
X305644Y441960D01*
X316224D02*
X311992D01*
X309876Y444076D01*
Y448308D01*
X311992Y450424D01*
X316224D01*
X318340Y448308D01*
Y446192D01*
X309876D01*
X324688Y441960D02*
Y452540D01*
Y448308D01*
X322572D01*
X326804D01*
X324688D01*
Y452540D01*
X326804Y454656D01*
X333152D02*
Y441960D01*
X339500D01*
X341616Y444076D01*
Y452540D01*
X339500Y454656D01*
X333152D01*
X352196Y441960D02*
X347963D01*
X345848Y444076D01*
Y448308D01*
X347963Y450424D01*
X352196D01*
X354311Y448308D01*
Y446192D01*
X345848D01*
X358544Y441960D02*
X364891D01*
X367007Y444076D01*
X364891Y446192D01*
X360659D01*
X358544Y448308D01*
X360659Y450424D01*
X367007D01*
X796290Y405130D02*
Y417826D01*
X802638D01*
X804754Y415710D01*
Y411478D01*
X802638Y409362D01*
X796290D01*
X800522D02*
X804754Y405130D01*
X815334D02*
X811102D01*
X808986Y407246D01*
Y411478D01*
X811102Y413594D01*
X815334D01*
X817450Y411478D01*
Y409362D01*
X808986D01*
X823798Y405130D02*
Y415710D01*
Y411478D01*
X821682D01*
X825914D01*
X823798D01*
Y415710D01*
X825914Y417826D01*
X832262D02*
Y405130D01*
X838610D01*
X840726Y407246D01*
Y415710D01*
X838610Y417826D01*
X832262D01*
X851305Y405130D02*
X847074D01*
X844958Y407246D01*
Y411478D01*
X847074Y413594D01*
X851305D01*
X853421Y411478D01*
Y409362D01*
X844958D01*
X857654Y405130D02*
X864001D01*
X866117Y407246D01*
X864001Y409362D01*
X859769D01*
X857654Y411478D01*
X859769Y413594D01*
X866117D01*
X793115Y405130D02*
Y417826D01*
X799463D01*
X801579Y415710D01*
Y411478D01*
X799463Y409362D01*
X793115D01*
X797347D02*
X801579Y405130D01*
X814275Y417826D02*
X805811D01*
Y405130D01*
X814275D01*
X805811Y411478D02*
X810043D01*
X826971Y417826D02*
X818507D01*
Y411478D01*
X822739D01*
X818507D01*
Y405130D01*
X831203Y417826D02*
Y405130D01*
X837551D01*
X839667Y407246D01*
Y415710D01*
X837551Y417826D01*
X831203D01*
X852363D02*
X843898D01*
Y405130D01*
X852363D01*
X843898Y411478D02*
X848130D01*
X865058Y415710D02*
X862942Y417826D01*
X858710D01*
X856594Y415710D01*
Y413594D01*
X858710Y411478D01*
X862942D01*
X865058Y409362D01*
Y407246D01*
X862942Y405130D01*
X858710D01*
X856594Y407246D01*
M02*
