M48
;Layer_Color=9474304
;FILE_FORMAT=4:4
METRIC,LZ
;TYPE=PLATED
T01F00S00C0.3302
T02F00S00C1.0000
T03F00S00C1.0201
T04F00S00C1.1000
T05F00S00C1.1500
T06F00S00C3.2500
%
T01
X0076327Y0021717
Y0024511
X0072009Y0037973
X0063754Y005207
X0083566Y0050927
X0051435Y0042926
X0038481Y0048387
X0009525Y0032385
X0064135Y0055118
X0083058Y0053975
T02
X006635Y0004318
X006985
X0004699Y0015268
Y0018768
X0043843Y0057531
X0047343
T03
X0033147Y0014986
Y0017526
Y0020066
Y0022606
Y0025146
Y0027686
Y0030226
X004826Y0029083
Y0026543
Y0024003
Y0021463
T04
X0083058Y0015494
Y0018034
Y0020574
Y0023114
Y0025654
Y0028194
T05
X0012176Y0055499
X0013321Y0058039
X0012176Y0060579
X0014466
X0016756
X0019046
X0021336
X0020191Y0058039
X0022481
X0021336Y0055499
X0019046
X0016756
X0014466
X0015611Y0058039
X0017901
X0069164Y0057785
X0071454
X0073744
X0076034
X0078324
X0077179Y0055245
X0074889
X0072599
X0070309
X0068019
Y0060325
X0070309
X0072599
X0074889
X0077179
T06
X0004511Y0058039
X0029501
X0060354Y0057785
X0085344
M30
