G04*
G04 #@! TF.GenerationSoftware,Altium Limited,Altium Designer,25.3.3 (18)*
G04*
G04 Layer_Physical_Order=1*
G04 Layer_Color=255*
%FSLAX44Y44*%
%MOMM*%
G71*
G04*
G04 #@! TF.SameCoordinates,6C5E2229-F2BE-4305-A479-646F045205FD*
G04*
G04*
G04 #@! TF.FilePolarity,Positive*
G04*
G01*
G75*
%ADD14C,0.1524*%
%ADD15R,1.8034X1.1176*%
%ADD16R,1.1176X1.8034*%
%ADD27C,0.5080*%
%ADD28C,2.0000*%
%ADD29C,1.6200*%
%ADD30C,4.2660*%
%ADD31R,1.7250X1.7250*%
%ADD32C,1.7250*%
%ADD33C,1.5240*%
%ADD34C,0.6350*%
D14*
X121760Y566917D02*
G03*
X121711Y543063I0J-11927D01*
G01*
X774700Y205740D02*
X830580D01*
X763270Y217170D02*
X774700Y205740D01*
X763270Y245110D02*
X797306Y279146D01*
Y429260D01*
X690880Y231140D02*
X830580D01*
X619506Y302514D02*
X690880Y231140D01*
X800660Y180340D02*
X830580D01*
X663500Y43180D02*
X800660Y180340D01*
X619506Y397510D02*
Y446278D01*
Y302514D02*
Y397510D01*
X810260Y154940D02*
X830580D01*
X698500Y43180D02*
X810260Y154940D01*
X826516Y472440D02*
Y475869D01*
X835660Y485013D01*
Y509270D01*
X817880Y552450D02*
X830580Y539750D01*
X771790Y552450D02*
X817880D01*
X796544Y472440D02*
X797306Y471678D01*
Y429260D02*
Y471678D01*
X766318Y430276D02*
X767334Y429260D01*
X718820Y430276D02*
X766318D01*
X614680Y451104D02*
X619506Y446278D01*
X771790Y603250D02*
Y625210D01*
X661670Y633730D02*
X763270D01*
X771790Y625210D01*
X641350Y613410D02*
X661670Y633730D01*
X641350Y551180D02*
Y613410D01*
X622935Y506095D02*
X637540Y520700D01*
X622935Y485902D02*
Y506095D01*
X618109Y481076D02*
X622935Y485902D01*
X614680Y481076D02*
X618109D01*
X588010Y399034D02*
X589534Y397510D01*
X544830Y399034D02*
X588010D01*
X480060Y237490D02*
X482600Y240030D01*
X453965Y237490D02*
X480060D01*
X453073Y236597D02*
X453965Y237490D01*
X453073Y210502D02*
Y236597D01*
X443230Y200660D02*
X453073Y210502D01*
X340360Y267970D02*
X480060D01*
X331470Y276860D02*
X340360Y267970D01*
X480060D02*
X482600Y265430D01*
X331470Y302260D02*
X334621D01*
X475524Y297180D02*
X481874Y290830D01*
X482600D01*
X334621Y302260D02*
X339701Y297180D01*
X475524D01*
X331470Y200660D02*
X443230D01*
X330060Y151270D02*
X331470Y149860D01*
X48400Y151270D02*
X330060D01*
X46990Y152680D02*
X48400Y151270D01*
X319050Y187680D02*
X331470Y175260D01*
X46990Y187680D02*
X319050D01*
X292100Y483870D02*
X332994D01*
X292100Y290830D02*
X331470Y251460D01*
X292100Y290830D02*
Y453898D01*
X289814Y456184D02*
X292100Y453898D01*
X212090Y456184D02*
X289814D01*
X119634Y437896D02*
X331470Y226060D01*
X97790Y437896D02*
X119634D01*
X96520Y373126D02*
X97790Y374396D01*
Y407924D01*
X95504Y440182D02*
X97790Y437896D01*
X95504Y440182D02*
Y476250D01*
X179474Y486156D02*
X212090D01*
X123012Y542618D02*
X179474Y486156D01*
X119757Y527050D02*
X120650Y526157D01*
Y481076D02*
Y526157D01*
X96520Y527943D02*
X97413Y527050D01*
X119757D01*
X96520Y527943D02*
Y597417D01*
X120650Y481076D02*
X125476Y476250D01*
X96520Y597417D02*
X116820Y617717D01*
X121711Y543063D02*
X122567D01*
X123012Y542618D01*
X121760Y566917D02*
X195400D01*
X199464Y562853D01*
X205497D01*
X213360Y554990D01*
X116820Y617717D02*
X201433D01*
X213360Y605790D01*
X95250Y341884D02*
X96520Y343154D01*
X95250Y323850D02*
Y341884D01*
X720090Y379730D02*
Y399034D01*
X718820Y400304D02*
X720090Y399034D01*
X544576Y429260D02*
X544830Y429006D01*
X514350Y429260D02*
X544576D01*
X362966Y483870D02*
X384810D01*
D15*
X292100Y453898D02*
D03*
Y483870D02*
D03*
X614680Y451104D02*
D03*
Y481076D02*
D03*
X544830Y399034D02*
D03*
Y429006D02*
D03*
X718820Y430276D02*
D03*
Y400304D02*
D03*
X212090Y486156D02*
D03*
Y456184D02*
D03*
X96520Y373126D02*
D03*
Y343154D02*
D03*
X97790Y437896D02*
D03*
Y407924D02*
D03*
D16*
X826516Y472440D02*
D03*
X796544D02*
D03*
X619506Y397510D02*
D03*
X589534D02*
D03*
X797306Y429260D02*
D03*
X767334D02*
D03*
X332994Y483870D02*
D03*
X362966D02*
D03*
X95504Y476250D02*
D03*
X125476D02*
D03*
D27*
X749123Y536448D02*
Y552351D01*
Y536448D02*
X761061Y524510D01*
X875864D01*
X439405Y541285D02*
X473430Y575310D01*
X568731D01*
X878840Y259516D02*
Y521534D01*
X875864Y524510D02*
X878840Y521534D01*
X830580Y256540D02*
X875864D01*
X878840Y259516D01*
X735185Y538745D02*
X748890Y552450D01*
X605296Y538745D02*
X735185D01*
X568731Y575310D02*
X605296Y538745D01*
X202631Y541285D02*
X439405D01*
X190460Y553456D02*
X202631Y541285D01*
X190460Y553456D02*
Y554990D01*
D28*
X698500Y43180D02*
D03*
X663500D02*
D03*
X46990Y152680D02*
D03*
Y187680D02*
D03*
X438430Y575310D02*
D03*
X473430D02*
D03*
D29*
X482600Y214630D02*
D03*
Y240030D02*
D03*
Y265430D02*
D03*
Y290830D02*
D03*
X331470Y149860D02*
D03*
Y175260D02*
D03*
Y200660D02*
D03*
Y226060D02*
D03*
Y251460D02*
D03*
Y276860D02*
D03*
Y302260D02*
D03*
D30*
X853440Y577850D02*
D03*
X603540D02*
D03*
X295010Y580390D02*
D03*
X45110D02*
D03*
D31*
X771790Y552450D02*
D03*
X213360Y554990D02*
D03*
D32*
X748890Y552450D02*
D03*
X725990D02*
D03*
X703090D02*
D03*
X680190D02*
D03*
X783240Y577850D02*
D03*
X760340D02*
D03*
X737440D02*
D03*
X714540D02*
D03*
X691640D02*
D03*
X771790Y603250D02*
D03*
X748890D02*
D03*
X725990D02*
D03*
X703090D02*
D03*
X680190D02*
D03*
X190460Y554990D02*
D03*
X167560D02*
D03*
X144660D02*
D03*
X121760D02*
D03*
X224810Y580390D02*
D03*
X201910D02*
D03*
X179010D02*
D03*
X156110D02*
D03*
X133210D02*
D03*
X213360Y605790D02*
D03*
X190460D02*
D03*
X167560D02*
D03*
X144660D02*
D03*
X121760D02*
D03*
D33*
X830580Y154940D02*
D03*
Y180340D02*
D03*
Y205740D02*
D03*
Y231140D02*
D03*
Y281940D02*
D03*
Y256540D02*
D03*
D34*
X763270Y217170D02*
D03*
Y245110D02*
D03*
X835660Y509270D02*
D03*
X830580Y539750D02*
D03*
X641350Y551180D02*
D03*
X637540Y520700D02*
D03*
X384810Y483870D02*
D03*
X514350Y429260D02*
D03*
X720090Y379730D02*
D03*
X95250Y323850D02*
D03*
M02*
