G04*
G04 #@! TF.GenerationSoftware,Altium Limited,Altium Designer,25.3.3 (18)*
G04*
G04 Layer_Color=2752767*
%FSLAX44Y44*%
%MOMM*%
G71*
G04*
G04 #@! TF.SameCoordinates,6C5E2229-F2BE-4305-A479-646F045205FD*
G04*
G04*
G04 #@! TF.FilePolarity,Positive*
G04*
G01*
G75*
%ADD10C,0.1270*%
%ADD35C,0.1693*%
D10*
X693420Y38100D02*
X695960Y43180D01*
X693420Y48260D01*
X698500Y45720D01*
X703580Y48260D01*
X701040Y43180D01*
X703580Y38100D01*
X698500Y40640D01*
X693420Y38100D01*
X658420D02*
X660960Y43180D01*
X658420Y48260D01*
X663500Y45720D01*
X668580Y48260D01*
X666040Y43180D01*
X668580Y38100D01*
X663500Y40640D01*
X658420Y38100D01*
X482600Y209550D02*
X477520Y219710D01*
X487680D01*
X482600Y209550D01*
Y234950D02*
X477520Y245110D01*
X487680D01*
X482600Y234950D01*
Y260350D02*
X477520Y270510D01*
X487680D01*
X482600Y260350D01*
Y285750D02*
X477520Y295910D01*
X487680D01*
X482600Y285750D01*
X331470Y144780D02*
X326390Y154940D01*
X336550D01*
X331470Y144780D01*
Y170180D02*
X326390Y180340D01*
X336550D01*
X331470Y170180D01*
Y195580D02*
X326390Y205740D01*
X336550D01*
X331470Y195580D01*
Y220980D02*
X326390Y231140D01*
X336550D01*
X331470Y220980D01*
Y246380D02*
X326390Y256540D01*
X336550D01*
X331470Y246380D01*
Y271780D02*
X326390Y281940D01*
X336550D01*
X331470Y271780D01*
Y297180D02*
X326390Y307340D01*
X336550D01*
X331470Y297180D01*
X41910Y147600D02*
X44450Y152680D01*
X41910Y157760D01*
X46990Y155220D01*
X52070Y157760D01*
X49530Y152680D01*
X52070Y147600D01*
X46990Y150140D01*
X41910Y147600D01*
Y182600D02*
X44450Y187680D01*
X41910Y192760D01*
X46990Y190220D01*
X52070Y192760D01*
X49530Y187680D01*
X52070Y182600D01*
X46990Y185140D01*
X41910Y182600D01*
X848360Y572770D02*
Y582930D01*
X858520D01*
Y572770D01*
X848360D01*
X598460D02*
Y582930D01*
X608620D01*
Y572770D01*
X598460D01*
X289930Y575310D02*
Y585470D01*
X300090D01*
Y575310D01*
X289930D01*
X40030D02*
Y585470D01*
X50190D01*
Y575310D01*
X40030D01*
X830580Y149860D02*
X833120Y152400D01*
X835660D01*
X833120Y154940D01*
X835660Y157480D01*
X833120D01*
X830580Y160020D01*
X828040Y157480D01*
X825500D01*
X828040Y154940D01*
X825500Y152400D01*
X828040D01*
X830580Y149860D01*
Y175260D02*
X833120Y177800D01*
X835660D01*
X833120Y180340D01*
X835660Y182880D01*
X833120D01*
X830580Y185420D01*
X828040Y182880D01*
X825500D01*
X828040Y180340D01*
X825500Y177800D01*
X828040D01*
X830580Y175260D01*
Y200660D02*
X833120Y203200D01*
X835660D01*
X833120Y205740D01*
X835660Y208280D01*
X833120D01*
X830580Y210820D01*
X828040Y208280D01*
X825500D01*
X828040Y205740D01*
X825500Y203200D01*
X828040D01*
X830580Y200660D01*
Y226060D02*
X833120Y228600D01*
X835660D01*
X833120Y231140D01*
X835660Y233680D01*
X833120D01*
X830580Y236220D01*
X828040Y233680D01*
X825500D01*
X828040Y231140D01*
X825500Y228600D01*
X828040D01*
X830580Y226060D01*
Y276860D02*
X833120Y279400D01*
X835660D01*
X833120Y281940D01*
X835660Y284480D01*
X833120D01*
X830580Y287020D01*
X828040Y284480D01*
X825500D01*
X828040Y281940D01*
X825500Y279400D01*
X828040D01*
X830580Y276860D01*
Y251460D02*
X833120Y254000D01*
X835660D01*
X833120Y256540D01*
X835660Y259080D01*
X833120D01*
X830580Y261620D01*
X828040Y259080D01*
X825500D01*
X828040Y256540D01*
X825500Y254000D01*
X828040D01*
X830580Y251460D01*
X433350Y570230D02*
X435890Y575310D01*
X433350Y580390D01*
X438430Y577850D01*
X443510Y580390D01*
X440970Y575310D01*
X443510Y570230D01*
X438430Y572770D01*
X433350Y570230D01*
X468350D02*
X470890Y575310D01*
X468350Y580390D01*
X473430Y577850D01*
X478510Y580390D01*
X475970Y575310D01*
X478510Y570230D01*
X473430Y572770D01*
X468350Y570230D01*
X760730Y214630D02*
Y212090D01*
X765810D01*
Y214630D01*
X768350D01*
Y219710D01*
X765810D01*
Y222250D01*
X760730D01*
Y219710D01*
X758190D01*
Y214630D01*
X760730D01*
Y242570D02*
Y240030D01*
X765810D01*
Y242570D01*
X768350D01*
Y247650D01*
X765810D01*
Y250190D01*
X760730D01*
Y247650D01*
X758190D01*
Y242570D01*
X760730D01*
X833120Y506730D02*
Y504190D01*
X838200D01*
Y506730D01*
X840740D01*
Y511810D01*
X838200D01*
Y514350D01*
X833120D01*
Y511810D01*
X830580D01*
Y506730D01*
X833120D01*
X828040Y537210D02*
Y534670D01*
X833120D01*
Y537210D01*
X835660D01*
Y542290D01*
X833120D01*
Y544830D01*
X828040D01*
Y542290D01*
X825500D01*
Y537210D01*
X828040D01*
X638810Y548640D02*
Y546100D01*
X643890D01*
Y548640D01*
X646430D01*
Y553720D01*
X643890D01*
Y556260D01*
X638810D01*
Y553720D01*
X636270D01*
Y548640D01*
X638810D01*
X635000Y518160D02*
Y515620D01*
X640080D01*
Y518160D01*
X642620D01*
Y523240D01*
X640080D01*
Y525780D01*
X635000D01*
Y523240D01*
X632460D01*
Y518160D01*
X635000D01*
X382270Y481330D02*
Y478790D01*
X387350D01*
Y481330D01*
X389890D01*
Y486410D01*
X387350D01*
Y488950D01*
X382270D01*
Y486410D01*
X379730D01*
Y481330D01*
X382270D01*
X511810Y426720D02*
Y424180D01*
X516890D01*
Y426720D01*
X519430D01*
Y431800D01*
X516890D01*
Y434340D01*
X511810D01*
Y431800D01*
X509270D01*
Y426720D01*
X511810D01*
X717550Y377190D02*
Y374650D01*
X722630D01*
Y377190D01*
X725170D01*
Y382270D01*
X722630D01*
Y384810D01*
X717550D01*
Y382270D01*
X715010D01*
Y377190D01*
X717550D01*
X92710Y321310D02*
Y318770D01*
X97790D01*
Y321310D01*
X100330D01*
Y326390D01*
X97790D01*
Y328930D01*
X92710D01*
Y326390D01*
X90170D01*
Y321310D01*
X92710D01*
D35*
X776870Y552450D02*
G03*
X776870Y552450I-5080J0D01*
G01*
X753970D02*
G03*
X753970Y552450I-5080J0D01*
G01*
X731070D02*
G03*
X731070Y552450I-5080J0D01*
G01*
X708170D02*
G03*
X708170Y552450I-5080J0D01*
G01*
X685270D02*
G03*
X685270Y552450I-5080J0D01*
G01*
X788320Y577850D02*
G03*
X788320Y577850I-5080J0D01*
G01*
X765420D02*
G03*
X765420Y577850I-5080J0D01*
G01*
X742520D02*
G03*
X742520Y577850I-5080J0D01*
G01*
X719620D02*
G03*
X719620Y577850I-5080J0D01*
G01*
X696720D02*
G03*
X696720Y577850I-5080J0D01*
G01*
X776870Y603250D02*
G03*
X776870Y603250I-5080J0D01*
G01*
X753970D02*
G03*
X753970Y603250I-5080J0D01*
G01*
X731070D02*
G03*
X731070Y603250I-5080J0D01*
G01*
X708170D02*
G03*
X708170Y603250I-5080J0D01*
G01*
X685270D02*
G03*
X685270Y603250I-5080J0D01*
G01*
X218440Y554990D02*
G03*
X218440Y554990I-5080J0D01*
G01*
X195540D02*
G03*
X195540Y554990I-5080J0D01*
G01*
X172640D02*
G03*
X172640Y554990I-5080J0D01*
G01*
X149740D02*
G03*
X149740Y554990I-5080J0D01*
G01*
X126840D02*
G03*
X126840Y554990I-5080J0D01*
G01*
X229890Y580390D02*
G03*
X229890Y580390I-5080J0D01*
G01*
X206990D02*
G03*
X206990Y580390I-5080J0D01*
G01*
X184090D02*
G03*
X184090Y580390I-5080J0D01*
G01*
X161190D02*
G03*
X161190Y580390I-5080J0D01*
G01*
X138290D02*
G03*
X138290Y580390I-5080J0D01*
G01*
X218440Y605790D02*
G03*
X218440Y605790I-5080J0D01*
G01*
X195540D02*
G03*
X195540Y605790I-5080J0D01*
G01*
X172640D02*
G03*
X172640Y605790I-5080J0D01*
G01*
X149740D02*
G03*
X149740Y605790I-5080J0D01*
G01*
X126840D02*
G03*
X126840Y605790I-5080J0D01*
G01*
M02*
