G04*
G04 #@! TF.GenerationSoftware,Altium Limited,Altium Designer,25.3.3 (18)*
G04*
G04 Layer_Physical_Order=2*
G04 Layer_Color=16711680*
%FSLAX44Y44*%
%MOMM*%
G71*
G04*
G04 #@! TF.SameCoordinates,6C5E2229-F2BE-4305-A479-646F045205FD*
G04*
G04*
G04 #@! TF.FilePolarity,Positive*
G04*
G01*
G75*
%ADD14C,0.1524*%
%ADD28C,2.0000*%
%ADD29C,1.6200*%
%ADD30C,4.2660*%
%ADD31R,1.7250X1.7250*%
%ADD32C,1.7250*%
%ADD33C,1.5240*%
%ADD34C,0.6350*%
G36*
X909221Y5179D02*
X5179D01*
Y756821D01*
X909221D01*
Y5179D01*
D02*
G37*
%LPC*%
G36*
X146130Y616955D02*
X143190D01*
X140351Y616194D01*
X137805Y614724D01*
X135726Y612645D01*
X134256Y610099D01*
X133999Y609140D01*
X132421D01*
X132164Y610099D01*
X130694Y612645D01*
X128616Y614724D01*
X126069Y616194D01*
X123230Y616955D01*
X120290D01*
X117451Y616194D01*
X114904Y614724D01*
X112826Y612645D01*
X111356Y610099D01*
X110595Y607260D01*
Y604320D01*
X111356Y601480D01*
X112826Y598935D01*
X114904Y596856D01*
X117451Y595386D01*
X120290Y594625D01*
X123230D01*
X126069Y595386D01*
X128616Y596856D01*
X130694Y598935D01*
X132164Y601480D01*
X132421Y602440D01*
X133999D01*
X134256Y601480D01*
X135726Y598935D01*
X137805Y596856D01*
X140351Y595386D01*
X143190Y594625D01*
X146130D01*
X148970Y595386D01*
X151516Y596856D01*
X153594Y598935D01*
X155064Y601480D01*
X155825Y604320D01*
Y607260D01*
X155064Y610099D01*
X153594Y612645D01*
X151516Y614724D01*
X148970Y616194D01*
X146130Y616955D01*
D02*
G37*
G36*
X704560Y614415D02*
X701620D01*
X698781Y613654D01*
X696235Y612184D01*
X694156Y610106D01*
X692686Y607560D01*
X692429Y606600D01*
X690851D01*
X690594Y607560D01*
X689124Y610106D01*
X687046Y612184D01*
X684500Y613654D01*
X681660Y614415D01*
X678720D01*
X675881Y613654D01*
X673335Y612184D01*
X671256Y610106D01*
X669786Y607560D01*
X669025Y604720D01*
Y601780D01*
X669786Y598941D01*
X671256Y596395D01*
X673335Y594316D01*
X675881Y592846D01*
X678720Y592085D01*
X681660D01*
X684500Y592846D01*
X687046Y594316D01*
X689124Y596395D01*
X690594Y598941D01*
X690851Y599900D01*
X692429D01*
X692686Y598941D01*
X694156Y596395D01*
X696235Y594316D01*
X698781Y592846D01*
X701620Y592085D01*
X704560D01*
X707400Y592846D01*
X709946Y594316D01*
X712024Y596395D01*
X713494Y598941D01*
X714255Y601780D01*
Y604720D01*
X713494Y607560D01*
X712024Y610106D01*
X709946Y612184D01*
X707400Y613654D01*
X704560Y614415D01*
D02*
G37*
G36*
X214830Y616955D02*
X211890D01*
X209051Y616194D01*
X206504Y614724D01*
X204426Y612645D01*
X202956Y610099D01*
X202195Y607260D01*
Y604320D01*
X202956Y601480D01*
X204426Y598935D01*
X206504Y596856D01*
X209051Y595386D01*
X211890Y594625D01*
X214830D01*
X217670Y595386D01*
X220215Y596856D01*
X222294Y598935D01*
X223764Y601480D01*
X224525Y604320D01*
Y607260D01*
X223764Y610099D01*
X222294Y612645D01*
X220215Y614724D01*
X217670Y616194D01*
X214830Y616955D01*
D02*
G37*
G36*
X773260Y614415D02*
X770320D01*
X767480Y613654D01*
X764934Y612184D01*
X762856Y610106D01*
X761386Y607560D01*
X760625Y604720D01*
Y601780D01*
X761386Y598941D01*
X762856Y596395D01*
X764934Y594316D01*
X767480Y592846D01*
X770320Y592085D01*
X773260D01*
X776099Y592846D01*
X778645Y594316D01*
X780724Y596395D01*
X782194Y598941D01*
X782955Y601780D01*
Y604720D01*
X782194Y607560D01*
X780724Y610106D01*
X778645Y612184D01*
X776099Y613654D01*
X773260Y614415D01*
D02*
G37*
G36*
X226280Y591555D02*
X223340D01*
X220501Y590794D01*
X217955Y589324D01*
X215876Y587245D01*
X214406Y584700D01*
X214149Y583740D01*
X212571D01*
X212314Y584700D01*
X210844Y587245D01*
X208766Y589324D01*
X206220Y590794D01*
X203380Y591555D01*
X200440D01*
X197600Y590794D01*
X195055Y589324D01*
X192976Y587245D01*
X191506Y584700D01*
X191249Y583740D01*
X189671D01*
X189414Y584700D01*
X187944Y587245D01*
X185865Y589324D01*
X183319Y590794D01*
X180480Y591555D01*
X177540D01*
X174701Y590794D01*
X172155Y589324D01*
X170076Y587245D01*
X168606Y584700D01*
X168349Y583740D01*
X166771D01*
X166514Y584700D01*
X165044Y587245D01*
X162966Y589324D01*
X160420Y590794D01*
X157580Y591555D01*
X154640D01*
X151800Y590794D01*
X149255Y589324D01*
X147176Y587245D01*
X145706Y584700D01*
X145449Y583741D01*
X143871D01*
X143614Y584700D01*
X142144Y587245D01*
X140065Y589324D01*
X137520Y590794D01*
X134680Y591555D01*
X131740D01*
X128900Y590794D01*
X126355Y589324D01*
X124276Y587245D01*
X122806Y584700D01*
X122045Y581860D01*
Y578920D01*
X122806Y576081D01*
X124276Y573535D01*
X126355Y571456D01*
X128900Y569986D01*
X131740Y569225D01*
X134680D01*
X137520Y569986D01*
X140065Y571456D01*
X142144Y573535D01*
X143614Y576081D01*
X143871Y577039D01*
X145449D01*
X145706Y576081D01*
X147176Y573535D01*
X149255Y571456D01*
X151800Y569986D01*
X154640Y569225D01*
X157580D01*
X160420Y569986D01*
X162966Y571456D01*
X165044Y573535D01*
X166514Y576081D01*
X166771Y577040D01*
X168349D01*
X168606Y576081D01*
X170076Y573535D01*
X172155Y571456D01*
X174701Y569986D01*
X177540Y569225D01*
X180480D01*
X183319Y569986D01*
X185865Y571456D01*
X187944Y573535D01*
X189414Y576081D01*
X189671Y577040D01*
X191249D01*
X191506Y576081D01*
X192976Y573535D01*
X195055Y571456D01*
X197600Y569986D01*
X200440Y569225D01*
X203380D01*
X206220Y569986D01*
X208766Y571456D01*
X210844Y573535D01*
X212314Y576081D01*
X212571Y577040D01*
X214149D01*
X214406Y576081D01*
X215876Y573535D01*
X217955Y571456D01*
X220501Y569986D01*
X223340Y569225D01*
X226280D01*
X229120Y569986D01*
X231665Y571456D01*
X233744Y573535D01*
X235214Y576081D01*
X235975Y578920D01*
Y581860D01*
X235214Y584700D01*
X233744Y587245D01*
X231665Y589324D01*
X229120Y590794D01*
X226280Y591555D01*
D02*
G37*
G36*
X784710Y589015D02*
X781770D01*
X778931Y588254D01*
X776385Y586784D01*
X774306Y584706D01*
X772836Y582160D01*
X772579Y581200D01*
X771001D01*
X770744Y582160D01*
X769274Y584706D01*
X767196Y586784D01*
X764650Y588254D01*
X761810Y589015D01*
X758870D01*
X756031Y588254D01*
X753484Y586784D01*
X751406Y584706D01*
X749936Y582160D01*
X749679Y581200D01*
X748101D01*
X747844Y582160D01*
X746374Y584706D01*
X744296Y586784D01*
X741749Y588254D01*
X738910Y589015D01*
X735970D01*
X733130Y588254D01*
X730584Y586784D01*
X728506Y584706D01*
X727036Y582160D01*
X726779Y581200D01*
X725201D01*
X724944Y582160D01*
X723474Y584706D01*
X721395Y586784D01*
X718849Y588254D01*
X716010Y589015D01*
X713070D01*
X710230Y588254D01*
X707684Y586784D01*
X705606Y584706D01*
X704136Y582160D01*
X703879Y581200D01*
X702301D01*
X702044Y582160D01*
X700574Y584706D01*
X698495Y586784D01*
X695950Y588254D01*
X693110Y589015D01*
X690170D01*
X687330Y588254D01*
X684785Y586784D01*
X682706Y584706D01*
X681236Y582160D01*
X680475Y579320D01*
Y576380D01*
X681236Y573540D01*
X682706Y570994D01*
X684785Y568916D01*
X687330Y567446D01*
X690170Y566685D01*
X693110D01*
X695950Y567446D01*
X698495Y568916D01*
X700574Y570994D01*
X702044Y573540D01*
X702301Y574500D01*
X703879D01*
X704136Y573540D01*
X705606Y570994D01*
X707684Y568916D01*
X710230Y567446D01*
X713070Y566685D01*
X716010D01*
X718849Y567446D01*
X721395Y568916D01*
X723474Y570994D01*
X724944Y573540D01*
X725201Y574500D01*
X726779D01*
X727036Y573540D01*
X728506Y570994D01*
X730584Y568916D01*
X733130Y567446D01*
X735970Y566685D01*
X738910D01*
X741749Y567446D01*
X744296Y568916D01*
X746374Y570994D01*
X747844Y573540D01*
X748101Y574500D01*
X749679D01*
X749936Y573540D01*
X751406Y570994D01*
X753484Y568916D01*
X756031Y567446D01*
X758870Y566685D01*
X761810D01*
X764650Y567446D01*
X767196Y568916D01*
X769274Y570994D01*
X770744Y573540D01*
X771001Y574500D01*
X772579D01*
X772836Y573540D01*
X774306Y570994D01*
X776385Y568916D01*
X778931Y567446D01*
X781770Y566685D01*
X784710D01*
X787550Y567446D01*
X790096Y568916D01*
X792174Y570994D01*
X793644Y573540D01*
X794405Y576380D01*
Y579320D01*
X793644Y582160D01*
X792174Y584706D01*
X790096Y586784D01*
X787550Y588254D01*
X784710Y589015D01*
D02*
G37*
G36*
X475081Y587850D02*
X471779D01*
X468590Y586995D01*
X465730Y585345D01*
X463396Y583010D01*
X461745Y580150D01*
X460890Y576961D01*
Y573659D01*
X461745Y570470D01*
X463396Y567610D01*
X465730Y565275D01*
X468590Y563625D01*
X471779Y562770D01*
X475081D01*
X478270Y563625D01*
X481130Y565275D01*
X483464Y567610D01*
X485115Y570470D01*
X485970Y573659D01*
Y576961D01*
X485115Y580150D01*
X483464Y583010D01*
X481130Y585345D01*
X478270Y586995D01*
X475081Y587850D01*
D02*
G37*
G36*
X224525Y566155D02*
X202195D01*
Y559978D01*
X200671Y559634D01*
X199394Y561846D01*
X197316Y563924D01*
X194770Y565394D01*
X191930Y566155D01*
X188990D01*
X186150Y565394D01*
X183605Y563924D01*
X181526Y561846D01*
X180056Y559300D01*
X179295Y556460D01*
Y553520D01*
X180056Y550681D01*
X181526Y548134D01*
X183605Y546056D01*
X186150Y544586D01*
X188990Y543825D01*
X191930D01*
X194770Y544586D01*
X197316Y546056D01*
X199394Y548134D01*
X200671Y550346D01*
X202195Y550002D01*
Y543825D01*
X224525D01*
Y566155D01*
D02*
G37*
G36*
X146130D02*
X143190D01*
X140351Y565394D01*
X137805Y563924D01*
X135726Y561846D01*
X134256Y559300D01*
X133999Y558340D01*
X132421D01*
X132164Y559300D01*
X130694Y561846D01*
X128616Y563924D01*
X126069Y565394D01*
X123230Y566155D01*
X120290D01*
X117451Y565394D01*
X114904Y563924D01*
X112826Y561846D01*
X111356Y559300D01*
X110595Y556460D01*
Y553520D01*
X111356Y550681D01*
X112826Y548134D01*
X114904Y546056D01*
X117451Y544586D01*
X120290Y543825D01*
X123230D01*
X126069Y544586D01*
X128616Y546056D01*
X130694Y548134D01*
X132164Y550681D01*
X132421Y551640D01*
X133999D01*
X134256Y550681D01*
X135726Y548134D01*
X137805Y546056D01*
X140351Y544586D01*
X143190Y543825D01*
X146130D01*
X148970Y544586D01*
X151516Y546056D01*
X153594Y548134D01*
X155064Y550681D01*
X155825Y553520D01*
Y556460D01*
X155064Y559300D01*
X153594Y561846D01*
X151516Y563924D01*
X148970Y565394D01*
X146130Y566155D01*
D02*
G37*
G36*
X782955Y563615D02*
X760625D01*
Y557438D01*
X759101Y557094D01*
X757824Y559305D01*
X755745Y561384D01*
X753200Y562854D01*
X750360Y563615D01*
X747420D01*
X744581Y562854D01*
X742035Y561384D01*
X739956Y559305D01*
X738486Y556759D01*
X737725Y553920D01*
Y550980D01*
X738486Y548140D01*
X739956Y545594D01*
X742035Y543516D01*
X744581Y542046D01*
X747420Y541285D01*
X750360D01*
X753200Y542046D01*
X755745Y543516D01*
X757824Y545594D01*
X759101Y547806D01*
X760625Y547462D01*
Y541285D01*
X782955D01*
Y563615D01*
D02*
G37*
G36*
X297361Y604260D02*
X292659D01*
X288047Y603343D01*
X283703Y601543D01*
X279794Y598931D01*
X276469Y595606D01*
X273857Y591697D01*
X272057Y587353D01*
X271140Y582741D01*
Y578039D01*
X272057Y573427D01*
X273857Y569083D01*
X276469Y565174D01*
X279794Y561849D01*
X283703Y559237D01*
X288047Y557437D01*
X292659Y556520D01*
X297361D01*
X301973Y557437D01*
X306317Y559237D01*
X310226Y561849D01*
X313551Y565174D01*
X316163Y569083D01*
X317963Y573427D01*
X318880Y578039D01*
Y582741D01*
X317963Y587353D01*
X316163Y591697D01*
X313551Y595606D01*
X310226Y598931D01*
X306317Y601543D01*
X301973Y603343D01*
X297361Y604260D01*
D02*
G37*
G36*
X47461D02*
X42759D01*
X38147Y603343D01*
X33803Y601543D01*
X29894Y598931D01*
X26569Y595606D01*
X23957Y591697D01*
X22157Y587353D01*
X21240Y582741D01*
Y578039D01*
X22157Y573427D01*
X23957Y569083D01*
X26569Y565174D01*
X29894Y561849D01*
X33803Y559237D01*
X38147Y557437D01*
X42759Y556520D01*
X47461D01*
X52073Y557437D01*
X56417Y559237D01*
X60326Y561849D01*
X63651Y565174D01*
X66263Y569083D01*
X68063Y573427D01*
X68980Y578039D01*
Y582741D01*
X68063Y587353D01*
X66263Y591697D01*
X63651Y595606D01*
X60326Y598931D01*
X56417Y601543D01*
X52073Y603343D01*
X47461Y604260D01*
D02*
G37*
G36*
X704560Y563615D02*
X701620D01*
X698781Y562854D01*
X696235Y561384D01*
X694156Y559305D01*
X692686Y556759D01*
X692429Y555800D01*
X690851D01*
X690594Y556759D01*
X689124Y559305D01*
X687046Y561384D01*
X684500Y562854D01*
X681660Y563615D01*
X678720D01*
X675881Y562854D01*
X673335Y561384D01*
X671256Y559305D01*
X669786Y556759D01*
X669025Y553920D01*
Y550980D01*
X669786Y548140D01*
X671256Y545594D01*
X673335Y543516D01*
X675881Y542046D01*
X678720Y541285D01*
X681660D01*
X684500Y542046D01*
X687046Y543516D01*
X689124Y545594D01*
X690594Y548140D01*
X690851Y549100D01*
X692429D01*
X692686Y548140D01*
X694156Y545594D01*
X696235Y543516D01*
X698781Y542046D01*
X701620Y541285D01*
X704560D01*
X707400Y542046D01*
X709946Y543516D01*
X712024Y545594D01*
X713494Y548140D01*
X714255Y550980D01*
Y553920D01*
X713494Y556759D01*
X712024Y559305D01*
X709946Y561384D01*
X707400Y562854D01*
X704560Y563615D01*
D02*
G37*
G36*
X855791Y601720D02*
X851089D01*
X846477Y600803D01*
X842133Y599003D01*
X838224Y596391D01*
X834899Y593066D01*
X832287Y589157D01*
X830487Y584813D01*
X829570Y580201D01*
Y575499D01*
X830487Y570887D01*
X832287Y566543D01*
X834899Y562634D01*
X838224Y559309D01*
X842133Y556697D01*
X846477Y554897D01*
X851089Y553980D01*
X855791D01*
X860403Y554897D01*
X864747Y556697D01*
X868656Y559309D01*
X871981Y562634D01*
X874593Y566543D01*
X876393Y570887D01*
X877310Y575499D01*
Y580201D01*
X876393Y584813D01*
X874593Y589157D01*
X871981Y593066D01*
X868656Y596391D01*
X864747Y599003D01*
X860403Y600803D01*
X855791Y601720D01*
D02*
G37*
G36*
X605891D02*
X601189D01*
X596577Y600803D01*
X592233Y599003D01*
X588324Y596391D01*
X584999Y593066D01*
X582387Y589157D01*
X580587Y584813D01*
X579670Y580201D01*
Y575499D01*
X580587Y570887D01*
X582387Y566543D01*
X584999Y562634D01*
X588324Y559309D01*
X592233Y556697D01*
X596577Y554897D01*
X601189Y553980D01*
X605891D01*
X610503Y554897D01*
X614847Y556697D01*
X618756Y559309D01*
X622081Y562634D01*
X624693Y566543D01*
X626493Y570887D01*
X627410Y575499D01*
Y580201D01*
X626493Y584813D01*
X624693Y589157D01*
X622081Y593066D01*
X618756Y596391D01*
X614847Y599003D01*
X610503Y600803D01*
X605891Y601720D01*
D02*
G37*
G36*
X642487Y556895D02*
X640213D01*
X638113Y556025D01*
X636505Y554417D01*
X635635Y552317D01*
Y550043D01*
X635953Y549275D01*
X635159Y548481D01*
X634430Y547388D01*
X634173Y546100D01*
Y525415D01*
X632695Y523937D01*
X631825Y521837D01*
Y519563D01*
X632695Y517463D01*
X634303Y515855D01*
X636403Y514985D01*
X638677D01*
X640777Y515855D01*
X642385Y517463D01*
X643255Y519563D01*
Y521837D01*
X642385Y523937D01*
X640907Y525415D01*
Y544706D01*
X641666Y545465D01*
X642487D01*
X644587Y546335D01*
X646195Y547943D01*
X647065Y550043D01*
Y552317D01*
X646195Y554417D01*
X644587Y556025D01*
X642487Y556895D01*
D02*
G37*
G36*
X831717Y545465D02*
X829443D01*
X827343Y544595D01*
X825735Y542987D01*
X824865Y540887D01*
Y538613D01*
X825735Y536513D01*
X827343Y534905D01*
X829443Y534035D01*
X831534D01*
X832293Y533275D01*
Y513985D01*
X830815Y512507D01*
X829945Y510407D01*
Y508133D01*
X830815Y506033D01*
X832423Y504425D01*
X834523Y503555D01*
X836797D01*
X838897Y504425D01*
X840505Y506033D01*
X841375Y508133D01*
Y510407D01*
X840505Y512507D01*
X839027Y513985D01*
Y534670D01*
X838770Y535958D01*
X838041Y537051D01*
X836295Y538796D01*
Y540887D01*
X835425Y542987D01*
X833817Y544595D01*
X831717Y545465D01*
D02*
G37*
G36*
X332871Y312900D02*
X330069D01*
X327363Y312175D01*
X324937Y310774D01*
X322956Y308793D01*
X321555Y306367D01*
X320830Y303661D01*
Y300859D01*
X321555Y298153D01*
X322956Y295727D01*
X324937Y293746D01*
X327363Y292345D01*
X330069Y291620D01*
X332871D01*
X335577Y292345D01*
X338003Y293746D01*
X339984Y295727D01*
X341385Y298153D01*
X342110Y300859D01*
Y303661D01*
X341385Y306367D01*
X339984Y308793D01*
X338003Y310774D01*
X335577Y312175D01*
X332871Y312900D01*
D02*
G37*
G36*
X484001Y301470D02*
X481199D01*
X478493Y300745D01*
X476067Y299344D01*
X474086Y297363D01*
X472685Y294937D01*
X471960Y292231D01*
Y289429D01*
X472685Y286723D01*
X474086Y284297D01*
X476067Y282316D01*
X478493Y280915D01*
X481199Y280190D01*
X484001D01*
X486707Y280915D01*
X489133Y282316D01*
X491114Y284297D01*
X492515Y286723D01*
X493240Y289429D01*
Y292231D01*
X492515Y294937D01*
X491114Y297363D01*
X489133Y299344D01*
X486707Y300745D01*
X484001Y301470D01*
D02*
G37*
G36*
X332871Y287500D02*
X330069D01*
X327363Y286775D01*
X324937Y285374D01*
X322956Y283393D01*
X321555Y280967D01*
X320830Y278261D01*
Y275459D01*
X321555Y272753D01*
X322956Y270327D01*
X324937Y268346D01*
X327363Y266945D01*
X330069Y266220D01*
X332871D01*
X335577Y266945D01*
X338003Y268346D01*
X339984Y270327D01*
X341385Y272753D01*
X342110Y275459D01*
Y278261D01*
X341385Y280967D01*
X339984Y283393D01*
X338003Y285374D01*
X335577Y286775D01*
X332871Y287500D01*
D02*
G37*
G36*
X484001Y276070D02*
X481199D01*
X478493Y275345D01*
X476067Y273944D01*
X474086Y271963D01*
X472685Y269537D01*
X471960Y266831D01*
Y264029D01*
X472685Y261323D01*
X474086Y258897D01*
X476067Y256916D01*
X478493Y255515D01*
X481199Y254790D01*
X484001D01*
X486707Y255515D01*
X489133Y256916D01*
X491114Y258897D01*
X492515Y261323D01*
X493240Y264029D01*
Y266831D01*
X492515Y269537D01*
X491114Y271963D01*
X489133Y273944D01*
X486707Y275345D01*
X484001Y276070D01*
D02*
G37*
G36*
X831918Y266700D02*
X829242D01*
X826658Y266008D01*
X824342Y264670D01*
X822450Y262778D01*
X821112Y260462D01*
X820420Y257878D01*
Y255202D01*
X821112Y252618D01*
X822450Y250302D01*
X824342Y248410D01*
X826658Y247072D01*
X829242Y246380D01*
X831918D01*
X834502Y247072D01*
X836818Y248410D01*
X838710Y250302D01*
X840048Y252618D01*
X840740Y255202D01*
Y257878D01*
X840048Y260462D01*
X838710Y262778D01*
X836818Y264670D01*
X834502Y266008D01*
X831918Y266700D01*
D02*
G37*
G36*
X332871Y262100D02*
X330069D01*
X327363Y261375D01*
X324937Y259974D01*
X322956Y257993D01*
X321555Y255567D01*
X320830Y252861D01*
Y250059D01*
X321555Y247353D01*
X322956Y244927D01*
X324937Y242946D01*
X327363Y241545D01*
X330069Y240820D01*
X332871D01*
X335577Y241545D01*
X338003Y242946D01*
X339984Y244927D01*
X341385Y247353D01*
X342110Y250059D01*
Y252861D01*
X341385Y255567D01*
X339984Y257993D01*
X338003Y259974D01*
X335577Y261375D01*
X332871Y262100D01*
D02*
G37*
G36*
X484001Y250670D02*
X481199D01*
X478493Y249945D01*
X476067Y248544D01*
X474086Y246563D01*
X472685Y244137D01*
X471960Y241431D01*
Y238629D01*
X472685Y235923D01*
X474086Y233497D01*
X476067Y231516D01*
X478493Y230115D01*
X481199Y229390D01*
X484001D01*
X486707Y230115D01*
X489133Y231516D01*
X491114Y233497D01*
X492515Y235923D01*
X493240Y238629D01*
Y241431D01*
X492515Y244137D01*
X491114Y246563D01*
X489133Y248544D01*
X486707Y249945D01*
X484001Y250670D01*
D02*
G37*
G36*
X831918Y241300D02*
X829242D01*
X826658Y240608D01*
X824342Y239270D01*
X822450Y237378D01*
X821112Y235062D01*
X820420Y232478D01*
Y229802D01*
X821112Y227218D01*
X822450Y224902D01*
X824342Y223010D01*
X826658Y221672D01*
X829242Y220980D01*
X831918D01*
X834502Y221672D01*
X836818Y223010D01*
X838710Y224902D01*
X840048Y227218D01*
X840740Y229802D01*
Y232478D01*
X840048Y235062D01*
X838710Y237378D01*
X836818Y239270D01*
X834502Y240608D01*
X831918Y241300D01*
D02*
G37*
G36*
X332871Y236700D02*
X330069D01*
X327363Y235975D01*
X324937Y234574D01*
X322956Y232593D01*
X321555Y230167D01*
X320830Y227461D01*
Y224659D01*
X321555Y221953D01*
X322956Y219527D01*
X324937Y217546D01*
X327363Y216145D01*
X330069Y215420D01*
X332871D01*
X335577Y216145D01*
X338003Y217546D01*
X339984Y219527D01*
X341385Y221953D01*
X342110Y224659D01*
Y227461D01*
X341385Y230167D01*
X339984Y232593D01*
X338003Y234574D01*
X335577Y235975D01*
X332871Y236700D01*
D02*
G37*
G36*
X764407Y250825D02*
X762133D01*
X760033Y249955D01*
X758425Y248347D01*
X757555Y246247D01*
Y243973D01*
X758425Y241873D01*
X759903Y240394D01*
Y221886D01*
X758425Y220407D01*
X757555Y218307D01*
Y216033D01*
X758425Y213933D01*
X760033Y212325D01*
X762133Y211455D01*
X764407D01*
X766507Y212325D01*
X768115Y213933D01*
X768985Y216033D01*
Y218307D01*
X768115Y220407D01*
X766637Y221886D01*
Y240394D01*
X768115Y241873D01*
X768985Y243973D01*
Y246247D01*
X768115Y248347D01*
X766507Y249955D01*
X764407Y250825D01*
D02*
G37*
G36*
X484001Y225270D02*
X481199D01*
X478493Y224545D01*
X476067Y223144D01*
X474086Y221163D01*
X472685Y218737D01*
X471960Y216031D01*
Y213229D01*
X472685Y210523D01*
X474086Y208097D01*
X476067Y206116D01*
X478493Y204715D01*
X481199Y203990D01*
X484001D01*
X486707Y204715D01*
X489133Y206116D01*
X491114Y208097D01*
X492515Y210523D01*
X493240Y213229D01*
Y216031D01*
X492515Y218737D01*
X491114Y221163D01*
X489133Y223144D01*
X486707Y224545D01*
X484001Y225270D01*
D02*
G37*
G36*
X831918Y215900D02*
X829242D01*
X826658Y215208D01*
X824342Y213870D01*
X822450Y211978D01*
X821112Y209662D01*
X820420Y207078D01*
Y204402D01*
X821112Y201818D01*
X822450Y199502D01*
X824342Y197610D01*
X826658Y196272D01*
X829242Y195580D01*
X831918D01*
X834502Y196272D01*
X836818Y197610D01*
X838710Y199502D01*
X840048Y201818D01*
X840740Y204402D01*
Y207078D01*
X840048Y209662D01*
X838710Y211978D01*
X836818Y213870D01*
X834502Y215208D01*
X831918Y215900D01*
D02*
G37*
G36*
X332871Y211300D02*
X330069D01*
X327363Y210575D01*
X324937Y209174D01*
X322956Y207193D01*
X321555Y204767D01*
X320830Y202061D01*
Y199259D01*
X321555Y196553D01*
X322956Y194127D01*
X324937Y192146D01*
X327363Y190745D01*
X330069Y190020D01*
X332871D01*
X335577Y190745D01*
X338003Y192146D01*
X339984Y194127D01*
X341385Y196553D01*
X342110Y199259D01*
Y202061D01*
X341385Y204767D01*
X339984Y207193D01*
X338003Y209174D01*
X335577Y210575D01*
X332871Y211300D01*
D02*
G37*
G36*
X48641Y200220D02*
X45339D01*
X42150Y199365D01*
X39290Y197714D01*
X36955Y195380D01*
X35305Y192520D01*
X34450Y189331D01*
Y186029D01*
X35305Y182840D01*
X36955Y179980D01*
X39290Y177645D01*
X42150Y175995D01*
X45339Y175140D01*
X48641D01*
X51830Y175995D01*
X54690Y177645D01*
X57024Y179980D01*
X58675Y182840D01*
X59530Y186029D01*
Y189331D01*
X58675Y192520D01*
X57024Y195380D01*
X54690Y197714D01*
X51830Y199365D01*
X48641Y200220D01*
D02*
G37*
G36*
X831918Y190500D02*
X829242D01*
X826658Y189808D01*
X824342Y188470D01*
X822450Y186578D01*
X821112Y184262D01*
X820420Y181678D01*
Y179002D01*
X821112Y176418D01*
X822450Y174102D01*
X824342Y172210D01*
X826658Y170872D01*
X829242Y170180D01*
X831918D01*
X834502Y170872D01*
X836818Y172210D01*
X838710Y174102D01*
X840048Y176418D01*
X840740Y179002D01*
Y181678D01*
X840048Y184262D01*
X838710Y186578D01*
X836818Y188470D01*
X834502Y189808D01*
X831918Y190500D01*
D02*
G37*
G36*
X332871Y185900D02*
X330069D01*
X327363Y185175D01*
X324937Y183774D01*
X322956Y181793D01*
X321555Y179367D01*
X320830Y176661D01*
Y173859D01*
X321555Y171153D01*
X322956Y168727D01*
X324937Y166746D01*
X327363Y165345D01*
X330069Y164620D01*
X332871D01*
X335577Y165345D01*
X338003Y166746D01*
X339984Y168727D01*
X341385Y171153D01*
X342110Y173859D01*
Y176661D01*
X341385Y179367D01*
X339984Y181793D01*
X338003Y183774D01*
X335577Y185175D01*
X332871Y185900D01*
D02*
G37*
G36*
X831918Y165100D02*
X829242D01*
X826658Y164408D01*
X824342Y163070D01*
X822450Y161178D01*
X821112Y158862D01*
X820420Y156278D01*
Y153602D01*
X821112Y151018D01*
X822450Y148702D01*
X824342Y146810D01*
X826658Y145472D01*
X829242Y144780D01*
X831918D01*
X834502Y145472D01*
X836818Y146810D01*
X838710Y148702D01*
X840048Y151018D01*
X840740Y153602D01*
Y156278D01*
X840048Y158862D01*
X838710Y161178D01*
X836818Y163070D01*
X834502Y164408D01*
X831918Y165100D01*
D02*
G37*
G36*
X48641Y165220D02*
X45339D01*
X42150Y164365D01*
X39290Y162715D01*
X36955Y160380D01*
X35305Y157520D01*
X34450Y154331D01*
Y151029D01*
X35305Y147840D01*
X36955Y144980D01*
X39290Y142646D01*
X42150Y140995D01*
X45339Y140140D01*
X48641D01*
X51830Y140995D01*
X54690Y142646D01*
X57024Y144980D01*
X58675Y147840D01*
X59530Y151029D01*
Y154331D01*
X58675Y157520D01*
X57024Y160380D01*
X54690Y162715D01*
X51830Y164365D01*
X48641Y165220D01*
D02*
G37*
G36*
X332871Y160500D02*
X330069D01*
X327363Y159775D01*
X324937Y158374D01*
X322956Y156393D01*
X321555Y153967D01*
X320830Y151261D01*
Y148459D01*
X321555Y145753D01*
X322956Y143327D01*
X324937Y141346D01*
X327363Y139945D01*
X330069Y139220D01*
X332871D01*
X335577Y139945D01*
X338003Y141346D01*
X339984Y143327D01*
X341385Y145753D01*
X342110Y148459D01*
Y151261D01*
X341385Y153967D01*
X339984Y156393D01*
X338003Y158374D01*
X335577Y159775D01*
X332871Y160500D01*
D02*
G37*
G36*
X700151Y55720D02*
X696849D01*
X693660Y54865D01*
X690800Y53215D01*
X688465Y50880D01*
X686815Y48020D01*
X685960Y44831D01*
Y41529D01*
X686815Y38340D01*
X688465Y35480D01*
X690800Y33145D01*
X693660Y31495D01*
X696849Y30640D01*
X700151D01*
X703340Y31495D01*
X706200Y33145D01*
X708534Y35480D01*
X710185Y38340D01*
X711040Y41529D01*
Y44831D01*
X710185Y48020D01*
X708534Y50880D01*
X706200Y53215D01*
X703340Y54865D01*
X700151Y55720D01*
D02*
G37*
G36*
X665151D02*
X661849D01*
X658660Y54865D01*
X655800Y53215D01*
X653466Y50880D01*
X651815Y48020D01*
X650960Y44831D01*
Y41529D01*
X651815Y38340D01*
X653466Y35480D01*
X655800Y33145D01*
X658660Y31495D01*
X661849Y30640D01*
X665151D01*
X668340Y31495D01*
X671200Y33145D01*
X673534Y35480D01*
X675185Y38340D01*
X676040Y41529D01*
Y44831D01*
X675185Y48020D01*
X673534Y50880D01*
X671200Y53215D01*
X668340Y54865D01*
X665151Y55720D01*
D02*
G37*
%LPD*%
D14*
X763270Y217170D02*
Y245110D01*
X835660Y509270D02*
Y534670D01*
X830580Y539750D02*
X835660Y534670D01*
X641350Y549910D02*
Y551180D01*
X637540Y546100D02*
X641350Y549910D01*
X637540Y520700D02*
Y546100D01*
D28*
X698500Y43180D02*
D03*
X663500D02*
D03*
X46990Y152680D02*
D03*
Y187680D02*
D03*
X438430Y575310D02*
D03*
X473430D02*
D03*
D29*
X482600Y214630D02*
D03*
Y240030D02*
D03*
Y265430D02*
D03*
Y290830D02*
D03*
X331470Y149860D02*
D03*
Y175260D02*
D03*
Y200660D02*
D03*
Y226060D02*
D03*
Y251460D02*
D03*
Y276860D02*
D03*
Y302260D02*
D03*
D30*
X853440Y577850D02*
D03*
X603540D02*
D03*
X295010Y580390D02*
D03*
X45110D02*
D03*
D31*
X771790Y552450D02*
D03*
X213360Y554990D02*
D03*
D32*
X748890Y552450D02*
D03*
X725990D02*
D03*
X703090D02*
D03*
X680190D02*
D03*
X783240Y577850D02*
D03*
X760340D02*
D03*
X737440D02*
D03*
X714540D02*
D03*
X691640D02*
D03*
X771790Y603250D02*
D03*
X748890D02*
D03*
X725990D02*
D03*
X703090D02*
D03*
X680190D02*
D03*
X190460Y554990D02*
D03*
X167560D02*
D03*
X144660D02*
D03*
X121760D02*
D03*
X224810Y580390D02*
D03*
X201910D02*
D03*
X179010D02*
D03*
X156110D02*
D03*
X133210D02*
D03*
X213360Y605790D02*
D03*
X190460D02*
D03*
X167560D02*
D03*
X144660D02*
D03*
X121760D02*
D03*
D33*
X830580Y154940D02*
D03*
Y180340D02*
D03*
Y205740D02*
D03*
Y231140D02*
D03*
Y281940D02*
D03*
Y256540D02*
D03*
D34*
X763270Y217170D02*
D03*
Y245110D02*
D03*
X835660Y509270D02*
D03*
X830580Y539750D02*
D03*
X641350Y551180D02*
D03*
X637540Y520700D02*
D03*
X384810Y483870D02*
D03*
X514350Y429260D02*
D03*
X720090Y379730D02*
D03*
X95250Y323850D02*
D03*
M02*
