G04*
G04 #@! TF.GenerationSoftware,Altium Limited,Altium Designer,26.4.1 (12)*
G04*
G04 Layer_Color=16711935*
%FSLAX44Y44*%
%MOMM*%
G71*
G04*
G04 #@! TF.SameCoordinates,B3F30C21-9039-4435-91B7-67955DBA707D*
G04*
G04*
G04 #@! TF.FilePolarity,Negative*
G04*
G01*
G75*
%ADD26C,0.0000*%
%ADD34C,1.8232*%
%ADD35C,2.2032*%
%ADD36C,2.9464*%
%ADD37R,2.9464X2.9464*%
%ADD38C,0.8382*%
D26*
X1036041Y90170D02*
G03*
X1036041Y90170I-8611J0D01*
G01*
X1061441D02*
G03*
X1061441Y90170I-8611J0D01*
G01*
X981431Y247650D02*
G03*
X981431Y247650I-8611J0D01*
G01*
X956031D02*
G03*
X956031Y247650I-8611J0D01*
G01*
X547091Y904240D02*
G03*
X547091Y904240I-8611J0D01*
G01*
X521691D02*
G03*
X521691Y904240I-8611J0D01*
G01*
X638531D02*
G03*
X638531Y904240I-8611J0D01*
G01*
X663931D02*
G03*
X663931Y904240I-8611J0D01*
G01*
X486131Y782320D02*
G03*
X486131Y782320I-8611J0D01*
G01*
Y807720D02*
G03*
X486131Y807720I-8611J0D01*
G01*
X1032231Y960120D02*
G03*
X1032231Y960120I-8611J0D01*
G01*
X1006831D02*
G03*
X1006831Y960120I-8611J0D01*
G01*
X851891Y906780D02*
G03*
X851891Y906780I-8611J0D01*
G01*
X826491D02*
G03*
X826491Y906780I-8611J0D01*
G01*
X832841Y189230D02*
G03*
X832841Y189230I-8611J0D01*
G01*
X807441D02*
G03*
X807441Y189230I-8611J0D01*
G01*
X628371Y121920D02*
G03*
X628371Y121920I-8611J0D01*
G01*
Y147320D02*
G03*
X628371Y147320I-8611J0D01*
G01*
X839191Y812800D02*
G03*
X839191Y812800I-8611J0D01*
G01*
Y787400D02*
G03*
X839191Y787400I-8611J0D01*
G01*
X295631Y391160D02*
G03*
X295631Y391160I-8611J0D01*
G01*
Y416560D02*
G03*
X295631Y416560I-8611J0D01*
G01*
X1075411Y233680D02*
G03*
X1075411Y233680I-8611J0D01*
G01*
Y259080D02*
G03*
X1075411Y259080I-8611J0D01*
G01*
X371831Y866140D02*
G03*
X371831Y866140I-8611J0D01*
G01*
X346431D02*
G03*
X346431Y866140I-8611J0D01*
G01*
X127991Y469900D02*
G03*
X127991Y469900I-8611J0D01*
G01*
Y444500D02*
G03*
X127991Y444500I-8611J0D01*
G01*
X437871Y121920D02*
G03*
X437871Y121920I-8611J0D01*
G01*
Y147320D02*
G03*
X437871Y147320I-8611J0D01*
G01*
X289281Y138430D02*
G03*
X289281Y138430I-8611J0D01*
G01*
Y163830D02*
G03*
X289281Y163830I-8611J0D01*
G01*
X144501Y135890D02*
G03*
X144501Y135890I-8611J0D01*
G01*
Y161290D02*
G03*
X144501Y161290I-8611J0D01*
G01*
D34*
X1052830Y90170D02*
D03*
X1027430D02*
D03*
X1066800Y233680D02*
D03*
X513080Y904240D02*
D03*
X135890Y161290D02*
D03*
X280670Y163830D02*
D03*
X119380Y444500D02*
D03*
X429260Y147320D02*
D03*
X619760D02*
D03*
X287020Y416560D02*
D03*
X629920Y904240D02*
D03*
X798830Y189230D02*
D03*
X972820Y247650D02*
D03*
X1066800Y259080D02*
D03*
X817880Y906780D02*
D03*
X947420Y247650D02*
D03*
X538480Y904240D02*
D03*
X655320D02*
D03*
X998220Y960120D02*
D03*
X843280Y906780D02*
D03*
X477520Y782320D02*
D03*
Y807720D02*
D03*
X1023620Y960120D02*
D03*
X824230Y189230D02*
D03*
X619760Y121920D02*
D03*
X830580Y812800D02*
D03*
Y787400D02*
D03*
X287020Y391160D02*
D03*
X363220Y866140D02*
D03*
X337820D02*
D03*
X119380Y469900D02*
D03*
X429260Y121920D02*
D03*
X280670Y138430D02*
D03*
X135890Y135890D02*
D03*
D35*
X1178560Y231420D02*
D03*
Y89460D02*
D03*
Y124460D02*
D03*
X508280Y972820D02*
D03*
X169900Y46990D02*
D03*
X45720Y444780D02*
D03*
X464540Y45720D02*
D03*
X314960Y46990D02*
D03*
X622580Y972820D02*
D03*
X655040Y45720D02*
D03*
X808280Y970280D02*
D03*
X1178560Y266420D02*
D03*
X657580Y972820D02*
D03*
X543280D02*
D03*
X843280Y970280D02*
D03*
X279960Y46990D02*
D03*
X429540Y45720D02*
D03*
X620040D02*
D03*
X134900Y46990D02*
D03*
X45720Y479780D02*
D03*
D36*
X1183640Y880110D02*
D03*
D37*
Y962660D02*
D03*
D38*
X50800Y601980D02*
D03*
X946150Y382270D02*
D03*
X208280Y421640D02*
D03*
X452120Y415290D02*
D03*
X168910Y764540D02*
D03*
X246380Y718820D02*
D03*
X618490Y723900D02*
D03*
X212090Y925830D02*
D03*
X318770Y808990D02*
D03*
X668020Y567690D02*
D03*
X778510Y133350D02*
D03*
X636270Y622300D02*
D03*
X1000760Y190500D02*
D03*
X741680Y684530D02*
D03*
X972820Y749300D02*
D03*
X960120Y932180D02*
D03*
X996950Y645160D02*
D03*
X1068070Y656590D02*
D03*
X1132840Y756920D02*
D03*
M02*
